<?xml version="1.0" encoding="utf-8"?>
<svg width="71px" height="81px" viewBox="0 0 71 81" version="1.1" xmlns:xlink="http://www.w3.org/1999/xlink" xmlns="http://www.w3.org/2000/svg">
  <defs>
    <linearGradient x1="0.9361572" y1="0.5" x2="-0.09641552" y2="0.14649872" id="gradient_1">
      <stop offset="0" stop-color="#F4A440" />
      <stop offset="1" stop-color="#FAD165" />
    </linearGradient>
    <linearGradient x1="0.39087066" y1="0.085366316" x2="0.5" y2="0.46062934" id="gradient_2">
      <stop offset="0" stop-color="#FFFFFF" />
      <stop offset="1" stop-color="#979797" stop-opacity="0" />
    </linearGradient>
    <path d="M41.801 1.90091L64.7378 15.5061Q65.0855 15.7124 65.4192 15.9407Q65.7529 16.169 66.0711 16.4184Q66.3893 16.6679 66.6908 16.9374Q66.9922 17.2069 67.2756 17.4953Q67.5589 17.7837 67.823 18.0898Q68.0872 18.396 68.3309 18.7185Q68.5747 19.0411 68.7971 19.3788Q69.0195 19.7164 69.2196 20.0678Q69.4197 20.4191 69.5967 20.7827Q69.7736 21.1462 69.9267 21.5205Q70.0798 21.8947 70.2083 22.278Q70.3369 22.6614 70.4404 23.0522Q70.5439 23.4431 70.6219 23.8398Q70.6999 24.2365 70.7521 24.6375Q70.8043 25.0384 70.8304 25.4419Q70.8566 25.8454 70.8566 26.2497L70.8566 54.0505Q70.8566 54.4548 70.8304 54.8583Q70.8043 55.2618 70.7521 55.6627Q70.6999 56.0637 70.6219 56.4604Q70.5439 56.8571 70.4404 57.248Q70.3369 57.6389 70.2083 58.0222Q70.0798 58.4056 69.9267 58.7798Q69.7736 59.154 69.5967 59.5176Q69.4197 59.8811 69.2196 60.2324Q69.0195 60.5838 68.7971 60.9215Q68.5747 61.2591 68.3309 61.5817Q68.0872 61.9043 67.823 62.2104Q67.5589 62.5166 67.2756 62.805Q66.9922 63.0934 66.6908 63.3629Q66.3893 63.6324 66.0711 63.8818Q65.7529 64.1312 65.4192 64.3596Q65.0855 64.5879 64.7378 64.7942L41.801 78.3993Q41.4414 78.6126 41.0683 78.8014Q40.6952 78.9902 40.3103 79.1536Q39.9254 79.3171 39.5305 79.4544Q39.1355 79.5917 38.7323 79.7023Q38.3291 79.8129 37.9193 79.8963Q37.5096 79.9797 37.0952 80.0354Q36.6808 80.0912 36.2636 80.1192Q35.8464 80.1472 35.4283 80.1472Q35.0102 80.1472 34.593 80.1192Q34.1758 80.0912 33.7614 80.0354Q33.347 79.9797 32.9372 79.8963Q32.5275 79.8129 32.1243 79.7023Q31.721 79.5917 31.3261 79.4544Q30.9311 79.3171 30.5463 79.1536Q30.1614 78.9902 29.7883 78.8014Q29.4152 78.6126 29.0556 78.3993L6.11879 64.7942Q5.77103 64.5879 5.43735 64.3595Q5.10366 64.1312 4.78544 63.8818Q4.46722 63.6324 4.1658 63.3629Q3.86437 63.0934 3.58101 62.805Q3.29764 62.5166 3.03352 62.2104Q2.7694 61.9043 2.52562 61.5817Q2.28185 61.2591 2.05945 60.9215Q1.83705 60.5838 1.63695 60.2324Q1.43686 59.8811 1.2599 59.5176Q1.08294 59.154 0.929861 58.7798Q0.776782 58.4056 0.648226 58.0222Q0.519669 57.6389 0.416171 57.248Q0.312674 56.8571 0.234669 56.4604Q0.156665 56.0637 0.10448 55.6627Q0.0522946 55.2618 0.0261473 54.8583Q3.76892e-14 54.4548 3.74717e-14 54.0505L2.25116e-14 26.2497Q2.2294e-14 25.8454 0.0261473 25.4419Q0.0522946 25.0384 0.10448 24.6375Q0.156665 24.2365 0.234669 23.8398Q0.312674 23.4431 0.416171 23.0522Q0.519669 22.6614 0.648226 22.278Q0.776783 21.8947 0.929861 21.5205Q1.08294 21.1462 1.2599 20.7827Q1.43686 20.4191 1.63695 20.0678Q1.83705 19.7164 2.05945 19.3788Q2.28185 19.0411 2.52563 18.7185Q2.7694 18.396 3.03352 18.0898Q3.29764 17.7837 3.58101 17.4953Q3.86437 17.2069 4.1658 16.9374Q4.46722 16.6679 4.78544 16.4184Q5.10366 16.169 5.43735 15.9407Q5.77103 15.7124 6.11879 15.5061L29.0556 1.90091Q29.4152 1.68759 29.7883 1.4988Q30.1614 1.31001 30.5463 1.14659Q30.9311 0.983177 31.3261 0.845862Q31.721 0.708547 32.1243 0.597951Q32.5275 0.487354 32.9372 0.40397Q33.347 0.320587 33.7614 0.264789Q34.1758 0.208992 34.593 0.18103Q35.0102 0.153069 35.4283 0.153069Q35.8464 0.153069 36.2636 0.18103Q36.6808 0.208992 37.0952 0.264789Q37.5096 0.320587 37.9193 0.40397Q38.3291 0.487354 38.7323 0.597951Q39.1355 0.708547 39.5305 0.845862Q39.9254 0.983177 40.3103 1.14659Q40.6952 1.31001 41.0683 1.4988Q41.4414 1.68759 41.801 1.90091Z" id="path_1" />
    <path d="M30.9825 1.84715L43.1839 8.95785Q43.5359 9.16295 43.8737 9.39055Q44.2115 9.61814 44.5338 9.86726Q44.8561 10.1164 45.1615 10.386Q45.4668 10.6556 45.754 10.9445Q46.0411 11.2334 46.3089 11.5404Q46.5766 11.8474 46.8237 12.1712Q47.0709 12.495 47.2964 12.8342Q47.522 13.1734 47.7249 13.5266Q47.9279 13.8798 48.1074 14.2454Q48.2869 14.6111 48.4422 14.9876Q48.5975 15.3642 48.728 15.7501Q48.8584 16.136 48.9634 16.5296Q49.0685 16.9231 49.1476 17.3227Q49.2268 17.7223 49.2798 18.1262Q49.3327 18.53 49.3593 18.9365Q49.3858 19.343 49.3858 19.7503L49.3858 34.1749Q49.3858 34.5822 49.3593 34.9887Q49.3327 35.3951 49.2798 35.799Q49.2268 36.2029 49.1476 36.6025Q49.0685 37.0021 48.9634 37.3956Q48.8584 37.7892 48.728 38.1751Q48.5975 38.561 48.4422 38.9376Q48.2869 39.3141 48.1074 39.6798Q47.9279 40.0454 47.7249 40.3986Q47.522 40.7518 47.2964 41.091Q47.0709 41.4302 46.8237 41.754Q46.5766 42.0778 46.3089 42.3848Q46.0411 42.6918 45.754 42.9807Q45.4668 43.2696 45.1615 43.5392Q44.8561 43.8088 44.5338 44.0579Q44.2115 44.307 43.8737 44.5346Q43.5359 44.7622 43.1839 44.9673L30.9825 52.078Q30.6265 52.2856 30.2575 52.4691Q29.8886 52.6527 29.5083 52.8116Q29.1281 52.9704 28.7382 53.1039Q28.3483 53.2373 27.9504 53.3448Q27.5526 53.4523 27.1485 53.5333Q26.7445 53.6143 26.3359 53.6685Q25.9274 53.7227 25.5162 53.7499Q25.105 53.777 24.6929 53.777Q24.2808 53.777 23.8696 53.7499Q23.4584 53.7227 23.0499 53.6685Q22.6413 53.6143 22.2373 53.5333Q21.8332 53.4523 21.4354 53.3448Q21.0375 53.2373 20.6476 53.1039Q20.2577 52.9704 19.8775 52.8116Q19.4972 52.6527 19.1283 52.4691Q18.7593 52.2856 18.4033 52.078L6.20187 44.9673Q5.84993 44.7622 5.5121 44.5346Q5.17427 44.307 4.85199 44.0579Q4.52971 43.8088 4.22434 43.5392Q3.91897 43.2696 3.63181 42.9807Q3.34466 42.6918 3.07693 42.3848Q2.80921 42.0778 2.56206 41.754Q2.3149 41.4302 2.08937 41.091Q1.86384 40.7518 1.66088 40.3986Q1.45793 40.0454 1.27842 39.6798Q1.0989 39.3141 0.943592 38.9376Q0.788282 38.561 0.657836 38.1751Q0.52739 37.7892 0.422361 37.3956Q0.317333 37.0021 0.238169 36.6025Q0.159004 36.2029 0.10604 35.799Q0.0530766 35.3951 0.0265383 34.9887Q1.0523e-14 34.5822 1.02902e-14 34.1749L2.04636e-15 19.7503Q1.81356e-15 19.343 0.0265383 18.9365Q0.0530766 18.53 0.10604 18.1262Q0.159004 17.7223 0.238169 17.3227Q0.317333 16.9231 0.422361 16.5296Q0.52739 16.136 0.657836 15.7501Q0.788282 15.3642 0.943592 14.9876Q1.0989 14.6111 1.27842 14.2454Q1.45793 13.8798 1.66088 13.5266Q1.86384 13.1734 2.08937 12.8342Q2.3149 12.495 2.56206 12.1712Q2.80921 11.8474 3.07693 11.5404Q3.34466 11.2334 3.63181 10.9445Q3.91897 10.6556 4.22434 10.386Q4.52971 10.1164 4.85199 9.86726Q5.17427 9.61814 5.5121 9.39055Q5.84993 9.16295 6.20187 8.95785L18.4033 1.84715Q18.7593 1.63965 19.1283 1.45607Q19.4972 1.27249 19.8775 1.11363Q20.2577 0.954765 20.6476 0.821309Q21.0375 0.687854 21.4354 0.580386Q21.8332 0.472918 22.2373 0.391906Q22.6413 0.310894 23.0499 0.256689Q23.4584 0.202484 23.8696 0.175323Q24.2808 0.148161 24.6929 0.148161Q25.105 0.148161 25.5162 0.175323Q25.9274 0.202484 26.3359 0.256689Q26.7445 0.310894 27.1485 0.391906Q27.5526 0.472918 27.9504 0.580386Q28.3483 0.687854 28.7382 0.82131Q29.1281 0.954765 29.5083 1.11363Q29.8886 1.27249 30.2575 1.45607Q30.6265 1.63965 30.9825 1.84715Z" transform="translate(11.336487 13.921875)" id="path_2" />
    <clipPath id="mask_1">
      <use xlink:href="#path_1" />
    </clipPath>
    <clipPath id="mask_2">
      <use xlink:href="#path_2" />
    </clipPath>
  </defs>
  <g id="Group-5">
    <g id="Polygon">
      <use stroke="none" fill="url(#gradient_1)" fill-opacity="0.40087184" xlink:href="#path_1" fill-rule="evenodd" />
      <g clip-path="url(#mask_1)">
        <use xlink:href="#path_1" fill="none" stroke="url(#gradient_2)" stroke-opacity="0.080157444" stroke-width="1.9219198" />
      </g>
    </g>
    <path d="M30.9825 1.84715L43.1839 8.95785Q43.5359 9.16295 43.8737 9.39055Q44.2115 9.61814 44.5338 9.86726Q44.8561 10.1164 45.1615 10.386Q45.4668 10.6556 45.754 10.9445Q46.0411 11.2334 46.3089 11.5404Q46.5766 11.8474 46.8237 12.1712Q47.0709 12.495 47.2964 12.8342Q47.522 13.1734 47.7249 13.5266Q47.9279 13.8798 48.1074 14.2454Q48.2869 14.6111 48.4422 14.9876Q48.5975 15.3642 48.728 15.7501Q48.8584 16.136 48.9634 16.5296Q49.0685 16.9231 49.1476 17.3227Q49.2268 17.7223 49.2798 18.1262Q49.3327 18.53 49.3593 18.9365Q49.3858 19.343 49.3858 19.7503L49.3858 34.1749Q49.3858 34.5822 49.3593 34.9887Q49.3327 35.3951 49.2798 35.799Q49.2268 36.2029 49.1476 36.6025Q49.0685 37.0021 48.9634 37.3956Q48.8584 37.7892 48.728 38.1751Q48.5975 38.561 48.4422 38.9376Q48.2869 39.3141 48.1074 39.6798Q47.9279 40.0454 47.7249 40.3986Q47.522 40.7518 47.2964 41.091Q47.0709 41.4302 46.8237 41.754Q46.5766 42.0778 46.3089 42.3848Q46.0411 42.6918 45.754 42.9807Q45.4668 43.2696 45.1615 43.5392Q44.8561 43.8088 44.5338 44.0579Q44.2115 44.307 43.8737 44.5346Q43.5359 44.7622 43.1839 44.9673L30.9825 52.078Q30.6265 52.2856 30.2575 52.4691Q29.8886 52.6527 29.5083 52.8116Q29.1281 52.9704 28.7382 53.1039Q28.3483 53.2373 27.9504 53.3448Q27.5526 53.4523 27.1485 53.5333Q26.7445 53.6143 26.3359 53.6685Q25.9274 53.7227 25.5162 53.7499Q25.105 53.777 24.6929 53.777Q24.2808 53.777 23.8696 53.7499Q23.4584 53.7227 23.0499 53.6685Q22.6413 53.6143 22.2373 53.5333Q21.8332 53.4523 21.4354 53.3448Q21.0375 53.2373 20.6476 53.1039Q20.2577 52.9704 19.8775 52.8116Q19.4972 52.6527 19.1283 52.4691Q18.7593 52.2856 18.4033 52.078L6.20187 44.9673Q5.84993 44.7622 5.5121 44.5346Q5.17427 44.307 4.85199 44.0579Q4.52971 43.8088 4.22434 43.5392Q3.91897 43.2696 3.63181 42.9807Q3.34466 42.6918 3.07693 42.3848Q2.80921 42.0778 2.56206 41.754Q2.3149 41.4302 2.08937 41.091Q1.86384 40.7518 1.66088 40.3986Q1.45793 40.0454 1.27842 39.6798Q1.0989 39.3141 0.943592 38.9376Q0.788282 38.561 0.657836 38.1751Q0.52739 37.7892 0.422361 37.3956Q0.317333 37.0021 0.238169 36.6025Q0.159004 36.2029 0.10604 35.799Q0.0530766 35.3951 0.0265383 34.9887Q1.0523e-14 34.5822 1.02902e-14 34.1749L2.04636e-15 19.7503Q1.81356e-15 19.343 0.0265383 18.9365Q0.0530766 18.53 0.10604 18.1262Q0.159004 17.7223 0.238169 17.3227Q0.317333 16.9231 0.422361 16.5296Q0.52739 16.136 0.657836 15.7501Q0.788282 15.3642 0.943592 14.9876Q1.0989 14.6111 1.27842 14.2454Q1.45793 13.8798 1.66088 13.5266Q1.86384 13.1734 2.08937 12.8342Q2.3149 12.495 2.56206 12.1712Q2.80921 11.8474 3.07693 11.5404Q3.34466 11.2334 3.63181 10.9445Q3.91897 10.6556 4.22434 10.386Q4.52971 10.1164 4.85199 9.86726Q5.17427 9.61814 5.5121 9.39055Q5.84993 9.16295 6.20187 8.95785L18.4033 1.84715Q18.7593 1.63965 19.1283 1.45607Q19.4972 1.27249 19.8775 1.11363Q20.2577 0.954765 20.6476 0.821309Q21.0375 0.687854 21.4354 0.580386Q21.8332 0.472918 22.2373 0.391906Q22.6413 0.310894 23.0499 0.256689Q23.4584 0.202484 23.8696 0.175323Q24.2808 0.148161 24.6929 0.148161Q25.105 0.148161 25.5162 0.175323Q25.9274 0.202484 26.3359 0.256689Q26.7445 0.310894 27.1485 0.391906Q27.5526 0.472918 27.9504 0.580386Q28.3483 0.687854 28.7382 0.82131Q29.1281 0.954765 29.5083 1.11363Q29.8886 1.27249 30.2575 1.45607Q30.6265 1.63965 30.9825 1.84715Z" transform="translate(11.336487 13.921875)" id="Polygon-Copy-3" fill="url(#gradient_1)" fill-rule="evenodd" stroke="none" />
  </g>
</svg>