<?xml version="1.0" encoding="utf-8"?>
<svg width="65px" height="75px" viewBox="0 0 65 75" version="1.1" xmlns:xlink="http://www.w3.org/1999/xlink" xmlns="http://www.w3.org/2000/svg">
  <defs>
    <linearGradient x1="0.5" y1="0.68922687" x2="0.5" y2="0.13072154" id="gradient_1">
      <stop offset="0" stop-color="#5538FF" />
      <stop offset="1" stop-color="#42B7FF" />
    </linearGradient>
    <linearGradient x1="0.39087066" y1="0.085366316" x2="0.5" y2="0.46062934" id="gradient_2">
      <stop offset="0" stop-color="#FFFFFF" />
      <stop offset="1" stop-color="#979797" stop-opacity="0" />
    </linearGradient>
    <linearGradient x1="0" y1="1" x2="0.69668114" y2="0.15697333" id="gradient_3">
      <stop offset="0" stop-color="#5538FF" />
      <stop offset="1" stop-color="#42B7FF" />
    </linearGradient>
    <linearGradient x1="0.2834335" y1="0.91909003" x2="0.7234419" y2="-0.05910852" id="gradient_4">
      <stop offset="0" stop-color="#000000" stop-opacity="0" />
      <stop offset="1" stop-color="#FFFFFF" />
    </linearGradient>
    <linearGradient x1="1" y1="1" x2="0.5" y2="0.13072154" id="gradient_5">
      <stop offset="0" stop-color="#5538FF" />
      <stop offset="1" stop-color="#42B7FF" />
    </linearGradient>
    <linearGradient x1="0.7306128" y1="0.7894457" x2="0.43660608" y2="-0.2100479" id="gradient_6">
      <stop offset="0" stop-color="#ED466F" />
      <stop offset="1" stop-color="#FAD165" />
    </linearGradient>
    <path d="M38.0167 2.10139L59.4981 14.8008Q59.8039 14.9815 60.0973 15.1817Q60.3907 15.3819 60.6706 15.6007Q60.9504 15.8195 61.2155 16.0559Q61.4806 16.2923 61.7298 16.5455Q61.979 16.7986 62.2113 17.0673Q62.4436 17.336 62.6581 17.6192Q62.8725 17.9024 63.0681 18.1989Q63.2637 18.4954 63.4398 18.8039Q63.6158 19.1124 63.7714 19.4317Q63.9271 19.751 64.0618 20.0797Q64.1964 20.4084 64.3095 20.7451Q64.4226 21.0818 64.5137 21.4252Q64.6047 21.7685 64.6733 22.117Q64.742 22.4656 64.7879 22.8178Q64.8338 23.17 64.8568 23.5245Q64.8798 23.879 64.8798 24.2342L64.8798 50.0863Q64.8798 50.4415 64.8568 50.796Q64.8338 51.1504 64.7879 51.5027Q64.742 51.8549 64.6733 52.2034Q64.6047 52.552 64.5137 52.8953Q64.4226 53.2386 64.3095 53.5754Q64.1964 53.9121 64.0618 54.2408Q63.9271 54.5695 63.7714 54.8888Q63.6158 55.208 63.4397 55.5166Q63.2637 55.8251 63.0681 56.1216Q62.8725 56.4181 62.6581 56.7013Q62.4436 56.9845 62.2113 57.2532Q61.979 57.5219 61.7298 57.775Q61.4806 58.0281 61.2155 58.2646Q60.9504 58.501 60.6706 58.7198Q60.3907 58.9385 60.0973 59.1387Q59.8039 59.3389 59.4981 59.5197L38.0167 72.2191Q37.7018 72.4052 37.3752 72.57Q37.0486 72.7347 36.7117 72.8773Q36.3749 73.0199 36.0292 73.1398Q35.6836 73.2596 35.3307 73.3561Q34.9779 73.4526 34.6193 73.5253Q34.2608 73.5981 33.8983 73.6468Q33.5357 73.6955 33.1707 73.7199Q32.8057 73.7442 32.4399 73.7442Q32.0741 73.7442 31.7091 73.7199Q31.3441 73.6955 30.9815 73.6468Q30.6189 73.5981 30.2604 73.5253Q29.9019 73.4526 29.5491 73.3561Q29.1962 73.2596 28.8506 73.1398Q28.5049 73.0199 28.1681 72.8773Q27.8312 72.7347 27.5046 72.57Q27.178 72.4052 26.863 72.2191L5.38171 59.5197Q5.07593 59.3389 4.78251 59.1387Q4.48908 58.9385 4.20924 58.7198Q3.92939 58.501 3.6643 58.2646Q3.39921 58.0281 3.14999 57.775Q2.90077 57.5219 2.66846 57.2532Q2.43615 56.9845 2.22174 56.7013Q2.00732 56.4181 1.81169 56.1216Q1.61606 55.8251 1.44004 55.5166Q1.26403 55.208 1.10836 54.8888Q0.952693 54.5695 0.81803 54.2408Q0.683366 53.9121 0.570272 53.5754Q0.457178 53.2386 0.366127 52.8953Q0.275077 52.552 0.206452 52.2034Q0.137828 51.8549 0.0919173 51.5027Q0.0460069 51.1504 0.0230035 50.796Q2.3828e-14 50.4415 2.36362e-14 50.0863L9.67817e-15 24.2342Q9.48639e-15 23.879 0.0230035 23.5245Q0.0460069 23.17 0.0919173 22.8178Q0.137828 22.4656 0.206452 22.117Q0.275077 21.7685 0.366127 21.4252Q0.457178 21.0818 0.570272 20.7451Q0.683366 20.4084 0.81803 20.0797Q0.952693 19.751 1.10836 19.4317Q1.26403 19.1124 1.44004 18.8039Q1.61606 18.4954 1.81169 18.1989Q2.00732 17.9024 2.22174 17.6192Q2.43615 17.336 2.66846 17.0673Q2.90077 16.7986 3.14999 16.5455Q3.39921 16.2923 3.6643 16.0559Q3.92939 15.8195 4.20924 15.6007Q4.48908 15.3819 4.78251 15.1817Q5.07593 14.9815 5.38171 14.8008L26.863 2.10139Q27.178 1.91523 27.5046 1.75048Q27.8312 1.58573 28.1681 1.44313Q28.5049 1.30053 28.8506 1.18071Q29.1962 1.06089 29.5491 0.96439Q29.9019 0.867889 30.2604 0.795135Q30.619 0.722381 30.9815 0.673698Q31.3441 0.625014 31.7091 0.600618Q32.0741 0.576222 32.4399 0.576222Q32.8057 0.576222 33.1707 0.600618Q33.5357 0.625014 33.8983 0.673698Q34.2608 0.722381 34.6194 0.795135Q34.9779 0.86789 35.3307 0.96439Q35.6836 1.06089 36.0292 1.18071Q36.3749 1.30053 36.7117 1.44313Q37.0486 1.58573 37.3752 1.75048Q37.7018 1.91523 38.0167 2.10139Z" id="path_1" />
    <path d="M32.9897 -3.29932e-14L32.9897 37.7274L1.63185e-14 56.5912L2.65718e-13 18.8637L32.9897 -3.29932e-14Z" transform="translate(32.989746 17.7417)" id="path_2" />
    <clipPath id="clip_1">
      <use xlink:href="#path_2" />
    </clipPath>
    <clipPath id="mask_1">
      <use xlink:href="#path_1" />
    </clipPath>
  </defs>
  <g id="Group-3">
    <g id="Polygon">
      <use stroke="none" fill="url(#gradient_1)" xlink:href="#path_1" fill-rule="evenodd" />
      <g clip-path="url(#mask_1)">
        <use xlink:href="#path_1" fill="none" stroke="url(#gradient_2)" stroke-opacity="0.19995777" stroke-width="1.6860855" />
      </g>
    </g>
    <g clip-path="url(#mask_1)">
      <g id="Polygon">
        <use stroke="none" fill="url(#gradient_3)" xlink:href="#path_2" fill-rule="evenodd" />
        <g clip-path="url(#clip_1)">
          <use xlink:href="#path_2" fill="none" stroke="url(#gradient_4)" stroke-opacity="0.11386191" stroke-width="1.6860855" />
        </g>
      </g>
      <path d="M32.9897 18.8637L32.9897 56.5912L6.56691e-14 37.7274L4.4876e-14 3.29932e-14L32.9897 18.8637Z" transform="translate(0 17.7417)" id="Polygon" fill="url(#gradient_5)" fill-rule="evenodd" stroke="none" />
    </g>
    <path d="M38.0167 2.10139L59.4981 14.8008Q59.8039 14.9815 60.0973 15.1817Q60.3907 15.3819 60.6706 15.6007Q60.9504 15.8195 61.2155 16.0559Q61.4806 16.2923 61.7298 16.5455Q61.979 16.7986 62.2113 17.0673Q62.4436 17.336 62.6581 17.6192Q62.8725 17.9024 63.0681 18.1989Q63.2637 18.4954 63.4398 18.8039Q63.6158 19.1124 63.7714 19.4317Q63.9271 19.751 64.0618 20.0797Q64.1964 20.4084 64.3095 20.7451Q64.4226 21.0818 64.5137 21.4252Q64.6047 21.7685 64.6733 22.117Q64.742 22.4656 64.7879 22.8178Q64.8338 23.17 64.8568 23.5245Q64.8798 23.879 64.8798 24.2342L64.8798 50.0863Q64.8798 50.4415 64.8568 50.796Q64.8338 51.1504 64.7879 51.5027Q64.742 51.8549 64.6733 52.2034Q64.6047 52.552 64.5137 52.8953Q64.4226 53.2386 64.3095 53.5754Q64.1964 53.9121 64.0618 54.2408Q63.9271 54.5695 63.7714 54.8888Q63.6158 55.208 63.4397 55.5166Q63.2637 55.8251 63.0681 56.1216Q62.8725 56.4181 62.6581 56.7013Q62.4436 56.9845 62.2113 57.2532Q61.979 57.5219 61.7298 57.775Q61.4806 58.0281 61.2155 58.2646Q60.9504 58.501 60.6706 58.7198Q60.3907 58.9385 60.0973 59.1387Q59.8039 59.3389 59.4981 59.5197L38.0167 72.2191Q37.7018 72.4052 37.3752 72.57Q37.0486 72.7347 36.7117 72.8773Q36.3749 73.0199 36.0292 73.1398Q35.6836 73.2596 35.3307 73.3561Q34.9779 73.4526 34.6193 73.5253Q34.2608 73.5981 33.8983 73.6468Q33.5357 73.6955 33.1707 73.7199Q32.8057 73.7442 32.4399 73.7442Q32.0741 73.7442 31.7091 73.7199Q31.3441 73.6955 30.9815 73.6468Q30.6189 73.5981 30.2604 73.5253Q29.9019 73.4526 29.5491 73.3561Q29.1962 73.2596 28.8506 73.1398Q28.5049 73.0199 28.1681 72.8773Q27.8312 72.7347 27.5046 72.57Q27.178 72.4052 26.863 72.2191L5.38171 59.5197Q5.07593 59.3389 4.78251 59.1387Q4.48908 58.9385 4.20924 58.7198Q3.92939 58.501 3.6643 58.2646Q3.39921 58.0281 3.14999 57.775Q2.90077 57.5219 2.66846 57.2532Q2.43615 56.9845 2.22174 56.7013Q2.00732 56.4181 1.81169 56.1216Q1.61606 55.8251 1.44004 55.5166Q1.26403 55.208 1.10836 54.8888Q0.952693 54.5695 0.81803 54.2408Q0.683366 53.9121 0.570272 53.5754Q0.457178 53.2386 0.366127 52.8953Q0.275077 52.552 0.206452 52.2034Q0.137828 51.8549 0.0919173 51.5027Q0.0460069 51.1504 0.0230035 50.796Q2.3828e-14 50.4415 2.36362e-14 50.0863L9.67817e-15 24.2342Q9.48639e-15 23.879 0.0230035 23.5245Q0.0460069 23.17 0.0919173 22.8178Q0.137828 22.4656 0.206452 22.117Q0.275077 21.7685 0.366127 21.4252Q0.457178 21.0818 0.570272 20.7451Q0.683366 20.4084 0.81803 20.0797Q0.952693 19.751 1.10836 19.4317Q1.26403 19.1124 1.44004 18.8039Q1.61606 18.4954 1.81169 18.1989Q2.00732 17.9024 2.22174 17.6192Q2.43615 17.336 2.66846 17.0673Q2.90077 16.7986 3.14999 16.5455Q3.39921 16.2923 3.6643 16.0559Q3.92939 15.8195 4.20924 15.6007Q4.48908 15.3819 4.78251 15.1817Q5.07593 14.9815 5.38171 14.8008L26.863 2.10139Q27.178 1.91523 27.5046 1.75048Q27.8312 1.58573 28.1681 1.44313Q28.5049 1.30053 28.8506 1.18071Q29.1962 1.06089 29.5491 0.96439Q29.9019 0.867889 30.2604 0.795135Q30.619 0.722381 30.9815 0.673698Q31.3441 0.625014 31.7091 0.600618Q32.0741 0.576222 32.4399 0.576222Q32.8057 0.576222 33.1707 0.600618Q33.5357 0.625014 33.8983 0.673698Q34.2608 0.722381 34.6194 0.795135Q34.9779 0.86789 35.3307 0.96439Q35.6836 1.06089 36.0292 1.18071Q36.3749 1.30053 36.7117 1.44313Q37.0486 1.58573 37.3752 1.75048Q37.7018 1.91523 38.0167 2.10139Z" id="Polygon-Copy-3" fill="url(#gradient_6)" fill-rule="evenodd" stroke="none" />
    <path d="M32.9897 -3.29932e-14L32.9897 37.7274L1.63185e-14 56.5912L2.65718e-13 18.8637L32.9897 -3.29932e-14Z" transform="translate(32.989746 17.7417)" id="Polygon-Copy-2" fill="url(#gradient_6)" fill-rule="evenodd" stroke="none" />
    <path d="M32.9897 18.8637L32.9897 56.5912L6.56691e-14 37.7274L4.4876e-14 3.29932e-14L32.9897 18.8637Z" transform="translate(0 17.7417)" id="Polygon-Copy" fill="url(#gradient_6)" fill-rule="evenodd" stroke="none" />
  </g>
</svg>