<?xml version="1.0" encoding="utf-8"?>
<!-- Generator: Adobe Illustrator 17.0.0, SVG Export Plug-In . SVG Version: 6.00 Build 0)  -->
<!DOCTYPE svg PUBLIC "-//W3C//DTD SVG 1.1//EN" "http://www.w3.org/Graphics/SVG/1.1/DTD/svg11.dtd">
<svg version="1.1" xmlns="http://www.w3.org/2000/svg" xmlns:xlink="http://www.w3.org/1999/xlink" x="0px" y="0px"
	 width="283.46px" height="85.039px" viewBox="0 0 283.46 85.039" enable-background="new 0 0 283.46 85.039" xml:space="preserve">
<g id="Layer_4" display="none">
	<rect y="0" display="inline" fill="#3873B3" width="283.46" height="85.039"/>
</g>
<g id="Layer_1">
	<path fill="#D5D3CB" d="M94.786,55.357c0,2.876-2.137,4.396-5.197,4.396H86.65v3.698h-2.486V51.125h5.588
		C92.854,51.125,94.786,52.665,94.786,55.357z M89.65,53.302h-3v4.334h3.02c1.602,0,2.568-0.678,2.568-2.178
		C92.238,54.042,91.252,53.302,89.65,53.302z M98.769,63.45V51.125h2.486v10.148h6.574v2.178H98.769z M116.372,51.125h0.432
		l6.347,12.325h-2.814l-0.802-1.685h-5.896l-0.78,1.685h-2.815L116.372,51.125z M116.66,55.624h-0.165l-1.869,4.026l-0.144,0.267
		h4.191l-0.144-0.267L116.66,55.624z M123.951,51.125h10.518v2.178h-4.006V63.45h-2.486V53.302h-4.026V51.125z M138.267,51.125
		h9.573v2.178h-7.088v2.999h6.081v2.034h-6.081v5.115h-2.486V51.125z M150.982,57.288c0-3.554,2.486-6.43,6.512-6.43
		c4.047,0,6.533,2.876,6.533,6.43c0,3.554-2.486,6.43-6.533,6.43C153.467,63.718,150.982,60.842,150.982,57.288z M161.479,57.288
		c0-2.342-1.664-4.047-3.986-4.047c-2.301,0-3.944,1.705-3.944,4.047c0,2.342,1.644,4.047,3.944,4.047
		C159.815,61.335,161.479,59.63,161.479,57.288z M168.276,51.125h5.567c3.122,0,5.053,1.54,5.053,4.232
		c0,1.828-0.904,3.081-2.322,3.759v0.185l2.938,3.903v0.246h-2.815l-2.732-3.759h-3.205v3.759h-2.486V51.125z M173.762,53.302h-3
		v4.293h3.061c1.561,0,2.506-0.698,2.506-2.137C176.329,54.042,175.364,53.302,173.762,53.302z M193.665,56.178l-3.575,3.615h-0.493
		l-3.595-3.615v7.272h-2.486V51.125h0.678l5.608,5.526l5.67-5.526h0.658V63.45h-2.465V56.178z"/>
</g>
<g id="Layer_2">
	<path fill="#FFFFFF" d="M86.643,37.986c0,0,2.965,2.178,6.645,2.178c2.74,0,3.83-1.089,3.83-2.515c0-1.464-0.977-2.215-4.881-3.304
		c-5.106-1.426-7.772-3.229-7.772-6.833c0-4.017,3.004-6.682,8.785-6.682c6.044,0,8.522,2.327,8.522,2.327l-2.44,3.717
		c0,0-2.403-1.877-6.082-1.877c-2.478,0-3.68,0.863-3.68,2.253c0,1.351,1.164,1.952,4.693,2.928
		c5.519,1.464,8.034,3.416,8.034,7.058c0,3.942-2.74,7.095-8.898,7.095c-6.195,0-9.236-2.891-9.236-2.891L86.643,37.986z
		 M126.7,21.317h5.256l-8.523,13.929v8.597h-4.543v-8.635l-8.447-13.891h5.256l4.655,7.846l0.638,1.427h0.413l0.675-1.427
		L126.7,21.317z M142.28,37.986c0,0,2.965,2.178,6.645,2.178c2.74,0,3.83-1.089,3.83-2.515c0-1.464-0.977-2.215-4.881-3.304
		c-5.106-1.426-7.772-3.229-7.772-6.833c0-4.017,3.004-6.682,8.785-6.682c6.044,0,8.522,2.327,8.522,2.327l-2.44,3.717
		c0,0-2.403-1.877-6.082-1.877c-2.478,0-3.68,0.863-3.68,2.253c0,1.351,1.164,1.952,4.693,2.928
		c5.519,1.464,8.034,3.416,8.034,7.058c0,3.942-2.74,7.095-8.898,7.095c-6.195,0-9.236-2.891-9.236-2.891L142.28,37.986z
		 M187.855,41.553c0,0-2.515,2.778-7.959,2.778c-7.359,0-11.976-5.256-11.976-11.751s4.617-11.751,11.976-11.751
		c5.481,0,7.959,2.778,7.959,2.778l-2.59,3.492c0,0-2.328-1.915-5.293-1.915c-4.318,0-7.359,3.116-7.359,7.396
		s3.041,7.433,7.359,7.433c3.416,0,5.293-1.952,5.293-1.952L187.855,41.553z M196.752,32.58c0-6.495,4.542-11.751,11.901-11.751
		c7.397,0,11.939,5.256,11.939,11.751s-4.542,11.751-11.939,11.751C201.294,44.331,196.752,39.075,196.752,32.58z M215.936,32.58
		c0-4.28-3.041-7.396-7.284-7.396c-4.205,0-7.208,3.116-7.208,7.396s3.004,7.396,7.208,7.396
		C212.895,39.976,215.936,36.86,215.936,32.58z M236.658,43.843h-4.543V21.317h4.543V43.843z M270.333,43.843h-1.089l-15.092-13.741
		v13.741h-4.543V21.317h1.127l15.092,13.44V21.355h4.505V43.843z"/>
</g>
<g id="Layer_3">
	<g>
		<path fill-rule="evenodd" clip-rule="evenodd" fill="#EBEAE6" d="M61.062,60.928c-1.466,1.274-3.132,2.434-4.964,3.446
			c0.34-0.27-0.726-1.393-0.404-1.681c8.079-7.026,9.926-16.07,6.664-24.026c-0.44-1.074,0.487-1.504,0.492-2.489
			C70.292,43.21,69.49,53.6,61.062,60.928z"/>
		<path fill-rule="evenodd" clip-rule="evenodd" fill="#FFFFFF" d="M62.85,36.178c-2.731-2.582-6.561-4.711-11.533-6.072
			c-0.022-0.006-0.042-0.009-0.064-0.015c0.023,0.006,0.045,0.011,0.069,0.017c1.633,0.429,1.76,2.318,2.884,3.272
			c2.407,2.042,3.064,4.657,3.311,8.111c0.369,5.139,0.34,10.224-3.414,14.751c-1.97,2.376-4.458,4.537-7.399,5.806
			c-0.216,0.097-0.432,0.194-0.656,0.285c-0.035,0.009-0.061,0.026-0.096,0.035c-1.413,0.567-2.984,1.029-4.72,1.352
			c-6.089,1.152-14.142,0.672-23.887-2.425c3.891,3.001,8.061,4.999,12.266,6.15c4.606,1.265,9.256,1.527,13.653,1.003
			c0.009,0,0.026,0,0.035-0.009c0.654-0.07,1.3-0.166,1.937-0.279c2.556-0.445,5.008-1.16,7.285-2.085h0.009
			c1.239-0.506,2.434-1.073,3.568-1.701c0.34-0.27,0.68-0.55,1.003-0.838C66.27,55.563,68.347,44.745,62.85,36.178z"/>
		<path fill-rule="evenodd" clip-rule="evenodd" fill="#D5D3CB" d="M46.047,62.331c11.392-4.642,12.005-16.404-1.233-23.025
			c-9.616-4.811-5.369-12.448,6.507-9.199C64.588,33.592,60.663,56.694,46.047,62.331z"/>
		<path fill-rule="evenodd" clip-rule="evenodd" fill="#EBEAE6" d="M63.726,23.749c-12.518-3.981-22.23-3.638-28.602-1.073
			c-0.031,0.011-0.063,0.023-0.094,0.037c-9.473,3.861-11.493,12.645-4.29,19.301c-1.898-1.574-4.064-3.247-5.001-5.375
			c-1.197-2.718-1.557-6.08-1.078-8.907c0.648-3.823,3.065-7.271,7.042-9.378c1.583-0.839,3.966-1.439,6.111-1.762
			C46.232,15.587,55.585,17.456,63.726,23.749z"/>
		<path fill-rule="evenodd" clip-rule="evenodd" fill="#FFFFFF" d="M32.859,55.572c-0.823-0.266-1.749-0.393-2.509-0.699
			c-9.67-3.888-14.834-11.122-14.649-18.259c0.132-5.072,3.106-10.209,7.975-14.443c1.378-1.196,3.194-2.207,4.866-3.201
			c0.004-0.004,0.008-0.004,0.012-0.004c2.277-0.927,4.727-1.639,7.285-2.086c0.65-0.112,1.308-0.207,1.974-0.286
			c-0.786,0.12-1.531,0.273-2.239,0.472c-12.512,3.402-13.262,17.964-4.834,24.95c0,0,0.004,0,0.008,0.004
			c1.457,1.345,3.291,2.608,5.513,3.717C44.983,50.104,42.301,56.793,32.859,55.572z"/>
		<path fill-rule="evenodd" clip-rule="evenodd" fill="#D5D3CB" d="M32.859,55.572c-0.964-0.124-2.003-0.331-3.104-0.633
			c-18.539-5.066-21.258-20.811-9.743-30.824c2.376-2.065,5.277-3.825,8.531-5.145c-1.672,0.993-3.216,2.099-4.594,3.295
			C11.688,32.927,14.13,49.508,32.859,55.572z"/>
	</g>
</g>
</svg>
