<svg width="16" height="20" viewBox="0 0 16 20" fill="none" xmlns="http://www.w3.org/2000/svg">
<path d="M12.6173 9.47805C13.7005 8.92414 14.3898 7.93937 14.2298 6.30227C14.0205 4.06199 12.1806 3.31113 9.74346 3.10191V0H7.84783V3.01574C7.35545 3.01574 6.85076 3.02805 6.34611 3.04035V0H4.45049V3.10191C3.75354 3.12297 2.94182 3.1127 0.646973 3.10191V5.12059C2.14361 5.0941 2.92889 4.99793 3.10881 5.95758V14.4509C2.99455 15.2123 2.38521 15.1027 1.02854 15.0787L0.647012 17.3312C4.1033 17.3312 4.45053 17.3436 4.45053 17.3436V20H6.34615V17.3805C6.8631 17.3928 7.36779 17.3928 7.84787 17.3928V20H9.7435V17.3436C12.9192 17.1712 15.0422 16.3711 15.3253 13.38C15.5469 10.9798 14.4144 9.90883 12.6173 9.47805ZM6.38307 5.25598C7.45396 5.25598 10.8021 4.92367 10.8021 7.1516C10.8021 9.28109 7.454 9.03488 6.38307 9.03488V5.25598ZM6.38307 15.091V10.9305C7.66322 10.9305 11.5833 10.5736 11.5833 13.0108C11.5833 15.3618 7.66322 15.091 6.38307 15.091Z" fill="white"/>
</svg>
