<?xml version="1.0" encoding="UTF-8"?>
<svg xmlns="http://www.w3.org/2000/svg" xmlns:xlink="http://www.w3.org/1999/xlink" width="150pt" height="150pt" viewBox="0 0 150 150" version="1.1">
<g id="surface1">
<path style=" stroke:none;fill-rule:evenodd;fill:rgb(16.078431%,66.27451%,85.490196%);fill-opacity:1;" d="M 120.289062 115.617188 C 117.054688 118.429688 113.375 120.992188 109.332031 123.222656 C 110.082031 122.628906 107.730469 120.152344 108.441406 119.515625 C 126.273438 104.007812 130.351562 84.050781 123.152344 66.488281 C 122.179688 64.121094 124.226562 63.171875 124.234375 60.996094 C 140.660156 76.511719 138.886719 99.445312 120.289062 115.617188 "/>
<path style=" stroke:none;fill-rule:evenodd;fill:rgb(0%,55.294118%,81.568627%);fill-opacity:1;" d="M 124.234375 60.996094 C 118.210938 55.296875 109.757812 50.597656 98.78125 47.59375 C 98.734375 47.582031 98.6875 47.574219 98.640625 47.558594 C 98.691406 47.574219 98.742188 47.582031 98.792969 47.597656 C 102.394531 48.542969 102.675781 52.714844 105.15625 54.816406 C 110.46875 59.324219 111.917969 65.097656 112.464844 72.71875 C 113.277344 84.0625 113.214844 95.285156 104.929688 105.277344 C 100.582031 110.519531 95.089844 115.289062 88.601562 118.089844 C 88.125 118.304688 87.648438 118.515625 87.152344 118.71875 C 87.074219 118.738281 87.019531 118.777344 86.941406 118.796875 C 83.820312 120.046875 80.355469 121.066406 76.523438 121.78125 C 63.085938 124.320312 45.3125 123.261719 23.804688 116.425781 C 32.394531 123.050781 41.597656 127.460938 50.878906 130 C 61.042969 132.792969 71.304688 133.371094 81.011719 132.214844 C 81.03125 132.214844 81.066406 132.214844 81.085938 132.195312 C 82.53125 132.042969 83.957031 131.832031 85.363281 131.582031 C 91.003906 130.597656 96.414062 129.019531 101.4375 126.976562 L 101.457031 126.976562 C 104.191406 125.863281 106.828125 124.609375 109.332031 123.222656 C 110.082031 122.628906 110.835938 122.011719 111.546875 121.375 C 131.785156 103.777344 136.367188 79.902344 124.234375 60.996094 "/>
<path style=" stroke:none;fill-rule:evenodd;fill:rgb(16.078431%,49.019608%,72.156863%);fill-opacity:1;" d="M 87.152344 118.714844 C 112.292969 108.46875 113.644531 82.511719 84.429688 67.898438 C 63.207031 57.28125 72.582031 40.425781 98.792969 47.597656 C 128.070312 55.285156 119.410156 106.273438 87.152344 118.714844 "/>
<path style=" stroke:none;fill-rule:evenodd;fill:rgb(16.078431%,66.27451%,85.490196%);fill-opacity:1;" d="M 126.167969 33.5625 C 98.539062 24.777344 77.109375 25.535156 63.042969 31.195312 C 62.972656 31.222656 62.902344 31.246094 62.835938 31.277344 C 41.925781 39.800781 37.472656 59.1875 53.367188 73.875 C 49.175781 70.402344 44.398438 66.710938 42.328125 62.011719 C 39.6875 56.015625 38.890625 48.59375 39.949219 42.355469 C 41.378906 33.917969 46.714844 26.308594 55.492188 21.65625 C 58.984375 19.808594 64.246094 18.480469 68.976562 17.769531 C 87.558594 15.550781 108.203125 19.675781 126.167969 33.5625 "/>
<path style=" stroke:none;fill-rule:evenodd;fill:rgb(0%,55.294118%,81.568627%);fill-opacity:1;" d="M 58.046875 103.796875 C 56.230469 103.207031 54.183594 102.929688 52.507812 102.253906 C 31.167969 93.675781 19.769531 77.710938 20.179688 61.957031 C 20.46875 50.761719 27.03125 39.425781 37.777344 30.082031 C 40.820312 27.441406 44.828125 25.210938 48.519531 23.015625 C 48.527344 23.007812 48.535156 23.007812 48.542969 23.007812 C 53.570312 20.960938 58.976562 19.390625 64.621094 18.402344 C 66.054688 18.15625 67.507812 17.945312 68.980469 17.773438 C 67.242188 18.039062 65.601562 18.375 64.039062 18.816406 C 36.421875 26.324219 34.769531 58.460938 53.367188 73.878906 C 53.367188 73.878906 53.378906 73.878906 53.386719 73.890625 C 56.601562 76.859375 60.648438 79.644531 65.554688 82.09375 C 84.800781 91.730469 78.882812 106.492188 58.046875 103.796875 "/>
<path style=" stroke:none;fill-rule:evenodd;fill:rgb(16.078431%,49.019608%,72.156863%);fill-opacity:1;" d="M 58.046875 103.796875 C 55.917969 103.523438 53.625 103.066406 51.195312 102.398438 C 10.277344 91.21875 4.277344 56.46875 29.691406 34.371094 C 34.933594 29.8125 41.335938 25.929688 48.519531 23.015625 C 44.828125 25.210938 41.417969 27.648438 38.378906 30.289062 C 11.320312 53.820312 16.710938 90.414062 58.046875 103.796875 "/>
</g>
</svg>
