<?xml version="1.0" standalone="no"?>
<!DOCTYPE svg PUBLIC "-//W3C//DTD SVG 20010904//EN"
 "http://www.w3.org/TR/2001/REC-SVG-20010904/DTD/svg10.dtd">
<svg version="1.0" xmlns="http://www.w3.org/2000/svg"
 width="113.000000pt" height="61.000000pt" viewBox="0 0 113.000000 61.000000"
 preserveAspectRatio="xMidYMid meet">
<metadata>
Created by potrace 1.16, written by Peter Selinger 2001-2019
</metadata>
<g transform="translate(0.000000,61.000000) scale(0.100000,-0.100000)"
fill="#000000" stroke="none">
<path d="M375 525 c-33 -7 -85 -23 -115 -35 -30 -12 -66 -23 -79 -25 -48 -7
-71 -46 -74 -122 -1 -63 83 -118 225 -147 140 -29 244 -18 256 26 5 21 6 21
14 2 8 -18 8 -18 5 1 -1 11 -9 20 -17 20 -8 0 -15 6 -15 12 0 13 -28 35 -57
46 -31 11 -19 -2 20 -22 52 -28 37 -26 -65 10 -113 39 -151 65 -159 105 -11
57 36 105 124 129 63 18 15 17 -63 0z"/>
<path d="M660 430 c-41 -4 -84 -11 -94 -15 -15 -6 -17 -5 -11 5 5 8 4 11 -3 7
-16 -11 -7 -56 14 -72 11 -7 39 -19 64 -26 52 -14 117 -45 143 -67 29 -26 22
-67 -16 -91 -67 -41 -157 -54 -342 -48 -93 3 -183 10 -200 16 -29 11 -29 11
10 7 22 -3 69 -7 105 -10 57 -5 54 -3 -25 10 -152 25 -186 -4 -49 -44 212 -61
502 -49 611 26 15 11 41 27 56 36 34 21 67 72 67 105 0 37 -47 99 -86 113 -24
8 -30 15 -21 21 8 5 5 7 -8 3 -11 -2 -49 1 -85 8 -48 10 -59 14 -40 18 35 7 1
7 -90 -2z"/>
</g>
</svg>
