<svg width="24" height="24" viewBox="0 0 24 24" fill="none" xmlns="http://www.w3.org/2000/svg">
<circle cx="12" cy="12" r="12" fill="#C2A8DE"/>
<path d="M16.7202 9.0122C16.5669 7.41121 15.1713 6.86785 13.421 6.71003L13.4176 4.47745L12.0554 4.479L12.054 6.6513C11.6948 6.64866 11.3283 6.65808 10.9715 6.66508L10.968 4.47349L9.60584 4.47504L9.6213 6.71486C9.32474 6.71708 9.04024 6.72655 8.75333 6.72637L8.75093 6.71672L6.87518 6.71312L6.87908 8.16695C6.87908 8.16695 7.87965 8.15312 7.86276 8.16758C8.41488 8.1631 8.58827 8.4887 8.64596 8.76117L8.64435 11.3024C8.68534 11.3024 8.73597 11.3 8.78901 11.3073C8.74802 11.3072 8.69739 11.3096 8.64676 11.312L8.6445 14.8779C8.61546 15.049 8.52126 15.3286 8.13309 15.3332C8.14754 15.3501 7.1494 15.3326 7.1494 15.3326L6.87834 16.9574L8.65042 16.9561C8.97832 16.9563 9.30621 16.9565 9.62446 16.9592L9.62303 19.2134L10.9852 19.2119L10.9818 16.9793C11.3531 16.9892 11.7124 16.9918 12.0692 16.9848L12.0702 19.2077L13.4324 19.2062L13.4338 16.9519C15.7171 16.8232 17.316 16.2504 17.5174 14.0999C17.6801 12.3689 16.8632 11.5993 15.5663 11.2874C16.3405 10.8998 16.84 10.1913 16.7202 9.0122ZM14.8221 13.8499C14.8235 15.54 11.9376 15.3477 11.0142 15.3423L11.0161 12.3502C11.9275 12.3484 14.8232 12.0874 14.8221 13.8499ZM14.1883 9.62299C14.1921 11.1588 11.7813 10.9813 11.0122 10.9784L11.0115 8.2636C11.7806 8.26649 14.1893 8.02451 14.1883 9.62299Z" fill="#6625AC"/>
</svg>
