<?xml version="1.0" encoding="utf-8"?>
<!-- Generator: Adobe Illustrator 25.0.1, SVG Export Plug-In . SVG Version: 6.00 Build 0)  -->
<svg version="1.1" id="Capa_1" xmlns="http://www.w3.org/2000/svg" xmlns:xlink="http://www.w3.org/1999/xlink" x="0px" y="0px"
	 viewBox="0 0 455.1 455.1" style="enable-background:new 0 0 455.1 455.1;" xml:space="preserve">
<style type="text/css">
	.st0{fill:#CB2B6F;}
	.st1{fill:#B32560;}
	.st2{fill:#FFFFFF;}
</style>
<circle class="st0" cx="227.6" cy="227.6" r="227.6"/>
<path class="st1" d="M455.1,227.6c0,125.2-102.4,227.6-227.6,227.6c-72.5,0-136.5-32.7-177.8-85.3c38.4,31.3,88.2,49.8,142.2,49.8
	c125.2,0,227.6-102.4,227.6-227.6c0-54-18.5-103.8-49.8-142.2C422.4,91,455.1,155,455.1,227.6z"/>
<path class="st2" d="M331.4,331.4c-8.5,8.5-22.8,8.5-31.3,0l-72.5-72.5L155,331.4c-8.5,8.5-22.8,8.5-31.3,0s-8.5-22.8,0-31.3
	l72.5-72.5L123.7,155c-8.5-8.5-8.5-22.8,0-31.3s22.8-8.5,31.3,0l72.5,72.5l72.5-72.5c8.5-8.5,22.8-8.5,31.3,0s8.5,22.8,0,31.3
	l-72.5,72.5l72.5,72.5C339.9,308.6,339.9,322.8,331.4,331.4z"/>
</svg>
