<svg width="16" height="14" viewBox="0 0 16 14" fill="none" xmlns="http://www.w3.org/2000/svg">
<path d="M0 10.9091V13.0909H2.18182C2.18182 11.8836 1.20727 10.9091 0 10.9091ZM0 8V9.45455C2.00727 9.45455 3.63636 11.0836 3.63636 13.0909H5.09091C5.09091 10.2764 2.81455 8 0 8ZM13.0909 2.90909H2.90909V4.09455C5.78909 5.02545 8.06545 7.30182 8.99636 10.1818H13.0909V2.90909ZM0 5.09091V6.54545C3.61455 6.54545 6.54545 9.47636 6.54545 13.0909H8C8 8.66909 4.41455 5.09091 0 5.09091ZM14.5455 0H1.45455C0.654545 0 0 0.654545 0 1.45455V3.63636H1.45455V1.45455H14.5455V11.6364H9.45455V13.0909H14.5455C15.3455 13.0909 16 12.4364 16 11.6364V1.45455C16 0.654545 15.3455 0 14.5455 0Z" fill="#6625AC"/>
</svg>
