<svg width="24" height="24" viewBox="0 0 24 24" fill="none" xmlns="http://www.w3.org/2000/svg">
<circle cx="12" cy="12" r="12" fill="#C2A8DE"/>
<path d="M11.3644 4.31525L5.04272 7.92815L7.14881 11.541L11.3644 4.31525Z" fill="#6625AC"/>
<path d="M4.9563 8.69714V15.9264H9.17193L4.9563 8.69714Z" fill="#6625AC"/>
<path d="M12.6321 19.6848L18.9573 16.0719L16.8477 12.459L12.6321 19.6848Z" fill="#6625AC"/>
<path d="M14.1945 10.7478L11.9983 9.49384L9.80566 10.7478V13.2522L11.9983 14.5062L14.1945 13.2522V10.7478Z" fill="#6625AC"/>
<path d="M7.46704 11.9152L9.3445 12.9855V8.69714L7.46704 11.9152Z" fill="#6625AC"/>
<path d="M18.4026 7.6129L12.0844 4L9.97485 7.6129H18.4026Z" fill="#6625AC"/>
<path d="M5.59277 16.3871L11.9145 20L14.0206 16.3871H5.59277Z" fill="#6625AC"/>
<path d="M9.80566 8.07367V10.2144L13.5537 8.07367H9.80566Z" fill="#6625AC"/>
<path d="M12.4651 9.22716L16.2131 11.3713L14.3391 8.1568L12.4651 9.22716Z" fill="#6625AC"/>
<path d="M16.5325 12.0849L14.655 11.011V15.3029L16.5325 12.0849Z" fill="#6625AC"/>
<path d="M14.1936 13.7822L10.4421 15.9264H14.1936V13.7822Z" fill="#6625AC"/>
<path d="M11.5342 14.7695L7.78271 12.6288L9.66018 15.8433L11.5342 14.7695Z" fill="#6625AC"/>
<path d="M14.8242 8.07367L19.0433 15.3029V8.07367H14.8242Z" fill="#6625AC"/>
</svg>
