<svg width="16" height="16" viewBox="0 0 16 16" fill="none" xmlns="http://www.w3.org/2000/svg">
<path d="M14.2222 1.77778V14.2222H1.77778V1.77778H14.2222ZM15.2 0H0.8C0.355556 0 0 0.355556 0 0.8V15.2C0 15.5556 0.355556 16 0.8 16H15.2C15.5556 16 16 15.5556 16 15.2V0.8C16 0.355556 15.5556 0 15.2 0ZM7.11111 3.55556H12.4444V5.33333H7.11111V3.55556ZM7.11111 7.11111H12.4444V8.88889H7.11111V7.11111ZM7.11111 10.6667H12.4444V12.4444H7.11111V10.6667ZM3.55556 3.55556H5.33333V5.33333H3.55556V3.55556ZM3.55556 7.11111H5.33333V8.88889H3.55556V7.11111ZM3.55556 10.6667H5.33333V12.4444H3.55556V10.6667Z" fill="#6625AC"/>
</svg>
