<svg width="367" height="68" viewBox="0 0 367 68" fill="none" xmlns="http://www.w3.org/2000/svg">
<path d="M0.969095 66.4635C1.05888 66.4635 1.13281 66.392 1.13281 66.302C1.13281 66.2121 1.05888 66.1406 0.969095 66.1406C0.879313 66.1406 0.808004 66.2121 0.808004 66.302C0.808004 66.392 0.879313 66.4635 0.969095 66.4635Z" fill="white" fill-opacity="0.1"/>
<path d="M0.968981 28.1724C1.10365 28.1724 1.21191 28.0639 1.21191 27.929C1.21191 27.794 1.10365 27.6855 0.968981 27.6855C0.834309 27.6855 0.726031 27.794 0.726031 27.929C0.726031 28.0639 0.834309 28.1724 0.968981 28.1724Z" fill="white" fill-opacity="0.1"/>
<path d="M0.968882 22.5047C0.433657 22.5047 -0.000240564 22.07 -0.000240564 21.5336C-0.000240564 20.9973 0.433657 20.5625 0.968882 20.5625C1.50411 20.5625 1.93799 20.9973 1.93799 21.5336C1.93799 22.07 1.50411 22.5047 0.968882 22.5047Z" fill="white" fill-opacity="0.1"/>
<path d="M10.021 66.9509C10.3775 66.9509 10.668 66.6598 10.668 66.3026C10.668 65.9454 10.3775 65.6543 10.021 65.6543C9.66453 65.6543 9.3767 65.9454 9.3767 66.3026C9.3767 66.6598 9.66717 66.9509 10.021 66.9509Z" fill="white" fill-opacity="0.1"/>
<path d="M10.0235 60.067C9.93453 60.067 9.86242 59.9947 9.86242 59.9056C9.86242 59.8164 9.93453 59.7441 10.0235 59.7441C10.1125 59.7441 10.1846 59.8164 10.1846 59.9056C10.1846 59.9947 10.1125 60.067 10.0235 60.067Z" fill="white" fill-opacity="0.1"/>
<path d="M10.0239 28.5759C10.3804 28.5759 10.6709 28.2848 10.6709 27.9276C10.6709 27.5704 10.3804 27.2793 10.0239 27.2793C9.66746 27.2793 9.37434 27.5704 9.37434 27.9276C9.37434 28.2848 9.66482 28.5759 10.0239 28.5759Z" fill="white" fill-opacity="0.1"/>
<path d="M10.0235 21.6939C9.93453 21.6939 9.86242 21.6216 9.86242 21.5325C9.86242 21.4434 9.93453 21.3711 10.0235 21.3711C10.1125 21.3711 10.1846 21.4434 10.1846 21.5325C10.1846 21.6216 10.1125 21.6939 10.0235 21.6939Z" fill="white" fill-opacity="0.1"/>
<path d="M10.0239 15.7849C10.3804 15.7849 10.6709 15.4938 10.6709 15.1366C10.6709 14.7794 10.3804 14.4883 10.0239 14.4883C9.66746 14.4883 9.37434 14.7794 9.37434 15.1366C9.37434 15.4938 9.66482 15.7849 10.0239 15.7849Z" fill="white" fill-opacity="0.1"/>
<path d="M10.0235 8.9029C10.1106 8.9029 10.1846 8.83146 10.1846 8.74149C10.1846 8.65152 10.1133 8.58008 10.0235 8.58008C9.93371 8.58008 9.86242 8.65152 9.86242 8.74149C9.86242 8.83146 9.93371 8.9029 10.0235 8.9029Z" fill="white" fill-opacity="0.1"/>
<path d="M19.0787 66.4635C19.1684 66.4635 19.2397 66.392 19.2397 66.302C19.2397 66.2121 19.1684 66.1406 19.0787 66.1406C18.9889 66.1406 18.9149 66.2121 18.9149 66.302C18.9149 66.392 18.9889 66.4635 19.0787 66.4635Z" fill="white" fill-opacity="0.1"/>
<path d="M19.0786 54.1599C19.4351 54.1599 19.7256 53.8688 19.7256 53.5116C19.7256 53.1544 19.4351 52.8633 19.0786 52.8633C18.7221 52.8633 18.429 53.1544 18.429 53.5116C18.429 53.8688 18.7195 54.1599 19.0786 54.1599Z" fill="white" fill-opacity="0.1"/>
<path d="M19.0787 47.276C18.9897 47.276 18.9176 47.2037 18.9176 47.1145C18.9176 47.0254 18.9897 46.9531 19.0787 46.9531C19.1676 46.9531 19.2397 47.0254 19.2397 47.1145C19.2397 47.2037 19.1676 47.276 19.0787 47.276Z" fill="white" fill-opacity="0.1"/>
<path d="M19.076 28.5759C19.4325 28.5759 19.7256 28.2848 19.7256 27.9276C19.7256 27.5704 19.4351 27.2793 19.076 27.2793C18.7169 27.2793 18.4317 27.5704 18.4317 27.9276C18.4317 28.2848 18.7222 28.5759 19.076 28.5759Z" fill="white" fill-opacity="0.1"/>
<path d="M19.0786 22.8295C18.364 22.8295 17.7847 22.249 17.7847 21.5329C17.7847 20.8168 18.364 20.2363 19.0786 20.2363C19.7932 20.2363 20.3726 20.8168 20.3726 21.5329C20.3726 22.249 19.7932 22.8295 19.0786 22.8295Z" fill="white" fill-opacity="0.1"/>
<path d="M19.0786 15.7849C19.4351 15.7849 19.7256 15.4938 19.7256 15.1366C19.7256 14.7794 19.4351 14.4883 19.0786 14.4883C18.7221 14.4883 18.429 14.7794 18.429 15.1366C18.429 15.4938 18.7195 15.7849 19.0786 15.7849Z" fill="white" fill-opacity="0.1"/>
<path d="M19.0758 9.14565C19.3002 9.14565 19.4824 8.96307 19.4824 8.74079C19.4824 8.51852 19.3002 8.33594 19.0758 8.33594C18.8513 8.33594 18.6717 8.51852 18.6717 8.74079C18.6717 8.96307 18.854 9.14565 19.0758 9.14565Z" fill="white" fill-opacity="0.1"/>
<path d="M19.0787 2.50642C18.9897 2.50642 18.9176 2.43415 18.9176 2.34501C18.9176 2.25586 18.9897 2.18359 19.0787 2.18359C19.1676 2.18359 19.2397 2.25586 19.2397 2.34501C19.2397 2.43415 19.1676 2.50642 19.0787 2.50642Z" fill="white" fill-opacity="0.1"/>
<path d="M28.1309 66.4635C28.2181 66.4635 28.292 66.392 28.292 66.302C28.292 66.2121 28.2207 66.1406 28.1309 66.1406C28.0411 66.1406 27.9698 66.2121 27.9698 66.302C27.9698 66.392 28.0411 66.4635 28.1309 66.4635Z" fill="white" fill-opacity="0.1"/>
<path d="M28.1309 60.5544C27.7736 60.5544 27.4839 60.2642 27.4839 59.9061C27.4839 59.5481 27.7736 59.2578 28.1309 59.2578C28.4882 59.2578 28.7778 59.5481 28.7778 59.9061C28.7778 60.2642 28.4882 60.5544 28.1309 60.5544Z" fill="white" fill-opacity="0.1"/>
<path d="M28.1309 54.1599C28.4874 54.1599 28.7778 53.8688 28.7778 53.5116C28.7778 53.1544 28.4874 52.8633 28.1309 52.8633C27.7744 52.8633 27.4813 53.1544 27.4813 53.5116C27.4813 53.8688 27.7717 54.1599 28.1309 54.1599Z" fill="white" fill-opacity="0.1"/>
<path d="M28.1309 47.7627C28.4874 47.7627 28.7778 47.4716 28.7778 47.1144C28.7778 46.7572 28.4874 46.4688 28.1309 46.4688C27.7744 46.4688 27.4839 46.7598 27.4839 47.1144C27.4839 47.469 27.7744 47.7627 28.1309 47.7627Z" fill="white" fill-opacity="0.1"/>
<path d="M28.1305 41.0441C28.3101 41.0441 28.4526 40.8986 28.4526 40.7213C28.4526 40.544 28.3074 40.3984 28.1305 40.3984C27.9536 40.3984 27.8057 40.544 27.8057 40.7213C27.8057 40.8986 27.9509 41.0441 28.1305 41.0441Z" fill="white" fill-opacity="0.1"/>
<path d="M28.1309 34.9724C27.7736 34.9724 27.4839 34.6821 27.4839 34.3241C27.4839 33.966 27.7736 33.6758 28.1309 33.6758C28.4882 33.6758 28.7778 33.966 28.7778 34.3241C28.7778 34.6821 28.4882 34.9724 28.1309 34.9724Z" fill="white" fill-opacity="0.1"/>
<path d="M28.1306 28.5759C28.4871 28.5759 28.7749 28.2848 28.7749 27.9276C28.7749 27.5704 28.4844 27.2793 28.1306 27.2793C27.7767 27.2793 27.4836 27.5704 27.4836 27.9276C27.4836 28.2848 27.7741 28.5759 28.1306 28.5759Z" fill="white" fill-opacity="0.1"/>
<path d="M28.1307 22.1814C28.4872 22.1814 28.7803 21.8903 28.7803 21.5331C28.7803 21.1758 28.4898 20.8848 28.1307 20.8848C27.7715 20.8848 27.4864 21.1758 27.4864 21.5331C27.4864 21.8903 27.7768 22.1814 28.1307 22.1814Z" fill="white" fill-opacity="0.1"/>
<path d="M28.1309 15.7849C27.7736 15.7849 27.4839 15.4946 27.4839 15.1366C27.4839 14.7785 27.7736 14.4883 28.1309 14.4883C28.4882 14.4883 28.7778 14.7785 28.7778 15.1366C28.7778 15.4946 28.4882 15.7849 28.1309 15.7849Z" fill="white" fill-opacity="0.1"/>
<path d="M28.1307 9.14565C27.9075 9.14565 27.7266 8.96439 27.7266 8.74079C27.7266 8.5172 27.9075 8.33594 28.1307 8.33594C28.3538 8.33594 28.5347 8.5172 28.5347 8.74079C28.5347 8.96439 28.3538 9.14565 28.1307 9.14565Z" fill="white" fill-opacity="0.1"/>
<path d="M28.1304 3.64201C27.4158 3.64201 26.8365 3.06151 26.8365 2.34542C26.8365 1.62933 27.4158 1.04883 28.1304 1.04883C28.845 1.04883 29.4243 1.62933 29.4243 2.34542C29.4243 3.06151 28.845 3.64201 28.1304 3.64201Z" fill="white" fill-opacity="0.1"/>
<path d="M37.1851 66.9509C37.5416 66.9509 37.832 66.6598 37.832 66.3026C37.832 65.9454 37.5416 65.6543 37.1851 65.6543C36.8286 65.6543 36.5355 65.9454 36.5355 66.3026C36.5355 66.6598 36.8259 66.9509 37.1851 66.9509Z" fill="white" fill-opacity="0.1"/>
<path d="M37.1852 60.2296C37.0072 60.2296 36.863 60.0851 36.863 59.9068C36.863 59.7285 37.0072 59.584 37.1852 59.584C37.3631 59.584 37.5073 59.7285 37.5073 59.9068C37.5073 60.0851 37.3631 60.2296 37.1852 60.2296Z" fill="white" fill-opacity="0.1"/>
<path d="M37.1825 54.4813C37.7186 54.4813 38.1543 54.0447 38.1543 53.5102C38.1543 52.9757 37.7186 52.5391 37.1825 52.5391C36.6465 52.5391 36.2134 52.9757 36.2134 53.5102C36.2134 54.0447 36.6491 54.4813 37.1825 54.4813Z" fill="white" fill-opacity="0.1"/>
<path d="M37.1851 47.7627C37.5416 47.7627 37.832 47.4716 37.832 47.1144C37.832 46.7572 37.5416 46.4688 37.1851 46.4688C36.8286 46.4688 36.5381 46.7598 36.5381 47.1144C36.5381 47.469 36.8286 47.7627 37.1851 47.7627Z" fill="white" fill-opacity="0.1"/>
<path d="M37.1852 41.0421C37.0072 41.0421 36.863 40.8976 36.863 40.7193C36.863 40.541 37.0072 40.3965 37.1852 40.3965C37.3631 40.3965 37.5073 40.541 37.5073 40.7193C37.5073 40.8976 37.3631 41.0421 37.1852 41.0421Z" fill="white" fill-opacity="0.1"/>
<path d="M37.1851 34.4856C37.2749 34.4856 37.3462 34.4142 37.3462 34.3242C37.3462 34.2342 37.2749 34.1602 37.1851 34.1602C37.0953 34.1602 37.024 34.2342 37.024 34.3242C37.024 34.4142 37.0953 34.4856 37.1851 34.4856Z" fill="white" fill-opacity="0.1"/>
<path d="M46.2403 66.9509C45.883 66.9509 45.5933 66.6606 45.5933 66.3026C45.5933 65.9445 45.883 65.6543 46.2403 65.6543C46.5976 65.6543 46.8872 65.9445 46.8872 66.3026C46.8872 66.6606 46.5976 66.9509 46.2403 66.9509Z" fill="white" fill-opacity="0.1"/>
<path d="M46.2376 60.5544C46.5941 60.5544 46.8872 60.2633 46.8872 59.9061C46.8872 59.5489 46.5967 59.2578 46.2376 59.2578C45.8785 59.2578 45.5933 59.5489 45.5933 59.9061C45.5933 60.2633 45.8838 60.5544 46.2376 60.5544Z" fill="white" fill-opacity="0.1"/>
<path d="M46.2403 54.1599C45.883 54.1599 45.5933 53.8696 45.5933 53.5116C45.5933 53.1535 45.883 52.8633 46.2403 52.8633C46.5976 52.8633 46.8872 53.1535 46.8872 53.5116C46.8872 53.8696 46.5976 54.1599 46.2403 54.1599Z" fill="white" fill-opacity="0.1"/>
<path d="M46.2376 47.7627C46.5941 47.7627 46.8872 47.4716 46.8872 47.1144C46.8872 46.7572 46.5967 46.4688 46.2376 46.4688C45.8785 46.4688 45.5907 46.7598 45.5907 47.1144C45.5907 47.469 45.8811 47.7627 46.2376 47.7627Z" fill="white" fill-opacity="0.1"/>
<path d="M46.24 41.3689C46.5964 41.3689 46.8843 41.0778 46.8843 40.7206C46.8843 40.3633 46.5938 40.0723 46.24 40.0723C45.8861 40.0723 45.593 40.3633 45.593 40.7206C45.593 41.0778 45.8835 41.3689 46.24 41.3689Z" fill="white" fill-opacity="0.1"/>
<path d="M46.2399 34.6457C46.4194 34.6457 46.562 34.5001 46.562 34.3228C46.562 34.1455 46.4168 34 46.2399 34C46.0629 34 45.9177 34.1455 45.9177 34.3228C45.9177 34.5001 46.0629 34.6457 46.2399 34.6457Z" fill="white" fill-opacity="0.1"/>
<path d="M46.2403 2.50642C46.3274 2.50642 46.4014 2.43497 46.4014 2.34501C46.4014 2.25504 46.3301 2.18359 46.2403 2.18359C46.1505 2.18359 46.0792 2.25504 46.0792 2.34501C46.0792 2.43497 46.1505 2.50642 46.2403 2.50642Z" fill="white" fill-opacity="0.1"/>
<path d="M55.2925 66.9509C54.9352 66.9509 54.6455 66.6606 54.6455 66.3026C54.6455 65.9445 54.9352 65.6543 55.2925 65.6543C55.6498 65.6543 55.9395 65.9445 55.9395 66.3026C55.9395 66.6606 55.6498 66.9509 55.2925 66.9509Z" fill="white" fill-opacity="0.1"/>
<path d="M55.2925 60.5544C54.9352 60.5544 54.6455 60.2642 54.6455 59.9061C54.6455 59.5481 54.9352 59.2578 55.2925 59.2578C55.6498 59.2578 55.9395 59.5481 55.9395 59.9061C55.9395 60.2642 55.6498 60.5544 55.2925 60.5544Z" fill="white" fill-opacity="0.1"/>
<path d="M55.2922 54.1599C55.6487 54.1599 55.9365 53.8688 55.9365 53.5116C55.9365 53.1544 55.6461 52.8633 55.2922 52.8633C54.9384 52.8633 54.6453 53.1544 54.6453 53.5116C54.6453 53.8688 54.9357 54.1599 55.2922 54.1599Z" fill="white" fill-opacity="0.1"/>
<path d="M55.2922 47.7627C55.6487 47.7627 55.9365 47.4716 55.9365 47.1144C55.9365 46.7572 55.6461 46.4688 55.2922 46.4688C54.9384 46.4688 54.6453 46.7598 54.6453 47.1144C54.6453 47.469 54.9357 47.7627 55.2922 47.7627Z" fill="white" fill-opacity="0.1"/>
<path d="M55.2919 41.6903C55.828 41.6903 56.2637 41.2537 56.2637 40.7192C56.2637 40.1847 55.828 39.748 55.2919 39.748C54.7559 39.748 54.3228 40.1847 54.3228 40.7192C54.3228 41.2537 54.7585 41.6903 55.2919 41.6903Z" fill="white" fill-opacity="0.1"/>
<path d="M55.2925 34.9724C54.9352 34.9724 54.6455 34.6821 54.6455 34.3241C54.6455 33.966 54.9352 33.6758 55.2925 33.6758C55.6498 33.6758 55.9395 33.966 55.9395 34.3241C55.9395 34.6821 55.6498 34.9724 55.2925 34.9724Z" fill="white" fill-opacity="0.1"/>
<path d="M55.2923 28.3331C55.5141 28.3331 55.6963 28.1506 55.6963 27.9283C55.6963 27.706 55.5141 27.5234 55.2923 27.5234C55.0705 27.5234 54.8856 27.706 54.8856 27.9283C54.8856 28.1506 55.0678 28.3331 55.2923 28.3331Z" fill="white" fill-opacity="0.1"/>
<path d="M55.2923 22.1814C55.6488 22.1814 55.9419 21.8903 55.9419 21.5331C55.9419 21.1758 55.6514 20.8848 55.2923 20.8848C54.9332 20.8848 54.648 21.1758 54.648 21.5331C54.648 21.8903 54.9384 22.1814 55.2923 22.1814Z" fill="white" fill-opacity="0.1"/>
<path d="M55.2922 15.6242C55.5589 15.6242 55.7754 15.4072 55.7754 15.1373C55.7754 14.8674 55.5589 14.6504 55.2922 14.6504C55.0254 14.6504 54.8063 14.8674 54.8063 15.1373C54.8063 15.4072 55.0254 15.6242 55.2922 15.6242Z" fill="white" fill-opacity="0.1"/>
<path d="M55.2921 9.06362C55.1142 9.06362 54.9699 8.91909 54.9699 8.74079C54.9699 8.5625 55.1142 8.41797 55.2921 8.41797C55.47 8.41797 55.6143 8.5625 55.6143 8.74079C55.6143 8.91909 55.47 9.06362 55.2921 9.06362Z" fill="white" fill-opacity="0.1"/>
<path d="M55.2921 2.75112C55.5165 2.75112 55.6987 2.56853 55.6987 2.34626C55.6987 2.12399 55.5165 1.94141 55.2921 1.94141C55.0676 1.94141 54.8907 2.12399 54.8907 2.34626C54.8907 2.56853 55.0703 2.75112 55.2921 2.75112Z" fill="white" fill-opacity="0.1"/>
<path d="M64.3469 60.5544C64.7034 60.5544 64.9912 60.2633 64.9912 59.9061C64.9912 59.5489 64.7007 59.2578 64.3469 59.2578C63.9931 59.2578 63.6999 59.5489 63.6999 59.9061C63.6999 60.2633 63.9904 60.5544 64.3469 60.5544Z" fill="white" fill-opacity="0.1"/>
<path d="M64.3441 53.6724C64.4339 53.6724 64.5078 53.601 64.5078 53.511C64.5078 53.4211 64.4339 53.3496 64.3441 53.3496C64.2543 53.3496 64.183 53.4211 64.183 53.511C64.183 53.601 64.2543 53.6724 64.3441 53.6724Z" fill="white" fill-opacity="0.1"/>
<path d="M64.3467 47.2799C64.4365 47.2799 64.5078 47.2084 64.5078 47.1184C64.5078 47.0285 64.4365 46.957 64.3467 46.957C64.2569 46.957 64.183 47.0285 64.183 47.1184C64.183 47.2084 64.2569 47.2799 64.3467 47.2799Z" fill="white" fill-opacity="0.1"/>
<path d="M64.3467 34.9724C63.9894 34.9724 63.6997 34.6821 63.6997 34.3241C63.6997 33.966 63.9894 33.6758 64.3467 33.6758C64.704 33.6758 64.9937 33.966 64.9937 34.3241C64.9937 34.6821 64.704 34.9724 64.3467 34.9724Z" fill="white" fill-opacity="0.1"/>
<path d="M64.3467 28.0904C64.2578 28.0904 64.1857 28.0181 64.1857 27.929C64.1857 27.8398 64.2578 27.7676 64.3467 27.7676C64.4357 27.7676 64.5078 27.8398 64.5078 27.929C64.5078 28.0181 64.4357 28.0904 64.3467 28.0904Z" fill="white" fill-opacity="0.1"/>
<path d="M64.3441 22.1814C64.7005 22.1814 64.9937 21.8903 64.9937 21.5331C64.9937 21.1758 64.7032 20.8848 64.3441 20.8848C63.9849 20.8848 63.6997 21.1758 63.6997 21.5331C63.6997 21.8903 63.9902 22.1814 64.3441 22.1814Z" fill="white" fill-opacity="0.1"/>
<path d="M64.3441 15.7849C64.7005 15.7849 64.9937 15.4938 64.9937 15.1366C64.9937 14.7794 64.7032 14.4883 64.3441 14.4883C63.9849 14.4883 63.6997 14.7794 63.6997 15.1366C63.6997 15.4938 63.9902 15.7849 64.3441 15.7849Z" fill="white" fill-opacity="0.1"/>
<path d="M64.3469 9.39034C64.7034 9.39034 64.9912 9.09927 64.9912 8.74205C64.9912 8.38482 64.7007 8.09375 64.3469 8.09375C63.9931 8.09375 63.6999 8.38482 63.6999 8.74205C63.6999 9.09927 63.9904 9.39034 64.3469 9.39034Z" fill="white" fill-opacity="0.1"/>
<path d="M64.3467 2.99317C64.7032 2.99317 64.9937 2.70209 64.9937 2.34752C64.9937 1.99294 64.7032 1.69922 64.3467 1.69922C63.9902 1.69922 63.6971 1.99029 63.6971 2.34752C63.6971 2.70474 63.9876 2.99317 64.3467 2.99317Z" fill="white" fill-opacity="0.1"/>
<path d="M73.4015 67.2723C73.9375 67.2723 74.3706 66.8357 74.3706 66.3012C74.3706 65.7667 73.9349 65.3301 73.4015 65.3301C72.8681 65.3301 72.4324 65.7667 72.4324 66.3012C72.4324 66.8357 72.8681 67.2723 73.4015 67.2723Z" fill="white" fill-opacity="0.1"/>
<path d="M73.3992 60.5544C73.7557 60.5544 74.0488 60.2633 74.0488 59.9061C74.0488 59.5489 73.7584 59.2578 73.3992 59.2578C73.0401 59.2578 72.7549 59.5489 72.7549 59.9061C72.7549 60.2633 73.0454 60.5544 73.3992 60.5544Z" fill="white" fill-opacity="0.1"/>
<path d="M73.399 53.9152C73.6235 53.9152 73.8057 53.7326 73.8057 53.5103C73.8057 53.2881 73.6235 53.1055 73.399 53.1055C73.1746 53.1055 72.9976 53.2881 72.9976 53.5103C72.9976 53.7326 73.1772 53.9152 73.399 53.9152Z" fill="white" fill-opacity="0.1"/>
<path d="M73.4018 47.3553C73.5338 47.3553 73.6421 47.2468 73.6421 47.1145C73.6421 46.9822 73.5365 46.8711 73.4018 46.8711C73.2671 46.8711 73.1589 46.9796 73.1589 47.1145C73.1589 47.2495 73.2671 47.3553 73.4018 47.3553Z" fill="white" fill-opacity="0.1"/>
<path d="M73.4014 28.0904C73.3125 28.0904 73.2403 28.0181 73.2403 27.929C73.2403 27.8398 73.3125 27.7676 73.4014 27.7676C73.4904 27.7676 73.5625 27.8398 73.5625 27.929C73.5625 28.0181 73.4904 28.0904 73.4014 28.0904Z" fill="white" fill-opacity="0.1"/>
<path d="M73.4019 15.7849C73.7584 15.7849 74.0488 15.4938 74.0488 15.1366C74.0488 14.7794 73.7584 14.4883 73.4019 14.4883C73.0454 14.4883 72.7523 14.7794 72.7523 15.1366C72.7523 15.4938 73.0428 15.7849 73.4019 15.7849Z" fill="white" fill-opacity="0.1"/>
<path d="M73.4014 8.9029C73.3125 8.9029 73.2403 8.83064 73.2403 8.74149C73.2403 8.65235 73.3125 8.58008 73.4014 8.58008C73.4904 8.58008 73.5625 8.65235 73.5625 8.74149C73.5625 8.83064 73.4904 8.9029 73.4014 8.9029Z" fill="white" fill-opacity="0.1"/>
<path d="M73.3989 2.99317C73.7554 2.99317 74.0459 2.70209 74.0459 2.34752C74.0459 1.99294 73.7554 1.69922 73.3989 1.69922C73.0425 1.69922 72.752 1.99029 72.752 2.34752C72.752 2.70474 73.0425 2.99317 73.3989 2.99317Z" fill="white" fill-opacity="0.1"/>
<path d="M82.4539 66.9509C82.8104 66.9509 83.1035 66.6598 83.1035 66.3026C83.1035 65.9454 82.813 65.6543 82.4539 65.6543C82.0948 65.6543 81.8096 65.9454 81.8096 66.3026C81.8096 66.6598 82.1001 66.9509 82.4539 66.9509Z" fill="white" fill-opacity="0.1"/>
<path d="M82.4537 60.067C82.3647 60.067 82.2926 59.9947 82.2926 59.9056C82.2926 59.8164 82.3647 59.7441 82.4537 59.7441C82.5426 59.7441 82.6147 59.8164 82.6147 59.9056C82.6147 59.9947 82.5426 60.067 82.4537 60.067Z" fill="white" fill-opacity="0.1"/>
<path d="M82.4538 47.7627C82.8103 47.7627 83.0981 47.4716 83.0981 47.1144C83.0981 46.7572 82.8077 46.4688 82.4538 46.4688C82.1 46.4688 81.8069 46.7598 81.8069 47.1144C81.8069 47.469 82.0973 47.7627 82.4538 47.7627Z" fill="white" fill-opacity="0.1"/>
<path d="M82.4537 40.8814C82.5408 40.8814 82.6147 40.81 82.6147 40.72C82.6147 40.63 82.5435 40.5586 82.4537 40.5586C82.3639 40.5586 82.2926 40.63 82.2926 40.72C82.2926 40.81 82.3639 40.8814 82.4537 40.8814Z" fill="white" fill-opacity="0.1"/>
<path d="M82.4536 34.9724C82.8101 34.9724 83.1006 34.6813 83.1006 34.3241C83.1006 33.9668 82.8101 33.6758 82.4536 33.6758C82.0972 33.6758 81.804 33.9668 81.804 34.3241C81.804 34.6813 82.0945 34.9724 82.4536 34.9724Z" fill="white" fill-opacity="0.1"/>
<path d="M82.4536 28.5759C82.0963 28.5759 81.8067 28.2856 81.8067 27.9276C81.8067 27.5696 82.0963 27.2793 82.4536 27.2793C82.8109 27.2793 83.1006 27.5696 83.1006 27.9276C83.1006 28.2856 82.8109 28.5759 82.4536 28.5759Z" fill="white" fill-opacity="0.1"/>
<path d="M82.4537 22.5047C82.9898 22.5047 83.4229 22.0681 83.4229 21.5336C83.4229 20.9991 82.9872 20.5625 82.4537 20.5625C81.9203 20.5625 81.482 20.9991 81.482 21.5336C81.482 22.0681 81.9177 22.5047 82.4537 22.5047Z" fill="white" fill-opacity="0.1"/>
<path d="M82.4536 15.7849C82.0963 15.7849 81.8067 15.4946 81.8067 15.1366C81.8067 14.7785 82.0963 14.4883 82.4536 14.4883C82.8109 14.4883 83.1006 14.7785 83.1006 15.1366C83.1006 15.4946 82.8109 15.7849 82.4536 15.7849Z" fill="white" fill-opacity="0.1"/>
<path d="M82.4536 9.39034C82.0963 9.39034 81.8067 9.10009 81.8067 8.74205C81.8067 8.384 82.0963 8.09375 82.4536 8.09375C82.8109 8.09375 83.1006 8.384 83.1006 8.74205C83.1006 9.10009 82.8109 9.39034 82.4536 9.39034Z" fill="white" fill-opacity="0.1"/>
<path d="M82.4536 2.99317C82.8101 2.99317 83.1006 2.70209 83.1006 2.34752C83.1006 1.99294 82.8101 1.69922 82.4536 1.69922C82.0972 1.69922 81.8067 1.99029 81.8067 2.34752C81.8067 2.70474 82.0972 2.99317 82.4536 2.99317Z" fill="white" fill-opacity="0.1"/>
<path d="M91.5057 66.9509C91.8622 66.9509 92.1553 66.6598 92.1553 66.3026C92.1553 65.9454 91.8648 65.6543 91.5057 65.6543C91.1466 65.6543 90.8587 65.9454 90.8587 66.3026C90.8587 66.6598 91.1492 66.9509 91.5057 66.9509Z" fill="white" fill-opacity="0.1"/>
<path d="M91.5083 60.5544C91.151 60.5544 90.8614 60.2642 90.8614 59.9061C90.8614 59.5481 91.151 59.2578 91.5083 59.2578C91.8656 59.2578 92.1553 59.5481 92.1553 59.9061C92.1553 60.2642 91.8656 60.5544 91.5083 60.5544Z" fill="white" fill-opacity="0.1"/>
<path d="M91.5083 54.1599C91.8648 54.1599 92.1553 53.8688 92.1553 53.5116C92.1553 53.1544 91.8648 52.8633 91.5083 52.8633C91.1518 52.8633 90.8587 53.1544 90.8587 53.5116C90.8587 53.8688 91.1492 54.1599 91.5083 54.1599Z" fill="white" fill-opacity="0.1"/>
<path d="M91.5083 47.7627C91.8648 47.7627 92.1553 47.4716 92.1553 47.1144C92.1553 46.7572 91.8648 46.4688 91.5083 46.4688C91.1518 46.4688 90.8614 46.7598 90.8614 47.1144C90.8614 47.469 91.1518 47.7627 91.5083 47.7627Z" fill="white" fill-opacity="0.1"/>
<path d="M91.5083 41.3689C91.151 41.3689 90.8614 41.0786 90.8614 40.7206C90.8614 40.3625 91.151 40.0723 91.5083 40.0723C91.8656 40.0723 92.1553 40.3625 92.1553 40.7206C92.1553 41.0786 91.8656 41.3689 91.5083 41.3689Z" fill="white" fill-opacity="0.1"/>
<path d="M91.5085 35.6198C92.2215 35.6198 92.7998 35.0403 92.7998 34.3259C92.7998 33.6114 92.2215 33.0293 91.5085 33.0293C90.7956 33.0293 90.2146 33.6114 90.2146 34.3259C90.2146 35.0403 90.7956 35.6198 91.5085 35.6198Z" fill="white" fill-opacity="0.1"/>
<path d="M91.5083 28.5759C91.151 28.5759 90.8614 28.2856 90.8614 27.9276C90.8614 27.5696 91.151 27.2793 91.5083 27.2793C91.8656 27.2793 92.1553 27.5696 92.1553 27.9276C92.1553 28.2856 91.8656 28.5759 91.5083 28.5759Z" fill="white" fill-opacity="0.1"/>
<path d="M91.5057 21.6939C91.5955 21.6939 91.6694 21.6225 91.6694 21.5325C91.6694 21.4425 91.5955 21.3711 91.5057 21.3711C91.4159 21.3711 91.3446 21.4425 91.3446 21.5325C91.3446 21.6225 91.4159 21.6939 91.5057 21.6939Z" fill="white" fill-opacity="0.1"/>
<path d="M91.5083 9.39034C91.8648 9.39034 92.1553 9.09927 92.1553 8.74205C92.1553 8.38482 91.8648 8.09375 91.5083 8.09375C91.1518 8.09375 90.8587 8.38482 90.8587 8.74205C90.8587 9.09927 91.1492 9.39034 91.5083 9.39034Z" fill="white" fill-opacity="0.1"/>
<path d="M91.5084 2.50642C91.4194 2.50642 91.3473 2.43415 91.3473 2.34501C91.3473 2.25586 91.4194 2.18359 91.5084 2.18359C91.5973 2.18359 91.6694 2.25586 91.6694 2.34501C91.6694 2.43415 91.5973 2.50642 91.5084 2.50642Z" fill="white" fill-opacity="0.1"/>
<path d="M100.563 54.1599C100.919 54.1599 101.21 53.8688 101.21 53.5116C101.21 53.1544 100.919 52.8633 100.563 52.8633C100.207 52.8633 99.9134 53.1544 99.9134 53.5116C99.9134 53.8688 100.204 54.1599 100.563 54.1599Z" fill="white" fill-opacity="0.1"/>
<path d="M100.563 47.276C100.474 47.276 100.402 47.2037 100.402 47.1145C100.402 47.0254 100.474 46.9531 100.563 46.9531C100.652 46.9531 100.724 47.0254 100.724 47.1145C100.724 47.2037 100.652 47.276 100.563 47.276Z" fill="white" fill-opacity="0.1"/>
<path d="M100.563 41.3689C100.206 41.3689 99.9161 41.0786 99.9161 40.7206C99.9161 40.3625 100.206 40.0723 100.563 40.0723C100.92 40.0723 101.21 40.3625 101.21 40.7206C101.21 41.0786 100.92 41.3689 100.563 41.3689Z" fill="white" fill-opacity="0.1"/>
<path d="M100.56 34.9724C100.917 34.9724 101.21 34.6813 101.21 34.3241C101.21 33.9668 100.919 33.6758 100.56 33.6758C100.201 33.6758 99.9134 33.9668 99.9134 34.3241C99.9134 34.6813 100.204 34.9724 100.56 34.9724Z" fill="white" fill-opacity="0.1"/>
<path d="M100.563 28.5759C100.92 28.5759 101.208 28.2848 101.208 27.9276C101.208 27.5704 100.917 27.2793 100.563 27.2793C100.209 27.2793 99.9163 27.5704 99.9163 27.9276C99.9163 28.2848 100.207 28.5759 100.563 28.5759Z" fill="white" fill-opacity="0.1"/>
<path d="M100.563 22.5047C101.099 22.5047 101.532 22.0681 101.532 21.5336C101.532 20.9991 101.097 20.5625 100.563 20.5625C100.03 20.5625 99.5914 20.9991 99.5914 21.5336C99.5914 22.0681 100.027 22.5047 100.563 22.5047Z" fill="white" fill-opacity="0.1"/>
<path d="M100.563 15.7849C100.92 15.7849 101.208 15.4938 101.208 15.1366C101.208 14.7794 100.917 14.4883 100.563 14.4883C100.209 14.4883 99.9163 14.7794 99.9163 15.1366C99.9163 15.4938 100.207 15.7849 100.563 15.7849Z" fill="white" fill-opacity="0.1"/>
<path d="M100.563 9.39034C100.919 9.39034 101.21 9.09927 101.21 8.74205C101.21 8.38482 100.919 8.09375 100.563 8.09375C100.207 8.09375 99.9134 8.38482 99.9134 8.74205C99.9134 9.09927 100.204 9.39034 100.563 9.39034Z" fill="white" fill-opacity="0.1"/>
<path d="M100.563 2.99317C100.919 2.99317 101.21 2.70209 101.21 2.34752C101.21 1.99294 100.919 1.69922 100.563 1.69922C100.207 1.69922 99.9161 1.99029 99.9161 2.34752C99.9161 2.70474 100.207 2.99317 100.563 2.99317Z" fill="white" fill-opacity="0.1"/>
<path d="M109.615 21.6939C109.705 21.6939 109.779 21.6225 109.779 21.5325C109.779 21.4425 109.705 21.3711 109.615 21.3711C109.525 21.3711 109.454 21.4425 109.454 21.5325C109.454 21.6225 109.525 21.6939 109.615 21.6939Z" fill="white" fill-opacity="0.1"/>
<path d="M109.615 15.7849C109.972 15.7849 110.265 15.4938 110.265 15.1366C110.265 14.7794 109.974 14.4883 109.615 14.4883C109.256 14.4883 108.971 14.7794 108.971 15.1366C108.971 15.4938 109.261 15.7849 109.615 15.7849Z" fill="white" fill-opacity="0.1"/>
<path d="M109.615 8.98493C109.75 8.98493 109.858 8.87644 109.858 8.74149C109.858 8.60654 109.75 8.49805 109.615 8.49805C109.48 8.49805 109.375 8.60654 109.375 8.74149C109.375 8.87644 109.483 8.98493 109.615 8.98493Z" fill="white" fill-opacity="0.1"/>
<path d="M118.667 66.7856C118.934 66.7856 119.153 66.5686 119.153 66.3013C119.153 66.0341 118.936 65.8145 118.667 65.8145C118.398 65.8145 118.184 66.0314 118.184 66.3013C118.184 66.5712 118.4 66.7856 118.667 66.7856Z" fill="white" fill-opacity="0.1"/>
<path d="M118.67 60.067C118.581 60.067 118.509 59.9947 118.509 59.9056C118.509 59.8164 118.581 59.7441 118.67 59.7441C118.759 59.7441 118.831 59.8164 118.831 59.9056C118.831 59.9947 118.759 60.067 118.67 60.067Z" fill="white" fill-opacity="0.1"/>
<path d="M118.667 22.1814C119.024 22.1814 119.317 21.8903 119.317 21.5331C119.317 21.1758 119.026 20.8848 118.667 20.8848C118.308 20.8848 118.023 21.1758 118.023 21.5331C118.023 21.8903 118.313 22.1814 118.667 22.1814Z" fill="white" fill-opacity="0.1"/>
<path d="M118.67 8.9029C118.76 8.9029 118.831 8.83146 118.831 8.74149C118.831 8.65152 118.76 8.58008 118.67 8.58008C118.58 8.58008 118.506 8.65152 118.506 8.74149C118.506 8.83146 118.58 8.9029 118.67 8.9029Z" fill="white" fill-opacity="0.1"/>
<path d="M118.67 2.66909C118.847 2.66909 118.992 2.52355 118.992 2.34626C118.992 2.16897 118.847 2.02344 118.67 2.02344C118.493 2.02344 118.345 2.16897 118.345 2.34626C118.345 2.52355 118.49 2.66909 118.67 2.66909Z" fill="white" fill-opacity="0.1"/>
<path d="M127.722 66.4635C127.812 66.4635 127.886 66.392 127.886 66.302C127.886 66.2121 127.812 66.1406 127.722 66.1406C127.632 66.1406 127.561 66.2121 127.561 66.302C127.561 66.392 127.632 66.4635 127.722 66.4635Z" fill="white" fill-opacity="0.1"/>
<path d="M127.722 34.4856C127.812 34.4856 127.886 34.4142 127.886 34.3242C127.886 34.2342 127.812 34.1602 127.722 34.1602C127.632 34.1602 127.561 34.2342 127.561 34.3242C127.561 34.4142 127.632 34.4856 127.722 34.4856Z" fill="white" fill-opacity="0.1"/>
<path d="M127.722 28.4978C128.036 28.4978 128.29 28.2437 128.29 27.9315C128.29 27.6193 128.036 27.3652 127.722 27.3652C127.408 27.3652 127.157 27.6193 127.157 27.9315C127.157 28.2437 127.41 28.4978 127.722 28.4978Z" fill="white" fill-opacity="0.1"/>
<path d="M127.722 22.0993C128.036 22.0993 128.29 21.8453 128.29 21.5331C128.29 21.2208 128.036 20.9668 127.722 20.9668C127.408 20.9668 127.157 21.2208 127.157 21.5331C127.157 21.8453 127.41 22.0993 127.722 22.0993Z" fill="white" fill-opacity="0.1"/>
<path d="M127.724 15.7068C128.036 15.7068 128.29 15.4527 128.29 15.1405C128.29 14.8282 128.036 14.5742 127.724 14.5742C127.413 14.5742 127.159 14.8282 127.159 15.1405C127.159 15.4527 127.413 15.7068 127.724 15.7068Z" fill="white" fill-opacity="0.1"/>
<path d="M127.725 9.71569C128.258 9.71569 128.694 9.27908 128.694 8.74456C128.694 8.21005 128.258 7.77344 127.725 7.77344C127.191 7.77344 126.756 8.21005 126.756 8.74456C126.756 9.27908 127.191 9.71569 127.725 9.71569Z" fill="white" fill-opacity="0.1"/>
<path d="M127.722 2.91183C128.036 2.91183 128.29 2.65781 128.29 2.34556C128.29 2.03332 128.036 1.7793 127.722 1.7793C127.408 1.7793 127.157 2.03332 127.157 2.34556C127.157 2.65781 127.41 2.91183 127.722 2.91183Z" fill="white" fill-opacity="0.1"/>
<path d="M136.777 67.1116C136.331 67.1116 135.969 66.7491 135.969 66.3019C135.969 65.8547 136.331 65.4922 136.777 65.4922C137.223 65.4922 137.585 65.8547 137.585 66.3019C137.585 66.7491 137.223 67.1116 136.777 67.1116Z" fill="white" fill-opacity="0.1"/>
<path d="M136.777 60.3117C136.554 60.3117 136.373 60.1304 136.373 59.9068C136.373 59.6832 136.554 59.502 136.777 59.502C137 59.502 137.181 59.6832 137.181 59.9068C137.181 60.1304 137 60.3117 136.777 60.3117Z" fill="white" fill-opacity="0.1"/>
<path d="M136.777 54.1599C137.133 54.1599 137.421 53.8688 137.421 53.5116C137.421 53.1544 137.13 52.8633 136.777 52.8633C136.423 52.8633 136.13 53.1544 136.13 53.5116C136.13 53.8688 136.42 54.1599 136.777 54.1599Z" fill="white" fill-opacity="0.1"/>
<path d="M136.777 47.9254C137.223 47.9254 137.585 47.5628 137.585 47.1157C137.585 46.6685 137.223 46.3086 136.777 46.3086C136.331 46.3086 135.969 46.6711 135.969 47.1157C135.969 47.5602 136.331 47.9254 136.777 47.9254Z" fill="white" fill-opacity="0.1"/>
<path d="M136.777 41.2062C137.044 41.2062 137.263 40.9892 137.263 40.7193C137.263 40.4494 137.046 40.2324 136.777 40.2324C136.507 40.2324 136.291 40.4494 136.291 40.7193C136.291 40.9892 136.51 41.2062 136.777 41.2062Z" fill="white" fill-opacity="0.1"/>
<path d="M136.776 35.2958C137.313 35.2958 137.746 34.8591 137.746 34.3246C137.746 33.7901 137.31 33.3535 136.776 33.3535C136.243 33.3535 135.805 33.7901 135.805 34.3246C135.805 34.8591 136.24 35.2958 136.776 35.2958Z" fill="white" fill-opacity="0.1"/>
<path d="M136.777 21.7759C136.642 21.7759 136.534 21.6669 136.534 21.5325C136.534 21.3981 136.642 21.2891 136.777 21.2891C136.911 21.2891 137.02 21.3981 137.02 21.5325C137.02 21.6669 136.911 21.7759 136.777 21.7759Z" fill="white" fill-opacity="0.1"/>
<path d="M136.777 16.433C137.49 16.433 138.071 15.8509 138.071 15.1364C138.071 14.422 137.49 13.8398 136.777 13.8398C136.064 13.8398 135.486 14.422 135.486 15.1364C135.486 15.8509 136.064 16.433 136.777 16.433Z" fill="white" fill-opacity="0.1"/>
<path d="M136.777 9.30832C136.465 9.30832 136.212 9.05479 136.212 8.74205C136.212 8.42931 136.465 8.17578 136.777 8.17578C137.089 8.17578 137.342 8.42931 137.342 8.74205C137.342 9.05479 137.089 9.30832 136.777 9.30832Z" fill="white" fill-opacity="0.1"/>
<path d="M136.777 2.91183C136.465 2.91183 136.212 2.65831 136.212 2.34556C136.212 2.03282 136.465 1.7793 136.777 1.7793C137.089 1.7793 137.342 2.03282 137.342 2.34556C137.342 2.65831 137.089 2.91183 136.777 2.91183Z" fill="white" fill-opacity="0.1"/>
<path d="M145.829 67.4337C146.454 67.4337 146.961 66.9257 146.961 66.3012C146.961 65.6767 146.452 65.166 145.829 65.166C145.205 65.166 144.698 65.6741 144.698 66.3012C144.698 66.9283 145.205 67.4337 145.829 67.4337Z" fill="white" fill-opacity="0.1"/>
<path d="M145.832 60.3937C145.563 60.3937 145.346 60.1757 145.346 59.9068C145.346 59.6379 145.563 59.4199 145.832 59.4199C146.1 59.4199 146.317 59.6379 146.317 59.9068C146.317 60.1757 146.1 60.3937 145.832 60.3937Z" fill="white" fill-opacity="0.1"/>
<path d="M145.829 54.1599C146.185 54.1599 146.479 53.8688 146.479 53.5116C146.479 53.1544 146.188 52.8633 145.829 52.8633C145.47 52.8633 145.185 53.1544 145.185 53.5116C145.185 53.8688 145.475 54.1599 145.829 54.1599Z" fill="white" fill-opacity="0.1"/>
<path d="M145.832 48.2482C146.455 48.2482 146.964 47.7401 146.964 47.1156C146.964 46.4912 146.457 45.9805 145.832 45.9805C145.206 45.9805 144.699 46.4885 144.699 47.1156C144.699 47.7428 145.206 48.2482 145.832 48.2482Z" fill="white" fill-opacity="0.1"/>
<path d="M145.831 41.8544C146.454 41.8544 146.961 41.3463 146.961 40.7192C146.961 40.092 146.454 39.584 145.831 39.584C145.208 39.584 144.698 40.092 144.698 40.7192C144.698 41.3463 145.205 41.8544 145.831 41.8544Z" fill="white" fill-opacity="0.1"/>
<path d="M145.831 34.8903C145.519 34.8903 145.266 34.6368 145.266 34.3241C145.266 34.0113 145.519 33.7578 145.831 33.7578C146.143 33.7578 146.396 34.0113 146.396 34.3241C146.396 34.6368 146.143 34.8903 145.831 34.8903Z" fill="white" fill-opacity="0.1"/>
<path d="M145.829 29.0633C145.203 29.0633 144.696 28.5551 144.696 27.9282C144.696 27.3012 145.203 26.793 145.829 26.793C146.454 26.793 146.961 27.3012 146.961 27.9282C146.961 28.5551 146.454 29.0633 145.829 29.0633Z" fill="white" fill-opacity="0.1"/>
<path d="M145.832 22.6669C146.455 22.6669 146.964 22.1588 146.964 21.5317C146.964 20.9045 146.457 20.3965 145.832 20.3965C145.206 20.3965 144.699 20.9045 144.699 21.5317C144.699 22.1588 145.208 22.6669 145.832 22.6669Z" fill="white" fill-opacity="0.1"/>
<path d="M145.829 15.6242C146.098 15.6242 146.314 15.4072 146.314 15.1373C146.314 14.8674 146.095 14.6504 145.829 14.6504C145.562 14.6504 145.345 14.8674 145.345 15.1373C145.345 15.4072 145.562 15.6242 145.829 15.6242Z" fill="white" fill-opacity="0.1"/>
<path d="M145.831 9.22767C146.098 9.22767 146.314 9.01069 146.314 8.74079C146.314 8.47089 146.098 8.25391 145.831 8.25391C145.565 8.25391 145.345 8.47089 145.345 8.74079C145.345 9.01069 145.562 9.22767 145.831 9.22767Z" fill="white" fill-opacity="0.1"/>
<path d="M145.832 2.83314C146.098 2.83314 146.317 2.61352 146.317 2.34626C146.317 2.079 146.101 1.85938 145.832 1.85938C145.562 1.85938 145.346 2.07636 145.346 2.34626C145.346 2.61616 145.565 2.83314 145.832 2.83314Z" fill="white" fill-opacity="0.1"/>
<path d="M154.886 66.4635C154.973 66.4635 155.047 66.392 155.047 66.302C155.047 66.2121 154.976 66.1406 154.886 66.1406C154.797 66.1406 154.725 66.2121 154.725 66.302C154.725 66.392 154.797 66.4635 154.886 66.4635Z" fill="white" fill-opacity="0.1"/>
<path d="M154.886 60.4724C155.198 60.4724 155.451 60.2184 155.451 59.9061C155.451 59.5939 155.198 59.3398 154.886 59.3398C154.574 59.3398 154.318 59.5939 154.318 59.9061C154.318 60.2184 154.572 60.4724 154.886 60.4724Z" fill="white" fill-opacity="0.1"/>
<path d="M154.886 47.5206C154.663 47.5206 154.482 47.3394 154.482 47.1158C154.482 46.8922 154.663 46.7109 154.886 46.7109C155.109 46.7109 155.29 46.8922 155.29 47.1158C155.29 47.3394 155.109 47.5206 154.886 47.5206Z" fill="white" fill-opacity="0.1"/>
<path d="M154.886 41.1242C154.663 41.1242 154.482 40.9429 154.482 40.7193C154.482 40.4957 154.663 40.3145 154.886 40.3145C155.109 40.3145 155.29 40.4957 155.29 40.7193C155.29 40.9429 155.109 41.1242 154.886 41.1242Z" fill="white" fill-opacity="0.1"/>
<path d="M154.886 35.4572C155.509 35.4572 156.019 34.9491 156.019 34.322C156.019 33.6949 155.512 33.1895 154.886 33.1895C154.26 33.1895 153.753 33.6975 153.753 34.322C153.753 34.9465 154.26 35.4572 154.886 35.4572Z" fill="white" fill-opacity="0.1"/>
<path d="M154.886 28.3331C155.108 28.3331 155.288 28.1506 155.288 27.9283C155.288 27.706 155.108 27.5234 154.886 27.5234C154.664 27.5234 154.482 27.706 154.482 27.9283C154.482 28.1506 154.664 28.3331 154.886 28.3331Z" fill="white" fill-opacity="0.1"/>
<path d="M154.883 21.9367C155.108 21.9367 155.29 21.7541 155.29 21.5318C155.29 21.3095 155.108 21.127 154.883 21.127C154.659 21.127 154.482 21.3095 154.482 21.5318C154.482 21.7541 154.662 21.9367 154.883 21.9367Z" fill="white" fill-opacity="0.1"/>
<path d="M154.884 16.5937C155.686 16.5937 156.341 15.9402 156.341 15.1357C156.341 14.3313 155.689 13.6777 154.884 13.6777C154.078 13.6777 153.431 14.3313 153.431 15.1357C153.431 15.9402 154.084 16.5937 154.884 16.5937Z" fill="white" fill-opacity="0.1"/>
<path d="M154.886 3.31724C155.42 3.31724 155.855 2.88064 155.855 2.34612C155.855 1.81161 155.42 1.375 154.886 1.375C154.353 1.375 153.917 1.81161 153.917 2.34612C153.917 2.88064 154.353 3.31724 154.886 3.31724Z" fill="white" fill-opacity="0.1"/>
<path d="M163.938 67.2723C164.472 67.2723 164.907 66.8357 164.907 66.3012C164.907 65.7667 164.472 65.3301 163.938 65.3301C163.405 65.3301 162.969 65.7667 162.969 66.3012C162.969 66.8357 163.405 67.2723 163.938 67.2723Z" fill="white" fill-opacity="0.1"/>
<path d="M163.938 60.8778C163.403 60.8778 162.969 60.443 162.969 59.9067C162.969 59.3703 163.403 58.9355 163.938 58.9355C164.473 58.9355 164.907 59.3703 164.907 59.9067C164.907 60.443 164.473 60.8778 163.938 60.8778Z" fill="white" fill-opacity="0.1"/>
<path d="M163.938 54.9688C164.741 54.9688 165.396 54.3152 165.396 53.5107C165.396 52.7063 164.744 52.0527 163.938 52.0527C163.133 52.0527 162.486 52.7063 162.486 53.5107C162.486 54.3152 163.138 54.9688 163.938 54.9688Z" fill="white" fill-opacity="0.1"/>
<path d="M163.938 48.0868C163.403 48.0868 162.969 47.652 162.969 47.1156C162.969 46.5793 163.403 46.1445 163.938 46.1445C164.473 46.1445 164.907 46.5793 164.907 47.1156C164.907 47.652 164.473 48.0868 163.938 48.0868Z" fill="white" fill-opacity="0.1"/>
<path d="M163.938 28.5759C164.294 28.5759 164.585 28.2848 164.585 27.9276C164.585 27.5704 164.294 27.2793 163.938 27.2793C163.582 27.2793 163.288 27.5704 163.288 27.9276C163.288 28.2848 163.579 28.5759 163.938 28.5759Z" fill="white" fill-opacity="0.1"/>
<path d="M163.938 22.5047C164.474 22.5047 164.91 22.0681 164.91 21.5336C164.91 20.9991 164.474 20.5625 163.938 20.5625C163.402 20.5625 162.969 20.9991 162.969 21.5336C162.969 22.0681 163.405 22.5047 163.938 22.5047Z" fill="white" fill-opacity="0.1"/>
<path d="M163.938 15.7849C164.295 15.7849 164.583 15.4938 164.583 15.1366C164.583 14.7794 164.292 14.4883 163.938 14.4883C163.584 14.4883 163.291 14.7794 163.291 15.1366C163.291 15.4938 163.582 15.7849 163.938 15.7849Z" fill="white" fill-opacity="0.1"/>
<path d="M163.938 10.0385C163.223 10.0385 162.644 9.45799 162.644 8.74191C162.644 8.02582 163.223 7.44531 163.938 7.44531C164.653 7.44531 165.232 8.02582 165.232 8.74191C165.232 9.45799 164.653 10.0385 163.938 10.0385Z" fill="white" fill-opacity="0.1"/>
<path d="M163.938 3.4813C164.562 3.4813 165.071 2.9706 165.071 2.34612C165.071 1.72164 164.564 1.21094 163.938 1.21094C163.313 1.21094 162.806 1.71899 162.806 2.34612C162.806 2.97325 163.315 3.4813 163.938 3.4813Z" fill="white" fill-opacity="0.1"/>
<path d="M172.993 67.4337C173.616 67.4337 174.126 66.9257 174.126 66.3012C174.126 65.6767 173.619 65.166 172.993 65.166C172.367 65.166 171.86 65.6741 171.86 66.3012C171.86 66.9283 172.37 67.4337 172.993 67.4337Z" fill="white" fill-opacity="0.1"/>
<path d="M172.993 60.5544C173.349 60.5544 173.643 60.2633 173.643 59.9061C173.643 59.5489 173.352 59.2578 172.993 59.2578C172.634 59.2578 172.349 59.5489 172.349 59.9061C172.349 60.2633 172.639 60.5544 172.993 60.5544Z" fill="white" fill-opacity="0.1"/>
<path d="M172.993 54.1599C173.349 54.1599 173.64 53.8688 173.64 53.5116C173.64 53.1544 173.349 52.8633 172.993 52.8633C172.636 52.8633 172.343 53.1544 172.343 53.5116C172.343 53.8688 172.634 54.1599 172.993 54.1599Z" fill="white" fill-opacity="0.1"/>
<path d="M172.993 48.2482C173.616 48.2482 174.123 47.7401 174.123 47.1156C174.123 46.4912 173.616 45.9805 172.993 45.9805C172.37 45.9805 171.86 46.4885 171.86 47.1156C171.86 47.7428 172.367 48.2482 172.993 48.2482Z" fill="white" fill-opacity="0.1"/>
<path d="M172.993 41.3689C172.635 41.3689 172.346 41.0786 172.346 40.7206C172.346 40.3625 172.635 40.0723 172.993 40.0723C173.35 40.0723 173.64 40.3625 173.64 40.7206C173.64 41.0786 173.35 41.3689 172.993 41.3689Z" fill="white" fill-opacity="0.1"/>
<path d="M172.993 34.9724C172.635 34.9724 172.346 34.6821 172.346 34.3241C172.346 33.966 172.635 33.6758 172.993 33.6758C173.35 33.6758 173.64 33.966 173.64 34.3241C173.64 34.6821 173.35 34.9724 172.993 34.9724Z" fill="white" fill-opacity="0.1"/>
<path d="M172.993 28.5759C173.349 28.5759 173.643 28.2848 173.643 27.9276C173.643 27.5704 173.352 27.2793 172.993 27.2793C172.634 27.2793 172.349 27.5704 172.349 27.9276C172.349 28.2848 172.639 28.5759 172.993 28.5759Z" fill="white" fill-opacity="0.1"/>
<path d="M172.993 22.1814C173.349 22.1814 173.643 21.8903 173.643 21.5331C173.643 21.1758 173.352 20.8848 172.993 20.8848C172.634 20.8848 172.349 21.1758 172.349 21.5331C172.349 21.8903 172.639 22.1814 172.993 22.1814Z" fill="white" fill-opacity="0.1"/>
<path d="M172.993 15.2974C172.904 15.2974 172.832 15.2252 172.832 15.136C172.832 15.0469 172.904 14.9746 172.993 14.9746C173.082 14.9746 173.154 15.0469 173.154 15.136C173.154 15.2252 173.082 15.2974 172.993 15.2974Z" fill="white" fill-opacity="0.1"/>
<path d="M182.048 66.5455C181.913 66.5455 181.805 66.4365 181.805 66.302C181.805 66.1676 181.913 66.0586 182.048 66.0586C182.182 66.0586 182.291 66.1676 182.291 66.302C182.291 66.4365 182.182 66.5455 182.048 66.5455Z" fill="white" fill-opacity="0.1"/>
<path d="M182.045 60.3117C182.269 60.3117 182.452 60.1291 182.452 59.9068C182.452 59.6845 182.269 59.502 182.045 59.502C181.821 59.502 181.641 59.6845 181.641 59.9068C181.641 60.1291 181.823 60.3117 182.045 60.3117Z" fill="white" fill-opacity="0.1"/>
<path d="M182.047 54.808C182.76 54.808 183.341 54.2259 183.341 53.5114C183.341 52.797 182.76 52.2148 182.047 52.2148C181.334 52.2148 180.753 52.797 180.753 53.5114C180.753 54.2259 181.334 54.808 182.047 54.808Z" fill="white" fill-opacity="0.1"/>
<path d="M182.048 41.1242C181.825 41.1242 181.644 40.9429 181.644 40.7193C181.644 40.4957 181.825 40.3145 182.048 40.3145C182.271 40.3145 182.452 40.4957 182.452 40.7193C182.452 40.9429 182.271 41.1242 182.048 41.1242Z" fill="white" fill-opacity="0.1"/>
<path d="M182.048 34.567C182.18 34.567 182.288 34.4585 182.288 34.3235C182.288 34.1886 182.18 34.0801 182.048 34.0801C181.916 34.0801 181.805 34.1886 181.805 34.3235C181.805 34.4585 181.913 34.567 182.048 34.567Z" fill="white" fill-opacity="0.1"/>
<path d="M182.048 28.9813C182.626 28.9813 183.096 28.5077 183.096 27.9282C183.096 27.3487 182.626 26.875 182.048 26.875C181.47 26.875 180.997 27.3487 180.997 27.9282C180.997 28.5077 181.47 28.9813 182.048 28.9813Z" fill="white" fill-opacity="0.1"/>
<path d="M182.048 22.5848C181.467 22.5848 180.997 22.1133 180.997 21.5317C180.997 20.95 181.467 20.4785 182.048 20.4785C182.628 20.4785 183.099 20.95 183.099 21.5317C183.099 22.1133 182.628 22.5848 182.048 22.5848Z" fill="white" fill-opacity="0.1"/>
<path d="M182.048 16.1903C182.626 16.1903 183.096 15.7166 183.096 15.1371C183.096 14.5576 182.626 14.084 182.048 14.084C181.47 14.084 180.997 14.5576 180.997 15.1371C180.997 15.7166 181.47 16.1903 182.048 16.1903Z" fill="white" fill-opacity="0.1"/>
<path d="M182.048 10.1992C182.85 10.1992 183.5 9.54563 183.5 8.74121C183.5 7.93679 182.848 7.2832 182.048 7.2832C181.248 7.2832 180.593 7.93679 180.593 8.74121C180.593 9.54563 181.245 10.1992 182.048 10.1992Z" fill="white" fill-opacity="0.1"/>
<path d="M182.045 2.99317C182.401 2.99317 182.692 2.70209 182.692 2.34752C182.692 1.99294 182.401 1.69922 182.045 1.69922C181.688 1.69922 181.401 1.99029 181.401 2.34752C181.401 2.70474 181.691 2.99317 182.045 2.99317Z" fill="white" fill-opacity="0.1"/>
<path d="M154.884 54.1599C155.24 54.1599 155.533 53.8688 155.533 53.5116C155.533 53.1544 155.243 52.8633 154.884 52.8633C154.524 52.8633 154.239 53.1544 154.239 53.5116C154.239 53.8688 154.53 54.1599 154.884 54.1599Z" fill="white" fill-opacity="0.1"/>
<path d="M184.469 66.4635C184.559 66.4635 184.633 66.392 184.633 66.302C184.633 66.2121 184.559 66.1406 184.469 66.1406C184.379 66.1406 184.308 66.2121 184.308 66.302C184.308 66.392 184.379 66.4635 184.469 66.4635Z" fill="white" fill-opacity="0.1"/>
<path d="M184.469 28.1724C184.604 28.1724 184.712 28.0639 184.712 27.929C184.712 27.794 184.604 27.6855 184.469 27.6855C184.334 27.6855 184.226 27.794 184.226 27.929C184.226 28.0639 184.334 28.1724 184.469 28.1724Z" fill="white" fill-opacity="0.1"/>
<path d="M184.469 22.5047C183.934 22.5047 183.5 22.07 183.5 21.5336C183.5 20.9973 183.934 20.5625 184.469 20.5625C185.004 20.5625 185.438 20.9973 185.438 21.5336C185.438 22.07 185.004 22.5047 184.469 22.5047Z" fill="white" fill-opacity="0.1"/>
<path d="M193.521 66.9509C193.877 66.9509 194.168 66.6598 194.168 66.3026C194.168 65.9454 193.877 65.6543 193.521 65.6543C193.165 65.6543 192.877 65.9454 192.877 66.3026C192.877 66.6598 193.167 66.9509 193.521 66.9509Z" fill="white" fill-opacity="0.1"/>
<path d="M193.523 60.067C193.435 60.067 193.362 59.9947 193.362 59.9056C193.362 59.8164 193.435 59.7441 193.523 59.7441C193.612 59.7441 193.685 59.8164 193.685 59.9056C193.685 59.9947 193.612 60.067 193.523 60.067Z" fill="white" fill-opacity="0.1"/>
<path d="M193.524 28.5759C193.88 28.5759 194.171 28.2848 194.171 27.9276C194.171 27.5704 193.88 27.2793 193.524 27.2793C193.167 27.2793 192.874 27.5704 192.874 27.9276C192.874 28.2848 193.165 28.5759 193.524 28.5759Z" fill="white" fill-opacity="0.1"/>
<path d="M193.523 21.6939C193.435 21.6939 193.362 21.6216 193.362 21.5325C193.362 21.4434 193.435 21.3711 193.523 21.3711C193.612 21.3711 193.685 21.4434 193.685 21.5325C193.685 21.6216 193.612 21.6939 193.523 21.6939Z" fill="white" fill-opacity="0.1"/>
<path d="M193.524 15.7849C193.88 15.7849 194.171 15.4938 194.171 15.1366C194.171 14.7794 193.88 14.4883 193.524 14.4883C193.167 14.4883 192.874 14.7794 192.874 15.1366C192.874 15.4938 193.165 15.7849 193.524 15.7849Z" fill="white" fill-opacity="0.1"/>
<path d="M193.523 8.9029C193.611 8.9029 193.685 8.83146 193.685 8.74149C193.685 8.65152 193.613 8.58008 193.523 8.58008C193.434 8.58008 193.362 8.65152 193.362 8.74149C193.362 8.83146 193.434 8.9029 193.523 8.9029Z" fill="white" fill-opacity="0.1"/>
<path d="M202.579 66.4635C202.668 66.4635 202.74 66.392 202.74 66.302C202.74 66.2121 202.668 66.1406 202.579 66.1406C202.489 66.1406 202.415 66.2121 202.415 66.302C202.415 66.392 202.489 66.4635 202.579 66.4635Z" fill="white" fill-opacity="0.1"/>
<path d="M202.579 54.1599C202.935 54.1599 203.226 53.8688 203.226 53.5116C203.226 53.1544 202.935 52.8633 202.579 52.8633C202.222 52.8633 201.929 53.1544 201.929 53.5116C201.929 53.8688 202.22 54.1599 202.579 54.1599Z" fill="white" fill-opacity="0.1"/>
<path d="M202.579 47.276C202.49 47.276 202.418 47.2037 202.418 47.1145C202.418 47.0254 202.49 46.9531 202.579 46.9531C202.668 46.9531 202.74 47.0254 202.74 47.1145C202.74 47.2037 202.668 47.276 202.579 47.276Z" fill="white" fill-opacity="0.1"/>
<path d="M202.576 28.5759C202.932 28.5759 203.226 28.2848 203.226 27.9276C203.226 27.5704 202.935 27.2793 202.576 27.2793C202.217 27.2793 201.932 27.5704 201.932 27.9276C201.932 28.2848 202.222 28.5759 202.576 28.5759Z" fill="white" fill-opacity="0.1"/>
<path d="M202.579 22.8295C201.864 22.8295 201.285 22.249 201.285 21.5329C201.285 20.8168 201.864 20.2363 202.579 20.2363C203.293 20.2363 203.873 20.8168 203.873 21.5329C203.873 22.249 203.293 22.8295 202.579 22.8295Z" fill="white" fill-opacity="0.1"/>
<path d="M202.579 15.7849C202.935 15.7849 203.226 15.4938 203.226 15.1366C203.226 14.7794 202.935 14.4883 202.579 14.4883C202.222 14.4883 201.929 14.7794 201.929 15.1366C201.929 15.4938 202.22 15.7849 202.579 15.7849Z" fill="white" fill-opacity="0.1"/>
<path d="M202.576 9.14565C202.8 9.14565 202.982 8.96307 202.982 8.74079C202.982 8.51852 202.8 8.33594 202.576 8.33594C202.351 8.33594 202.172 8.51852 202.172 8.74079C202.172 8.96307 202.354 9.14565 202.576 9.14565Z" fill="white" fill-opacity="0.1"/>
<path d="M202.579 2.50642C202.49 2.50642 202.418 2.43415 202.418 2.34501C202.418 2.25586 202.49 2.18359 202.579 2.18359C202.668 2.18359 202.74 2.25586 202.74 2.34501C202.74 2.43415 202.668 2.50642 202.579 2.50642Z" fill="white" fill-opacity="0.1"/>
<path d="M211.631 66.4635C211.718 66.4635 211.792 66.392 211.792 66.302C211.792 66.2121 211.721 66.1406 211.631 66.1406C211.541 66.1406 211.47 66.2121 211.47 66.302C211.47 66.392 211.541 66.4635 211.631 66.4635Z" fill="white" fill-opacity="0.1"/>
<path d="M211.631 60.5544C211.274 60.5544 210.984 60.2642 210.984 59.9061C210.984 59.5481 211.274 59.2578 211.631 59.2578C211.988 59.2578 212.278 59.5481 212.278 59.9061C212.278 60.2642 211.988 60.5544 211.631 60.5544Z" fill="white" fill-opacity="0.1"/>
<path d="M211.631 54.1599C211.987 54.1599 212.278 53.8688 212.278 53.5116C212.278 53.1544 211.987 52.8633 211.631 52.8633C211.274 52.8633 210.981 53.1544 210.981 53.5116C210.981 53.8688 211.272 54.1599 211.631 54.1599Z" fill="white" fill-opacity="0.1"/>
<path d="M211.631 47.7627C211.987 47.7627 212.278 47.4716 212.278 47.1144C212.278 46.7572 211.987 46.4688 211.631 46.4688C211.274 46.4688 210.984 46.7598 210.984 47.1144C210.984 47.469 211.274 47.7627 211.631 47.7627Z" fill="white" fill-opacity="0.1"/>
<path d="M211.63 41.0441C211.81 41.0441 211.953 40.8986 211.953 40.7213C211.953 40.544 211.807 40.3984 211.63 40.3984C211.454 40.3984 211.306 40.544 211.306 40.7213C211.306 40.8986 211.451 41.0441 211.63 41.0441Z" fill="white" fill-opacity="0.1"/>
<path d="M211.631 34.9724C211.274 34.9724 210.984 34.6821 210.984 34.3241C210.984 33.966 211.274 33.6758 211.631 33.6758C211.988 33.6758 212.278 33.966 212.278 34.3241C212.278 34.6821 211.988 34.9724 211.631 34.9724Z" fill="white" fill-opacity="0.1"/>
<path d="M211.631 28.5759C211.987 28.5759 212.275 28.2848 212.275 27.9276C212.275 27.5704 211.984 27.2793 211.631 27.2793C211.277 27.2793 210.984 27.5704 210.984 27.9276C210.984 28.2848 211.274 28.5759 211.631 28.5759Z" fill="white" fill-opacity="0.1"/>
<path d="M211.631 22.1814C211.987 22.1814 212.28 21.8903 212.28 21.5331C212.28 21.1758 211.99 20.8848 211.631 20.8848C211.272 20.8848 210.986 21.1758 210.986 21.5331C210.986 21.8903 211.277 22.1814 211.631 22.1814Z" fill="white" fill-opacity="0.1"/>
<path d="M211.631 15.7849C211.274 15.7849 210.984 15.4946 210.984 15.1366C210.984 14.7785 211.274 14.4883 211.631 14.4883C211.988 14.4883 212.278 14.7785 212.278 15.1366C212.278 15.4946 211.988 15.7849 211.631 15.7849Z" fill="white" fill-opacity="0.1"/>
<path d="M211.631 9.14565C211.408 9.14565 211.227 8.96439 211.227 8.74079C211.227 8.5172 211.408 8.33594 211.631 8.33594C211.854 8.33594 212.035 8.5172 212.035 8.74079C212.035 8.96439 211.854 9.14565 211.631 9.14565Z" fill="white" fill-opacity="0.1"/>
<path d="M211.63 3.64201C210.916 3.64201 210.336 3.06151 210.336 2.34542C210.336 1.62933 210.916 1.04883 211.63 1.04883C212.345 1.04883 212.924 1.62933 212.924 2.34542C212.924 3.06151 212.345 3.64201 211.63 3.64201Z" fill="white" fill-opacity="0.1"/>
<path d="M220.686 66.9509C221.042 66.9509 221.333 66.6598 221.333 66.3026C221.333 65.9454 221.042 65.6543 220.686 65.6543C220.329 65.6543 220.036 65.9454 220.036 66.3026C220.036 66.6598 220.326 66.9509 220.686 66.9509Z" fill="white" fill-opacity="0.1"/>
<path d="M220.685 60.2296C220.507 60.2296 220.363 60.0851 220.363 59.9068C220.363 59.7285 220.507 59.584 220.685 59.584C220.863 59.584 221.007 59.7285 221.007 59.9068C221.007 60.0851 220.863 60.2296 220.685 60.2296Z" fill="white" fill-opacity="0.1"/>
<path d="M220.683 54.4813C221.219 54.4813 221.654 54.0447 221.654 53.5102C221.654 52.9757 221.219 52.5391 220.683 52.5391C220.146 52.5391 219.713 52.9757 219.713 53.5102C219.713 54.0447 220.149 54.4813 220.683 54.4813Z" fill="white" fill-opacity="0.1"/>
<path d="M220.686 47.7627C221.042 47.7627 221.333 47.4716 221.333 47.1144C221.333 46.7572 221.042 46.4688 220.686 46.4688C220.329 46.4688 220.039 46.7598 220.039 47.1144C220.039 47.469 220.329 47.7627 220.686 47.7627Z" fill="white" fill-opacity="0.1"/>
<path d="M220.685 41.0421C220.507 41.0421 220.363 40.8976 220.363 40.7193C220.363 40.541 220.507 40.3965 220.685 40.3965C220.863 40.3965 221.007 40.541 221.007 40.7193C221.007 40.8976 220.863 41.0421 220.685 41.0421Z" fill="white" fill-opacity="0.1"/>
<path d="M220.686 34.4856C220.775 34.4856 220.847 34.4142 220.847 34.3242C220.847 34.2342 220.775 34.1602 220.686 34.1602C220.596 34.1602 220.525 34.2342 220.525 34.3242C220.525 34.4142 220.596 34.4856 220.686 34.4856Z" fill="white" fill-opacity="0.1"/>
<path d="M229.74 66.9509C229.383 66.9509 229.093 66.6606 229.093 66.3026C229.093 65.9445 229.383 65.6543 229.74 65.6543C230.098 65.6543 230.387 65.9445 230.387 66.3026C230.387 66.6606 230.098 66.9509 229.74 66.9509Z" fill="white" fill-opacity="0.1"/>
<path d="M229.738 60.5544C230.094 60.5544 230.387 60.2633 230.387 59.9061C230.387 59.5489 230.097 59.2578 229.738 59.2578C229.378 59.2578 229.093 59.5489 229.093 59.9061C229.093 60.2633 229.384 60.5544 229.738 60.5544Z" fill="white" fill-opacity="0.1"/>
<path d="M229.74 54.1599C229.383 54.1599 229.093 53.8696 229.093 53.5116C229.093 53.1535 229.383 52.8633 229.74 52.8633C230.098 52.8633 230.387 53.1535 230.387 53.5116C230.387 53.8696 230.098 54.1599 229.74 54.1599Z" fill="white" fill-opacity="0.1"/>
<path d="M229.738 47.7627C230.094 47.7627 230.387 47.4716 230.387 47.1144C230.387 46.7572 230.097 46.4688 229.738 46.4688C229.378 46.4688 229.091 46.7598 229.091 47.1144C229.091 47.469 229.381 47.7627 229.738 47.7627Z" fill="white" fill-opacity="0.1"/>
<path d="M229.74 41.3689C230.096 41.3689 230.384 41.0778 230.384 40.7206C230.384 40.3633 230.094 40.0723 229.74 40.0723C229.386 40.0723 229.093 40.3633 229.093 40.7206C229.093 41.0778 229.383 41.3689 229.74 41.3689Z" fill="white" fill-opacity="0.1"/>
<path d="M229.74 34.6457C229.919 34.6457 230.062 34.5001 230.062 34.3228C230.062 34.1455 229.917 34 229.74 34C229.563 34 229.418 34.1455 229.418 34.3228C229.418 34.5001 229.563 34.6457 229.74 34.6457Z" fill="white" fill-opacity="0.1"/>
<path d="M229.74 2.50642C229.827 2.50642 229.901 2.43497 229.901 2.34501C229.901 2.25504 229.83 2.18359 229.74 2.18359C229.651 2.18359 229.579 2.25504 229.579 2.34501C229.579 2.43497 229.651 2.50642 229.74 2.50642Z" fill="white" fill-opacity="0.1"/>
<path d="M238.792 66.9509C238.435 66.9509 238.145 66.6606 238.145 66.3026C238.145 65.9445 238.435 65.6543 238.792 65.6543C239.149 65.6543 239.439 65.9445 239.439 66.3026C239.439 66.6606 239.149 66.9509 238.792 66.9509Z" fill="white" fill-opacity="0.1"/>
<path d="M238.792 60.5544C238.435 60.5544 238.145 60.2642 238.145 59.9061C238.145 59.5481 238.435 59.2578 238.792 59.2578C239.149 59.2578 239.439 59.5481 239.439 59.9061C239.439 60.2642 239.149 60.5544 238.792 60.5544Z" fill="white" fill-opacity="0.1"/>
<path d="M238.792 54.1599C239.149 54.1599 239.437 53.8688 239.437 53.5116C239.437 53.1544 239.146 52.8633 238.792 52.8633C238.438 52.8633 238.145 53.1544 238.145 53.5116C238.145 53.8688 238.436 54.1599 238.792 54.1599Z" fill="white" fill-opacity="0.1"/>
<path d="M238.792 47.7627C239.149 47.7627 239.437 47.4716 239.437 47.1144C239.437 46.7572 239.146 46.4688 238.792 46.4688C238.438 46.4688 238.145 46.7598 238.145 47.1144C238.145 47.469 238.436 47.7627 238.792 47.7627Z" fill="white" fill-opacity="0.1"/>
<path d="M238.792 41.6903C239.328 41.6903 239.764 41.2537 239.764 40.7192C239.764 40.1847 239.328 39.748 238.792 39.748C238.256 39.748 237.823 40.1847 237.823 40.7192C237.823 41.2537 238.259 41.6903 238.792 41.6903Z" fill="white" fill-opacity="0.1"/>
<path d="M238.792 34.9724C238.435 34.9724 238.145 34.6821 238.145 34.3241C238.145 33.966 238.435 33.6758 238.792 33.6758C239.149 33.6758 239.439 33.966 239.439 34.3241C239.439 34.6821 239.149 34.9724 238.792 34.9724Z" fill="white" fill-opacity="0.1"/>
<path d="M238.792 28.3331C239.014 28.3331 239.196 28.1506 239.196 27.9283C239.196 27.706 239.014 27.5234 238.792 27.5234C238.57 27.5234 238.386 27.706 238.386 27.9283C238.386 28.1506 238.568 28.3331 238.792 28.3331Z" fill="white" fill-opacity="0.1"/>
<path d="M238.792 22.1814C239.149 22.1814 239.442 21.8903 239.442 21.5331C239.442 21.1758 239.151 20.8848 238.792 20.8848C238.433 20.8848 238.148 21.1758 238.148 21.5331C238.148 21.8903 238.438 22.1814 238.792 22.1814Z" fill="white" fill-opacity="0.1"/>
<path d="M238.792 15.6242C239.059 15.6242 239.275 15.4072 239.275 15.1373C239.275 14.8674 239.059 14.6504 238.792 14.6504C238.525 14.6504 238.306 14.8674 238.306 15.1373C238.306 15.4072 238.525 15.6242 238.792 15.6242Z" fill="white" fill-opacity="0.1"/>
<path d="M238.792 9.06362C238.614 9.06362 238.47 8.91909 238.47 8.74079C238.47 8.5625 238.614 8.41797 238.792 8.41797C238.97 8.41797 239.114 8.5625 239.114 8.74079C239.114 8.91909 238.97 9.06362 238.792 9.06362Z" fill="white" fill-opacity="0.1"/>
<path d="M238.792 2.75112C239.017 2.75112 239.199 2.56853 239.199 2.34626C239.199 2.12399 239.017 1.94141 238.792 1.94141C238.568 1.94141 238.391 2.12399 238.391 2.34626C238.391 2.56853 238.57 2.75112 238.792 2.75112Z" fill="white" fill-opacity="0.1"/>
<path d="M247.847 60.5544C248.203 60.5544 248.491 60.2633 248.491 59.9061C248.491 59.5489 248.201 59.2578 247.847 59.2578C247.493 59.2578 247.2 59.5489 247.2 59.9061C247.2 60.2633 247.49 60.5544 247.847 60.5544Z" fill="white" fill-opacity="0.1"/>
<path d="M247.844 53.6724C247.934 53.6724 248.008 53.601 248.008 53.511C248.008 53.4211 247.934 53.3496 247.844 53.3496C247.754 53.3496 247.683 53.4211 247.683 53.511C247.683 53.601 247.754 53.6724 247.844 53.6724Z" fill="white" fill-opacity="0.1"/>
<path d="M247.847 47.2799C247.937 47.2799 248.008 47.2084 248.008 47.1184C248.008 47.0285 247.937 46.957 247.847 46.957C247.757 46.957 247.683 47.0285 247.683 47.1184C247.683 47.2084 247.757 47.2799 247.847 47.2799Z" fill="white" fill-opacity="0.1"/>
<path d="M247.847 34.9724C247.489 34.9724 247.2 34.6821 247.2 34.3241C247.2 33.966 247.489 33.6758 247.847 33.6758C248.204 33.6758 248.494 33.966 248.494 34.3241C248.494 34.6821 248.204 34.9724 247.847 34.9724Z" fill="white" fill-opacity="0.1"/>
<path d="M247.847 28.0904C247.758 28.0904 247.686 28.0181 247.686 27.929C247.686 27.8398 247.758 27.7676 247.847 27.7676C247.936 27.7676 248.008 27.8398 248.008 27.929C248.008 28.0181 247.936 28.0904 247.847 28.0904Z" fill="white" fill-opacity="0.1"/>
<path d="M247.844 22.1814C248.201 22.1814 248.494 21.8903 248.494 21.5331C248.494 21.1758 248.203 20.8848 247.844 20.8848C247.485 20.8848 247.2 21.1758 247.2 21.5331C247.2 21.8903 247.49 22.1814 247.844 22.1814Z" fill="white" fill-opacity="0.1"/>
<path d="M247.844 15.7849C248.201 15.7849 248.494 15.4938 248.494 15.1366C248.494 14.7794 248.203 14.4883 247.844 14.4883C247.485 14.4883 247.2 14.7794 247.2 15.1366C247.2 15.4938 247.49 15.7849 247.844 15.7849Z" fill="white" fill-opacity="0.1"/>
<path d="M247.847 9.39034C248.203 9.39034 248.491 9.09927 248.491 8.74205C248.491 8.38482 248.201 8.09375 247.847 8.09375C247.493 8.09375 247.2 8.38482 247.2 8.74205C247.2 9.09927 247.49 9.39034 247.847 9.39034Z" fill="white" fill-opacity="0.1"/>
<path d="M247.847 2.99317C248.203 2.99317 248.494 2.70209 248.494 2.34752C248.494 1.99294 248.203 1.69922 247.847 1.69922C247.49 1.69922 247.197 1.99029 247.197 2.34752C247.197 2.70474 247.488 2.99317 247.847 2.99317Z" fill="white" fill-opacity="0.1"/>
<path d="M256.901 67.2723C257.438 67.2723 257.871 66.8357 257.871 66.3012C257.871 65.7667 257.435 65.3301 256.901 65.3301C256.368 65.3301 255.932 65.7667 255.932 66.3012C255.932 66.8357 256.368 67.2723 256.901 67.2723Z" fill="white" fill-opacity="0.1"/>
<path d="M256.899 60.5544C257.255 60.5544 257.548 60.2633 257.548 59.9061C257.548 59.5489 257.258 59.2578 256.899 59.2578C256.54 59.2578 256.254 59.5489 256.254 59.9061C256.254 60.2633 256.545 60.5544 256.899 60.5544Z" fill="white" fill-opacity="0.1"/>
<path d="M256.899 53.9152C257.123 53.9152 257.306 53.7326 257.306 53.5103C257.306 53.2881 257.123 53.1055 256.899 53.1055C256.675 53.1055 256.498 53.2881 256.498 53.5103C256.498 53.7326 256.677 53.9152 256.899 53.9152Z" fill="white" fill-opacity="0.1"/>
<path d="M256.902 47.3553C257.034 47.3553 257.142 47.2468 257.142 47.1145C257.142 46.9822 257.036 46.8711 256.902 46.8711C256.767 46.8711 256.659 46.9796 256.659 47.1145C256.659 47.2495 256.767 47.3553 256.902 47.3553Z" fill="white" fill-opacity="0.1"/>
<path d="M256.901 28.0904C256.812 28.0904 256.74 28.0181 256.74 27.929C256.74 27.8398 256.812 27.7676 256.901 27.7676C256.99 27.7676 257.062 27.8398 257.062 27.929C257.062 28.0181 256.99 28.0904 256.901 28.0904Z" fill="white" fill-opacity="0.1"/>
<path d="M256.901 15.7849C257.258 15.7849 257.548 15.4938 257.548 15.1366C257.548 14.7794 257.258 14.4883 256.901 14.4883C256.545 14.4883 256.252 14.7794 256.252 15.1366C256.252 15.4938 256.542 15.7849 256.901 15.7849Z" fill="white" fill-opacity="0.1"/>
<path d="M256.901 8.9029C256.812 8.9029 256.74 8.83064 256.74 8.74149C256.74 8.65235 256.812 8.58008 256.901 8.58008C256.99 8.58008 257.062 8.65235 257.062 8.74149C257.062 8.83064 256.99 8.9029 256.901 8.9029Z" fill="white" fill-opacity="0.1"/>
<path d="M256.899 2.99317C257.255 2.99317 257.546 2.70209 257.546 2.34752C257.546 1.99294 257.255 1.69922 256.899 1.69922C256.542 1.69922 256.252 1.99029 256.252 2.34752C256.252 2.70474 256.542 2.99317 256.899 2.99317Z" fill="white" fill-opacity="0.1"/>
<path d="M265.954 66.9509C266.31 66.9509 266.604 66.6598 266.604 66.3026C266.604 65.9454 266.313 65.6543 265.954 65.6543C265.595 65.6543 265.31 65.9454 265.31 66.3026C265.31 66.6598 265.6 66.9509 265.954 66.9509Z" fill="white" fill-opacity="0.1"/>
<path d="M265.954 60.067C265.865 60.067 265.793 59.9947 265.793 59.9056C265.793 59.8164 265.865 59.7441 265.954 59.7441C266.043 59.7441 266.115 59.8164 266.115 59.9056C266.115 59.9947 266.043 60.067 265.954 60.067Z" fill="white" fill-opacity="0.1"/>
<path d="M265.954 47.7627C266.31 47.7627 266.598 47.4716 266.598 47.1144C266.598 46.7572 266.308 46.4688 265.954 46.4688C265.6 46.4688 265.307 46.7598 265.307 47.1144C265.307 47.469 265.597 47.7627 265.954 47.7627Z" fill="white" fill-opacity="0.1"/>
<path d="M265.954 40.8814C266.041 40.8814 266.115 40.81 266.115 40.72C266.115 40.63 266.043 40.5586 265.954 40.5586C265.864 40.5586 265.793 40.63 265.793 40.72C265.793 40.81 265.864 40.8814 265.954 40.8814Z" fill="white" fill-opacity="0.1"/>
<path d="M265.954 34.9724C266.31 34.9724 266.601 34.6813 266.601 34.3241C266.601 33.9668 266.31 33.6758 265.954 33.6758C265.597 33.6758 265.304 33.9668 265.304 34.3241C265.304 34.6813 265.595 34.9724 265.954 34.9724Z" fill="white" fill-opacity="0.1"/>
<path d="M265.954 28.5759C265.596 28.5759 265.307 28.2856 265.307 27.9276C265.307 27.5696 265.596 27.2793 265.954 27.2793C266.311 27.2793 266.601 27.5696 266.601 27.9276C266.601 28.2856 266.311 28.5759 265.954 28.5759Z" fill="white" fill-opacity="0.1"/>
<path d="M265.954 22.5047C266.49 22.5047 266.923 22.0681 266.923 21.5336C266.923 20.9991 266.487 20.5625 265.954 20.5625C265.42 20.5625 264.982 20.9991 264.982 21.5336C264.982 22.0681 265.418 22.5047 265.954 22.5047Z" fill="white" fill-opacity="0.1"/>
<path d="M265.954 15.7849C265.596 15.7849 265.307 15.4946 265.307 15.1366C265.307 14.7785 265.596 14.4883 265.954 14.4883C266.311 14.4883 266.601 14.7785 266.601 15.1366C266.601 15.4946 266.311 15.7849 265.954 15.7849Z" fill="white" fill-opacity="0.1"/>
<path d="M265.954 9.39034C265.596 9.39034 265.307 9.10009 265.307 8.74205C265.307 8.384 265.596 8.09375 265.954 8.09375C266.311 8.09375 266.601 8.384 266.601 8.74205C266.601 9.10009 266.311 9.39034 265.954 9.39034Z" fill="white" fill-opacity="0.1"/>
<path d="M265.954 2.99317C266.31 2.99317 266.601 2.70209 266.601 2.34752C266.601 1.99294 266.31 1.69922 265.954 1.69922C265.597 1.69922 265.307 1.99029 265.307 2.34752C265.307 2.70474 265.597 2.99317 265.954 2.99317Z" fill="white" fill-opacity="0.1"/>
<path d="M275.006 66.9509C275.362 66.9509 275.655 66.6598 275.655 66.3026C275.655 65.9454 275.365 65.6543 275.006 65.6543C274.647 65.6543 274.359 65.9454 274.359 66.3026C274.359 66.6598 274.649 66.9509 275.006 66.9509Z" fill="white" fill-opacity="0.1"/>
<path d="M275.008 60.5544C274.651 60.5544 274.361 60.2642 274.361 59.9061C274.361 59.5481 274.651 59.2578 275.008 59.2578C275.366 59.2578 275.655 59.5481 275.655 59.9061C275.655 60.2642 275.366 60.5544 275.008 60.5544Z" fill="white" fill-opacity="0.1"/>
<path d="M275.008 54.1599C275.365 54.1599 275.655 53.8688 275.655 53.5116C275.655 53.1544 275.365 52.8633 275.008 52.8633C274.652 52.8633 274.359 53.1544 274.359 53.5116C274.359 53.8688 274.649 54.1599 275.008 54.1599Z" fill="white" fill-opacity="0.1"/>
<path d="M275.008 47.7627C275.365 47.7627 275.655 47.4716 275.655 47.1144C275.655 46.7572 275.365 46.4688 275.008 46.4688C274.652 46.4688 274.361 46.7598 274.361 47.1144C274.361 47.469 274.652 47.7627 275.008 47.7627Z" fill="white" fill-opacity="0.1"/>
<path d="M275.008 41.3689C274.651 41.3689 274.361 41.0786 274.361 40.7206C274.361 40.3625 274.651 40.0723 275.008 40.0723C275.366 40.0723 275.655 40.3625 275.655 40.7206C275.655 41.0786 275.366 41.3689 275.008 41.3689Z" fill="white" fill-opacity="0.1"/>
<path d="M275.009 35.6198C275.722 35.6198 276.3 35.0403 276.3 34.3259C276.3 33.6114 275.722 33.0293 275.009 33.0293C274.296 33.0293 273.715 33.6114 273.715 34.3259C273.715 35.0403 274.296 35.6198 275.009 35.6198Z" fill="white" fill-opacity="0.1"/>
<path d="M275.008 28.5759C274.651 28.5759 274.361 28.2856 274.361 27.9276C274.361 27.5696 274.651 27.2793 275.008 27.2793C275.366 27.2793 275.655 27.5696 275.655 27.9276C275.655 28.2856 275.366 28.5759 275.008 28.5759Z" fill="white" fill-opacity="0.1"/>
<path d="M275.006 21.6939C275.095 21.6939 275.169 21.6225 275.169 21.5325C275.169 21.4425 275.095 21.3711 275.006 21.3711C274.916 21.3711 274.845 21.4425 274.845 21.5325C274.845 21.6225 274.916 21.6939 275.006 21.6939Z" fill="white" fill-opacity="0.1"/>
<path d="M275.008 9.39034C275.365 9.39034 275.655 9.09927 275.655 8.74205C275.655 8.38482 275.365 8.09375 275.008 8.09375C274.652 8.09375 274.359 8.38482 274.359 8.74205C274.359 9.09927 274.649 9.39034 275.008 9.39034Z" fill="white" fill-opacity="0.1"/>
<path d="M275.008 2.50642C274.919 2.50642 274.847 2.43415 274.847 2.34501C274.847 2.25586 274.919 2.18359 275.008 2.18359C275.097 2.18359 275.169 2.25586 275.169 2.34501C275.169 2.43415 275.097 2.50642 275.008 2.50642Z" fill="white" fill-opacity="0.1"/>
<path d="M284.063 54.1599C284.419 54.1599 284.71 53.8688 284.71 53.5116C284.71 53.1544 284.419 52.8633 284.063 52.8633C283.707 52.8633 283.413 53.1544 283.413 53.5116C283.413 53.8688 283.704 54.1599 284.063 54.1599Z" fill="white" fill-opacity="0.1"/>
<path d="M284.063 47.276C283.974 47.276 283.902 47.2037 283.902 47.1145C283.902 47.0254 283.974 46.9531 284.063 46.9531C284.152 46.9531 284.224 47.0254 284.224 47.1145C284.224 47.2037 284.152 47.276 284.063 47.276Z" fill="white" fill-opacity="0.1"/>
<path d="M284.063 41.3689C283.706 41.3689 283.416 41.0786 283.416 40.7206C283.416 40.3625 283.706 40.0723 284.063 40.0723C284.42 40.0723 284.71 40.3625 284.71 40.7206C284.71 41.0786 284.42 41.3689 284.063 41.3689Z" fill="white" fill-opacity="0.1"/>
<path d="M284.06 34.9724C284.417 34.9724 284.71 34.6813 284.71 34.3241C284.71 33.9668 284.419 33.6758 284.06 33.6758C283.701 33.6758 283.413 33.9668 283.413 34.3241C283.413 34.6813 283.704 34.9724 284.06 34.9724Z" fill="white" fill-opacity="0.1"/>
<path d="M284.063 28.5759C284.42 28.5759 284.708 28.2848 284.708 27.9276C284.708 27.5704 284.417 27.2793 284.063 27.2793C283.709 27.2793 283.416 27.5704 283.416 27.9276C283.416 28.2848 283.707 28.5759 284.063 28.5759Z" fill="white" fill-opacity="0.1"/>
<path d="M284.063 22.5047C284.599 22.5047 285.032 22.0681 285.032 21.5336C285.032 20.9991 284.597 20.5625 284.063 20.5625C283.53 20.5625 283.091 20.9991 283.091 21.5336C283.091 22.0681 283.527 22.5047 284.063 22.5047Z" fill="white" fill-opacity="0.1"/>
<path d="M284.063 15.7849C284.42 15.7849 284.708 15.4938 284.708 15.1366C284.708 14.7794 284.417 14.4883 284.063 14.4883C283.709 14.4883 283.416 14.7794 283.416 15.1366C283.416 15.4938 283.707 15.7849 284.063 15.7849Z" fill="white" fill-opacity="0.1"/>
<path d="M284.063 9.39034C284.419 9.39034 284.71 9.09927 284.71 8.74205C284.71 8.38482 284.419 8.09375 284.063 8.09375C283.707 8.09375 283.413 8.38482 283.413 8.74205C283.413 9.09927 283.704 9.39034 284.063 9.39034Z" fill="white" fill-opacity="0.1"/>
<path d="M284.063 2.99317C284.419 2.99317 284.71 2.70209 284.71 2.34752C284.71 1.99294 284.419 1.69922 284.063 1.69922C283.707 1.69922 283.416 1.99029 283.416 2.34752C283.416 2.70474 283.707 2.99317 284.063 2.99317Z" fill="white" fill-opacity="0.1"/>
<path d="M293.115 21.6939C293.205 21.6939 293.279 21.6225 293.279 21.5325C293.279 21.4425 293.205 21.3711 293.115 21.3711C293.025 21.3711 292.954 21.4425 292.954 21.5325C292.954 21.6225 293.025 21.6939 293.115 21.6939Z" fill="white" fill-opacity="0.1"/>
<path d="M293.115 15.7849C293.472 15.7849 293.765 15.4938 293.765 15.1366C293.765 14.7794 293.474 14.4883 293.115 14.4883C292.756 14.4883 292.471 14.7794 292.471 15.1366C292.471 15.4938 292.761 15.7849 293.115 15.7849Z" fill="white" fill-opacity="0.1"/>
<path d="M293.115 8.98493C293.25 8.98493 293.358 8.87644 293.358 8.74149C293.358 8.60654 293.25 8.49805 293.115 8.49805C292.98 8.49805 292.875 8.60654 292.875 8.74149C292.875 8.87644 292.983 8.98493 293.115 8.98493Z" fill="white" fill-opacity="0.1"/>
<path d="M302.167 66.7856C302.434 66.7856 302.653 66.5686 302.653 66.3013C302.653 66.0341 302.437 65.8145 302.167 65.8145C301.898 65.8145 301.684 66.0314 301.684 66.3013C301.684 66.5712 301.901 66.7856 302.167 66.7856Z" fill="white" fill-opacity="0.1"/>
<path d="M302.17 60.067C302.081 60.067 302.009 59.9947 302.009 59.9056C302.009 59.8164 302.081 59.7441 302.17 59.7441C302.259 59.7441 302.331 59.8164 302.331 59.9056C302.331 59.9947 302.259 60.067 302.17 60.067Z" fill="white" fill-opacity="0.1"/>
<path d="M302.167 22.1814C302.524 22.1814 302.817 21.8903 302.817 21.5331C302.817 21.1758 302.526 20.8848 302.167 20.8848C301.808 20.8848 301.523 21.1758 301.523 21.5331C301.523 21.8903 301.813 22.1814 302.167 22.1814Z" fill="white" fill-opacity="0.1"/>
<path d="M302.17 8.9029C302.26 8.9029 302.331 8.83146 302.331 8.74149C302.331 8.65152 302.26 8.58008 302.17 8.58008C302.08 8.58008 302.006 8.65152 302.006 8.74149C302.006 8.83146 302.08 8.9029 302.17 8.9029Z" fill="white" fill-opacity="0.1"/>
<path d="M302.17 2.66909C302.347 2.66909 302.492 2.52355 302.492 2.34626C302.492 2.16897 302.347 2.02344 302.17 2.02344C301.993 2.02344 301.845 2.16897 301.845 2.34626C301.845 2.52355 301.99 2.66909 302.17 2.66909Z" fill="white" fill-opacity="0.1"/>
<path d="M311.222 66.4635C311.312 66.4635 311.386 66.392 311.386 66.302C311.386 66.2121 311.312 66.1406 311.222 66.1406C311.132 66.1406 311.061 66.2121 311.061 66.302C311.061 66.392 311.132 66.4635 311.222 66.4635Z" fill="white" fill-opacity="0.1"/>
<path d="M311.222 34.4856C311.312 34.4856 311.386 34.4142 311.386 34.3242C311.386 34.2342 311.312 34.1602 311.222 34.1602C311.132 34.1602 311.061 34.2342 311.061 34.3242C311.061 34.4142 311.132 34.4856 311.222 34.4856Z" fill="white" fill-opacity="0.1"/>
<path d="M311.222 28.4978C311.536 28.4978 311.79 28.2437 311.79 27.9315C311.79 27.6193 311.536 27.3652 311.222 27.3652C310.908 27.3652 310.657 27.6193 310.657 27.9315C310.657 28.2437 310.91 28.4978 311.222 28.4978Z" fill="white" fill-opacity="0.1"/>
<path d="M311.222 22.0993C311.536 22.0993 311.79 21.8453 311.79 21.5331C311.79 21.2208 311.536 20.9668 311.222 20.9668C310.908 20.9668 310.657 21.2208 310.657 21.5331C310.657 21.8453 310.91 22.0993 311.222 22.0993Z" fill="white" fill-opacity="0.1"/>
<path d="M311.224 15.7068C311.536 15.7068 311.79 15.4527 311.79 15.1405C311.79 14.8282 311.536 14.5742 311.224 14.5742C310.913 14.5742 310.659 14.8282 310.659 15.1405C310.659 15.4527 310.913 15.7068 311.224 15.7068Z" fill="white" fill-opacity="0.1"/>
<path d="M311.225 9.71569C311.758 9.71569 312.194 9.27908 312.194 8.74456C312.194 8.21005 311.758 7.77344 311.225 7.77344C310.691 7.77344 310.256 8.21005 310.256 8.74456C310.256 9.27908 310.691 9.71569 311.225 9.71569Z" fill="white" fill-opacity="0.1"/>
<path d="M311.222 2.91183C311.536 2.91183 311.79 2.65781 311.79 2.34556C311.79 2.03332 311.536 1.7793 311.222 1.7793C310.908 1.7793 310.657 2.03332 310.657 2.34556C310.657 2.65781 310.91 2.91183 311.222 2.91183Z" fill="white" fill-opacity="0.1"/>
<path d="M320.277 67.1116C319.831 67.1116 319.469 66.7491 319.469 66.3019C319.469 65.8547 319.831 65.4922 320.277 65.4922C320.723 65.4922 321.085 65.8547 321.085 66.3019C321.085 66.7491 320.723 67.1116 320.277 67.1116Z" fill="white" fill-opacity="0.1"/>
<path d="M320.277 60.3117C320.054 60.3117 319.873 60.1304 319.873 59.9068C319.873 59.6832 320.054 59.502 320.277 59.502C320.5 59.502 320.681 59.6832 320.681 59.9068C320.681 60.1304 320.5 60.3117 320.277 60.3117Z" fill="white" fill-opacity="0.1"/>
<path d="M320.277 54.1599C320.633 54.1599 320.921 53.8688 320.921 53.5116C320.921 53.1544 320.63 52.8633 320.277 52.8633C319.923 52.8633 319.63 53.1544 319.63 53.5116C319.63 53.8688 319.92 54.1599 320.277 54.1599Z" fill="white" fill-opacity="0.1"/>
<path d="M320.277 47.9254C320.723 47.9254 321.085 47.5628 321.085 47.1157C321.085 46.6685 320.723 46.3086 320.277 46.3086C319.831 46.3086 319.469 46.6711 319.469 47.1157C319.469 47.5602 319.831 47.9254 320.277 47.9254Z" fill="white" fill-opacity="0.1"/>
<path d="M320.277 41.2062C320.544 41.2062 320.763 40.9892 320.763 40.7193C320.763 40.4494 320.546 40.2324 320.277 40.2324C320.007 40.2324 319.791 40.4494 319.791 40.7193C319.791 40.9892 320.01 41.2062 320.277 41.2062Z" fill="white" fill-opacity="0.1"/>
<path d="M320.276 35.2958C320.813 35.2958 321.246 34.8591 321.246 34.3246C321.246 33.7901 320.81 33.3535 320.276 33.3535C319.743 33.3535 319.305 33.7901 319.305 34.3246C319.305 34.8591 319.74 35.2958 320.276 35.2958Z" fill="white" fill-opacity="0.1"/>
<path d="M320.277 21.7759C320.142 21.7759 320.034 21.6669 320.034 21.5325C320.034 21.3981 320.142 21.2891 320.277 21.2891C320.411 21.2891 320.52 21.3981 320.52 21.5325C320.52 21.6669 320.411 21.7759 320.277 21.7759Z" fill="white" fill-opacity="0.1"/>
<path d="M320.277 16.433C320.99 16.433 321.571 15.8509 321.571 15.1364C321.571 14.422 320.99 13.8398 320.277 13.8398C319.564 13.8398 318.986 14.422 318.986 15.1364C318.986 15.8509 319.564 16.433 320.277 16.433Z" fill="white" fill-opacity="0.1"/>
<path d="M320.277 9.30832C319.965 9.30832 319.712 9.05479 319.712 8.74205C319.712 8.42931 319.965 8.17578 320.277 8.17578C320.589 8.17578 320.842 8.42931 320.842 8.74205C320.842 9.05479 320.589 9.30832 320.277 9.30832Z" fill="white" fill-opacity="0.1"/>
<path d="M320.277 2.91183C319.965 2.91183 319.712 2.65831 319.712 2.34556C319.712 2.03282 319.965 1.7793 320.277 1.7793C320.589 1.7793 320.842 2.03282 320.842 2.34556C320.842 2.65831 320.589 2.91183 320.277 2.91183Z" fill="white" fill-opacity="0.1"/>
<path d="M329.329 67.4337C329.954 67.4337 330.461 66.9257 330.461 66.3012C330.461 65.6767 329.952 65.166 329.329 65.166C328.705 65.166 328.198 65.6741 328.198 66.3012C328.198 66.9283 328.705 67.4337 329.329 67.4337Z" fill="white" fill-opacity="0.1"/>
<path d="M329.332 60.3937C329.063 60.3937 328.846 60.1757 328.846 59.9068C328.846 59.6379 329.063 59.4199 329.332 59.4199C329.6 59.4199 329.817 59.6379 329.817 59.9068C329.817 60.1757 329.6 60.3937 329.332 60.3937Z" fill="white" fill-opacity="0.1"/>
<path d="M329.329 54.1599C329.685 54.1599 329.979 53.8688 329.979 53.5116C329.979 53.1544 329.688 52.8633 329.329 52.8633C328.97 52.8633 328.685 53.1544 328.685 53.5116C328.685 53.8688 328.975 54.1599 329.329 54.1599Z" fill="white" fill-opacity="0.1"/>
<path d="M329.332 48.2482C329.955 48.2482 330.464 47.7401 330.464 47.1156C330.464 46.4912 329.957 45.9805 329.332 45.9805C328.706 45.9805 328.199 46.4885 328.199 47.1156C328.199 47.7428 328.706 48.2482 329.332 48.2482Z" fill="white" fill-opacity="0.1"/>
<path d="M329.331 41.8544C329.954 41.8544 330.461 41.3463 330.461 40.7192C330.461 40.092 329.954 39.584 329.331 39.584C328.708 39.584 328.198 40.092 328.198 40.7192C328.198 41.3463 328.705 41.8544 329.331 41.8544Z" fill="white" fill-opacity="0.1"/>
<path d="M329.331 34.8903C329.019 34.8903 328.766 34.6368 328.766 34.3241C328.766 34.0113 329.019 33.7578 329.331 33.7578C329.643 33.7578 329.896 34.0113 329.896 34.3241C329.896 34.6368 329.643 34.8903 329.331 34.8903Z" fill="white" fill-opacity="0.1"/>
<path d="M329.329 29.0633C328.703 29.0633 328.196 28.5551 328.196 27.9282C328.196 27.3012 328.703 26.793 329.329 26.793C329.954 26.793 330.461 27.3012 330.461 27.9282C330.461 28.5551 329.954 29.0633 329.329 29.0633Z" fill="white" fill-opacity="0.1"/>
<path d="M329.332 22.6669C329.955 22.6669 330.464 22.1588 330.464 21.5317C330.464 20.9045 329.957 20.3965 329.332 20.3965C328.706 20.3965 328.199 20.9045 328.199 21.5317C328.199 22.1588 328.708 22.6669 329.332 22.6669Z" fill="white" fill-opacity="0.1"/>
<path d="M329.329 15.6242C329.598 15.6242 329.814 15.4072 329.814 15.1373C329.814 14.8674 329.595 14.6504 329.329 14.6504C329.062 14.6504 328.845 14.8674 328.845 15.1373C328.845 15.4072 329.062 15.6242 329.329 15.6242Z" fill="white" fill-opacity="0.1"/>
<path d="M329.331 9.22767C329.598 9.22767 329.814 9.01069 329.814 8.74079C329.814 8.47089 329.598 8.25391 329.331 8.25391C329.065 8.25391 328.845 8.47089 328.845 8.74079C328.845 9.01069 329.062 9.22767 329.331 9.22767Z" fill="white" fill-opacity="0.1"/>
<path d="M329.332 2.83314C329.598 2.83314 329.817 2.61352 329.817 2.34626C329.817 2.079 329.601 1.85938 329.332 1.85938C329.062 1.85938 328.846 2.07636 328.846 2.34626C328.846 2.61616 329.065 2.83314 329.332 2.83314Z" fill="white" fill-opacity="0.1"/>
<path d="M338.386 66.4635C338.473 66.4635 338.547 66.392 338.547 66.302C338.547 66.2121 338.476 66.1406 338.386 66.1406C338.297 66.1406 338.225 66.2121 338.225 66.302C338.225 66.392 338.297 66.4635 338.386 66.4635Z" fill="white" fill-opacity="0.1"/>
<path d="M338.386 60.4724C338.698 60.4724 338.951 60.2184 338.951 59.9061C338.951 59.5939 338.698 59.3398 338.386 59.3398C338.074 59.3398 337.818 59.5939 337.818 59.9061C337.818 60.2184 338.072 60.4724 338.386 60.4724Z" fill="white" fill-opacity="0.1"/>
<path d="M338.386 47.5206C338.163 47.5206 337.982 47.3394 337.982 47.1158C337.982 46.8922 338.163 46.7109 338.386 46.7109C338.609 46.7109 338.79 46.8922 338.79 47.1158C338.79 47.3394 338.609 47.5206 338.386 47.5206Z" fill="white" fill-opacity="0.1"/>
<path d="M338.386 41.1242C338.163 41.1242 337.982 40.9429 337.982 40.7193C337.982 40.4957 338.163 40.3145 338.386 40.3145C338.609 40.3145 338.79 40.4957 338.79 40.7193C338.79 40.9429 338.609 41.1242 338.386 41.1242Z" fill="white" fill-opacity="0.1"/>
<path d="M338.386 35.4572C339.009 35.4572 339.519 34.9491 339.519 34.322C339.519 33.6949 339.012 33.1895 338.386 33.1895C337.76 33.1895 337.253 33.6975 337.253 34.322C337.253 34.9465 337.76 35.4572 338.386 35.4572Z" fill="white" fill-opacity="0.1"/>
<path d="M338.386 28.3331C338.608 28.3331 338.788 28.1506 338.788 27.9283C338.788 27.706 338.608 27.5234 338.386 27.5234C338.164 27.5234 337.982 27.706 337.982 27.9283C337.982 28.1506 338.164 28.3331 338.386 28.3331Z" fill="white" fill-opacity="0.1"/>
<path d="M338.383 21.9367C338.608 21.9367 338.79 21.7541 338.79 21.5318C338.79 21.3095 338.608 21.127 338.383 21.127C338.159 21.127 337.982 21.3095 337.982 21.5318C337.982 21.7541 338.162 21.9367 338.383 21.9367Z" fill="white" fill-opacity="0.1"/>
<path d="M338.384 16.5937C339.186 16.5937 339.841 15.9402 339.841 15.1357C339.841 14.3313 339.189 13.6777 338.384 13.6777C337.578 13.6777 336.931 14.3313 336.931 15.1357C336.931 15.9402 337.584 16.5937 338.384 16.5937Z" fill="white" fill-opacity="0.1"/>
<path d="M338.386 3.31724C338.92 3.31724 339.355 2.88064 339.355 2.34612C339.355 1.81161 338.92 1.375 338.386 1.375C337.853 1.375 337.417 1.81161 337.417 2.34612C337.417 2.88064 337.853 3.31724 338.386 3.31724Z" fill="white" fill-opacity="0.1"/>
<path d="M347.438 67.2723C347.972 67.2723 348.407 66.8357 348.407 66.3012C348.407 65.7667 347.972 65.3301 347.438 65.3301C346.905 65.3301 346.469 65.7667 346.469 66.3012C346.469 66.8357 346.905 67.2723 347.438 67.2723Z" fill="white" fill-opacity="0.1"/>
<path d="M347.438 60.8778C346.903 60.8778 346.469 60.443 346.469 59.9067C346.469 59.3703 346.903 58.9355 347.438 58.9355C347.973 58.9355 348.407 59.3703 348.407 59.9067C348.407 60.443 347.973 60.8778 347.438 60.8778Z" fill="white" fill-opacity="0.1"/>
<path d="M347.438 54.9688C348.241 54.9688 348.896 54.3152 348.896 53.5107C348.896 52.7063 348.244 52.0527 347.438 52.0527C346.633 52.0527 345.986 52.7063 345.986 53.5107C345.986 54.3152 346.638 54.9688 347.438 54.9688Z" fill="white" fill-opacity="0.1"/>
<path d="M347.438 48.0868C346.903 48.0868 346.469 47.652 346.469 47.1156C346.469 46.5793 346.903 46.1445 347.438 46.1445C347.973 46.1445 348.407 46.5793 348.407 47.1156C348.407 47.652 347.973 48.0868 347.438 48.0868Z" fill="white" fill-opacity="0.1"/>
<path d="M347.438 28.5759C347.794 28.5759 348.085 28.2848 348.085 27.9276C348.085 27.5704 347.794 27.2793 347.438 27.2793C347.082 27.2793 346.788 27.5704 346.788 27.9276C346.788 28.2848 347.079 28.5759 347.438 28.5759Z" fill="white" fill-opacity="0.1"/>
<path d="M347.438 22.5047C347.974 22.5047 348.41 22.0681 348.41 21.5336C348.41 20.9991 347.974 20.5625 347.438 20.5625C346.902 20.5625 346.469 20.9991 346.469 21.5336C346.469 22.0681 346.905 22.5047 347.438 22.5047Z" fill="white" fill-opacity="0.1"/>
<path d="M347.438 15.7849C347.795 15.7849 348.083 15.4938 348.083 15.1366C348.083 14.7794 347.792 14.4883 347.438 14.4883C347.084 14.4883 346.791 14.7794 346.791 15.1366C346.791 15.4938 347.082 15.7849 347.438 15.7849Z" fill="white" fill-opacity="0.1"/>
<path d="M347.438 10.0385C346.723 10.0385 346.144 9.45799 346.144 8.74191C346.144 8.02582 346.723 7.44531 347.438 7.44531C348.153 7.44531 348.732 8.02582 348.732 8.74191C348.732 9.45799 348.153 10.0385 347.438 10.0385Z" fill="white" fill-opacity="0.1"/>
<path d="M347.438 3.4813C348.061 3.4813 348.571 2.9706 348.571 2.34612C348.571 1.72164 348.064 1.21094 347.438 1.21094C346.812 1.21094 346.305 1.71899 346.305 2.34612C346.305 2.97325 346.815 3.4813 347.438 3.4813Z" fill="white" fill-opacity="0.1"/>
<path d="M356.493 67.4337C357.116 67.4337 357.626 66.9257 357.626 66.3012C357.626 65.6767 357.119 65.166 356.493 65.166C355.867 65.166 355.36 65.6741 355.36 66.3012C355.36 66.9283 355.87 67.4337 356.493 67.4337Z" fill="white" fill-opacity="0.1"/>
<path d="M356.493 60.5544C356.849 60.5544 357.143 60.2633 357.143 59.9061C357.143 59.5489 356.852 59.2578 356.493 59.2578C356.134 59.2578 355.849 59.5489 355.849 59.9061C355.849 60.2633 356.139 60.5544 356.493 60.5544Z" fill="white" fill-opacity="0.1"/>
<path d="M356.493 54.1599C356.849 54.1599 357.14 53.8688 357.14 53.5116C357.14 53.1544 356.849 52.8633 356.493 52.8633C356.136 52.8633 355.843 53.1544 355.843 53.5116C355.843 53.8688 356.134 54.1599 356.493 54.1599Z" fill="white" fill-opacity="0.1"/>
<path d="M356.493 48.2482C357.116 48.2482 357.623 47.7401 357.623 47.1156C357.623 46.4912 357.116 45.9805 356.493 45.9805C355.87 45.9805 355.36 46.4885 355.36 47.1156C355.36 47.7428 355.867 48.2482 356.493 48.2482Z" fill="white" fill-opacity="0.1"/>
<path d="M356.493 41.3689C356.135 41.3689 355.846 41.0786 355.846 40.7206C355.846 40.3625 356.135 40.0723 356.493 40.0723C356.85 40.0723 357.14 40.3625 357.14 40.7206C357.14 41.0786 356.85 41.3689 356.493 41.3689Z" fill="white" fill-opacity="0.1"/>
<path d="M356.493 34.9724C356.135 34.9724 355.846 34.6821 355.846 34.3241C355.846 33.966 356.135 33.6758 356.493 33.6758C356.85 33.6758 357.14 33.966 357.14 34.3241C357.14 34.6821 356.85 34.9724 356.493 34.9724Z" fill="white" fill-opacity="0.1"/>
<path d="M356.493 28.5759C356.849 28.5759 357.143 28.2848 357.143 27.9276C357.143 27.5704 356.852 27.2793 356.493 27.2793C356.134 27.2793 355.849 27.5704 355.849 27.9276C355.849 28.2848 356.139 28.5759 356.493 28.5759Z" fill="white" fill-opacity="0.1"/>
<path d="M356.493 22.1814C356.849 22.1814 357.143 21.8903 357.143 21.5331C357.143 21.1758 356.852 20.8848 356.493 20.8848C356.134 20.8848 355.849 21.1758 355.849 21.5331C355.849 21.8903 356.139 22.1814 356.493 22.1814Z" fill="white" fill-opacity="0.1"/>
<path d="M356.493 15.2974C356.404 15.2974 356.332 15.2252 356.332 15.136C356.332 15.0469 356.404 14.9746 356.493 14.9746C356.582 14.9746 356.654 15.0469 356.654 15.136C356.654 15.2252 356.582 15.2974 356.493 15.2974Z" fill="white" fill-opacity="0.1"/>
<path d="M365.548 66.5455C365.413 66.5455 365.305 66.4365 365.305 66.302C365.305 66.1676 365.413 66.0586 365.548 66.0586C365.682 66.0586 365.791 66.1676 365.791 66.302C365.791 66.4365 365.682 66.5455 365.548 66.5455Z" fill="white" fill-opacity="0.1"/>
<path d="M365.545 60.3117C365.769 60.3117 365.952 60.1291 365.952 59.9068C365.952 59.6845 365.769 59.502 365.545 59.502C365.321 59.502 365.141 59.6845 365.141 59.9068C365.141 60.1291 365.323 60.3117 365.545 60.3117Z" fill="white" fill-opacity="0.1"/>
<path d="M365.547 54.808C366.26 54.808 366.841 54.2259 366.841 53.5114C366.841 52.797 366.26 52.2148 365.547 52.2148C364.834 52.2148 364.253 52.797 364.253 53.5114C364.253 54.2259 364.834 54.808 365.547 54.808Z" fill="white" fill-opacity="0.1"/>
<path d="M365.548 41.1242C365.325 41.1242 365.144 40.9429 365.144 40.7193C365.144 40.4957 365.325 40.3145 365.548 40.3145C365.771 40.3145 365.952 40.4957 365.952 40.7193C365.952 40.9429 365.771 41.1242 365.548 41.1242Z" fill="white" fill-opacity="0.1"/>
<path d="M365.548 34.567C365.68 34.567 365.788 34.4585 365.788 34.3235C365.788 34.1886 365.68 34.0801 365.548 34.0801C365.416 34.0801 365.305 34.1886 365.305 34.3235C365.305 34.4585 365.413 34.567 365.548 34.567Z" fill="white" fill-opacity="0.1"/>
<path d="M365.548 28.9813C366.126 28.9813 366.596 28.5077 366.596 27.9282C366.596 27.3487 366.126 26.875 365.548 26.875C364.97 26.875 364.497 27.3487 364.497 27.9282C364.497 28.5077 364.97 28.9813 365.548 28.9813Z" fill="white" fill-opacity="0.1"/>
<path d="M365.548 22.5848C364.967 22.5848 364.497 22.1133 364.497 21.5317C364.497 20.95 364.967 20.4785 365.548 20.4785C366.128 20.4785 366.599 20.95 366.599 21.5317C366.599 22.1133 366.128 22.5848 365.548 22.5848Z" fill="white" fill-opacity="0.1"/>
<path d="M365.548 16.1903C366.126 16.1903 366.596 15.7166 366.596 15.1371C366.596 14.5576 366.126 14.084 365.548 14.084C364.97 14.084 364.497 14.5576 364.497 15.1371C364.497 15.7166 364.97 16.1903 365.548 16.1903Z" fill="white" fill-opacity="0.1"/>
<path d="M365.548 10.1992C366.35 10.1992 367 9.54563 367 8.74121C367 7.93679 366.348 7.2832 365.548 7.2832C364.748 7.2832 364.093 7.93679 364.093 8.74121C364.093 9.54563 364.745 10.1992 365.548 10.1992Z" fill="white" fill-opacity="0.1"/>
<path d="M365.545 2.99317C365.901 2.99317 366.192 2.70209 366.192 2.34752C366.192 1.99294 365.901 1.69922 365.545 1.69922C365.188 1.69922 364.901 1.99029 364.901 2.34752C364.901 2.70474 365.191 2.99317 365.545 2.99317Z" fill="white" fill-opacity="0.1"/>
<path d="M338.384 54.1599C338.74 54.1599 339.033 53.8688 339.033 53.5116C339.033 53.1544 338.743 52.8633 338.384 52.8633C338.024 52.8633 337.739 53.1544 337.739 53.5116C337.739 53.8688 338.03 54.1599 338.384 54.1599Z" fill="white" fill-opacity="0.1"/>
</svg>
