<svg width="16" height="21" viewBox="0 0 16 21" fill="none" xmlns="http://www.w3.org/2000/svg">
<path d="M12.6173 9.97805C13.7005 9.42414 14.3899 8.43937 14.2298 6.80227C14.0205 4.56199 12.1807 3.81113 9.74352 3.60191V0.5H7.84789V3.51574C7.35551 3.51574 6.85082 3.52805 6.34617 3.54035V0.5H4.45055V3.60191C3.75359 3.62297 2.94188 3.6127 0.647032 3.60191V5.62059C2.14367 5.5941 2.92895 5.49793 3.10887 6.45758V14.9509C2.99461 15.7123 2.38527 15.6027 1.02859 15.5787L0.647071 17.8312C4.10336 17.8312 4.45059 17.8436 4.45059 17.8436V20.5H6.34621V17.8805C6.86316 17.8928 7.36785 17.8928 7.84793 17.8928V20.5H9.74356V17.8436C12.9193 17.6712 15.0423 16.8711 15.3254 13.88C15.5469 11.4798 14.4145 10.4088 12.6173 9.97805ZM6.38313 5.75598C7.45402 5.75598 10.8021 5.42367 10.8021 7.6516C10.8021 9.78109 7.45406 9.53488 6.38313 9.53488V5.75598ZM6.38313 15.591V11.4305C7.66328 11.4305 11.5834 11.0736 11.5834 13.5108C11.5834 15.8618 7.66328 15.591 6.38313 15.591Z" fill="white"/>
</svg>
