<svg width="400" height="339" viewBox="0 0 400 339" fill="none" xmlns="http://www.w3.org/2000/svg">
<g opacity="0.05">
<path d="M2.11285 240.183C2.30856 240.183 2.46973 240.027 2.46973 239.831C2.46973 239.635 2.30856 239.479 2.11285 239.479C1.91714 239.479 1.7617 239.635 1.7617 239.831C1.7617 240.027 1.91714 240.183 2.11285 240.183Z" fill="#FBFBFB"/>
<path d="M2.11253 156.714C2.4061 156.714 2.64209 156.477 2.64209 156.183C2.64209 155.889 2.4061 155.652 2.11253 155.652C1.81897 155.652 1.58294 155.889 1.58294 156.183C1.58294 156.477 1.81897 156.714 2.11253 156.714Z" fill="#FBFBFB"/>
<path d="M2.1126 144.358C0.9459 144.358 7.53403e-05 143.41 7.53403e-05 142.241C7.53403e-05 141.072 0.9459 140.124 2.1126 140.124C3.27931 140.124 4.2251 141.072 4.2251 142.241C4.2251 143.41 3.27931 144.358 2.1126 144.358Z" fill="#FBFBFB"/>
<path d="M2.11272 73.9475C1.33386 73.9475 0.702462 73.3148 0.702462 72.5343C0.702462 71.7538 1.33386 71.1211 2.11272 71.1211C2.89158 71.1211 3.52295 71.7538 3.52295 72.5343C3.52295 73.3148 2.89158 73.9475 2.11272 73.9475Z" fill="#FBFBFB"/>
<path d="M2.11233 46.0646C2.88941 46.0646 3.52832 45.4302 3.52832 44.6515C3.52832 43.8728 2.89517 43.2383 2.11233 43.2383C1.3295 43.2383 0.707833 43.8728 0.707833 44.6515C0.707833 45.4302 1.34101 46.0646 2.11233 46.0646Z" fill="#FBFBFB"/>
<path d="M2.11272 32.128C2.8898 32.128 3.52295 31.4935 3.52295 30.7091C3.52295 29.9246 2.8898 29.2959 2.11272 29.2959C1.33564 29.2959 0.6967 29.9304 0.6967 30.7091C0.6967 31.4878 1.32989 32.128 2.11272 32.128Z" fill="#FBFBFB"/>
<path d="M21.8446 241.244C22.6217 241.244 23.2549 240.61 23.2549 239.831C23.2549 239.052 22.6217 238.418 21.8446 238.418C21.0675 238.418 20.4401 239.052 20.4401 239.831C20.4401 240.61 21.0733 241.244 21.8446 241.244Z" fill="#FBFBFB"/>
<path d="M21.8505 226.242C21.6566 226.242 21.4994 226.084 21.4994 225.89C21.4994 225.696 21.6566 225.538 21.8505 225.538C22.0445 225.538 22.2017 225.696 22.2017 225.89C22.2017 226.084 22.0445 226.242 21.8505 226.242Z" fill="#FBFBFB"/>
<path d="M21.85 157.596C22.6271 157.596 23.2603 156.961 23.2603 156.183C23.2603 155.404 22.6271 154.77 21.85 154.77C21.0729 154.77 20.434 155.404 20.434 156.183C20.434 156.961 21.0672 157.596 21.85 157.596Z" fill="#FBFBFB"/>
<path d="M21.8505 142.593C21.6566 142.593 21.4994 142.436 21.4994 142.241C21.4994 142.047 21.6566 141.89 21.8505 141.89C22.0445 141.89 22.2017 142.047 22.2017 142.241C22.2017 142.436 22.0445 142.593 21.8505 142.593Z" fill="#FBFBFB"/>
<path d="M21.85 129.713C22.6271 129.713 23.2603 129.079 23.2603 128.3C23.2603 127.521 22.6271 126.887 21.85 126.887C21.0729 126.887 20.434 127.521 20.434 128.3C20.434 129.079 21.0672 129.713 21.85 129.713Z" fill="#FBFBFB"/>
<path d="M21.8505 114.71C22.0405 114.71 22.2017 114.554 22.2017 114.358C22.2017 114.162 22.0463 114.006 21.8505 114.006C21.6548 114.006 21.4994 114.162 21.4994 114.358C21.4994 114.554 21.6548 114.71 21.8505 114.71Z" fill="#FBFBFB"/>
<path d="M21.8442 73.9475C22.6213 73.9475 23.2603 73.313 23.2603 72.5343C23.2603 71.7556 22.6271 71.1211 21.8442 71.1211C21.0614 71.1211 20.4397 71.7556 20.4397 72.5343C20.4397 73.313 21.0729 73.9475 21.8442 73.9475Z" fill="#FBFBFB"/>
<path d="M21.8504 60.7151C23.0189 60.7151 23.9629 59.7634 23.9629 58.5982C23.9629 57.4331 23.0131 56.4756 21.8504 56.4756C20.6877 56.4756 19.7379 57.4273 19.7379 58.5982C19.7379 59.7692 20.6877 60.7151 21.8504 60.7151Z" fill="#FBFBFB"/>
<path d="M21.85 4.23945C21.0711 4.23945 20.4397 3.60675 20.4397 2.82627C20.4397 2.04579 21.0711 1.41309 21.85 1.41309C22.6289 1.41309 23.2603 2.04579 23.2603 2.82627C23.2603 3.60675 22.6289 4.23945 21.85 4.23945Z" fill="#FBFBFB"/>
<path d="M41.5883 240.183C41.784 240.183 41.9395 240.027 41.9395 239.831C41.9395 239.635 41.784 239.479 41.5883 239.479C41.3926 239.479 41.2314 239.635 41.2314 239.831C41.2314 240.027 41.3926 240.183 41.5883 240.183Z" fill="#FBFBFB"/>
<path d="M41.5883 213.362C42.3654 213.362 42.9985 212.727 42.9985 211.948C42.9985 211.17 42.3654 210.535 41.5883 210.535C40.8112 210.535 40.1723 211.17 40.1723 211.948C40.1723 212.727 40.8054 213.362 41.5883 213.362Z" fill="#FBFBFB"/>
<path d="M41.5883 198.359C41.3944 198.359 41.2372 198.201 41.2372 198.007C41.2372 197.813 41.3944 197.655 41.5883 197.655C41.7822 197.655 41.9395 197.813 41.9395 198.007C41.9395 198.201 41.7822 198.359 41.5883 198.359Z" fill="#FBFBFB"/>
<path d="M41.5825 157.596C42.3596 157.596 42.9985 156.961 42.9985 156.183C42.9985 155.404 42.3654 154.77 41.5825 154.77C40.7997 154.77 40.178 155.404 40.178 156.183C40.178 156.961 40.8112 157.596 41.5825 157.596Z" fill="#FBFBFB"/>
<path d="M41.5882 145.067C40.0304 145.067 38.7677 143.801 38.7677 142.24C38.7677 140.679 40.0304 139.414 41.5882 139.414C43.1459 139.414 44.4087 140.679 44.4087 142.24C44.4087 143.801 43.1459 145.067 41.5882 145.067Z" fill="#FBFBFB"/>
<path d="M41.5883 129.713C42.3654 129.713 42.9985 129.079 42.9985 128.3C42.9985 127.521 42.3654 126.887 41.5883 126.887C40.8112 126.887 40.1723 127.521 40.1723 128.3C40.1723 129.079 40.8054 129.713 41.5883 129.713Z" fill="#FBFBFB"/>
<path d="M41.5823 115.241C42.0716 115.241 42.4688 114.843 42.4688 114.358C42.4688 113.874 42.0716 113.476 41.5823 113.476C41.093 113.476 40.7016 113.874 40.7016 114.358C40.7016 114.843 41.0988 115.241 41.5823 115.241Z" fill="#FBFBFB"/>
<path d="M41.5883 100.768C41.3944 100.768 41.2372 100.611 41.2372 100.416C41.2372 100.222 41.3944 100.064 41.5883 100.064C41.7822 100.064 41.9395 100.222 41.9395 100.416C41.9395 100.611 41.7822 100.768 41.5883 100.768Z" fill="#FBFBFB"/>
<path d="M61.3202 338.835C62.0973 338.835 62.7305 338.201 62.7305 337.422C62.7305 336.643 62.0973 336.009 61.3202 336.009C60.5431 336.009 59.9042 336.643 59.9042 337.422C59.9042 338.201 60.5374 338.835 61.3202 338.835Z" fill="#FBFBFB"/>
<path d="M61.3203 323.832C61.1263 323.832 60.9692 323.674 60.9692 323.48C60.9692 323.285 61.1263 323.128 61.3203 323.128C61.5142 323.128 61.6714 323.285 61.6714 323.48C61.6714 323.674 61.5142 323.832 61.3203 323.832Z" fill="#FBFBFB"/>
<path d="M61.3202 255.186C60.5413 255.186 59.9099 254.553 59.9099 253.773C59.9099 252.992 60.5413 252.359 61.3202 252.359C62.0991 252.359 62.7305 252.992 62.7305 253.773C62.7305 254.553 62.0991 255.186 61.3202 255.186Z" fill="#FBFBFB"/>
<path d="M61.3203 240.183C61.5102 240.183 61.6714 240.027 61.6714 239.831C61.6714 239.635 61.516 239.479 61.3203 239.479C61.1246 239.479 60.9692 239.635 60.9692 239.831C60.9692 240.027 61.1246 240.183 61.3203 240.183Z" fill="#FBFBFB"/>
<path d="M61.3202 227.303C60.5413 227.303 59.9099 226.67 59.9099 225.89C59.9099 225.109 60.5413 224.477 61.3202 224.477C62.0991 224.477 62.7305 225.109 62.7305 225.89C62.7305 226.67 62.0991 227.303 61.3202 227.303Z" fill="#FBFBFB"/>
<path d="M61.3202 213.362C62.0973 213.362 62.7305 212.727 62.7305 211.948C62.7305 211.17 62.0973 210.535 61.3202 210.535C60.5431 210.535 59.9042 211.17 59.9042 211.948C59.9042 212.727 60.5374 213.362 61.3202 213.362Z" fill="#FBFBFB"/>
<path d="M61.3202 199.42C62.0973 199.42 62.7305 198.786 62.7305 198.007C62.7305 197.228 62.0973 196.6 61.3202 196.6C60.5431 196.6 59.9099 197.234 59.9099 198.007C59.9099 198.78 60.5431 199.42 61.3202 199.42Z" fill="#FBFBFB"/>
<path d="M61.3202 184.775C61.7116 184.775 62.0225 184.457 62.0225 184.071C62.0225 183.684 61.7059 183.367 61.3202 183.367C60.9346 183.367 60.6122 183.684 60.6122 184.071C60.6122 184.457 60.9288 184.775 61.3202 184.775Z" fill="#FBFBFB"/>
<path d="M61.3202 171.537C60.5413 171.537 59.9099 170.905 59.9099 170.124C59.9099 169.344 60.5413 168.711 61.3202 168.711C62.0991 168.711 62.7305 169.344 62.7305 170.124C62.7305 170.905 62.0991 171.537 61.3202 171.537Z" fill="#FBFBFB"/>
<path d="M61.3201 157.596C62.0972 157.596 62.7246 156.961 62.7246 156.183C62.7246 155.404 62.0914 154.77 61.3201 154.77C60.5488 154.77 59.9098 155.404 59.9098 156.183C59.9098 156.961 60.543 157.596 61.3201 157.596Z" fill="#FBFBFB"/>
<path d="M61.3198 143.654C62.0969 143.654 62.7358 143.02 62.7358 142.241C62.7358 141.463 62.1027 140.828 61.3198 140.828C60.537 140.828 59.9153 141.463 59.9153 142.241C59.9153 143.02 60.5485 143.654 61.3198 143.654Z" fill="#FBFBFB"/>
<path d="M61.3202 129.713C60.5413 129.713 59.9099 129.08 59.9099 128.3C59.9099 127.519 60.5413 126.887 61.3202 126.887C62.0991 126.887 62.7305 127.519 62.7305 128.3C62.7305 129.08 62.0991 129.713 61.3202 129.713Z" fill="#FBFBFB"/>
<path d="M61.3205 115.241C60.8341 115.241 60.4398 114.846 60.4398 114.358C60.4398 113.871 60.8341 113.476 61.3205 113.476C61.8069 113.476 62.2012 113.871 62.2012 114.358C62.2012 114.846 61.8069 115.241 61.3205 115.241Z" fill="#FBFBFB"/>
<path d="M61.3201 103.244C59.7624 103.244 58.4996 101.978 58.4996 100.417C58.4996 98.8562 59.7624 97.5908 61.3201 97.5908C62.8778 97.5908 64.1406 98.8562 64.1406 100.417C64.1406 101.978 62.8778 103.244 61.3201 103.244Z" fill="#FBFBFB"/>
<path d="M61.3198 87.8889C62.0969 87.8889 62.7358 87.2544 62.7358 86.4757C62.7358 85.697 62.1027 85.0625 61.3198 85.0625C60.537 85.0625 59.9153 85.697 59.9153 86.4757C59.9153 87.2544 60.5485 87.8889 61.3198 87.8889Z" fill="#FBFBFB"/>
<path d="M61.3201 73.9475C62.0972 73.9475 62.7246 73.313 62.7246 72.5343C62.7246 71.7556 62.0914 71.1211 61.3201 71.1211C60.5488 71.1211 59.9098 71.7556 59.9098 72.5343C59.9098 73.313 60.543 73.9475 61.3201 73.9475Z" fill="#FBFBFB"/>
<path d="M61.3205 59.4809C60.8341 59.4809 60.4398 59.0857 60.4398 58.5983C60.4398 58.1109 60.8341 57.7158 61.3205 57.7158C61.8069 57.7158 62.2012 58.1109 62.2012 58.5983C62.2012 59.0857 61.8069 59.4809 61.3205 59.4809Z" fill="#FBFBFB"/>
<path d="M61.3202 46.7728C62.4887 46.7728 63.4385 45.8211 63.4385 44.6559C63.4385 43.4908 62.4887 42.5391 61.3202 42.5391C60.1517 42.5391 59.2077 43.4908 59.2077 44.6559C59.2077 45.8211 60.1575 46.7728 61.3202 46.7728Z" fill="#FBFBFB"/>
<path d="M81.058 337.774C80.8641 337.774 80.7069 337.617 80.7069 337.422C80.7069 337.228 80.8641 337.07 81.058 337.07C81.2519 337.07 81.4092 337.228 81.4092 337.422C81.4092 337.617 81.2519 337.774 81.058 337.774Z" fill="#FBFBFB"/>
<path d="M81.0579 324.894C81.835 324.894 82.4624 324.259 82.4624 323.481C82.4624 322.702 81.8292 322.067 81.0579 322.067C80.2866 322.067 79.6476 322.702 79.6476 323.481C79.6476 324.259 80.2808 324.894 81.0579 324.894Z" fill="#FBFBFB"/>
<path d="M81.0522 309.89C81.2479 309.89 81.4033 309.734 81.4033 309.538C81.4033 309.342 81.2479 309.187 81.0522 309.187C80.8565 309.187 80.7011 309.342 80.7011 309.538C80.7011 309.734 80.8565 309.89 81.0522 309.89Z" fill="#FBFBFB"/>
<path d="M81.058 297.01C80.2791 297.01 79.6477 296.377 79.6477 295.597C79.6477 294.816 80.2791 294.184 81.058 294.184C81.8369 294.184 82.4683 294.816 82.4683 295.597C82.4683 296.377 81.8369 297.01 81.058 297.01Z" fill="#FBFBFB"/>
<path d="M81.0527 282.36C81.4441 282.36 81.7607 282.042 81.7607 281.656C81.7607 281.269 81.4441 280.952 81.0527 280.952C80.6613 280.952 80.3505 281.269 80.3505 281.656C80.3505 282.042 80.6671 282.36 81.0527 282.36Z" fill="#FBFBFB"/>
<path d="M81.058 269.127C80.2791 269.127 79.6477 268.494 79.6477 267.714C79.6477 266.933 80.2791 266.301 81.058 266.301C81.8369 266.301 82.4683 266.933 82.4683 267.714C82.4683 268.494 81.8369 269.127 81.058 269.127Z" fill="#FBFBFB"/>
<path d="M81.0522 255.186C81.8293 255.186 82.4683 254.551 82.4683 253.773C82.4683 252.994 81.8351 252.359 81.0522 252.359C80.2694 252.359 79.6477 252.994 79.6477 253.773C79.6477 254.551 80.2809 255.186 81.0522 255.186Z" fill="#FBFBFB"/>
<path d="M81.058 241.244C81.8351 241.244 82.4683 240.61 82.4683 239.831C82.4683 239.052 81.8351 238.418 81.058 238.418C80.2809 238.418 79.642 239.052 79.642 239.831C79.642 240.61 80.2752 241.244 81.058 241.244Z" fill="#FBFBFB"/>
<path d="M81.0585 226.593C80.6706 226.593 80.3562 226.278 80.3562 225.889C80.3562 225.501 80.6706 225.186 81.0585 225.186C81.4463 225.186 81.7607 225.501 81.7607 225.889C81.7607 226.278 81.4463 226.593 81.0585 226.593Z" fill="#FBFBFB"/>
<path d="M81.0521 214.065C82.2206 214.065 83.1704 213.113 83.1704 211.948C83.1704 210.783 82.2206 209.831 81.0521 209.831C79.8836 209.831 78.9396 210.783 78.9396 211.948C78.9396 213.113 79.8894 214.065 81.0521 214.065Z" fill="#FBFBFB"/>
<path d="M81.058 199.42C81.8351 199.42 82.4683 198.786 82.4683 198.007C82.4683 197.228 81.8351 196.6 81.058 196.6C80.2809 196.6 79.6477 197.234 79.6477 198.007C79.6477 198.78 80.2809 199.42 81.058 199.42Z" fill="#FBFBFB"/>
<path d="M81.0585 184.769C80.6706 184.769 80.3562 184.454 80.3562 184.065C80.3562 183.676 80.6706 183.361 81.0585 183.361C81.4463 183.361 81.7607 183.676 81.7607 184.065C81.7607 184.454 81.4463 184.769 81.0585 184.769Z" fill="#FBFBFB"/>
<path d="M81.058 170.476C81.2537 170.476 81.4092 170.32 81.4092 170.124C81.4092 169.928 81.2537 169.767 81.058 169.767C80.8623 169.767 80.7069 169.928 80.7069 170.124C80.7069 170.32 80.8623 170.476 81.058 170.476Z" fill="#FBFBFB"/>
<path d="M81.058 72.8853C81.248 72.8853 81.4092 72.7296 81.4092 72.5335C81.4092 72.3374 81.2537 72.1816 81.058 72.1816C80.8623 72.1816 80.7069 72.3374 80.7069 72.5335C80.7069 72.7296 80.8623 72.8853 81.058 72.8853Z" fill="#FBFBFB"/>
<path d="M81.058 60.0052C81.8351 60.0052 82.4683 59.3707 82.4683 58.5977C82.4683 57.8248 81.8351 57.1846 81.058 57.1846C80.2809 57.1846 79.6477 57.8191 79.6477 58.5977C79.6477 59.3764 80.2809 60.0052 81.058 60.0052Z" fill="#FBFBFB"/>
<path d="M81.058 46.0646C80.2791 46.0646 79.6477 45.4319 79.6477 44.6515C79.6477 43.871 80.2791 43.2383 81.058 43.2383C81.8369 43.2383 82.4683 43.871 82.4683 44.6515C82.4683 45.4319 81.8369 46.0646 81.058 46.0646Z" fill="#FBFBFB"/>
<path d="M81.058 32.128C81.8351 32.128 82.4683 31.4935 82.4683 30.7091C82.4683 29.9246 81.8351 29.2959 81.058 29.2959C80.2809 29.2959 79.6477 29.9304 79.6477 30.7091C79.6477 31.4878 80.2809 32.128 81.058 32.128Z" fill="#FBFBFB"/>
<path d="M81.0582 17.6557C81.5417 17.6557 81.9331 17.2577 81.9331 16.7731C81.9331 16.2886 81.5417 15.8906 81.0582 15.8906C80.5746 15.8906 80.1775 16.2886 80.1775 16.7731C80.1775 17.2577 80.5746 17.6557 81.0582 17.6557Z" fill="#FBFBFB"/>
<path d="M81.058 4.23945C80.2791 4.23945 79.6477 3.60675 79.6477 2.82627C79.6477 2.04579 80.2791 1.41309 81.058 1.41309C81.8369 1.41309 82.4683 2.04579 82.4683 2.82627C82.4683 3.60675 81.8369 4.23945 81.058 4.23945Z" fill="#FBFBFB"/>
<path d="M100.796 283.069C100.017 283.069 99.3856 282.436 99.3856 281.655C99.3856 280.875 100.017 280.242 100.796 280.242C101.575 280.242 102.206 280.875 102.206 281.655C102.206 282.436 101.575 283.069 100.796 283.069Z" fill="#FBFBFB"/>
<path d="M100.796 268.066C100.602 268.066 100.445 267.908 100.445 267.714C100.445 267.52 100.602 267.362 100.796 267.362C100.99 267.362 101.147 267.52 101.147 267.714C101.147 267.908 100.99 268.066 100.796 268.066Z" fill="#FBFBFB"/>
<path d="M100.796 255.186C101.573 255.186 102.2 254.551 102.2 253.773C102.2 252.994 101.567 252.359 100.796 252.359C100.024 252.359 99.3854 252.994 99.3854 253.773C99.3854 254.551 100.019 255.186 100.796 255.186Z" fill="#FBFBFB"/>
<path d="M100.796 241.244C100.017 241.244 99.3856 240.612 99.3856 239.831C99.3856 239.051 100.017 238.418 100.796 238.418C101.575 238.418 102.206 239.051 102.206 239.831C102.206 240.612 101.575 241.244 100.796 241.244Z" fill="#FBFBFB"/>
<path d="M100.79 227.303C101.567 227.303 102.206 226.668 102.206 225.89C102.206 225.111 101.573 224.477 100.79 224.477C100.007 224.477 99.3856 225.111 99.3856 225.89C99.3856 226.668 100.019 227.303 100.79 227.303Z" fill="#FBFBFB"/>
<path d="M100.796 213.362C100.017 213.362 99.3856 212.729 99.3856 211.948C99.3856 211.168 100.017 210.535 100.796 210.535C101.575 210.535 102.206 211.168 102.206 211.948C102.206 212.729 101.575 213.362 100.796 213.362Z" fill="#FBFBFB"/>
<path d="M100.79 199.42C101.567 199.42 102.206 198.786 102.206 198.007C102.206 197.228 101.573 196.6 100.79 196.6C100.007 196.6 99.3798 197.234 99.3798 198.007C99.3798 198.78 100.013 199.42 100.79 199.42Z" fill="#FBFBFB"/>
<path d="M100.796 185.479C101.573 185.479 102.2 184.844 102.2 184.066C102.2 183.287 101.567 182.652 100.796 182.652C100.024 182.652 99.3854 183.287 99.3854 184.066C99.3854 184.844 100.019 185.479 100.796 185.479Z" fill="#FBFBFB"/>
<path d="M100.796 170.828C101.187 170.828 101.498 170.511 101.498 170.125C101.498 169.738 101.181 169.421 100.796 169.421C100.41 169.421 100.094 169.738 100.094 170.125C100.094 170.511 100.41 170.828 100.796 170.828Z" fill="#FBFBFB"/>
<path d="M100.796 100.768C100.986 100.768 101.147 100.612 101.147 100.416C101.147 100.22 100.992 100.064 100.796 100.064C100.6 100.064 100.445 100.22 100.445 100.416C100.445 100.612 100.6 100.768 100.796 100.768Z" fill="#FBFBFB"/>
<path d="M100.796 87.8889C100.017 87.8889 99.3856 87.2562 99.3856 86.4757C99.3856 85.6952 100.017 85.0625 100.796 85.0625C101.575 85.0625 102.206 85.6952 102.206 86.4757C102.206 87.2562 101.575 87.8889 100.796 87.8889Z" fill="#FBFBFB"/>
<path d="M100.796 72.8853C100.602 72.8853 100.445 72.7278 100.445 72.5335C100.445 72.3392 100.602 72.1816 100.796 72.1816C100.99 72.1816 101.147 72.3392 101.147 72.5335C101.147 72.7278 100.99 72.8853 100.796 72.8853Z" fill="#FBFBFB"/>
<path d="M120.528 282.007C120.718 282.007 120.879 281.852 120.879 281.656C120.879 281.459 120.723 281.304 120.528 281.304C120.332 281.304 120.171 281.459 120.171 281.656C120.171 281.852 120.332 282.007 120.528 282.007Z" fill="#FBFBFB"/>
<path d="M120.528 269.127C119.749 269.127 119.117 268.494 119.117 267.714C119.117 266.933 119.749 266.301 120.528 266.301C121.307 266.301 121.938 266.933 121.938 267.714C121.938 268.494 121.307 269.127 120.528 269.127Z" fill="#FBFBFB"/>
<path d="M120.528 254.125C120.718 254.125 120.879 253.969 120.879 253.773C120.879 253.577 120.723 253.421 120.528 253.421C120.332 253.421 120.177 253.577 120.177 253.773C120.177 253.969 120.332 254.125 120.528 254.125Z" fill="#FBFBFB"/>
<path d="M120.528 241.244C119.749 241.244 119.117 240.612 119.117 239.831C119.117 239.051 119.749 238.418 120.528 238.418C121.307 238.418 121.938 239.051 121.938 239.831C121.938 240.612 121.307 241.244 120.528 241.244Z" fill="#FBFBFB"/>
<path d="M120.528 227.303C119.749 227.303 119.117 226.67 119.117 225.89C119.117 225.109 119.749 224.477 120.528 224.477C121.307 224.477 121.938 225.109 121.938 225.89C121.938 226.67 121.307 227.303 120.528 227.303Z" fill="#FBFBFB"/>
<path d="M120.528 213.362C121.305 213.362 121.932 212.727 121.932 211.948C121.932 211.17 121.299 210.535 120.528 210.535C119.756 210.535 119.117 211.17 119.117 211.948C119.117 212.727 119.751 213.362 120.528 213.362Z" fill="#FBFBFB"/>
<path d="M120.528 199.42C121.305 199.42 121.932 198.786 121.932 198.007C121.932 197.228 121.299 196.6 120.528 196.6C119.756 196.6 119.117 197.234 119.117 198.007C119.117 198.78 119.751 199.42 120.528 199.42Z" fill="#FBFBFB"/>
<path d="M120.528 186.182C121.696 186.182 122.646 185.23 122.646 184.065C122.646 182.9 121.696 181.948 120.528 181.948C119.359 181.948 118.415 182.9 118.415 184.065C118.415 185.23 119.365 186.182 120.528 186.182Z" fill="#FBFBFB"/>
<path d="M120.528 171.537C119.749 171.537 119.117 170.905 119.117 170.124C119.117 169.344 119.749 168.711 120.528 168.711C121.307 168.711 121.938 169.344 121.938 170.124C121.938 170.905 121.307 171.537 120.528 171.537Z" fill="#FBFBFB"/>
<path d="M120.528 157.066C121.012 157.066 121.409 156.668 121.409 156.183C121.409 155.699 121.012 155.301 120.528 155.301C120.044 155.301 119.642 155.699 119.642 156.183C119.642 156.668 120.039 157.066 120.528 157.066Z" fill="#FBFBFB"/>
<path d="M120.528 143.654C121.305 143.654 121.944 143.02 121.944 142.241C121.944 141.463 121.311 140.828 120.528 140.828C119.745 140.828 119.124 141.463 119.124 142.241C119.124 143.02 119.757 143.654 120.528 143.654Z" fill="#FBFBFB"/>
<path d="M120.528 129.361C121.11 129.361 121.582 128.888 121.582 128.3C121.582 127.711 121.11 127.238 120.528 127.238C119.947 127.238 119.469 127.711 119.469 128.3C119.469 128.888 119.947 129.361 120.528 129.361Z" fill="#FBFBFB"/>
<path d="M120.528 115.063C120.14 115.063 119.825 114.748 119.825 114.359C119.825 113.97 120.14 113.655 120.528 113.655C120.916 113.655 121.23 113.97 121.23 114.359C121.23 114.748 120.916 115.063 120.528 115.063Z" fill="#FBFBFB"/>
<path d="M120.528 101.3C121.017 101.3 121.415 100.902 121.415 100.418C121.415 99.9332 121.017 99.5352 120.528 99.5352C120.039 99.5352 119.653 99.9332 119.653 100.418C119.653 100.902 120.045 101.3 120.528 101.3Z" fill="#FBFBFB"/>
<path d="M120.528 89.3021C118.97 89.3021 117.707 88.0367 117.707 86.4758C117.707 84.9148 118.97 83.6494 120.528 83.6494C122.085 83.6494 123.348 84.9148 123.348 86.4758C123.348 88.0367 122.085 89.3021 120.528 89.3021Z" fill="#FBFBFB"/>
<path d="M120.528 73.9475C121.305 73.9475 121.932 73.313 121.932 72.5343C121.932 71.7556 121.299 71.1211 120.528 71.1211C119.756 71.1211 119.117 71.7556 119.117 72.5343C119.117 73.313 119.751 73.9475 120.528 73.9475Z" fill="#FBFBFB"/>
<path d="M120.528 59.4809C120.042 59.4809 119.647 59.0857 119.647 58.5983C119.647 58.1109 120.042 57.7158 120.528 57.7158C121.014 57.7158 121.409 58.1109 121.409 58.5983C121.409 59.0857 121.014 59.4809 120.528 59.4809Z" fill="#FBFBFB"/>
<path d="M120.528 46.7728C121.696 46.7728 122.646 45.8211 122.646 44.6559C122.646 43.4908 121.696 42.5391 120.528 42.5391C119.359 42.5391 118.415 43.4908 118.415 44.6559C118.415 45.8211 119.365 46.7728 120.528 46.7728Z" fill="#FBFBFB"/>
<path d="M120.528 31.5922C120.042 31.5922 119.647 31.1971 119.647 30.7097C119.647 30.2223 120.042 29.8271 120.528 29.8271C121.014 29.8271 121.409 30.2223 121.409 30.7097C121.409 31.1971 121.014 31.5922 120.528 31.5922Z" fill="#FBFBFB"/>
<path d="M120.528 18.1809C119.749 18.1809 119.117 17.5482 119.117 16.7677C119.117 15.9872 119.749 15.3545 120.528 15.3545C121.307 15.3545 121.938 15.9872 121.938 16.7677C121.938 17.5482 121.307 18.1809 120.528 18.1809Z" fill="#FBFBFB"/>
<path d="M120.528 4.23945C121.305 4.23945 121.932 3.60496 121.932 2.82627C121.932 2.04758 121.299 1.41309 120.528 1.41309C119.756 1.41309 119.117 2.04758 119.117 2.82627C119.117 3.60496 119.751 4.23945 120.528 4.23945Z" fill="#FBFBFB"/>
<path d="M140.266 295.777C140.364 295.777 140.438 295.702 140.438 295.598C140.438 295.494 140.364 295.419 140.266 295.419C140.168 295.419 140.087 295.5 140.087 295.598C140.087 295.696 140.168 295.777 140.266 295.777Z" fill="#FBFBFB"/>
<path d="M140.266 282.007C140.072 282.007 139.914 281.85 139.914 281.656C139.914 281.461 140.072 281.304 140.266 281.304C140.459 281.304 140.617 281.461 140.617 281.656C140.617 281.85 140.459 282.007 140.266 282.007Z" fill="#FBFBFB"/>
<path d="M140.266 269.127C139.487 269.127 138.856 268.494 138.856 267.714C138.856 266.933 139.487 266.301 140.266 266.301C141.045 266.301 141.676 266.933 141.676 267.714C141.676 268.494 141.045 269.127 140.266 269.127Z" fill="#FBFBFB"/>
<path d="M140.266 254.125C140.461 254.125 140.617 253.969 140.617 253.773C140.617 253.577 140.461 253.421 140.266 253.421C140.07 253.421 139.909 253.577 139.909 253.773C139.909 253.969 140.07 254.125 140.266 254.125Z" fill="#FBFBFB"/>
<path d="M140.266 227.303C141.043 227.303 141.67 226.668 141.67 225.89C141.67 225.111 141.037 224.477 140.266 224.477C139.495 224.477 138.856 225.111 138.856 225.89C138.856 226.668 139.489 227.303 140.266 227.303Z" fill="#FBFBFB"/>
<path d="M140.26 212.3C140.456 212.3 140.617 212.145 140.617 211.949C140.617 211.752 140.456 211.597 140.26 211.597C140.064 211.597 139.909 211.752 139.909 211.949C139.909 212.145 140.064 212.3 140.26 212.3Z" fill="#FBFBFB"/>
<path d="M140.266 198.365C140.461 198.365 140.617 198.209 140.617 198.013C140.617 197.817 140.461 197.661 140.266 197.661C140.07 197.661 139.909 197.817 139.909 198.013C139.909 198.209 140.07 198.365 140.266 198.365Z" fill="#FBFBFB"/>
<path d="M140.266 171.537C139.487 171.537 138.856 170.905 138.856 170.124C138.856 169.344 139.487 168.711 140.266 168.711C141.045 168.711 141.676 169.344 141.676 170.124C141.676 170.905 141.045 171.537 140.266 171.537Z" fill="#FBFBFB"/>
<path d="M140.266 156.534C140.072 156.534 139.914 156.376 139.914 156.182C139.914 155.988 140.072 155.83 140.266 155.83C140.459 155.83 140.617 155.988 140.617 156.182C140.617 156.376 140.459 156.534 140.266 156.534Z" fill="#FBFBFB"/>
<path d="M140.26 143.654C141.037 143.654 141.676 143.02 141.676 142.241C141.676 141.463 141.043 140.828 140.26 140.828C139.477 140.828 138.856 141.463 138.856 142.241C138.856 143.02 139.489 143.654 140.26 143.654Z" fill="#FBFBFB"/>
<path d="M140.26 129.713C141.037 129.713 141.676 129.079 141.676 128.3C141.676 127.521 141.043 126.887 140.26 126.887C139.477 126.887 138.856 127.521 138.856 128.3C138.856 129.079 139.489 129.713 140.26 129.713Z" fill="#FBFBFB"/>
<path d="M140.266 115.772C141.043 115.772 141.67 115.137 141.67 114.358C141.67 113.58 141.037 112.945 140.266 112.945C139.495 112.945 138.856 113.58 138.856 114.358C138.856 115.137 139.489 115.772 140.266 115.772Z" fill="#FBFBFB"/>
<path d="M140.266 101.83C141.043 101.83 141.676 101.196 141.676 100.423C141.676 99.65 141.043 99.0098 140.266 99.0098C139.489 99.0098 138.85 99.6443 138.85 100.423C138.85 101.202 139.483 101.83 140.266 101.83Z" fill="#FBFBFB"/>
<path d="M140.266 87.8889C141.043 87.8889 141.676 87.2544 141.676 86.4757C141.676 85.697 141.043 85.0625 140.266 85.0625C139.489 85.0625 138.85 85.697 138.85 86.4757C138.85 87.2544 139.483 87.8889 140.266 87.8889Z" fill="#FBFBFB"/>
<path d="M140.266 73.9475C141.043 73.9475 141.676 73.313 141.676 72.5343C141.676 71.7556 141.043 71.1211 140.266 71.1211C139.489 71.1211 138.85 71.7556 138.85 72.5343C138.85 73.313 139.483 73.9475 140.266 73.9475Z" fill="#FBFBFB"/>
<path d="M140.266 60.0052C141.043 60.0052 141.676 59.3707 141.676 58.5977C141.676 57.8248 141.043 57.1846 140.266 57.1846C139.489 57.1846 138.856 57.8191 138.856 58.5977C138.856 59.3764 139.489 60.0052 140.266 60.0052Z" fill="#FBFBFB"/>
<path d="M140.266 46.0646C139.487 46.0646 138.856 45.4319 138.856 44.6515C138.856 43.871 139.487 43.2383 140.266 43.2383C141.045 43.2383 141.676 43.871 141.676 44.6515C141.676 45.4319 141.045 46.0646 140.266 46.0646Z" fill="#FBFBFB"/>
<path d="M140.26 32.128C141.037 32.128 141.676 31.4935 141.676 30.7091C141.676 29.9246 141.043 29.2959 140.26 29.2959C139.477 29.2959 138.856 29.9304 138.856 30.7091C138.856 31.4878 139.489 32.128 140.26 32.128Z" fill="#FBFBFB"/>
<path d="M140.266 18.1809C139.487 18.1809 138.856 17.5482 138.856 16.7677C138.856 15.9872 139.487 15.3545 140.266 15.3545C141.045 15.3545 141.676 15.9872 141.676 16.7677C141.676 17.5482 141.045 18.1809 140.266 18.1809Z" fill="#FBFBFB"/>
<path d="M140.266 4.23945C139.487 4.23945 138.856 3.60675 138.856 2.82627C138.856 2.04579 139.487 1.41309 140.266 1.41309C141.045 1.41309 141.676 2.04579 141.676 2.82627C141.676 3.60675 141.045 4.23945 140.266 4.23945Z" fill="#FBFBFB"/>
<path d="M160.004 310.063C160.291 310.063 160.527 309.827 160.527 309.538C160.527 309.25 160.291 309.008 160.004 309.008C159.716 309.008 159.474 309.244 159.474 309.538C159.474 309.833 159.71 310.063 160.004 310.063Z" fill="#FBFBFB"/>
<path d="M160.004 295.777C160.102 295.777 160.182 295.696 160.182 295.598C160.182 295.5 160.102 295.419 160.004 295.419C159.906 295.419 159.825 295.5 159.825 295.598C159.825 295.696 159.906 295.777 160.004 295.777Z" fill="#FBFBFB"/>
<path d="M160.004 283.069C160.781 283.069 161.408 282.434 161.408 281.655C161.408 280.877 160.775 280.242 160.004 280.242C159.232 280.242 158.593 280.877 158.593 281.655C158.593 282.434 159.227 283.069 160.004 283.069Z" fill="#FBFBFB"/>
<path d="M159.998 269.127C159.219 269.127 158.588 268.494 158.588 267.714C158.588 266.933 159.219 266.301 159.998 266.301C160.777 266.301 161.408 266.933 161.408 267.714C161.408 268.494 160.777 269.127 159.998 269.127Z" fill="#FBFBFB"/>
<path d="M160.004 255.186C160.781 255.186 161.408 254.551 161.408 253.773C161.408 252.994 160.775 252.359 160.004 252.359C159.232 252.359 158.588 252.994 158.588 253.773C158.588 254.551 159.221 255.186 160.004 255.186Z" fill="#FBFBFB"/>
<path d="M160.003 241.948C161.172 241.948 162.116 240.996 162.116 239.831C162.116 238.666 161.166 237.714 160.003 237.714C158.84 237.714 157.891 238.666 157.891 239.831C157.891 240.996 158.84 241.948 160.003 241.948Z" fill="#FBFBFB"/>
<path d="M159.998 227.303C160.775 227.303 161.414 226.668 161.414 225.89C161.414 225.111 160.78 224.477 159.998 224.477C159.215 224.477 158.593 225.111 158.593 225.89C158.593 226.668 159.226 227.303 159.998 227.303Z" fill="#FBFBFB"/>
<path d="M159.998 212.831C160.487 212.831 160.884 212.433 160.884 211.949C160.884 211.464 160.487 211.066 159.998 211.066C159.509 211.066 159.123 211.464 159.123 211.949C159.123 212.433 159.514 212.831 159.998 212.831Z" fill="#FBFBFB"/>
<path d="M160.004 198.531C160.291 198.531 160.527 198.295 160.527 198.006C160.527 197.718 160.297 197.476 160.004 197.476C159.71 197.476 159.474 197.712 159.474 198.006C159.474 198.3 159.71 198.531 160.004 198.531Z" fill="#FBFBFB"/>
<path d="M160.003 156.534C159.809 156.534 159.652 156.376 159.652 156.182C159.652 155.988 159.809 155.83 160.003 155.83C160.197 155.83 160.354 155.988 160.354 156.182C160.354 156.376 160.197 156.534 160.003 156.534Z" fill="#FBFBFB"/>
<path d="M160.003 129.713C160.78 129.713 161.414 129.079 161.414 128.3C161.414 127.521 160.78 126.887 160.003 126.887C159.226 126.887 158.587 127.521 158.587 128.3C158.587 129.079 159.22 129.713 160.003 129.713Z" fill="#FBFBFB"/>
<path d="M160.003 114.71C159.809 114.71 159.652 114.552 159.652 114.358C159.652 114.163 159.809 114.006 160.003 114.006C160.197 114.006 160.354 114.163 160.354 114.358C160.354 114.552 160.197 114.71 160.003 114.71Z" fill="#FBFBFB"/>
<path d="M159.998 101.83C160.775 101.83 161.408 101.196 161.408 100.423C161.408 99.65 160.775 99.0098 159.998 99.0098C159.221 99.0098 158.588 99.6443 158.588 100.423C158.588 101.202 159.221 101.83 159.998 101.83Z" fill="#FBFBFB"/>
<path d="M160.003 87.8889C159.224 87.8889 158.593 87.2562 158.593 86.4757C158.593 85.6952 159.224 85.0625 160.003 85.0625C160.782 85.0625 161.414 85.6952 161.414 86.4757C161.414 87.2562 160.782 87.8889 160.003 87.8889Z" fill="#FBFBFB"/>
<path d="M159.998 75.3607C161.552 75.3607 162.818 74.0918 162.818 72.5344C162.818 70.977 161.552 69.708 159.998 69.708C158.444 69.708 157.183 70.977 157.183 72.5344C157.183 74.0918 158.444 75.3607 159.998 75.3607Z" fill="#FBFBFB"/>
<path d="M160.003 60.0052C160.78 60.0052 161.414 59.3707 161.414 58.5977C161.414 57.8248 160.78 57.1846 160.003 57.1846C159.226 57.1846 158.587 57.8191 158.587 58.5977C158.587 59.3764 159.22 60.0052 160.003 60.0052Z" fill="#FBFBFB"/>
<path d="M159.998 45.0084C160.193 45.0084 160.354 44.8527 160.354 44.6565C160.354 44.4604 160.193 44.3047 159.998 44.3047C159.802 44.3047 159.646 44.4604 159.646 44.6565C159.646 44.8527 159.802 45.0084 159.998 45.0084Z" fill="#FBFBFB"/>
<path d="M179.736 337.953C180.03 337.953 180.266 337.716 180.266 337.422C180.266 337.128 180.03 336.892 179.736 336.892C179.443 336.892 179.212 337.128 179.212 337.422C179.212 337.716 179.448 337.953 179.736 337.953Z" fill="#FBFBFB"/>
<path d="M179.736 323.659C179.637 323.659 179.557 323.579 179.557 323.481C179.557 323.382 179.637 323.302 179.736 323.302C179.834 323.302 179.914 323.382 179.914 323.481C179.914 323.579 179.834 323.659 179.736 323.659Z" fill="#FBFBFB"/>
<path d="M179.736 310.952C180.513 310.952 181.146 310.318 181.146 309.539C181.146 308.76 180.513 308.126 179.736 308.126C178.959 308.126 178.331 308.76 178.331 309.539C178.331 310.318 178.964 310.952 179.736 310.952Z" fill="#FBFBFB"/>
<path d="M179.736 297.01C180.513 297.01 181.152 296.375 181.152 295.597C181.152 294.818 180.519 294.184 179.736 294.184C178.953 294.184 178.331 294.818 178.331 295.597C178.331 296.375 178.965 297.01 179.736 297.01Z" fill="#FBFBFB"/>
<path d="M179.736 283.069C178.957 283.069 178.325 282.436 178.325 281.655C178.325 280.875 178.957 280.242 179.736 280.242C180.515 280.242 181.146 280.875 181.146 281.655C181.146 282.436 180.515 283.069 179.736 283.069Z" fill="#FBFBFB"/>
<path d="M179.736 269.127C178.957 269.127 178.325 268.494 178.325 267.714C178.325 266.933 178.957 266.301 179.736 266.301C180.515 266.301 181.146 266.933 181.146 267.714C181.146 268.494 180.515 269.127 179.736 269.127Z" fill="#FBFBFB"/>
<path d="M179.736 255.186C178.957 255.186 178.325 254.553 178.325 253.773C178.325 252.992 178.957 252.359 179.736 252.359C180.515 252.359 181.146 252.992 181.146 253.773C181.146 254.553 180.515 255.186 179.736 255.186Z" fill="#FBFBFB"/>
<path d="M179.736 241.244C180.513 241.244 181.152 240.61 181.152 239.831C181.152 239.052 180.519 238.418 179.736 238.418C178.953 238.418 178.331 239.052 178.331 239.831C178.331 240.61 178.965 241.244 179.736 241.244Z" fill="#FBFBFB"/>
<path d="M179.735 226.242C179.541 226.242 179.384 226.084 179.384 225.89C179.384 225.696 179.541 225.538 179.735 225.538C179.929 225.538 180.086 225.696 180.086 225.89C180.086 226.084 179.929 226.242 179.735 226.242Z" fill="#FBFBFB"/>
<path d="M179.736 199.42C180.513 199.42 181.14 198.786 181.14 198.007C181.14 197.228 180.507 196.6 179.736 196.6C178.964 196.6 178.325 197.234 178.325 198.007C178.325 198.78 178.959 199.42 179.736 199.42Z" fill="#FBFBFB"/>
<path d="M179.735 184.418C179.925 184.418 180.086 184.262 180.086 184.066C180.086 183.87 179.931 183.714 179.735 183.714C179.54 183.714 179.384 183.87 179.384 184.066C179.384 184.262 179.54 184.418 179.735 184.418Z" fill="#FBFBFB"/>
<path d="M179.736 171.537C180.513 171.537 181.146 170.903 181.146 170.124C181.146 169.345 180.513 168.711 179.736 168.711C178.959 168.711 178.32 169.345 178.32 170.124C178.32 170.903 178.953 171.537 179.736 171.537Z" fill="#FBFBFB"/>
<path d="M179.736 157.596C178.957 157.596 178.325 156.963 178.325 156.183C178.325 155.402 178.957 154.77 179.736 154.77C180.515 154.77 181.146 155.402 181.146 156.183C181.146 156.963 180.515 157.596 179.736 157.596Z" fill="#FBFBFB"/>
<path d="M179.735 144.358C180.904 144.358 181.848 143.406 181.848 142.241C181.848 141.076 180.898 140.124 179.735 140.124C178.572 140.124 177.617 141.076 177.617 142.241C177.617 143.406 178.567 144.358 179.735 144.358Z" fill="#FBFBFB"/>
<path d="M179.736 129.713C178.957 129.713 178.325 129.08 178.325 128.3C178.325 127.519 178.957 126.887 179.736 126.887C180.515 126.887 181.146 127.519 181.146 128.3C181.146 129.08 180.515 129.713 179.736 129.713Z" fill="#FBFBFB"/>
<path d="M179.736 115.772C178.957 115.772 178.325 115.139 178.325 114.358C178.325 113.578 178.957 112.945 179.736 112.945C180.515 112.945 181.146 113.578 181.146 114.358C181.146 115.139 180.515 115.772 179.736 115.772Z" fill="#FBFBFB"/>
<path d="M179.736 101.83C180.513 101.83 181.146 101.196 181.146 100.423C181.146 99.65 180.513 99.0098 179.736 99.0098C178.959 99.0098 178.325 99.6443 178.325 100.423C178.325 101.202 178.959 101.83 179.736 101.83Z" fill="#FBFBFB"/>
<path d="M179.736 87.8889C180.513 87.8889 181.152 87.2544 181.152 86.4757C181.152 85.697 180.519 85.0625 179.736 85.0625C178.953 85.0625 178.331 85.697 178.331 86.4757C178.331 87.2544 178.965 87.8889 179.736 87.8889Z" fill="#FBFBFB"/>
<path d="M179.735 72.8853C179.931 72.8853 180.086 72.7296 180.086 72.5335C180.086 72.3374 179.931 72.1816 179.735 72.1816C179.54 72.1816 179.378 72.3374 179.378 72.5335C179.378 72.7296 179.54 72.8853 179.735 72.8853Z" fill="#FBFBFB"/>
<path d="M199.468 338.835C200.245 338.835 200.884 338.201 200.884 337.422C200.884 336.643 200.251 336.009 199.468 336.009C198.685 336.009 198.063 336.643 198.063 337.422C198.063 338.201 198.696 338.835 199.468 338.835Z" fill="#FBFBFB"/>
<path d="M199.473 325.597C198.307 325.597 197.361 324.649 197.361 323.48C197.361 322.311 198.307 321.363 199.473 321.363C200.64 321.363 201.586 322.311 201.586 323.48C201.586 324.649 200.64 325.597 199.473 325.597Z" fill="#FBFBFB"/>
<path d="M199.468 310.952C200.245 310.952 200.884 310.318 200.884 309.539C200.884 308.76 200.251 308.126 199.468 308.126C198.685 308.126 198.058 308.76 198.058 309.539C198.058 310.318 198.691 310.952 199.468 310.952Z" fill="#FBFBFB"/>
<path d="M199.474 297.01C200.251 297.01 200.884 296.375 200.884 295.597C200.884 294.818 200.251 294.184 199.474 294.184C198.696 294.184 198.058 294.818 198.058 295.597C198.058 296.375 198.691 297.01 199.474 297.01Z" fill="#FBFBFB"/>
<path d="M199.468 283.069C200.245 283.069 200.884 282.434 200.884 281.655C200.884 280.877 200.251 280.242 199.468 280.242C198.685 280.242 198.063 280.877 198.063 281.655C198.063 282.434 198.696 283.069 199.468 283.069Z" fill="#FBFBFB"/>
<path d="M199.467 268.424C199.859 268.424 200.175 268.107 200.175 267.72C200.175 267.334 199.859 267.017 199.467 267.017C199.076 267.017 198.765 267.334 198.765 267.72C198.765 268.107 199.082 268.424 199.467 268.424Z" fill="#FBFBFB"/>
<path d="M199.473 256.599C197.916 256.599 196.653 255.334 196.653 253.773C196.653 252.212 197.916 250.946 199.473 250.946C201.031 250.946 202.294 252.212 202.294 253.773C202.294 255.334 201.031 256.599 199.473 256.599Z" fill="#FBFBFB"/>
<path d="M199.468 241.244C200.245 241.244 200.884 240.61 200.884 239.831C200.884 239.052 200.251 238.418 199.468 238.418C198.685 238.418 198.058 239.052 198.058 239.831C198.058 240.61 198.691 241.244 199.468 241.244Z" fill="#FBFBFB"/>
<path d="M199.474 227.303C198.695 227.303 198.063 226.67 198.063 225.89C198.063 225.109 198.695 224.477 199.474 224.477C200.252 224.477 200.884 225.109 200.884 225.89C200.884 226.67 200.252 227.303 199.474 227.303Z" fill="#FBFBFB"/>
<path d="M199.474 213.362C200.251 213.362 200.884 212.727 200.884 211.948C200.884 211.17 200.251 210.535 199.474 210.535C198.696 210.535 198.058 211.17 198.058 211.948C198.058 212.727 198.691 213.362 199.474 213.362Z" fill="#FBFBFB"/>
<path d="M199.474 199.42C200.251 199.42 200.884 198.786 200.884 198.007C200.884 197.228 200.251 196.6 199.474 196.6C198.696 196.6 198.063 197.234 198.063 198.007C198.063 198.78 198.696 199.42 199.474 199.42Z" fill="#FBFBFB"/>
<path d="M199.474 185.479C198.695 185.479 198.063 184.846 198.063 184.066C198.063 183.285 198.695 182.652 199.474 182.652C200.252 182.652 200.884 183.285 200.884 184.066C200.884 184.846 200.252 185.479 199.474 185.479Z" fill="#FBFBFB"/>
<path d="M199.474 172.95C201.028 172.95 202.289 171.686 202.289 170.129C202.289 168.572 201.028 167.303 199.474 167.303C197.92 167.303 196.653 168.572 196.653 170.129C196.653 171.686 197.92 172.95 199.474 172.95Z" fill="#FBFBFB"/>
<path d="M199.474 157.596C198.695 157.596 198.063 156.963 198.063 156.183C198.063 155.402 198.695 154.77 199.474 154.77C200.252 154.77 200.884 155.402 200.884 156.183C200.884 156.963 200.252 157.596 199.474 157.596Z" fill="#FBFBFB"/>
<path d="M199.468 142.593C199.664 142.593 199.825 142.438 199.825 142.241C199.825 142.045 199.664 141.89 199.468 141.89C199.272 141.89 199.117 142.045 199.117 142.241C199.117 142.438 199.272 142.593 199.468 142.593Z" fill="#FBFBFB"/>
<path d="M199.474 115.772C200.251 115.772 200.884 115.137 200.884 114.358C200.884 113.58 200.251 112.945 199.474 112.945C198.696 112.945 198.058 113.58 198.058 114.358C198.058 115.137 198.691 115.772 199.474 115.772Z" fill="#FBFBFB"/>
<path d="M199.474 100.768C199.28 100.768 199.122 100.611 199.122 100.416C199.122 100.222 199.28 100.064 199.474 100.064C199.668 100.064 199.825 100.222 199.825 100.416C199.825 100.611 199.668 100.768 199.474 100.768Z" fill="#FBFBFB"/>
<path d="M199.474 87.8889C200.251 87.8889 200.884 87.2544 200.884 86.4757C200.884 85.697 200.251 85.0625 199.474 85.0625C198.696 85.0625 198.058 85.697 198.058 86.4757C198.058 87.2544 198.691 87.8889 199.474 87.8889Z" fill="#FBFBFB"/>
<path d="M199.474 73.9475C200.251 73.9475 200.884 73.313 200.884 72.5343C200.884 71.7556 200.251 71.1211 199.474 71.1211C198.696 71.1211 198.058 71.7556 198.058 72.5343C198.058 73.313 198.691 73.9475 199.474 73.9475Z" fill="#FBFBFB"/>
<path d="M199.474 60.0052C200.251 60.0052 200.884 59.3707 200.884 58.5977C200.884 57.8248 200.251 57.1846 199.474 57.1846C198.696 57.1846 198.063 57.8191 198.063 58.5977C198.063 59.3764 198.696 60.0052 199.474 60.0052Z" fill="#FBFBFB"/>
<path d="M199.467 45.3605C199.859 45.3605 200.175 45.0433 200.175 44.6568C200.175 44.2704 199.859 43.9531 199.467 43.9531C199.076 43.9531 198.765 44.2704 198.765 44.6568C198.765 45.0433 199.082 45.3605 199.467 45.3605Z" fill="#FBFBFB"/>
<path d="M199.473 31.42C199.864 31.42 200.175 31.1028 200.175 30.7105C200.175 30.3183 199.859 30.0068 199.473 30.0068C199.087 30.0068 198.771 30.3241 198.771 30.7105C198.771 31.097 199.087 31.42 199.473 31.42Z" fill="#FBFBFB"/>
<path d="M199.468 18.1809C200.245 18.1809 200.884 17.5464 200.884 16.7677C200.884 15.989 200.251 15.3545 199.468 15.3545C198.685 15.3545 198.058 15.989 198.058 16.7677C198.058 17.5464 198.691 18.1809 199.468 18.1809Z" fill="#FBFBFB"/>
<path d="M199.468 3.52948C199.08 3.52948 198.765 3.21442 198.765 2.82578C198.765 2.43713 199.08 2.12207 199.468 2.12207C199.856 2.12207 200.17 2.43713 200.17 2.82578C200.17 3.21442 199.856 3.52948 199.468 3.52948Z" fill="#FBFBFB"/>
<path d="M219.211 309.89C219.407 309.89 219.562 309.734 219.562 309.538C219.562 309.342 219.407 309.187 219.211 309.187C219.016 309.187 218.86 309.342 218.86 309.538C218.86 309.734 219.016 309.89 219.211 309.89Z" fill="#FBFBFB"/>
<path d="M219.211 297.714C218.044 297.714 217.098 296.767 217.098 295.597C217.098 294.428 218.044 293.48 219.211 293.48C220.377 293.48 221.323 294.428 221.323 295.597C221.323 296.767 220.377 297.714 219.211 297.714Z" fill="#FBFBFB"/>
<path d="M219.205 283.069C219.982 283.069 220.621 282.434 220.621 281.655C220.621 280.877 219.988 280.242 219.205 280.242C218.422 280.242 217.801 280.877 217.801 281.655C217.801 282.434 218.434 283.069 219.205 283.069Z" fill="#FBFBFB"/>
<path d="M219.211 213.362C219.988 213.362 220.621 212.727 220.621 211.948C220.621 211.17 219.988 210.535 219.211 210.535C218.434 210.535 217.795 211.17 217.795 211.948C217.795 212.727 218.428 213.362 219.211 213.362Z" fill="#FBFBFB"/>
<path d="M219.211 198.359C219.017 198.359 218.86 198.201 218.86 198.007C218.86 197.813 219.017 197.655 219.211 197.655C219.405 197.655 219.562 197.813 219.562 198.007C219.562 198.201 219.405 198.359 219.211 198.359Z" fill="#FBFBFB"/>
<path d="M219.211 185.479C218.432 185.479 217.801 184.846 217.801 184.066C217.801 183.285 218.432 182.652 219.211 182.652C219.99 182.652 220.621 183.285 220.621 184.066C220.621 184.846 219.99 185.479 219.211 185.479Z" fill="#FBFBFB"/>
<path d="M219.205 171.537C219.982 171.537 220.621 170.903 220.621 170.124C220.621 169.345 219.988 168.711 219.205 168.711C218.422 168.711 217.795 169.345 217.795 170.124C217.795 170.903 218.428 171.537 219.205 171.537Z" fill="#FBFBFB"/>
<path d="M219.211 157.596C219.988 157.596 220.616 156.961 220.616 156.183C220.616 155.404 219.983 154.77 219.211 154.77C218.44 154.77 217.801 155.404 217.801 156.183C217.801 156.961 218.434 157.596 219.211 157.596Z" fill="#FBFBFB"/>
<path d="M219.211 144.358C220.379 144.358 221.323 143.406 221.323 142.241C221.323 141.076 220.373 140.124 219.211 140.124C218.048 140.124 217.092 141.076 217.092 142.241C217.092 143.406 218.042 144.358 219.211 144.358Z" fill="#FBFBFB"/>
<path d="M219.211 129.713C219.988 129.713 220.616 129.079 220.616 128.3C220.616 127.521 219.983 126.887 219.211 126.887C218.44 126.887 217.801 127.521 217.801 128.3C217.801 129.079 218.434 129.713 219.211 129.713Z" fill="#FBFBFB"/>
<path d="M219.211 115.772C219.988 115.772 220.621 115.137 220.621 114.358C220.621 113.58 219.988 112.945 219.211 112.945C218.434 112.945 217.795 113.58 217.795 114.358C217.795 115.137 218.428 115.772 219.211 115.772Z" fill="#FBFBFB"/>
<path d="M219.211 101.83C219.988 101.83 220.621 101.196 220.621 100.423C220.621 99.65 219.988 99.0098 219.211 99.0098C218.434 99.0098 217.801 99.6443 217.801 100.423C217.801 101.202 218.434 101.83 219.211 101.83Z" fill="#FBFBFB"/>
<path d="M219.211 88.598C220.379 88.598 221.323 87.6463 221.323 86.4811C221.323 85.316 220.373 84.3643 219.211 84.3643C218.048 84.3643 217.092 85.316 217.092 86.4811C217.092 87.6463 218.042 88.598 219.211 88.598Z" fill="#FBFBFB"/>
<path d="M219.211 73.9475C218.432 73.9475 217.801 73.3148 217.801 72.5343C217.801 71.7538 218.432 71.1211 219.211 71.1211C219.99 71.1211 220.621 71.7538 220.621 72.5343C220.621 73.3148 219.99 73.9475 219.211 73.9475Z" fill="#FBFBFB"/>
<path d="M219.211 60.0052C219.988 60.0052 220.621 59.3707 220.621 58.5977C220.621 57.8248 219.988 57.1846 219.211 57.1846C218.434 57.1846 217.795 57.8191 217.795 58.5977C217.795 59.3764 218.428 60.0052 219.211 60.0052Z" fill="#FBFBFB"/>
<path d="M219.205 46.0646C219.982 46.0646 220.621 45.4302 220.621 44.6515C220.621 43.8728 219.988 43.2383 219.205 43.2383C218.422 43.2383 217.801 43.8728 217.801 44.6515C217.801 45.4302 218.434 46.0646 219.205 46.0646Z" fill="#FBFBFB"/>
<path d="M219.211 32.128C219.988 32.128 220.621 31.4935 220.621 30.7091C220.621 29.9246 219.988 29.2959 219.211 29.2959C218.434 29.2959 217.795 29.9304 217.795 30.7091C217.795 31.4878 218.428 32.128 219.211 32.128Z" fill="#FBFBFB"/>
<path d="M219.211 18.1809C218.432 18.1809 217.801 17.5482 217.801 16.7677C217.801 15.9872 218.432 15.3545 219.211 15.3545C219.99 15.3545 220.621 15.9872 220.621 16.7677C220.621 17.5482 219.99 18.1809 219.211 18.1809Z" fill="#FBFBFB"/>
<path d="M219.211 3.52948C218.823 3.52948 218.509 3.21442 218.509 2.82578C218.509 2.43713 218.823 2.12207 219.211 2.12207C219.599 2.12207 219.913 2.43713 219.913 2.82578C219.913 3.21442 219.599 3.52948 219.211 3.52948Z" fill="#FBFBFB"/>
<path d="M238.943 338.835C239.72 338.835 240.359 338.201 240.359 337.422C240.359 336.643 239.726 336.009 238.943 336.009C238.161 336.009 237.539 336.643 237.539 337.422C237.539 338.201 238.172 338.835 238.943 338.835Z" fill="#FBFBFB"/>
<path d="M238.943 324.363C239.432 324.363 239.83 323.965 239.83 323.48C239.83 322.996 239.432 322.598 238.943 322.598C238.454 322.598 238.068 322.996 238.068 323.48C238.068 323.965 238.46 324.363 238.943 324.363Z" fill="#FBFBFB"/>
<path d="M238.943 310.242C239.335 310.242 239.651 309.925 239.651 309.539C239.651 309.152 239.335 308.835 238.943 308.835C238.552 308.835 238.241 309.152 238.241 309.539C238.241 309.925 238.558 310.242 238.943 310.242Z" fill="#FBFBFB"/>
<path d="M238.943 296.128C239.237 296.128 239.473 295.891 239.473 295.597C239.473 295.303 239.237 295.066 238.943 295.066C238.65 295.066 238.419 295.303 238.419 295.597C238.419 295.891 238.655 296.128 238.943 296.128Z" fill="#FBFBFB"/>
<path d="M238.943 142.593C239.139 142.593 239.3 142.438 239.3 142.241C239.3 142.045 239.139 141.89 238.943 141.89C238.748 141.89 238.592 142.045 238.592 142.241C238.592 142.438 238.748 142.593 238.943 142.593Z" fill="#FBFBFB"/>
<path d="M238.943 129.713C239.72 129.713 240.359 129.079 240.359 128.3C240.359 127.521 239.726 126.887 238.943 126.887C238.161 126.887 237.539 127.521 237.539 128.3C237.539 129.079 238.172 129.713 238.943 129.713Z" fill="#FBFBFB"/>
<path d="M238.943 114.888C239.237 114.888 239.473 114.652 239.473 114.358C239.473 114.064 239.237 113.827 238.943 113.827C238.65 113.827 238.419 114.064 238.419 114.358C238.419 114.652 238.655 114.888 238.943 114.888Z" fill="#FBFBFB"/>
<path d="M238.943 58.9498C238.749 58.9498 238.592 58.7923 238.592 58.5979C238.592 58.4036 238.749 58.2461 238.943 58.2461C239.137 58.2461 239.294 58.4036 239.294 58.5979C239.294 58.7923 239.137 58.9498 238.943 58.9498Z" fill="#FBFBFB"/>
<path d="M238.943 46.0646C239.72 46.0646 240.348 45.4302 240.348 44.6515C240.348 43.8728 239.714 43.2383 238.943 43.2383C238.172 43.2383 237.533 43.8728 237.533 44.6515C237.533 45.4302 238.166 46.0646 238.943 46.0646Z" fill="#FBFBFB"/>
<path d="M238.943 32.128C239.72 32.128 240.359 31.4935 240.359 30.7091C240.359 29.9246 239.726 29.2959 238.943 29.2959C238.161 29.2959 237.539 29.9304 237.539 30.7091C237.539 31.4878 238.172 32.128 238.943 32.128Z" fill="#FBFBFB"/>
<path d="M238.943 17.4777C239.329 17.4777 239.646 17.1605 239.646 16.774C239.646 16.3876 239.329 16.0703 238.943 16.0703C238.558 16.0703 238.241 16.3876 238.241 16.774C238.241 17.1605 238.558 17.4777 238.943 17.4777Z" fill="#FBFBFB"/>
<path d="M238.943 4.23945C239.72 4.23945 240.354 3.60496 240.354 2.82627C240.354 2.04758 239.72 1.41309 238.943 1.41309C238.166 1.41309 237.527 2.04758 237.527 2.82627C237.527 3.60496 238.16 4.23945 238.943 4.23945Z" fill="#FBFBFB"/>
<path d="M258.681 338.835C259.458 338.835 260.085 338.201 260.085 337.422C260.085 336.643 259.452 336.009 258.681 336.009C257.91 336.009 257.271 336.643 257.271 337.422C257.271 338.201 257.904 338.835 258.681 338.835Z" fill="#FBFBFB"/>
<path d="M258.681 326.307C257.123 326.307 255.86 325.042 255.86 323.481C255.86 321.92 257.123 320.654 258.681 320.654C260.239 320.654 261.501 321.92 261.501 323.481C261.501 325.042 260.239 326.307 258.681 326.307Z" fill="#FBFBFB"/>
<path d="M258.681 310.952C257.902 310.952 257.271 310.32 257.271 309.539C257.271 308.759 257.902 308.126 258.681 308.126C259.46 308.126 260.091 308.759 260.091 309.539C260.091 310.32 259.46 310.952 258.681 310.952Z" fill="#FBFBFB"/>
<path d="M258.681 297.01C259.458 297.01 260.085 296.375 260.085 295.597C260.085 294.818 259.452 294.184 258.681 294.184C257.91 294.184 257.271 294.818 257.271 295.597C257.271 296.375 257.904 297.01 258.681 297.01Z" fill="#FBFBFB"/>
<path d="M258.681 283.069C259.458 283.069 260.091 282.434 260.091 281.655C260.091 280.877 259.458 280.242 258.681 280.242C257.904 280.242 257.265 280.877 257.265 281.655C257.265 282.434 257.898 283.069 258.681 283.069Z" fill="#FBFBFB"/>
<path d="M258.681 269.127C257.902 269.127 257.271 268.494 257.271 267.714C257.271 266.933 257.902 266.301 258.681 266.301C259.46 266.301 260.091 266.933 260.091 267.714C260.091 268.494 259.46 269.127 258.681 269.127Z" fill="#FBFBFB"/>
<path d="M258.681 256.599C257.123 256.599 255.86 255.334 255.86 253.773C255.86 252.212 257.123 250.946 258.681 250.946C260.239 250.946 261.501 252.212 261.501 253.773C261.501 255.334 260.239 256.599 258.681 256.599Z" fill="#FBFBFB"/>
<path d="M258.675 240.887C259.257 240.887 259.734 240.414 259.734 239.832C259.734 239.249 259.262 238.771 258.675 238.771C258.088 238.771 257.622 239.243 257.622 239.832C257.622 240.42 258.094 240.887 258.675 240.887Z" fill="#FBFBFB"/>
<path d="M258.681 226.242C258.487 226.242 258.33 226.084 258.33 225.89C258.33 225.696 258.487 225.538 258.681 225.538C258.875 225.538 259.032 225.696 259.032 225.89C259.032 226.084 258.875 226.242 258.681 226.242Z" fill="#FBFBFB"/>
<path d="M258.675 143.654C259.452 143.654 260.091 143.02 260.091 142.241C260.091 141.463 259.458 140.828 258.675 140.828C257.892 140.828 257.271 141.463 257.271 142.241C257.271 143.02 257.904 143.654 258.675 143.654Z" fill="#FBFBFB"/>
<path d="M258.681 114.71C258.877 114.71 259.032 114.554 259.032 114.358C259.032 114.162 258.877 114.006 258.681 114.006C258.485 114.006 258.324 114.162 258.324 114.358C258.324 114.554 258.485 114.71 258.681 114.71Z" fill="#FBFBFB"/>
<path d="M258.681 101.12C259.067 101.12 259.383 100.803 259.383 100.417C259.383 100.03 259.067 99.7129 258.681 99.7129C258.295 99.7129 257.973 100.03 257.973 100.417C257.973 100.803 258.29 101.12 258.681 101.12Z" fill="#FBFBFB"/>
<path d="M258.681 87.8889C259.458 87.8889 260.091 87.2544 260.091 86.4757C260.091 85.697 259.458 85.0625 258.681 85.0625C257.904 85.0625 257.265 85.697 257.265 86.4757C257.265 87.2544 257.898 87.8889 258.681 87.8889Z" fill="#FBFBFB"/>
<path d="M258.681 73.9475C257.902 73.9475 257.271 73.3148 257.271 72.5343C257.271 71.7538 257.902 71.1211 258.681 71.1211C259.46 71.1211 260.091 71.7538 260.091 72.5343C260.091 73.3148 259.46 73.9475 258.681 73.9475Z" fill="#FBFBFB"/>
<path d="M258.681 60.0052C259.458 60.0052 260.091 59.3707 260.091 58.5977C260.091 57.8248 259.458 57.1846 258.681 57.1846C257.904 57.1846 257.271 57.8191 257.271 58.5977C257.271 59.3764 257.904 60.0052 258.681 60.0052Z" fill="#FBFBFB"/>
<path d="M258.681 46.0646C257.902 46.0646 257.271 45.4319 257.271 44.6515C257.271 43.871 257.902 43.2383 258.681 43.2383C259.46 43.2383 260.091 43.871 260.091 44.6515C260.091 45.4319 259.46 46.0646 258.681 46.0646Z" fill="#FBFBFB"/>
<path d="M258.681 32.128C259.458 32.128 260.085 31.4935 260.085 30.7091C260.085 29.9246 259.452 29.2959 258.681 29.2959C257.91 29.2959 257.271 29.9304 257.271 30.7091C257.271 31.4878 257.904 32.128 258.681 32.128Z" fill="#FBFBFB"/>
<path d="M258.681 18.1809C259.458 18.1809 260.085 17.5464 260.085 16.7677C260.085 15.989 259.452 15.3545 258.681 15.3545C257.91 15.3545 257.271 15.989 257.271 16.7677C257.271 17.5464 257.904 18.1809 258.681 18.1809Z" fill="#FBFBFB"/>
<path d="M258.681 5.65273C260.235 5.65273 261.501 4.38375 261.501 2.82636C261.501 1.26898 260.235 0 258.681 0C257.127 0 255.86 1.26898 255.86 2.82636C255.86 4.38375 257.127 5.65273 258.681 5.65273Z" fill="#FBFBFB"/>
<path d="M278.419 309.89C278.615 309.89 278.77 309.734 278.77 309.538C278.77 309.342 278.615 309.187 278.419 309.187C278.223 309.187 278.068 309.342 278.068 309.538C278.068 309.734 278.223 309.89 278.419 309.89Z" fill="#FBFBFB"/>
<path d="M278.419 296.128C278.712 296.128 278.948 295.891 278.948 295.597C278.948 295.303 278.712 295.066 278.419 295.066C278.125 295.066 277.889 295.303 277.889 295.597C277.889 295.891 278.125 296.128 278.419 296.128Z" fill="#FBFBFB"/>
<path d="M278.419 282.891C277.738 282.891 277.187 282.338 277.187 281.656C277.187 280.975 277.738 280.422 278.419 280.422C279.099 280.422 279.65 280.975 279.65 281.656C279.65 282.338 279.099 282.891 278.419 282.891Z" fill="#FBFBFB"/>
<path d="M278.419 268.949C279.098 268.949 279.65 268.395 279.65 267.715C279.65 267.034 279.098 266.48 278.419 266.48C277.739 266.48 277.187 267.034 277.187 267.715C277.187 268.395 277.739 268.949 278.419 268.949Z" fill="#FBFBFB"/>
<path d="M278.419 254.477C278.811 254.477 279.122 254.16 279.122 253.773C279.122 253.387 278.805 253.069 278.419 253.069C278.034 253.069 277.711 253.387 277.711 253.773C277.711 254.16 278.028 254.477 278.419 254.477Z" fill="#FBFBFB"/>
<path d="M278.413 240.183C278.609 240.183 278.77 240.027 278.77 239.831C278.77 239.635 278.609 239.479 278.413 239.479C278.217 239.479 278.062 239.635 278.062 239.831C278.062 240.027 278.217 240.183 278.413 240.183Z" fill="#FBFBFB"/>
<path d="M278.413 170.476C278.609 170.476 278.77 170.32 278.77 170.124C278.77 169.928 278.609 169.767 278.413 169.767C278.217 169.767 278.062 169.928 278.062 170.124C278.062 170.32 278.217 170.476 278.413 170.476Z" fill="#FBFBFB"/>
<path d="M278.413 157.423C279.098 157.423 279.65 156.869 279.65 156.188C279.65 155.508 279.098 154.954 278.413 154.954C277.728 154.954 277.181 155.508 277.181 156.188C277.181 156.869 277.734 157.423 278.413 157.423Z" fill="#FBFBFB"/>
<path d="M278.413 143.476C279.098 143.476 279.65 142.922 279.65 142.241C279.65 141.561 279.098 141.007 278.413 141.007C277.728 141.007 277.181 141.561 277.181 142.241C277.181 142.922 277.734 143.476 278.413 143.476Z" fill="#FBFBFB"/>
<path d="M278.419 129.539C279.098 129.539 279.65 128.985 279.65 128.305C279.65 127.624 279.098 127.07 278.419 127.07C277.739 127.07 277.187 127.624 277.187 128.305C277.187 128.985 277.739 129.539 278.419 129.539Z" fill="#FBFBFB"/>
<path d="M278.419 116.481C279.581 116.481 280.531 115.529 280.531 114.364C280.531 113.199 279.581 112.247 278.419 112.247C277.256 112.247 276.306 113.199 276.306 114.364C276.306 115.529 277.256 116.481 278.419 116.481Z" fill="#FBFBFB"/>
<path d="M278.413 101.65C279.098 101.65 279.65 101.097 279.65 100.416C279.65 99.7354 279.098 99.1816 278.413 99.1816C277.728 99.1816 277.181 99.7354 277.181 100.416C277.181 101.097 277.734 101.65 278.413 101.65Z" fill="#FBFBFB"/>
<path d="M278.419 87.7148C279.098 87.7148 279.65 87.1611 279.65 86.4805C279.65 85.7998 279.098 85.2461 278.419 85.2461C277.739 85.2461 277.187 85.7998 277.187 86.4805C277.187 87.1611 277.739 87.7148 278.419 87.7148Z" fill="#FBFBFB"/>
<path d="M278.419 75.0086C279.777 75.0086 280.882 73.9011 280.882 72.5341C280.882 71.167 279.777 70.0596 278.419 70.0596C277.06 70.0596 275.949 71.167 275.949 72.5341C275.949 73.9011 277.06 75.0086 278.419 75.0086Z" fill="#FBFBFB"/>
<path d="M278.419 45.0084C278.609 45.0084 278.77 44.8527 278.77 44.6565C278.77 44.4604 278.615 44.3047 278.419 44.3047C278.223 44.3047 278.068 44.4604 278.068 44.6565C278.068 44.8527 278.223 45.0084 278.419 45.0084Z" fill="#FBFBFB"/>
<path d="M278.419 18.0078C279.098 18.0078 279.65 17.4541 279.65 16.7734C279.65 16.0928 279.098 15.5391 278.419 15.5391C277.739 15.5391 277.181 16.0928 277.181 16.7734C277.181 17.4541 277.734 18.0078 278.419 18.0078Z" fill="#FBFBFB"/>
<path d="M278.413 3.17832C278.219 3.17832 278.062 3.02079 278.062 2.82646C278.062 2.63214 278.219 2.47461 278.413 2.47461C278.607 2.47461 278.764 2.63214 278.764 2.82646C278.764 3.02079 278.607 3.17832 278.413 3.17832Z" fill="#FBFBFB"/>
<path d="M298.151 337.774C298.347 337.774 298.508 337.618 298.508 337.422C298.508 337.226 298.347 337.07 298.151 337.07C297.955 337.07 297.8 337.226 297.8 337.422C297.8 337.618 297.955 337.774 298.151 337.774Z" fill="#FBFBFB"/>
<path d="M298.151 323.832C297.957 323.832 297.8 323.674 297.8 323.48C297.8 323.285 297.957 323.128 298.151 323.128C298.345 323.128 298.502 323.285 298.502 323.48C298.502 323.674 298.345 323.832 298.151 323.832Z" fill="#FBFBFB"/>
<path d="M298.151 312.36C299.705 312.36 300.971 311.091 300.971 309.533C300.971 307.976 299.705 306.713 298.151 306.713C296.597 306.713 295.33 307.976 295.33 309.533C295.33 311.091 296.597 312.36 298.151 312.36Z" fill="#FBFBFB"/>
<path d="M298.15 296.48C298.634 296.48 299.025 296.082 299.025 295.597C299.025 295.113 298.634 294.715 298.15 294.715C297.667 294.715 297.27 295.113 297.27 295.597C297.27 296.082 297.667 296.48 298.15 296.48Z" fill="#FBFBFB"/>
<path d="M298.151 283.773C296.984 283.773 296.039 282.825 296.039 281.656C296.039 280.487 296.984 279.539 298.151 279.539C299.318 279.539 300.264 280.487 300.264 281.656C300.264 282.825 299.318 283.773 298.151 283.773Z" fill="#FBFBFB"/>
<path d="M298.151 270.189C299.509 270.189 300.614 269.082 300.614 267.715C300.614 266.348 299.509 265.24 298.151 265.24C296.792 265.24 295.681 266.348 295.681 267.715C295.681 269.082 296.786 270.189 298.151 270.189Z" fill="#FBFBFB"/>
<path d="M298.151 254.656C297.664 254.656 297.27 254.261 297.27 253.773C297.27 253.286 297.664 252.891 298.151 252.891C298.637 252.891 299.031 253.286 299.031 253.773C299.031 254.261 298.637 254.656 298.151 254.656Z" fill="#FBFBFB"/>
<path d="M298.151 241.596C297.178 241.596 296.389 240.806 296.389 239.831C296.389 238.857 297.178 238.066 298.151 238.066C299.124 238.066 299.912 238.857 299.912 239.831C299.912 240.806 299.124 241.596 298.151 241.596Z" fill="#FBFBFB"/>
<path d="M298.151 226.773C297.664 226.773 297.27 226.378 297.27 225.89C297.27 225.403 297.664 225.008 298.151 225.008C298.637 225.008 299.031 225.403 299.031 225.89C299.031 226.378 298.637 226.773 298.151 226.773Z" fill="#FBFBFB"/>
<path d="M298.151 213.362C298.928 213.362 299.556 212.727 299.556 211.948C299.556 211.17 298.922 210.535 298.151 210.535C297.38 210.535 296.741 211.17 296.741 211.948C296.741 212.727 297.374 213.362 298.151 213.362Z" fill="#FBFBFB"/>
<path d="M298.151 199.772C299.124 199.772 299.912 198.982 299.912 198.007C299.912 197.032 299.124 196.248 298.151 196.248C297.178 196.248 296.389 197.038 296.389 198.007C296.389 198.976 297.178 199.772 298.151 199.772Z" fill="#FBFBFB"/>
<path d="M298.151 185.127C298.733 185.127 299.21 184.654 299.21 184.065C299.21 183.477 298.738 183.004 298.151 183.004C297.564 183.004 297.092 183.477 297.092 184.065C297.092 184.654 297.57 185.127 298.151 185.127Z" fill="#FBFBFB"/>
<path d="M298.151 172.241C299.32 172.241 300.264 171.289 300.264 170.124C300.264 168.959 299.314 168.007 298.151 168.007C296.988 168.007 296.033 168.959 296.033 170.124C296.033 171.289 296.983 172.241 298.151 172.241Z" fill="#FBFBFB"/>
<path d="M298.151 142.771C297.859 142.771 297.622 142.534 297.622 142.241C297.622 141.948 297.859 141.71 298.151 141.71C298.444 141.71 298.681 141.948 298.681 142.241C298.681 142.534 298.444 142.771 298.151 142.771Z" fill="#FBFBFB"/>
<path d="M298.151 131.126C299.705 131.126 300.971 129.857 300.971 128.3C300.971 126.743 299.705 125.474 298.151 125.474C296.597 125.474 295.336 126.743 295.336 128.3C295.336 129.857 296.597 131.126 298.151 131.126Z" fill="#FBFBFB"/>
<path d="M298.151 115.593C297.471 115.593 296.919 115.04 296.919 114.358C296.919 113.677 297.471 113.124 298.151 113.124C298.831 113.124 299.383 113.677 299.383 114.358C299.383 115.04 298.831 115.593 298.151 115.593Z" fill="#FBFBFB"/>
<path d="M298.151 101.65C297.471 101.65 296.919 101.098 296.919 100.416C296.919 99.7343 297.471 99.1816 298.151 99.1816C298.831 99.1816 299.383 99.7343 299.383 100.416C299.383 101.098 298.831 101.65 298.151 101.65Z" fill="#FBFBFB"/>
<path d="M298.151 87.7148C298.836 87.7148 299.389 87.1611 299.389 86.4805C299.389 85.7998 298.836 85.2461 298.151 85.2461C297.466 85.2461 296.919 85.7998 296.919 86.4805C296.919 87.1611 297.472 87.7148 298.151 87.7148Z" fill="#FBFBFB"/>
<path d="M298.151 73.4164C298.64 73.4164 299.037 73.0184 299.037 72.5339C299.037 72.0494 298.64 71.6514 298.151 71.6514C297.661 71.6514 297.276 72.0494 297.276 72.5339C297.276 73.0184 297.667 73.4164 298.151 73.4164Z" fill="#FBFBFB"/>
<path d="M298.151 59.1229C297.859 59.1229 297.622 58.8853 297.622 58.5922C297.622 58.2991 297.859 58.0615 298.151 58.0615C298.444 58.0615 298.681 58.2991 298.681 58.5922C298.681 58.8853 298.444 59.1229 298.151 59.1229Z" fill="#FBFBFB"/>
<path d="M298.151 44.8293C298.052 44.8293 297.972 44.7492 297.972 44.6505C297.972 44.5517 298.052 44.4717 298.151 44.4717C298.249 44.4717 298.329 44.5517 298.329 44.6505C298.329 44.7492 298.249 44.8293 298.151 44.8293Z" fill="#FBFBFB"/>
<path d="M317.883 337.953C318.177 337.953 318.413 337.716 318.413 337.422C318.413 337.128 318.177 336.892 317.883 336.892C317.589 336.892 317.359 337.128 317.359 337.422C317.359 337.716 317.595 337.953 317.883 337.953Z" fill="#FBFBFB"/>
<path d="M317.889 324.542C317.304 324.542 316.829 324.066 316.829 323.48C316.829 322.894 317.304 322.419 317.889 322.419C318.474 322.419 318.948 322.894 318.948 323.48C318.948 324.066 318.474 324.542 317.889 324.542Z" fill="#FBFBFB"/>
<path d="M317.889 295.949C318.084 295.949 318.24 295.793 318.24 295.597C318.24 295.401 318.084 295.245 317.889 295.245C317.693 295.245 317.532 295.401 317.532 295.597C317.532 295.793 317.693 295.949 317.889 295.949Z" fill="#FBFBFB"/>
<path d="M317.889 282.717C317.304 282.717 316.829 282.242 316.829 281.656C316.829 281.07 317.304 280.595 317.889 280.595C318.474 280.595 318.948 281.07 318.948 281.656C318.948 282.242 318.474 282.717 317.889 282.717Z" fill="#FBFBFB"/>
<path d="M317.889 268.066C318.079 268.066 318.24 267.91 318.24 267.714C318.24 267.518 318.084 267.362 317.889 267.362C317.693 267.362 317.537 267.518 317.537 267.714C317.537 267.91 317.693 268.066 317.889 268.066Z" fill="#FBFBFB"/>
<path d="M317.883 242.3C319.247 242.3 320.353 241.192 320.353 239.831C320.353 238.47 319.242 237.356 317.883 237.356C316.525 237.356 315.42 238.464 315.42 239.831C315.42 241.198 316.525 242.3 317.883 242.3Z" fill="#FBFBFB"/>
<path d="M317.889 226.952C317.304 226.952 316.829 226.477 316.829 225.89C316.829 225.304 317.304 224.829 317.889 224.829C318.474 224.829 318.948 225.304 318.948 225.89C318.948 226.477 318.474 226.952 317.889 226.952Z" fill="#FBFBFB"/>
<path d="M317.883 213.362C318.66 213.362 319.299 212.727 319.299 211.948C319.299 211.17 318.666 210.535 317.883 210.535C317.1 210.535 316.478 211.17 316.478 211.948C316.478 212.727 317.111 213.362 317.883 213.362Z" fill="#FBFBFB"/>
<path d="M317.889 200.476C319.247 200.476 320.358 199.369 320.358 198.008C320.358 196.646 319.253 195.533 317.889 195.533C316.524 195.533 315.419 196.641 315.419 198.008C315.419 199.375 316.524 200.476 317.889 200.476Z" fill="#FBFBFB"/>
<path d="M317.889 186.54C319.247 186.54 320.353 185.432 320.353 184.065C320.353 182.698 319.247 181.591 317.889 181.591C316.53 181.591 315.42 182.698 315.42 184.065C315.42 185.432 316.525 186.54 317.889 186.54Z" fill="#FBFBFB"/>
<path d="M317.889 171.358C317.208 171.358 316.657 170.806 316.657 170.124C316.657 169.442 317.208 168.89 317.889 168.89C318.569 168.89 319.121 169.442 319.121 170.124C319.121 170.806 318.569 171.358 317.889 171.358Z" fill="#FBFBFB"/>
<path d="M317.883 158.657C316.519 158.657 315.414 157.549 315.414 156.183C315.414 154.816 316.519 153.708 317.883 153.708C319.247 153.708 320.353 154.816 320.353 156.183C320.353 157.549 319.247 158.657 317.883 158.657Z" fill="#FBFBFB"/>
<path d="M317.889 144.715C319.247 144.715 320.358 143.607 320.358 142.24C320.358 140.873 319.253 139.766 317.889 139.766C316.524 139.766 315.419 140.873 315.419 142.24C315.419 143.607 316.53 144.715 317.889 144.715Z" fill="#FBFBFB"/>
<path d="M317.883 129.361C318.47 129.361 318.942 128.888 318.942 128.3C318.942 127.711 318.465 127.238 317.883 127.238C317.302 127.238 316.83 127.711 316.83 128.3C316.83 128.888 317.302 129.361 317.883 129.361Z" fill="#FBFBFB"/>
<path d="M317.889 115.42C318.47 115.42 318.942 114.947 318.942 114.358C318.942 113.77 318.47 113.297 317.889 113.297C317.308 113.297 316.83 113.77 316.83 114.358C316.83 114.947 317.302 115.42 317.889 115.42Z" fill="#FBFBFB"/>
<path d="M317.889 101.478C318.47 101.478 318.948 100.999 318.948 100.417C318.948 99.8342 318.476 99.3555 317.889 99.3555C317.302 99.3555 316.829 99.8284 316.829 100.417C316.829 101.005 317.307 101.478 317.889 101.478Z" fill="#FBFBFB"/>
<path d="M317.889 86.8277C317.695 86.8277 317.537 86.6702 317.537 86.4759C317.537 86.2816 317.695 86.124 317.889 86.124C318.083 86.124 318.24 86.2816 318.24 86.4759C318.24 86.6702 318.083 86.8277 317.889 86.8277Z" fill="#FBFBFB"/>
<path d="M317.888 60.0052C318.666 60.0052 319.293 59.3707 319.293 58.5977C319.293 57.8248 318.66 57.1846 317.888 57.1846C317.117 57.1846 316.478 57.8191 316.478 58.5977C316.478 59.3764 317.111 60.0052 317.888 60.0052Z" fill="#FBFBFB"/>
<path d="M317.883 47.1258C319.247 47.1258 320.353 46.0183 320.353 44.6513C320.353 43.2842 319.242 42.1768 317.883 42.1768C316.525 42.1768 315.42 43.2842 315.42 44.6513C315.42 46.0183 316.525 47.1258 317.883 47.1258Z" fill="#FBFBFB"/>
<path d="M317.883 21.7166C320.606 21.7166 322.816 19.4959 322.816 16.7733C322.816 14.0508 320.6 11.8301 317.883 11.8301C315.166 11.8301 312.95 14.0508 312.95 16.7733C312.95 19.4959 315.16 21.7166 317.883 21.7166Z" fill="#FBFBFB"/>
<path d="M337.626 337.774C337.816 337.774 337.978 337.618 337.978 337.422C337.978 337.226 337.822 337.07 337.626 337.07C337.431 337.07 337.275 337.226 337.275 337.422C337.275 337.618 337.431 337.774 337.626 337.774Z" fill="#FBFBFB"/>
<path d="M337.62 325.597C338.789 325.597 339.733 324.645 339.733 323.48C339.733 322.315 338.783 321.363 337.62 321.363C336.458 321.363 335.508 322.315 335.508 323.48C335.508 324.645 336.458 325.597 337.62 325.597Z" fill="#FBFBFB"/>
<path d="M337.626 312.717C335.875 312.717 334.455 311.294 334.455 309.539C334.455 307.783 335.875 306.36 337.626 306.36C339.378 306.36 340.798 307.783 340.798 309.539C340.798 311.294 339.378 312.717 337.626 312.717Z" fill="#FBFBFB"/>
<path d="M337.626 295.949C337.432 295.949 337.275 295.791 337.275 295.597C337.275 295.403 337.432 295.245 337.626 295.245C337.82 295.245 337.978 295.403 337.978 295.597C337.978 295.791 337.82 295.949 337.626 295.949Z" fill="#FBFBFB"/>
<path d="M337.621 254.477C338.012 254.477 338.329 254.16 338.329 253.773C338.329 253.387 338.012 253.069 337.621 253.069C337.229 253.069 336.918 253.387 336.918 253.773C336.918 254.16 337.235 254.477 337.621 254.477Z" fill="#FBFBFB"/>
<path d="M337.626 240.183C337.816 240.183 337.978 240.027 337.978 239.831C337.978 239.635 337.822 239.479 337.626 239.479C337.431 239.479 337.275 239.635 337.275 239.831C337.275 240.027 337.431 240.183 337.626 240.183Z" fill="#FBFBFB"/>
<path d="M337.627 227.125C338.306 227.125 338.858 226.571 338.858 225.891C338.858 225.21 338.306 224.656 337.627 224.656C336.947 224.656 336.389 225.21 336.389 225.891C336.389 226.571 336.942 227.125 337.627 227.125Z" fill="#FBFBFB"/>
<path d="M337.626 198.889C337.14 198.889 336.745 198.494 336.745 198.007C336.745 197.519 337.14 197.124 337.626 197.124C338.113 197.124 338.507 197.519 338.507 198.007C338.507 198.494 338.113 198.889 337.626 198.889Z" fill="#FBFBFB"/>
<path d="M337.626 184.949C337.14 184.949 336.745 184.554 336.745 184.066C336.745 183.579 337.14 183.184 337.626 183.184C338.113 183.184 338.507 183.579 338.507 184.066C338.507 184.554 338.113 184.949 337.626 184.949Z" fill="#FBFBFB"/>
<path d="M337.626 172.594C338.985 172.594 340.096 171.486 340.096 170.119C340.096 168.752 338.991 167.65 337.626 167.65C336.262 167.65 335.157 168.758 335.157 170.119C335.157 171.48 336.262 172.594 337.626 172.594Z" fill="#FBFBFB"/>
<path d="M337.627 157.066C338.11 157.066 338.501 156.668 338.501 156.183C338.501 155.699 338.11 155.301 337.627 155.301C337.143 155.301 336.746 155.699 336.746 156.183C336.746 156.668 337.143 157.066 337.627 157.066Z" fill="#FBFBFB"/>
<path d="M337.62 143.123C338.11 143.123 338.507 142.725 338.507 142.241C338.507 141.756 338.11 141.358 337.62 141.358C337.131 141.358 336.745 141.756 336.745 142.241C336.745 142.725 337.137 143.123 337.62 143.123Z" fill="#FBFBFB"/>
<path d="M337.62 131.479C339.37 131.479 340.798 130.054 340.798 128.3C340.798 126.547 339.376 125.122 337.62 125.122C335.865 125.122 334.455 126.547 334.455 128.3C334.455 130.054 335.876 131.479 337.62 131.479Z" fill="#FBFBFB"/>
<path d="M337.627 102.534C338.789 102.534 339.739 101.582 339.739 100.417C339.739 99.2515 338.789 98.2998 337.627 98.2998C336.464 98.2998 335.514 99.2515 335.514 100.417C335.514 101.582 336.464 102.534 337.627 102.534Z" fill="#FBFBFB"/>
<path d="M337.621 88.949C338.985 88.949 340.09 87.8416 340.09 86.4745C340.09 85.1075 338.979 84 337.621 84C336.262 84 335.157 85.1075 335.157 86.4745C335.157 87.8416 336.262 88.949 337.621 88.949Z" fill="#FBFBFB"/>
<path d="M337.621 73.5953C337.036 73.5953 336.561 73.1201 336.561 72.534C336.561 71.9478 337.036 71.4727 337.621 71.4727C338.205 71.4727 338.68 71.9478 338.68 72.534C338.68 73.1201 338.205 73.5953 337.621 73.5953Z" fill="#FBFBFB"/>
<path d="M337.626 61.7764C335.875 61.7764 334.455 60.3534 334.455 58.5981C334.455 56.8429 335.875 55.4199 337.626 55.4199C339.378 55.4199 340.798 56.8429 340.798 58.5981C340.798 60.3534 339.378 61.7764 337.626 61.7764Z" fill="#FBFBFB"/>
<path d="M337.626 46.4158C336.654 46.4158 335.865 45.6256 335.865 44.6508C335.865 43.676 336.654 42.8857 337.626 42.8857C338.599 42.8857 339.388 43.676 339.388 44.6508C339.388 45.6256 338.599 46.4158 337.626 46.4158Z" fill="#FBFBFB"/>
<path d="M337.626 31.42C338.018 31.42 338.329 31.1028 338.329 30.7105C338.329 30.3183 338.012 30.0068 337.626 30.0068C337.241 30.0068 336.924 30.3241 336.924 30.7105C336.924 31.097 337.241 31.42 337.626 31.42Z" fill="#FBFBFB"/>
<path d="M337.621 17.4777C338.012 17.4777 338.329 17.1605 338.329 16.774C338.329 16.3876 338.012 16.0703 337.621 16.0703C337.229 16.0703 336.918 16.3876 336.918 16.774C336.918 17.1605 337.235 17.4777 337.621 17.4777Z" fill="#FBFBFB"/>
<path d="M337.626 3.52948C337.239 3.52948 336.924 3.21442 336.924 2.82578C336.924 2.43713 337.239 2.12207 337.626 2.12207C338.014 2.12207 338.329 2.43713 338.329 2.82578C338.329 3.21442 338.014 3.52948 337.626 3.52948Z" fill="#FBFBFB"/>
<path d="M357.359 297.714C356.192 297.714 355.246 296.767 355.246 295.597C355.246 294.428 356.192 293.48 357.359 293.48C358.525 293.48 359.471 294.428 359.471 295.597C359.471 296.767 358.525 297.714 357.359 297.714Z" fill="#FBFBFB"/>
<path d="M357.359 283.421C358.332 283.421 359.12 282.63 359.12 281.656C359.12 280.681 358.332 279.891 357.359 279.891C356.386 279.891 355.592 280.681 355.592 281.656C355.592 282.63 356.386 283.421 357.359 283.421Z" fill="#FBFBFB"/>
<path d="M357.358 269.479C358.331 269.479 359.125 268.689 359.125 267.714C359.125 266.739 358.331 265.949 357.358 265.949C356.386 265.949 355.597 266.739 355.597 267.714C355.597 268.689 356.386 269.479 357.358 269.479Z" fill="#FBFBFB"/>
<path d="M357.359 255.538C358.332 255.538 359.12 254.748 359.12 253.773C359.12 252.798 358.332 252.008 357.359 252.008C356.386 252.008 355.592 252.798 355.592 253.773C355.592 254.748 356.386 255.538 357.359 255.538Z" fill="#FBFBFB"/>
<path d="M357.359 241.948C358.521 241.948 359.471 240.996 359.471 239.831C359.471 238.666 358.521 237.714 357.359 237.714C356.196 237.714 355.246 238.666 355.246 239.831C355.246 240.996 356.196 241.948 357.359 241.948Z" fill="#FBFBFB"/>
<path d="M357.359 228.006C356.192 228.006 355.246 227.058 355.246 225.889C355.246 224.72 356.192 223.772 357.359 223.772C358.525 223.772 359.471 224.72 359.471 225.889C359.471 227.058 358.525 228.006 357.359 228.006Z" fill="#FBFBFB"/>
<path d="M357.359 215.127C359.109 215.127 360.536 213.702 360.536 211.949C360.536 210.195 359.114 208.771 357.359 208.771C355.603 208.771 354.193 210.195 354.193 211.949C354.193 213.702 355.615 215.127 357.359 215.127Z" fill="#FBFBFB"/>
<path d="M357.359 200.124C356.192 200.124 355.246 199.177 355.246 198.008C355.246 196.838 356.192 195.891 357.359 195.891C358.525 195.891 359.471 196.838 359.471 198.008C359.471 199.177 358.525 200.124 357.359 200.124Z" fill="#FBFBFB"/>
<path d="M357.358 157.596C358.135 157.596 358.769 156.961 358.769 156.183C358.769 155.404 358.135 154.77 357.358 154.77C356.581 154.77 355.942 155.404 355.942 156.183C355.942 156.961 356.575 157.596 357.358 157.596Z" fill="#FBFBFB"/>
<path d="M357.358 144.358C358.527 144.358 359.477 143.406 359.477 142.241C359.477 141.076 358.527 140.124 357.358 140.124C356.19 140.124 355.246 141.076 355.246 142.241C355.246 143.406 356.196 144.358 357.358 144.358Z" fill="#FBFBFB"/>
<path d="M357.359 129.713C358.136 129.713 358.763 129.079 358.763 128.3C358.763 127.521 358.13 126.887 357.359 126.887C356.587 126.887 355.948 127.521 355.948 128.3C355.948 129.079 356.582 129.713 357.359 129.713Z" fill="#FBFBFB"/>
<path d="M357.359 117.184C355.801 117.184 354.538 115.919 354.538 114.358C354.538 112.797 355.801 111.531 357.359 111.531C358.916 111.531 360.179 112.797 360.179 114.358C360.179 115.919 358.916 117.184 357.359 117.184Z" fill="#FBFBFB"/>
<path d="M357.359 102.891C358.717 102.891 359.828 101.778 359.828 100.417C359.828 99.0556 358.723 97.9424 357.359 97.9424C355.995 97.9424 354.889 99.0499 354.889 100.417C354.889 101.784 356 102.891 357.359 102.891Z" fill="#FBFBFB"/>
<path d="M357.358 87.8889C358.135 87.8889 358.774 87.2544 358.774 86.4757C358.774 85.697 358.141 85.0625 357.358 85.0625C356.576 85.0625 355.954 85.697 355.954 86.4757C355.954 87.2544 356.587 87.8889 357.358 87.8889Z" fill="#FBFBFB"/>
<path d="M357.358 73.9475C358.135 73.9475 358.769 73.313 358.769 72.5343C358.769 71.7556 358.135 71.1211 357.358 71.1211C356.581 71.1211 355.942 71.7556 355.942 72.5343C355.942 73.313 356.575 73.9475 357.358 73.9475Z" fill="#FBFBFB"/>
<path d="M357.358 60.0052C358.135 60.0052 358.769 59.3707 358.769 58.5977C358.769 57.8248 358.135 57.1846 357.358 57.1846C356.581 57.1846 355.942 57.8191 355.942 58.5977C355.942 59.3764 356.575 60.0052 357.358 60.0052Z" fill="#FBFBFB"/>
<path d="M357.358 49.5994C360.075 49.5994 362.292 47.3787 362.292 44.6561C362.292 41.9336 360.081 39.7129 357.358 39.7129C354.636 39.7129 352.425 41.9336 352.425 44.6561C352.425 47.3787 354.642 49.5994 357.358 49.5994Z" fill="#FBFBFB"/>
<path d="M357.359 33.5355C358.913 33.5355 360.179 32.2666 360.179 30.7092C360.179 29.1518 358.913 27.8828 357.359 27.8828C355.805 27.8828 354.538 29.1518 354.538 30.7092C354.538 32.2666 355.805 33.5355 357.359 33.5355Z" fill="#FBFBFB"/>
<path d="M357.359 19.5951C355.801 19.5951 354.538 18.3297 354.538 16.7687C354.538 15.2078 355.801 13.9424 357.359 13.9424C358.916 13.9424 360.179 15.2078 360.179 16.7687C360.179 18.3297 358.916 19.5951 357.359 19.5951Z" fill="#FBFBFB"/>
<path d="M357.358 4.23945C356.579 4.23945 355.948 3.60675 355.948 2.82627C355.948 2.04579 356.579 1.41309 357.358 1.41309C358.137 1.41309 358.769 2.04579 358.769 2.82627C358.769 3.60675 358.137 4.23945 357.358 4.23945Z" fill="#FBFBFB"/>
<path d="M377.096 337.774C377.292 337.774 377.447 337.618 377.447 337.422C377.447 337.226 377.292 337.07 377.096 337.07C376.9 337.07 376.739 337.226 376.739 337.422C376.739 337.618 376.9 337.774 377.096 337.774Z" fill="#FBFBFB"/>
<path d="M377.096 324.184C377.488 324.184 377.804 323.867 377.804 323.48C377.804 323.094 377.488 322.776 377.096 322.776C376.705 322.776 376.394 323.094 376.394 323.48C376.394 323.867 376.711 324.184 377.096 324.184Z" fill="#FBFBFB"/>
<path d="M377.096 310.773C377.776 310.773 378.328 310.22 378.328 309.539C378.328 308.858 377.776 308.305 377.096 308.305C376.417 308.305 375.864 308.858 375.864 309.539C375.864 310.22 376.417 310.773 377.096 310.773Z" fill="#FBFBFB"/>
<path d="M377.096 296.832C376.416 296.832 375.864 296.279 375.864 295.598C375.864 294.916 376.416 294.363 377.096 294.363C377.777 294.363 378.328 294.916 378.328 295.598C378.328 296.279 377.777 296.832 377.096 296.832Z" fill="#FBFBFB"/>
<path d="M377.097 282.186C377.39 282.186 377.626 281.95 377.626 281.656C377.626 281.361 377.39 281.125 377.097 281.125C376.803 281.125 376.573 281.361 376.573 281.656C376.573 281.95 376.809 282.186 377.097 282.186Z" fill="#FBFBFB"/>
<path d="M377.097 256.247C378.461 256.247 379.566 255.139 379.566 253.772C379.566 252.405 378.455 251.298 377.097 251.298C375.738 251.298 374.633 252.405 374.633 253.772C374.633 255.139 375.738 256.247 377.097 256.247Z" fill="#FBFBFB"/>
<path d="M377.097 242.3C378.455 242.3 379.566 241.192 379.566 239.831C379.566 238.47 378.461 237.356 377.097 237.356C375.732 237.356 374.627 238.464 374.627 239.831C374.627 241.198 375.738 242.3 377.097 242.3Z" fill="#FBFBFB"/>
<path d="M377.096 227.303C377.873 227.303 378.512 226.668 378.512 225.89C378.512 225.111 377.879 224.477 377.096 224.477C376.313 224.477 375.692 225.111 375.692 225.89C375.692 226.668 376.325 227.303 377.096 227.303Z" fill="#FBFBFB"/>
<path d="M377.097 213.362C377.874 213.362 378.507 212.727 378.507 211.948C378.507 211.17 377.874 210.535 377.097 210.535C376.32 210.535 375.681 211.17 375.681 211.948C375.681 212.727 376.314 213.362 377.097 213.362Z" fill="#FBFBFB"/>
<path d="M377.096 200.476C378.455 200.476 379.56 199.369 379.56 198.008C379.56 196.646 378.455 195.533 377.096 195.533C375.738 195.533 374.627 196.641 374.627 198.008C374.627 199.375 375.732 200.476 377.096 200.476Z" fill="#FBFBFB"/>
<path d="M377.097 185.479C376.318 185.479 375.686 184.846 375.686 184.066C375.686 183.285 376.318 182.652 377.097 182.652C377.875 182.652 378.507 183.285 378.507 184.066C378.507 184.846 377.875 185.479 377.097 185.479Z" fill="#FBFBFB"/>
<path d="M377.097 171.537C376.318 171.537 375.686 170.905 375.686 170.124C375.686 169.344 376.318 168.711 377.097 168.711C377.875 168.711 378.507 169.344 378.507 170.124C378.507 170.905 377.875 171.537 377.097 171.537Z" fill="#FBFBFB"/>
<path d="M377.096 157.596C377.873 157.596 378.512 156.961 378.512 156.183C378.512 155.404 377.879 154.77 377.096 154.77C376.313 154.77 375.692 155.404 375.692 156.183C375.692 156.961 376.325 157.596 377.096 157.596Z" fill="#FBFBFB"/>
<path d="M377.096 143.654C377.873 143.654 378.512 143.02 378.512 142.241C378.512 141.463 377.879 140.828 377.096 140.828C376.313 140.828 375.692 141.463 375.692 142.241C375.692 143.02 376.325 143.654 377.096 143.654Z" fill="#FBFBFB"/>
<path d="M377.096 128.651C376.902 128.651 376.745 128.493 376.745 128.299C376.745 128.105 376.902 127.947 377.096 127.947C377.29 127.947 377.447 128.105 377.447 128.299C377.447 128.493 377.29 128.651 377.096 128.651Z" fill="#FBFBFB"/>
<path d="M377.097 73.4164C377.58 73.4164 377.972 73.0184 377.972 72.5339C377.972 72.0494 377.58 71.6514 377.097 71.6514C376.613 71.6514 376.216 72.0494 376.216 72.5339C376.216 73.0184 376.613 73.4164 377.097 73.4164Z" fill="#FBFBFB"/>
<path d="M377.096 86.8277C376.902 86.8277 376.745 86.6702 376.745 86.4759C376.745 86.2816 376.902 86.124 377.096 86.124C377.29 86.124 377.447 86.2816 377.447 86.4759C377.447 86.6702 377.29 86.8277 377.096 86.8277Z" fill="#FBFBFB"/>
<path d="M377.097 61.0662C378.461 61.0662 379.566 59.9587 379.566 58.5917C379.566 57.2247 378.455 56.1172 377.097 56.1172C375.738 56.1172 374.633 57.2247 374.633 58.5917C374.633 59.9587 375.738 61.0662 377.097 61.0662Z" fill="#FBFBFB"/>
<path d="M377.096 45.8848C376.416 45.8848 375.864 45.3321 375.864 44.6504C375.864 43.9687 376.416 43.416 377.096 43.416C377.777 43.416 378.328 43.9687 378.328 44.6504C378.328 45.3321 377.777 45.8848 377.096 45.8848Z" fill="#FBFBFB"/>
<path d="M377.096 31.9443C377.781 31.9443 378.334 31.3906 378.334 30.71C378.334 30.0293 377.781 29.4756 377.096 29.4756C376.411 29.4756 375.865 30.0293 375.865 30.71C375.865 31.3906 376.417 31.9443 377.096 31.9443Z" fill="#FBFBFB"/>
<path d="M377.096 18.0019C376.416 18.0019 375.864 17.4493 375.864 16.7676C375.864 16.0858 376.416 15.5332 377.096 15.5332C377.777 15.5332 378.328 16.0858 378.328 16.7676C378.328 17.4493 377.777 18.0019 377.096 18.0019Z" fill="#FBFBFB"/>
<path d="M377.096 5.65273C378.65 5.65273 379.917 4.38375 379.917 2.82636C379.917 1.26898 378.65 0 377.096 0C375.542 0 374.275 1.26898 374.275 2.82636C374.275 4.38375 375.542 5.65273 377.096 5.65273Z" fill="#FBFBFB"/>
<path d="M396.834 324.363C396.348 324.363 395.953 323.968 395.953 323.48C395.953 322.993 396.348 322.598 396.834 322.598C397.321 322.598 397.715 322.993 397.715 323.48C397.715 323.968 397.321 324.363 396.834 324.363Z" fill="#FBFBFB"/>
<path d="M396.834 312.717C398.584 312.717 400 311.292 400 309.539C400 307.785 398.578 306.36 396.834 306.36C395.09 306.36 393.662 307.785 393.662 309.539C393.662 311.292 395.084 312.717 396.834 312.717Z" fill="#FBFBFB"/>
<path d="M396.834 297.01C397.611 297.01 398.245 296.375 398.245 295.597C398.245 294.818 397.611 294.184 396.834 294.184C396.057 294.184 395.418 294.818 395.418 295.597C395.418 296.375 396.052 297.01 396.834 297.01Z" fill="#FBFBFB"/>
<path d="M396.834 283.069C397.611 283.069 398.239 282.434 398.239 281.655C398.239 280.877 397.606 280.242 396.834 280.242C396.063 280.242 395.424 280.877 395.424 281.655C395.424 282.434 396.057 283.069 396.834 283.069Z" fill="#FBFBFB"/>
<path d="M396.834 269.831C395.668 269.831 394.722 268.884 394.722 267.715C394.722 266.545 395.668 265.598 396.834 265.598C398.001 265.598 398.947 266.545 398.947 267.715C398.947 268.884 398.001 269.831 396.834 269.831Z" fill="#FBFBFB"/>
<path d="M396.834 255.186C397.611 255.186 398.245 254.551 398.245 253.773C398.245 252.994 397.611 252.359 396.834 252.359C396.057 252.359 395.418 252.994 395.418 253.773C395.418 254.551 396.052 255.186 396.834 255.186Z" fill="#FBFBFB"/>
<path d="M396.834 240.362C396.542 240.362 396.305 240.125 396.305 239.831C396.305 239.538 396.542 239.301 396.834 239.301C397.127 239.301 397.364 239.538 397.364 239.831C397.364 240.125 397.127 240.362 396.834 240.362Z" fill="#FBFBFB"/>
<path d="M396.828 226.773C397.318 226.773 397.715 226.375 397.715 225.89C397.715 225.406 397.318 225.008 396.828 225.008C396.339 225.008 395.948 225.406 395.948 225.89C395.948 226.375 396.345 226.773 396.828 226.773Z" fill="#FBFBFB"/>
<path d="M396.834 214.775C398.388 214.775 399.655 213.506 399.655 211.948C399.655 210.391 398.388 209.122 396.834 209.122C395.28 209.122 394.014 210.391 394.014 211.948C394.014 213.506 395.28 214.775 396.834 214.775Z" fill="#FBFBFB"/>
<path d="M396.834 184.949C396.348 184.949 395.953 184.554 395.953 184.066C395.953 183.579 396.348 183.184 396.834 183.184C397.321 183.184 397.715 183.579 397.715 184.066C397.715 184.554 397.321 184.949 396.834 184.949Z" fill="#FBFBFB"/>
<path d="M396.834 170.654C397.122 170.654 397.358 170.418 397.358 170.123C397.358 169.829 397.122 169.593 396.834 169.593C396.546 169.593 396.305 169.829 396.305 170.123C396.305 170.418 396.541 170.654 396.834 170.654Z" fill="#FBFBFB"/>
<path d="M396.834 158.479C398.095 158.479 399.12 157.447 399.12 156.183C399.12 154.92 398.095 153.888 396.834 153.888C395.574 153.888 394.543 154.92 394.543 156.183C394.543 157.447 395.574 158.479 396.834 158.479Z" fill="#FBFBFB"/>
<path d="M396.834 144.537C395.569 144.537 394.543 143.509 394.543 142.241C394.543 140.973 395.569 139.945 396.834 139.945C398.099 139.945 399.125 140.973 399.125 142.241C399.125 143.509 398.099 144.537 396.834 144.537Z" fill="#FBFBFB"/>
<path d="M396.834 130.595C398.095 130.595 399.12 129.563 399.12 128.3C399.12 127.036 398.095 126.004 396.834 126.004C395.574 126.004 394.543 127.036 394.543 128.3C394.543 129.563 395.574 130.595 396.834 130.595Z" fill="#FBFBFB"/>
<path d="M396.834 117.536C398.584 117.536 400 116.111 400 114.358C400 112.604 398.578 111.18 396.834 111.18C395.09 111.18 393.662 112.604 393.662 114.358C393.662 116.111 395.084 117.536 396.834 117.536Z" fill="#FBFBFB"/>
<path d="M396.829 101.83C397.606 101.83 398.239 101.196 398.239 100.423C398.239 99.65 397.606 99.0098 396.829 99.0098C396.051 99.0098 395.424 99.6443 395.424 100.423C395.424 101.202 396.057 101.83 396.829 101.83Z" fill="#FBFBFB"/>
<path d="M396.834 86.8277C396.641 86.8277 396.483 86.6702 396.483 86.4759C396.483 86.2816 396.641 86.124 396.834 86.124C397.028 86.124 397.186 86.2816 397.186 86.4759C397.186 86.6702 397.028 86.8277 396.834 86.8277Z" fill="#FBFBFB"/>
<path d="M337.621 213.362C338.398 213.362 339.037 212.727 339.037 211.948C339.037 211.17 338.403 210.535 337.621 210.535C336.838 210.535 336.216 211.17 336.216 211.948C336.216 212.727 336.849 213.362 337.621 213.362Z" fill="#FBFBFB"/>
</g>
</svg>
