<svg width="184" height="69" viewBox="0 0 184 69" fill="none" xmlns="http://www.w3.org/2000/svg">
<g id="Group">
<path id="Vector" d="M0.969095 67.4488C1.05888 67.4488 1.13281 67.3774 1.13281 67.2874C1.13281 67.1974 1.05888 67.126 0.969095 67.126C0.879313 67.126 0.808004 67.1974 0.808004 67.2874C0.808004 67.3774 0.879313 67.4488 0.969095 67.4488Z" fill="white" fill-opacity="0.08"/>
<path id="Vector_2" d="M0.968981 29.1573C1.10365 29.1573 1.21191 29.0488 1.21191 28.9139C1.21191 28.7789 1.10365 28.6704 0.968981 28.6704C0.834309 28.6704 0.726031 28.7789 0.726031 28.9139C0.726031 29.0488 0.834309 29.1573 0.968981 29.1573Z" fill="white" fill-opacity="0.08"/>
<path id="Vector_3" d="M0.968882 23.4891C0.433657 23.4891 -0.000240564 23.0543 -0.000240564 22.518C-0.000240564 21.9817 0.433657 21.5469 0.968882 21.5469C1.50411 21.5469 1.93799 21.9817 1.93799 22.518C1.93799 23.0543 1.50411 23.4891 0.968882 23.4891Z" fill="white" fill-opacity="0.08"/>
<path id="Vector_4" d="M10.021 67.9358C10.3775 67.9358 10.668 67.6447 10.668 67.2875C10.668 66.9302 10.3775 66.6392 10.021 66.6392C9.66453 66.6392 9.3767 66.9302 9.3767 67.2875C9.3767 67.6447 9.66717 67.9358 10.021 67.9358Z" fill="white" fill-opacity="0.08"/>
<path id="Vector_5" d="M10.0235 61.0528C9.93453 61.0528 9.86242 60.9805 9.86242 60.8914C9.86242 60.8023 9.93453 60.73 10.0235 60.73C10.1125 60.73 10.1846 60.8023 10.1846 60.8914C10.1846 60.9805 10.1125 61.0528 10.0235 61.0528Z" fill="white" fill-opacity="0.08"/>
<path id="Vector_6" d="M10.0239 29.5622C10.3804 29.5622 10.6709 29.2712 10.6709 28.9139C10.6709 28.5567 10.3804 28.2656 10.0239 28.2656C9.66746 28.2656 9.37434 28.5567 9.37434 28.9139C9.37434 29.2712 9.66482 29.5622 10.0239 29.5622Z" fill="white" fill-opacity="0.08"/>
<path id="Vector_7" d="M10.0235 22.6793C9.93453 22.6793 9.86242 22.607 9.86242 22.5179C9.86242 22.4287 9.93453 22.3564 10.0235 22.3564C10.1125 22.3564 10.1846 22.4287 10.1846 22.5179C10.1846 22.607 10.1125 22.6793 10.0235 22.6793Z" fill="white" fill-opacity="0.08"/>
<path id="Vector_8" d="M10.0239 16.7702C10.3804 16.7702 10.6709 16.4792 10.6709 16.1219C10.6709 15.7647 10.3804 15.4736 10.0239 15.4736C9.66746 15.4736 9.37434 15.7647 9.37434 16.1219C9.37434 16.4792 9.66482 16.7702 10.0239 16.7702Z" fill="white" fill-opacity="0.08"/>
<path id="Vector_9" d="M10.0235 9.88777C10.1106 9.88777 10.1846 9.81632 10.1846 9.72635C10.1846 9.63639 10.1133 9.56494 10.0235 9.56494C9.93371 9.56494 9.86242 9.63639 9.86242 9.72635C9.86242 9.81632 9.93371 9.88777 10.0235 9.88777Z" fill="white" fill-opacity="0.08"/>
<path id="Vector_10" d="M19.0787 67.4488C19.1684 67.4488 19.2397 67.3774 19.2397 67.2874C19.2397 67.1974 19.1684 67.126 19.0787 67.126C18.9889 67.126 18.9149 67.1974 18.9149 67.2874C18.9149 67.3774 18.9889 67.4488 19.0787 67.4488Z" fill="white" fill-opacity="0.08"/>
<path id="Vector_11" d="M19.0786 55.1443C19.4351 55.1443 19.7256 54.8532 19.7256 54.496C19.7256 54.1387 19.4351 53.8477 19.0786 53.8477C18.7221 53.8477 18.429 54.1387 18.429 54.496C18.429 54.8532 18.7195 55.1443 19.0786 55.1443Z" fill="white" fill-opacity="0.08"/>
<path id="Vector_12" d="M19.0787 48.2623C18.9897 48.2623 18.9176 48.19 18.9176 48.1009C18.9176 48.0117 18.9897 47.9395 19.0787 47.9395C19.1676 47.9395 19.2397 48.0117 19.2397 48.1009C19.2397 48.19 19.1676 48.2623 19.0787 48.2623Z" fill="white" fill-opacity="0.08"/>
<path id="Vector_13" d="M19.076 29.5622C19.4325 29.5622 19.7256 29.2712 19.7256 28.9139C19.7256 28.5567 19.4351 28.2656 19.076 28.2656C18.7169 28.2656 18.4317 28.5567 18.4317 28.9139C18.4317 29.2712 18.7222 29.5622 19.076 29.5622Z" fill="white" fill-opacity="0.08"/>
<path id="Vector_14" d="M19.0786 23.8149C18.364 23.8149 17.7847 23.2344 17.7847 22.5183C17.7847 21.8022 18.364 21.2217 19.0786 21.2217C19.7932 21.2217 20.3726 21.8022 20.3726 22.5183C20.3726 23.2344 19.7932 23.8149 19.0786 23.8149Z" fill="white" fill-opacity="0.08"/>
<path id="Vector_15" d="M19.0786 16.7702C19.4351 16.7702 19.7256 16.4792 19.7256 16.1219C19.7256 15.7647 19.4351 15.4736 19.0786 15.4736C18.7221 15.4736 18.429 15.7647 18.429 16.1219C18.429 16.4792 18.7195 16.7702 19.0786 16.7702Z" fill="white" fill-opacity="0.08"/>
<path id="Vector_16" d="M19.0758 10.1315C19.3002 10.1315 19.4824 9.94891 19.4824 9.72663C19.4824 9.50436 19.3002 9.32178 19.0758 9.32178C18.8513 9.32178 18.6717 9.50436 18.6717 9.72663C18.6717 9.94891 18.854 10.1315 19.0758 10.1315Z" fill="white" fill-opacity="0.08"/>
<path id="Vector_17" d="M19.0787 3.49226C18.9897 3.49226 18.9176 3.41999 18.9176 3.33085C18.9176 3.2417 18.9897 3.16943 19.0787 3.16943C19.1676 3.16943 19.2397 3.2417 19.2397 3.33085C19.2397 3.41999 19.1676 3.49226 19.0787 3.49226Z" fill="white" fill-opacity="0.08"/>
<path id="Vector_18" d="M28.1309 67.4488C28.2181 67.4488 28.292 67.3774 28.292 67.2874C28.292 67.1974 28.2207 67.126 28.1309 67.126C28.0411 67.126 27.9698 67.1974 27.9698 67.2874C27.9698 67.3774 28.0411 67.4488 28.1309 67.4488Z" fill="white" fill-opacity="0.08"/>
<path id="Vector_19" d="M28.1309 61.5402C27.7736 61.5402 27.4839 61.25 27.4839 60.892C27.4839 60.5339 27.7736 60.2437 28.1309 60.2437C28.4882 60.2437 28.7778 60.5339 28.7778 60.892C28.7778 61.25 28.4882 61.5402 28.1309 61.5402Z" fill="white" fill-opacity="0.08"/>
<path id="Vector_20" d="M28.1309 55.1443C28.4874 55.1443 28.7778 54.8532 28.7778 54.496C28.7778 54.1387 28.4874 53.8477 28.1309 53.8477C27.7744 53.8477 27.4813 54.1387 27.4813 54.496C27.4813 54.8532 27.7717 55.1443 28.1309 55.1443Z" fill="white" fill-opacity="0.08"/>
<path id="Vector_21" d="M28.1309 48.7485C28.4874 48.7485 28.7778 48.4575 28.7778 48.1002C28.7778 47.743 28.4874 47.4546 28.1309 47.4546C27.7744 47.4546 27.4839 47.7457 27.4839 48.1002C27.4839 48.4548 27.7744 48.7485 28.1309 48.7485Z" fill="white" fill-opacity="0.08"/>
<path id="Vector_22" d="M28.1305 42.0299C28.3101 42.0299 28.4526 41.8844 28.4526 41.7071C28.4526 41.5298 28.3074 41.3843 28.1305 41.3843C27.9536 41.3843 27.8057 41.5298 27.8057 41.7071C27.8057 41.8844 27.9509 42.0299 28.1305 42.0299Z" fill="white" fill-opacity="0.08"/>
<path id="Vector_23" d="M28.1309 35.9572C27.7736 35.9572 27.4839 35.667 27.4839 35.3089C27.4839 34.9509 27.7736 34.6606 28.1309 34.6606C28.4882 34.6606 28.7778 34.9509 28.7778 35.3089C28.7778 35.667 28.4882 35.9572 28.1309 35.9572Z" fill="white" fill-opacity="0.08"/>
<path id="Vector_24" d="M28.1306 29.5622C28.4871 29.5622 28.7749 29.2712 28.7749 28.9139C28.7749 28.5567 28.4844 28.2656 28.1306 28.2656C27.7767 28.2656 27.4836 28.5567 27.4836 28.9139C27.4836 29.2712 27.7741 29.5622 28.1306 29.5622Z" fill="white" fill-opacity="0.08"/>
<path id="Vector_25" d="M28.1307 23.1662C28.4872 23.1662 28.7803 22.8751 28.7803 22.5179C28.7803 22.1607 28.4898 21.8696 28.1307 21.8696C27.7715 21.8696 27.4864 22.1607 27.4864 22.5179C27.4864 22.8751 27.7768 23.1662 28.1307 23.1662Z" fill="white" fill-opacity="0.08"/>
<path id="Vector_26" d="M28.1309 16.7702C27.7736 16.7702 27.4839 16.48 27.4839 16.1219C27.4839 15.7639 27.7736 15.4736 28.1309 15.4736C28.4882 15.4736 28.7778 15.7639 28.7778 16.1219C28.7778 16.48 28.4882 16.7702 28.1309 16.7702Z" fill="white" fill-opacity="0.08"/>
<path id="Vector_27" d="M28.1307 10.1315C27.9075 10.1315 27.7266 9.95023 27.7266 9.72663C27.7266 9.50304 27.9075 9.32178 28.1307 9.32178C28.3538 9.32178 28.5347 9.50304 28.5347 9.72663C28.5347 9.95023 28.3538 10.1315 28.1307 10.1315Z" fill="white" fill-opacity="0.08"/>
<path id="Vector_28" d="M28.1304 4.62736C27.4158 4.62736 26.8365 4.04686 26.8365 3.33077C26.8365 2.61468 27.4158 2.03418 28.1304 2.03418C28.845 2.03418 29.4243 2.61468 29.4243 3.33077C29.4243 4.04686 28.845 4.62736 28.1304 4.62736Z" fill="white" fill-opacity="0.08"/>
<path id="Vector_29" d="M37.1851 67.9358C37.5416 67.9358 37.832 67.6447 37.832 67.2875C37.832 66.9302 37.5416 66.6392 37.1851 66.6392C36.8286 66.6392 36.5355 66.9302 36.5355 67.2875C36.5355 67.6447 36.8259 67.9358 37.1851 67.9358Z" fill="white" fill-opacity="0.08"/>
<path id="Vector_30" d="M37.1852 61.2145C37.0072 61.2145 36.863 61.07 36.863 60.8917C36.863 60.7134 37.0072 60.5688 37.1852 60.5688C37.3631 60.5688 37.5073 60.7134 37.5073 60.8917C37.5073 61.07 37.3631 61.2145 37.1852 61.2145Z" fill="white" fill-opacity="0.08"/>
<path id="Vector_31" d="M37.1825 55.4672C37.7186 55.4672 38.1543 55.0305 38.1543 54.496C38.1543 53.9615 37.7186 53.5249 37.1825 53.5249C36.6465 53.5249 36.2134 53.9615 36.2134 54.496C36.2134 55.0305 36.6491 55.4672 37.1825 55.4672Z" fill="white" fill-opacity="0.08"/>
<path id="Vector_32" d="M37.1851 48.7485C37.5416 48.7485 37.832 48.4575 37.832 48.1002C37.832 47.743 37.5416 47.4546 37.1851 47.4546C36.8286 47.4546 36.5381 47.7457 36.5381 48.1002C36.5381 48.4548 36.8286 48.7485 37.1851 48.7485Z" fill="white" fill-opacity="0.08"/>
<path id="Vector_33" d="M37.1852 42.028C37.0072 42.028 36.863 41.8834 36.863 41.7052C36.863 41.5269 37.0072 41.3823 37.1852 41.3823C37.3631 41.3823 37.5073 41.5269 37.5073 41.7052C37.5073 41.8834 37.3631 42.028 37.1852 42.028Z" fill="white" fill-opacity="0.08"/>
<path id="Vector_34" d="M37.1851 35.4705C37.2749 35.4705 37.3462 35.399 37.3462 35.3091C37.3462 35.2191 37.2749 35.145 37.1851 35.145C37.0953 35.145 37.024 35.2191 37.024 35.3091C37.024 35.399 37.0953 35.4705 37.1851 35.4705Z" fill="white" fill-opacity="0.08"/>
<path id="Vector_35" d="M46.2403 67.9358C45.883 67.9358 45.5933 67.6455 45.5933 67.2875C45.5933 66.9294 45.883 66.6392 46.2403 66.6392C46.5976 66.6392 46.8872 66.9294 46.8872 67.2875C46.8872 67.6455 46.5976 67.9358 46.2403 67.9358Z" fill="white" fill-opacity="0.08"/>
<path id="Vector_36" d="M46.2376 61.5402C46.5941 61.5402 46.8872 61.2492 46.8872 60.892C46.8872 60.5347 46.5967 60.2437 46.2376 60.2437C45.8785 60.2437 45.5933 60.5347 45.5933 60.892C45.5933 61.2492 45.8838 61.5402 46.2376 61.5402Z" fill="white" fill-opacity="0.08"/>
<path id="Vector_37" d="M46.2403 55.1443C45.883 55.1443 45.5933 54.854 45.5933 54.496C45.5933 54.1379 45.883 53.8477 46.2403 53.8477C46.5976 53.8477 46.8872 54.1379 46.8872 54.496C46.8872 54.854 46.5976 55.1443 46.2403 55.1443Z" fill="white" fill-opacity="0.08"/>
<path id="Vector_38" d="M46.2376 48.7485C46.5941 48.7485 46.8872 48.4575 46.8872 48.1002C46.8872 47.743 46.5967 47.4546 46.2376 47.4546C45.8785 47.4546 45.5907 47.7457 45.5907 48.1002C45.5907 48.4548 45.8811 48.7485 46.2376 48.7485Z" fill="white" fill-opacity="0.08"/>
<path id="Vector_39" d="M46.24 42.3532C46.5964 42.3532 46.8843 42.0622 46.8843 41.7049C46.8843 41.3477 46.5938 41.0566 46.24 41.0566C45.8861 41.0566 45.593 41.3477 45.593 41.7049C45.593 42.0622 45.8835 42.3532 46.24 42.3532Z" fill="white" fill-opacity="0.08"/>
<path id="Vector_40" d="M46.2399 35.6315C46.4194 35.6315 46.562 35.486 46.562 35.3087C46.562 35.1314 46.4168 34.9858 46.2399 34.9858C46.0629 34.9858 45.9177 35.1314 45.9177 35.3087C45.9177 35.486 46.0629 35.6315 46.2399 35.6315Z" fill="white" fill-opacity="0.08"/>
<path id="Vector_41" d="M46.2403 3.49226C46.3274 3.49226 46.4014 3.42081 46.4014 3.33085C46.4014 3.24088 46.3301 3.16943 46.2403 3.16943C46.1505 3.16943 46.0792 3.24088 46.0792 3.33085C46.0792 3.42081 46.1505 3.49226 46.2403 3.49226Z" fill="white" fill-opacity="0.08"/>
<path id="Vector_42" d="M55.2925 67.9358C54.9352 67.9358 54.6455 67.6455 54.6455 67.2875C54.6455 66.9294 54.9352 66.6392 55.2925 66.6392C55.6498 66.6392 55.9395 66.9294 55.9395 67.2875C55.9395 67.6455 55.6498 67.9358 55.2925 67.9358Z" fill="white" fill-opacity="0.08"/>
<path id="Vector_43" d="M55.2925 61.5402C54.9352 61.5402 54.6455 61.25 54.6455 60.892C54.6455 60.5339 54.9352 60.2437 55.2925 60.2437C55.6498 60.2437 55.9395 60.5339 55.9395 60.892C55.9395 61.25 55.6498 61.5402 55.2925 61.5402Z" fill="white" fill-opacity="0.08"/>
<path id="Vector_44" d="M55.2922 55.1443C55.6487 55.1443 55.9365 54.8532 55.9365 54.496C55.9365 54.1387 55.6461 53.8477 55.2922 53.8477C54.9384 53.8477 54.6453 54.1387 54.6453 54.496C54.6453 54.8532 54.9357 55.1443 55.2922 55.1443Z" fill="white" fill-opacity="0.08"/>
<path id="Vector_45" d="M55.2922 48.7485C55.6487 48.7485 55.9365 48.4575 55.9365 48.1002C55.9365 47.743 55.6461 47.4546 55.2922 47.4546C54.9384 47.4546 54.6453 47.7457 54.6453 48.1002C54.6453 48.4548 54.9357 48.7485 55.2922 48.7485Z" fill="white" fill-opacity="0.08"/>
<path id="Vector_46" d="M55.2919 42.6761C55.828 42.6761 56.2637 42.2395 56.2637 41.705C56.2637 41.1705 55.828 40.7339 55.2919 40.7339C54.7559 40.7339 54.3228 41.1705 54.3228 41.705C54.3228 42.2395 54.7585 42.6761 55.2919 42.6761Z" fill="white" fill-opacity="0.08"/>
<path id="Vector_47" d="M55.2925 35.9572C54.9352 35.9572 54.6455 35.667 54.6455 35.3089C54.6455 34.9509 54.9352 34.6606 55.2925 34.6606C55.6498 34.6606 55.9395 34.9509 55.9395 35.3089C55.9395 35.667 55.6498 35.9572 55.2925 35.9572Z" fill="white" fill-opacity="0.08"/>
<path id="Vector_48" d="M55.2923 29.3185C55.5141 29.3185 55.6963 29.1359 55.6963 28.9136C55.6963 28.6914 55.5141 28.5088 55.2923 28.5088C55.0705 28.5088 54.8856 28.6914 54.8856 28.9136C54.8856 29.1359 55.0678 29.3185 55.2923 29.3185Z" fill="white" fill-opacity="0.08"/>
<path id="Vector_49" d="M55.2923 23.1662C55.6488 23.1662 55.9419 22.8751 55.9419 22.5179C55.9419 22.1607 55.6514 21.8696 55.2923 21.8696C54.9332 21.8696 54.648 22.1607 54.648 22.5179C54.648 22.8751 54.9384 23.1662 55.2923 23.1662Z" fill="white" fill-opacity="0.08"/>
<path id="Vector_50" d="M55.2922 16.609C55.5589 16.609 55.7754 16.392 55.7754 16.1221C55.7754 15.8522 55.5589 15.6353 55.2922 15.6353C55.0254 15.6353 54.8063 15.8522 54.8063 16.1221C54.8063 16.392 55.0254 16.609 55.2922 16.609Z" fill="white" fill-opacity="0.08"/>
<path id="Vector_51" d="M55.2921 10.0495C55.1142 10.0495 54.9699 9.90493 54.9699 9.72663C54.9699 9.54834 55.1142 9.40381 55.2921 9.40381C55.47 9.40381 55.6143 9.54834 55.6143 9.72663C55.6143 9.90493 55.47 10.0495 55.2921 10.0495Z" fill="white" fill-opacity="0.08"/>
<path id="Vector_52" d="M55.2921 3.73549C55.5165 3.73549 55.6987 3.55291 55.6987 3.33064C55.6987 3.10836 55.5165 2.92578 55.2921 2.92578C55.0676 2.92578 54.8907 3.10836 54.8907 3.33064C54.8907 3.55291 55.0703 3.73549 55.2921 3.73549Z" fill="white" fill-opacity="0.08"/>
<path id="Vector_53" d="M64.3469 61.5402C64.7034 61.5402 64.9912 61.2492 64.9912 60.892C64.9912 60.5347 64.7007 60.2437 64.3469 60.2437C63.9931 60.2437 63.6999 60.5347 63.6999 60.892C63.6999 61.2492 63.9904 61.5402 64.3469 61.5402Z" fill="white" fill-opacity="0.08"/>
<path id="Vector_54" d="M64.3441 54.6578C64.4339 54.6578 64.5078 54.5863 64.5078 54.4964C64.5078 54.4064 64.4339 54.335 64.3441 54.335C64.2543 54.335 64.183 54.4064 64.183 54.4964C64.183 54.5863 64.2543 54.6578 64.3441 54.6578Z" fill="white" fill-opacity="0.08"/>
<path id="Vector_55" d="M64.3467 48.2647C64.4365 48.2647 64.5078 48.1933 64.5078 48.1033C64.5078 48.0133 64.4365 47.9419 64.3467 47.9419C64.2569 47.9419 64.183 48.0133 64.183 48.1033C64.183 48.1933 64.2569 48.2647 64.3467 48.2647Z" fill="white" fill-opacity="0.08"/>
<path id="Vector_56" d="M64.3467 35.9572C63.9894 35.9572 63.6997 35.667 63.6997 35.3089C63.6997 34.9509 63.9894 34.6606 64.3467 34.6606C64.704 34.6606 64.9937 34.9509 64.9937 35.3089C64.9937 35.667 64.704 35.9572 64.3467 35.9572Z" fill="white" fill-opacity="0.08"/>
<path id="Vector_57" d="M64.3467 29.0748C64.2578 29.0748 64.1857 29.0025 64.1857 28.9134C64.1857 28.8242 64.2578 28.752 64.3467 28.752C64.4357 28.752 64.5078 28.8242 64.5078 28.9134C64.5078 29.0025 64.4357 29.0748 64.3467 29.0748Z" fill="white" fill-opacity="0.08"/>
<path id="Vector_58" d="M64.3441 23.1662C64.7005 23.1662 64.9937 22.8751 64.9937 22.5179C64.9937 22.1607 64.7032 21.8696 64.3441 21.8696C63.9849 21.8696 63.6997 22.1607 63.6997 22.5179C63.6997 22.8751 63.9902 23.1662 64.3441 23.1662Z" fill="white" fill-opacity="0.08"/>
<path id="Vector_59" d="M64.3441 16.7702C64.7005 16.7702 64.9937 16.4792 64.9937 16.1219C64.9937 15.7647 64.7032 15.4736 64.3441 15.4736C63.9849 15.4736 63.6997 15.7647 63.6997 16.1219C63.6997 16.4792 63.9902 16.7702 64.3441 16.7702Z" fill="white" fill-opacity="0.08"/>
<path id="Vector_60" d="M64.3469 10.3747C64.7034 10.3747 64.9912 10.0836 64.9912 9.72642C64.9912 9.3692 64.7007 9.07812 64.3469 9.07812C63.9931 9.07812 63.6999 9.3692 63.6999 9.72642C63.6999 10.0836 63.9904 10.3747 64.3469 10.3747Z" fill="white" fill-opacity="0.08"/>
<path id="Vector_61" d="M64.3467 3.97949C64.7032 3.97949 64.9937 3.68842 64.9937 3.33384C64.9937 2.97926 64.7032 2.68555 64.3467 2.68555C63.9902 2.68555 63.6971 2.97662 63.6971 3.33384C63.6971 3.69107 63.9876 3.97949 64.3467 3.97949Z" fill="white" fill-opacity="0.08"/>
<path id="Vector_62" d="M73.4015 68.2587C73.9375 68.2587 74.3706 67.822 74.3706 67.2875C74.3706 66.753 73.9349 66.3164 73.4015 66.3164C72.8681 66.3164 72.4324 66.753 72.4324 67.2875C72.4324 67.822 72.8681 68.2587 73.4015 68.2587Z" fill="white" fill-opacity="0.08"/>
<path id="Vector_63" d="M73.3992 61.5402C73.7557 61.5402 74.0488 61.2492 74.0488 60.892C74.0488 60.5347 73.7584 60.2437 73.3992 60.2437C73.0401 60.2437 72.7549 60.5347 72.7549 60.892C72.7549 61.2492 73.0454 61.5402 73.3992 61.5402Z" fill="white" fill-opacity="0.08"/>
<path id="Vector_64" d="M73.399 54.901C73.6235 54.901 73.8057 54.7184 73.8057 54.4962C73.8057 54.2739 73.6235 54.0913 73.399 54.0913C73.1746 54.0913 72.9976 54.2739 72.9976 54.4962C72.9976 54.7184 73.1772 54.901 73.399 54.901Z" fill="white" fill-opacity="0.08"/>
<path id="Vector_65" d="M73.4018 48.3412C73.5338 48.3412 73.6421 48.2327 73.6421 48.1004C73.6421 47.9681 73.5365 47.8569 73.4018 47.8569C73.2671 47.8569 73.1589 47.9654 73.1589 48.1004C73.1589 48.2353 73.2671 48.3412 73.4018 48.3412Z" fill="white" fill-opacity="0.08"/>
<path id="Vector_66" d="M73.4014 29.0748C73.3125 29.0748 73.2403 29.0025 73.2403 28.9134C73.2403 28.8242 73.3125 28.752 73.4014 28.752C73.4904 28.752 73.5625 28.8242 73.5625 28.9134C73.5625 29.0025 73.4904 29.0748 73.4014 29.0748Z" fill="white" fill-opacity="0.08"/>
<path id="Vector_67" d="M73.4019 16.7702C73.7584 16.7702 74.0488 16.4792 74.0488 16.1219C74.0488 15.7647 73.7584 15.4736 73.4019 15.4736C73.0454 15.4736 72.7523 15.7647 72.7523 16.1219C72.7523 16.4792 73.0428 16.7702 73.4019 16.7702Z" fill="white" fill-opacity="0.08"/>
<path id="Vector_68" d="M73.4014 9.88777C73.3125 9.88777 73.2403 9.8155 73.2403 9.72635C73.2403 9.63721 73.3125 9.56494 73.4014 9.56494C73.4904 9.56494 73.5625 9.63721 73.5625 9.72635C73.5625 9.8155 73.4904 9.88777 73.4014 9.88777Z" fill="white" fill-opacity="0.08"/>
<path id="Vector_69" d="M73.3989 3.97949C73.7554 3.97949 74.0459 3.68842 74.0459 3.33384C74.0459 2.97926 73.7554 2.68555 73.3989 2.68555C73.0425 2.68555 72.752 2.97662 72.752 3.33384C72.752 3.69107 73.0425 3.97949 73.3989 3.97949Z" fill="white" fill-opacity="0.08"/>
<path id="Vector_70" d="M82.4539 67.9358C82.8104 67.9358 83.1035 67.6447 83.1035 67.2875C83.1035 66.9302 82.813 66.6392 82.4539 66.6392C82.0948 66.6392 81.8096 66.9302 81.8096 67.2875C81.8096 67.6447 82.1001 67.9358 82.4539 67.9358Z" fill="white" fill-opacity="0.08"/>
<path id="Vector_71" d="M82.4537 61.0528C82.3647 61.0528 82.2926 60.9805 82.2926 60.8914C82.2926 60.8023 82.3647 60.73 82.4537 60.73C82.5426 60.73 82.6147 60.8023 82.6147 60.8914C82.6147 60.9805 82.5426 61.0528 82.4537 61.0528Z" fill="white" fill-opacity="0.08"/>
<path id="Vector_72" d="M82.4538 48.7485C82.8103 48.7485 83.0981 48.4575 83.0981 48.1002C83.0981 47.743 82.8077 47.4546 82.4538 47.4546C82.1 47.4546 81.8069 47.7457 81.8069 48.1002C81.8069 48.4548 82.0973 48.7485 82.4538 48.7485Z" fill="white" fill-opacity="0.08"/>
<path id="Vector_73" d="M82.4537 41.8658C82.5408 41.8658 82.6147 41.7944 82.6147 41.7044C82.6147 41.6144 82.5435 41.543 82.4537 41.543C82.3639 41.543 82.2926 41.6144 82.2926 41.7044C82.2926 41.7944 82.3639 41.8658 82.4537 41.8658Z" fill="white" fill-opacity="0.08"/>
<path id="Vector_74" d="M82.4536 35.9572C82.8101 35.9572 83.1006 35.6662 83.1006 35.3089C83.1006 34.9517 82.8101 34.6606 82.4536 34.6606C82.0972 34.6606 81.804 34.9517 81.804 35.3089C81.804 35.6662 82.0945 35.9572 82.4536 35.9572Z" fill="white" fill-opacity="0.08"/>
<path id="Vector_75" d="M82.4536 29.5622C82.0963 29.5622 81.8067 29.272 81.8067 28.9139C81.8067 28.5559 82.0963 28.2656 82.4536 28.2656C82.8109 28.2656 83.1006 28.5559 83.1006 28.9139C83.1006 29.272 82.8109 29.5622 82.4536 29.5622Z" fill="white" fill-opacity="0.08"/>
<path id="Vector_76" d="M82.4537 23.4891C82.9898 23.4891 83.4229 23.0525 83.4229 22.518C83.4229 21.9835 82.9872 21.5469 82.4537 21.5469C81.9203 21.5469 81.482 21.9835 81.482 22.518C81.482 23.0525 81.9177 23.4891 82.4537 23.4891Z" fill="white" fill-opacity="0.08"/>
<path id="Vector_77" d="M82.4536 16.7702C82.0963 16.7702 81.8067 16.48 81.8067 16.1219C81.8067 15.7639 82.0963 15.4736 82.4536 15.4736C82.8109 15.4736 83.1006 15.7639 83.1006 16.1219C83.1006 16.48 82.8109 16.7702 82.4536 16.7702Z" fill="white" fill-opacity="0.08"/>
<path id="Vector_78" d="M82.4536 10.3747C82.0963 10.3747 81.8067 10.0845 81.8067 9.72642C81.8067 9.36838 82.0963 9.07812 82.4536 9.07812C82.8109 9.07812 83.1006 9.36838 83.1006 9.72642C83.1006 10.0845 82.8109 10.3747 82.4536 10.3747Z" fill="white" fill-opacity="0.08"/>
<path id="Vector_79" d="M82.4536 3.97949C82.8101 3.97949 83.1006 3.68842 83.1006 3.33384C83.1006 2.97926 82.8101 2.68555 82.4536 2.68555C82.0972 2.68555 81.8067 2.97662 81.8067 3.33384C81.8067 3.69107 82.0972 3.97949 82.4536 3.97949Z" fill="white" fill-opacity="0.08"/>
<path id="Vector_80" d="M91.5057 67.9358C91.8622 67.9358 92.1553 67.6447 92.1553 67.2875C92.1553 66.9302 91.8648 66.6392 91.5057 66.6392C91.1466 66.6392 90.8587 66.9302 90.8587 67.2875C90.8587 67.6447 91.1492 67.9358 91.5057 67.9358Z" fill="white" fill-opacity="0.08"/>
<path id="Vector_81" d="M91.5083 61.5402C91.151 61.5402 90.8614 61.25 90.8614 60.892C90.8614 60.5339 91.151 60.2437 91.5083 60.2437C91.8656 60.2437 92.1553 60.5339 92.1553 60.892C92.1553 61.25 91.8656 61.5402 91.5083 61.5402Z" fill="white" fill-opacity="0.08"/>
<path id="Vector_82" d="M91.5083 55.1443C91.8648 55.1443 92.1553 54.8532 92.1553 54.496C92.1553 54.1387 91.8648 53.8477 91.5083 53.8477C91.1518 53.8477 90.8587 54.1387 90.8587 54.496C90.8587 54.8532 91.1492 55.1443 91.5083 55.1443Z" fill="white" fill-opacity="0.08"/>
<path id="Vector_83" d="M91.5083 48.7485C91.8648 48.7485 92.1553 48.4575 92.1553 48.1002C92.1553 47.743 91.8648 47.4546 91.5083 47.4546C91.1518 47.4546 90.8614 47.7457 90.8614 48.1002C90.8614 48.4548 91.1518 48.7485 91.5083 48.7485Z" fill="white" fill-opacity="0.08"/>
<path id="Vector_84" d="M91.5083 42.3532C91.151 42.3532 90.8614 42.063 90.8614 41.7049C90.8614 41.3469 91.151 41.0566 91.5083 41.0566C91.8656 41.0566 92.1553 41.3469 92.1553 41.7049C92.1553 42.063 91.8656 42.3532 91.5083 42.3532Z" fill="white" fill-opacity="0.08"/>
<path id="Vector_85" d="M91.5085 36.6057C92.2215 36.6057 92.7998 36.0262 92.7998 35.3117C92.7998 34.5973 92.2215 34.0151 91.5085 34.0151C90.7956 34.0151 90.2146 34.5973 90.2146 35.3117C90.2146 36.0262 90.7956 36.6057 91.5085 36.6057Z" fill="white" fill-opacity="0.08"/>
<path id="Vector_86" d="M91.5083 29.5622C91.151 29.5622 90.8614 29.272 90.8614 28.9139C90.8614 28.5559 91.151 28.2656 91.5083 28.2656C91.8656 28.2656 92.1553 28.5559 92.1553 28.9139C92.1553 29.272 91.8656 29.5622 91.5083 29.5622Z" fill="white" fill-opacity="0.08"/>
<path id="Vector_87" d="M91.5057 22.6793C91.5955 22.6793 91.6694 22.6078 91.6694 22.5179C91.6694 22.4279 91.5955 22.3564 91.5057 22.3564C91.4159 22.3564 91.3446 22.4279 91.3446 22.5179C91.3446 22.6078 91.4159 22.6793 91.5057 22.6793Z" fill="white" fill-opacity="0.08"/>
<path id="Vector_88" d="M91.5083 10.3747C91.8648 10.3747 92.1553 10.0836 92.1553 9.72642C92.1553 9.3692 91.8648 9.07812 91.5083 9.07812C91.1518 9.07812 90.8587 9.3692 90.8587 9.72642C90.8587 10.0836 91.1492 10.3747 91.5083 10.3747Z" fill="white" fill-opacity="0.08"/>
<path id="Vector_89" d="M91.5084 3.49226C91.4194 3.49226 91.3473 3.41999 91.3473 3.33085C91.3473 3.2417 91.4194 3.16943 91.5084 3.16943C91.5973 3.16943 91.6694 3.2417 91.6694 3.33085C91.6694 3.41999 91.5973 3.49226 91.5084 3.49226Z" fill="white" fill-opacity="0.08"/>
<path id="Vector_90" d="M100.563 55.1443C100.919 55.1443 101.21 54.8532 101.21 54.496C101.21 54.1387 100.919 53.8477 100.563 53.8477C100.207 53.8477 99.9134 54.1387 99.9134 54.496C99.9134 54.8532 100.204 55.1443 100.563 55.1443Z" fill="white" fill-opacity="0.08"/>
<path id="Vector_91" d="M100.563 48.2623C100.474 48.2623 100.402 48.19 100.402 48.1009C100.402 48.0117 100.474 47.9395 100.563 47.9395C100.652 47.9395 100.724 48.0117 100.724 48.1009C100.724 48.19 100.652 48.2623 100.563 48.2623Z" fill="white" fill-opacity="0.08"/>
<path id="Vector_92" d="M100.563 42.3532C100.206 42.3532 99.9161 42.063 99.9161 41.7049C99.9161 41.3469 100.206 41.0566 100.563 41.0566C100.92 41.0566 101.21 41.3469 101.21 41.7049C101.21 42.063 100.92 42.3532 100.563 42.3532Z" fill="white" fill-opacity="0.08"/>
<path id="Vector_93" d="M100.56 35.9572C100.917 35.9572 101.21 35.6662 101.21 35.3089C101.21 34.9517 100.919 34.6606 100.56 34.6606C100.201 34.6606 99.9134 34.9517 99.9134 35.3089C99.9134 35.6662 100.204 35.9572 100.56 35.9572Z" fill="white" fill-opacity="0.08"/>
<path id="Vector_94" d="M100.563 29.5622C100.92 29.5622 101.208 29.2712 101.208 28.9139C101.208 28.5567 100.917 28.2656 100.563 28.2656C100.209 28.2656 99.9163 28.5567 99.9163 28.9139C99.9163 29.2712 100.207 29.5622 100.563 29.5622Z" fill="white" fill-opacity="0.08"/>
<path id="Vector_95" d="M100.563 23.4891C101.099 23.4891 101.532 23.0525 101.532 22.518C101.532 21.9835 101.097 21.5469 100.563 21.5469C100.03 21.5469 99.5914 21.9835 99.5914 22.518C99.5914 23.0525 100.027 23.4891 100.563 23.4891Z" fill="white" fill-opacity="0.08"/>
<path id="Vector_96" d="M100.563 16.7702C100.92 16.7702 101.208 16.4792 101.208 16.1219C101.208 15.7647 100.917 15.4736 100.563 15.4736C100.209 15.4736 99.9163 15.7647 99.9163 16.1219C99.9163 16.4792 100.207 16.7702 100.563 16.7702Z" fill="white" fill-opacity="0.08"/>
<path id="Vector_97" d="M100.563 10.3747C100.919 10.3747 101.21 10.0836 101.21 9.72642C101.21 9.3692 100.919 9.07812 100.563 9.07812C100.207 9.07812 99.9134 9.3692 99.9134 9.72642C99.9134 10.0836 100.204 10.3747 100.563 10.3747Z" fill="white" fill-opacity="0.08"/>
<path id="Vector_98" d="M100.563 3.97949C100.919 3.97949 101.21 3.68842 101.21 3.33384C101.21 2.97926 100.919 2.68555 100.563 2.68555C100.207 2.68555 99.9161 2.97662 99.9161 3.33384C99.9161 3.69107 100.207 3.97949 100.563 3.97949Z" fill="white" fill-opacity="0.08"/>
<path id="Vector_99" d="M109.615 22.6793C109.705 22.6793 109.779 22.6078 109.779 22.5179C109.779 22.4279 109.705 22.3564 109.615 22.3564C109.525 22.3564 109.454 22.4279 109.454 22.5179C109.454 22.6078 109.525 22.6793 109.615 22.6793Z" fill="white" fill-opacity="0.08"/>
<path id="Vector_100" d="M109.615 16.7702C109.972 16.7702 110.265 16.4792 110.265 16.1219C110.265 15.7647 109.974 15.4736 109.615 15.4736C109.256 15.4736 108.971 15.7647 108.971 16.1219C108.971 16.4792 109.261 16.7702 109.615 16.7702Z" fill="white" fill-opacity="0.08"/>
<path id="Vector_101" d="M109.615 9.96979C109.75 9.96979 109.858 9.8613 109.858 9.72635C109.858 9.5914 109.75 9.48291 109.615 9.48291C109.48 9.48291 109.375 9.5914 109.375 9.72635C109.375 9.8613 109.483 9.96979 109.615 9.96979Z" fill="white" fill-opacity="0.08"/>
<path id="Vector_102" d="M118.667 67.7714C118.934 67.7714 119.153 67.5544 119.153 67.2872C119.153 67.0199 118.936 66.8003 118.667 66.8003C118.398 66.8003 118.184 67.0173 118.184 67.2872C118.184 67.5571 118.4 67.7714 118.667 67.7714Z" fill="white" fill-opacity="0.08"/>
<path id="Vector_103" d="M118.67 61.0528C118.581 61.0528 118.509 60.9805 118.509 60.8914C118.509 60.8023 118.581 60.73 118.67 60.73C118.759 60.73 118.831 60.8023 118.831 60.8914C118.831 60.9805 118.759 61.0528 118.67 61.0528Z" fill="white" fill-opacity="0.08"/>
<path id="Vector_104" d="M118.667 23.1662C119.024 23.1662 119.317 22.8751 119.317 22.5179C119.317 22.1607 119.026 21.8696 118.667 21.8696C118.308 21.8696 118.023 22.1607 118.023 22.5179C118.023 22.8751 118.313 23.1662 118.667 23.1662Z" fill="white" fill-opacity="0.08"/>
<path id="Vector_105" d="M118.67 9.88777C118.76 9.88777 118.831 9.81632 118.831 9.72635C118.831 9.63639 118.76 9.56494 118.67 9.56494C118.58 9.56494 118.506 9.63639 118.506 9.72635C118.506 9.81632 118.58 9.88777 118.67 9.88777Z" fill="white" fill-opacity="0.08"/>
<path id="Vector_106" d="M118.67 3.65346C118.847 3.65346 118.992 3.50793 118.992 3.33064C118.992 3.15335 118.847 3.00781 118.67 3.00781C118.493 3.00781 118.345 3.15335 118.345 3.33064C118.345 3.50793 118.49 3.65346 118.67 3.65346Z" fill="white" fill-opacity="0.08"/>
<path id="Vector_107" d="M127.722 67.4488C127.812 67.4488 127.886 67.3774 127.886 67.2874C127.886 67.1974 127.812 67.126 127.722 67.126C127.632 67.126 127.561 67.1974 127.561 67.2874C127.561 67.3774 127.632 67.4488 127.722 67.4488Z" fill="white" fill-opacity="0.08"/>
<path id="Vector_108" d="M127.722 35.4705C127.812 35.4705 127.886 35.399 127.886 35.3091C127.886 35.2191 127.812 35.145 127.722 35.145C127.632 35.145 127.561 35.2191 127.561 35.3091C127.561 35.399 127.632 35.4705 127.722 35.4705Z" fill="white" fill-opacity="0.08"/>
<path id="Vector_109" d="M127.722 29.4826C128.036 29.4826 128.29 29.2286 128.29 28.9164C128.29 28.6041 128.036 28.3501 127.722 28.3501C127.408 28.3501 127.157 28.6041 127.157 28.9164C127.157 29.2286 127.41 29.4826 127.722 29.4826Z" fill="white" fill-opacity="0.08"/>
<path id="Vector_110" d="M127.722 23.0842C128.036 23.0842 128.29 22.8302 128.29 22.5179C128.29 22.2057 128.036 21.9517 127.722 21.9517C127.408 21.9517 127.157 22.2057 127.157 22.5179C127.157 22.8302 127.41 23.0842 127.722 23.0842Z" fill="white" fill-opacity="0.08"/>
<path id="Vector_111" d="M127.724 16.6911C128.036 16.6911 128.29 16.4371 128.29 16.1249C128.29 15.8126 128.036 15.5586 127.724 15.5586C127.413 15.5586 127.159 15.8126 127.159 16.1249C127.159 16.4371 127.413 16.6911 127.724 16.6911Z" fill="white" fill-opacity="0.08"/>
<path id="Vector_112" d="M127.725 10.7005C128.258 10.7005 128.694 10.2639 128.694 9.72943C128.694 9.19491 128.258 8.7583 127.725 8.7583C127.191 8.7583 126.756 9.19491 126.756 9.72943C126.756 10.2639 127.191 10.7005 127.725 10.7005Z" fill="white" fill-opacity="0.08"/>
<path id="Vector_113" d="M127.722 3.89767C128.036 3.89767 128.29 3.64365 128.29 3.3314C128.29 3.01916 128.036 2.76514 127.722 2.76514C127.408 2.76514 127.157 3.01916 127.157 3.3314C127.157 3.64365 127.41 3.89767 127.722 3.89767Z" fill="white" fill-opacity="0.08"/>
<path id="Vector_114" d="M136.777 68.097C136.331 68.097 135.969 67.7344 135.969 67.2872C135.969 66.8401 136.331 66.4775 136.777 66.4775C137.223 66.4775 137.585 66.8401 137.585 67.2872C137.585 67.7344 137.223 68.097 136.777 68.097Z" fill="white" fill-opacity="0.08"/>
<path id="Vector_115" d="M136.777 61.297C136.554 61.297 136.373 61.1158 136.373 60.8922C136.373 60.6686 136.554 60.4873 136.777 60.4873C137 60.4873 137.181 60.6686 137.181 60.8922C137.181 61.1158 137 61.297 136.777 61.297Z" fill="white" fill-opacity="0.08"/>
<path id="Vector_116" d="M136.777 55.1443C137.133 55.1443 137.421 54.8532 137.421 54.496C137.421 54.1387 137.13 53.8477 136.777 53.8477C136.423 53.8477 136.13 54.1387 136.13 54.496C136.13 54.8532 136.42 55.1443 136.777 55.1443Z" fill="white" fill-opacity="0.08"/>
<path id="Vector_117" d="M136.777 48.9102C137.223 48.9102 137.585 48.5477 137.585 48.1005C137.585 47.6533 137.223 47.2935 136.777 47.2935C136.331 47.2935 135.969 47.656 135.969 48.1005C135.969 48.5451 136.331 48.9102 136.777 48.9102Z" fill="white" fill-opacity="0.08"/>
<path id="Vector_118" d="M136.777 42.1911C137.044 42.1911 137.263 41.9741 137.263 41.7042C137.263 41.4343 137.046 41.2173 136.777 41.2173C136.507 41.2173 136.291 41.4343 136.291 41.7042C136.291 41.9741 136.51 42.1911 136.777 42.1911Z" fill="white" fill-opacity="0.08"/>
<path id="Vector_119" d="M136.776 36.2806C137.313 36.2806 137.746 35.844 137.746 35.3095C137.746 34.775 137.31 34.3384 136.776 34.3384C136.243 34.3384 135.805 34.775 135.805 35.3095C135.805 35.844 136.24 36.2806 136.776 36.2806Z" fill="white" fill-opacity="0.08"/>
<path id="Vector_120" d="M136.777 22.7613C136.642 22.7613 136.534 22.6523 136.534 22.5179C136.534 22.3834 136.642 22.2744 136.777 22.2744C136.911 22.2744 137.02 22.3834 137.02 22.5179C137.02 22.6523 136.911 22.7613 136.777 22.7613Z" fill="white" fill-opacity="0.08"/>
<path id="Vector_121" d="M136.777 17.4189C137.49 17.4189 138.071 16.8367 138.071 16.1223C138.071 15.4078 137.49 14.8257 136.777 14.8257C136.064 14.8257 135.486 15.4078 135.486 16.1223C135.486 16.8367 136.064 17.4189 136.777 17.4189Z" fill="white" fill-opacity="0.08"/>
<path id="Vector_122" d="M136.777 10.2927C136.465 10.2927 136.212 10.0392 136.212 9.72642C136.212 9.41368 136.465 9.16016 136.777 9.16016C137.089 9.16016 137.342 9.41368 137.342 9.72642C137.342 10.0392 137.089 10.2927 136.777 10.2927Z" fill="white" fill-opacity="0.08"/>
<path id="Vector_123" d="M136.777 3.89767C136.465 3.89767 136.212 3.64415 136.212 3.3314C136.212 3.01866 136.465 2.76514 136.777 2.76514C137.089 2.76514 137.342 3.01866 137.342 3.3314C137.342 3.64415 137.089 3.89767 136.777 3.89767Z" fill="white" fill-opacity="0.08"/>
<path id="Vector_124" d="M145.829 68.4196C146.454 68.4196 146.961 67.9115 146.961 67.287C146.961 66.6626 146.452 66.1519 145.829 66.1519C145.205 66.1519 144.698 66.6599 144.698 67.287C144.698 67.9142 145.205 68.4196 145.829 68.4196Z" fill="white" fill-opacity="0.08"/>
<path id="Vector_125" d="M145.832 61.3786C145.563 61.3786 145.346 61.1606 145.346 60.8917C145.346 60.6228 145.563 60.4048 145.832 60.4048C146.1 60.4048 146.317 60.6228 146.317 60.8917C146.317 61.1606 146.1 61.3786 145.832 61.3786Z" fill="white" fill-opacity="0.08"/>
<path id="Vector_126" d="M145.829 55.1443C146.185 55.1443 146.479 54.8532 146.479 54.496C146.479 54.1387 146.188 53.8477 145.829 53.8477C145.47 53.8477 145.185 54.1387 145.185 54.496C145.185 54.8532 145.475 55.1443 145.829 55.1443Z" fill="white" fill-opacity="0.08"/>
<path id="Vector_127" d="M145.832 49.233C146.455 49.233 146.964 48.725 146.964 48.1005C146.964 47.476 146.457 46.9653 145.832 46.9653C145.206 46.9653 144.699 47.4734 144.699 48.1005C144.699 48.7276 145.206 49.233 145.832 49.233Z" fill="white" fill-opacity="0.08"/>
<path id="Vector_128" d="M145.831 42.8402C146.454 42.8402 146.961 42.3321 146.961 41.705C146.961 41.0779 146.454 40.5698 145.831 40.5698C145.208 40.5698 144.698 41.0779 144.698 41.705C144.698 42.3321 145.205 42.8402 145.831 42.8402Z" fill="white" fill-opacity="0.08"/>
<path id="Vector_129" d="M145.831 35.8757C145.519 35.8757 145.266 35.6222 145.266 35.3094C145.266 34.9967 145.519 34.7432 145.831 34.7432C146.143 34.7432 146.396 34.9967 146.396 35.3094C146.396 35.6222 146.143 35.8757 145.831 35.8757Z" fill="white" fill-opacity="0.08"/>
<path id="Vector_130" d="M145.829 30.0487C145.203 30.0487 144.696 29.5404 144.696 28.9135C144.696 28.2866 145.203 27.7783 145.829 27.7783C146.454 27.7783 146.961 28.2866 146.961 28.9135C146.961 29.5404 146.454 30.0487 145.829 30.0487Z" fill="white" fill-opacity="0.08"/>
<path id="Vector_131" d="M145.832 23.6532C146.455 23.6532 146.964 23.1451 146.964 22.518C146.964 21.8909 146.457 21.3828 145.832 21.3828C145.206 21.3828 144.699 21.8909 144.699 22.518C144.699 23.1451 145.208 23.6532 145.832 23.6532Z" fill="white" fill-opacity="0.08"/>
<path id="Vector_132" d="M145.829 16.609C146.098 16.609 146.314 16.392 146.314 16.1221C146.314 15.8522 146.095 15.6353 145.829 15.6353C145.562 15.6353 145.345 15.8522 145.345 16.1221C145.345 16.392 145.562 16.609 145.829 16.609Z" fill="white" fill-opacity="0.08"/>
<path id="Vector_133" d="M145.831 10.2135C146.098 10.2135 146.314 9.99653 146.314 9.72663C146.314 9.45673 146.098 9.23975 145.831 9.23975C145.565 9.23975 145.345 9.45673 145.345 9.72663C145.345 9.99653 145.562 10.2135 145.831 10.2135Z" fill="white" fill-opacity="0.08"/>
<path id="Vector_134" d="M145.832 3.81801C146.098 3.81801 146.317 3.59838 146.317 3.33112C146.317 3.06386 146.101 2.84424 145.832 2.84424C145.562 2.84424 145.346 3.06122 145.346 3.33112C145.346 3.60103 145.565 3.81801 145.832 3.81801Z" fill="white" fill-opacity="0.08"/>
<path id="Vector_135" d="M154.886 67.4488C154.973 67.4488 155.047 67.3774 155.047 67.2874C155.047 67.1974 154.976 67.126 154.886 67.126C154.797 67.126 154.725 67.1974 154.725 67.2874C154.725 67.3774 154.797 67.4488 154.886 67.4488Z" fill="white" fill-opacity="0.08"/>
<path id="Vector_136" d="M154.886 61.4582C155.198 61.4582 155.451 61.2042 155.451 60.892C155.451 60.5797 155.198 60.3257 154.886 60.3257C154.574 60.3257 154.318 60.5797 154.318 60.892C154.318 61.2042 154.572 61.4582 154.886 61.4582Z" fill="white" fill-opacity="0.08"/>
<path id="Vector_137" d="M154.886 48.5055C154.663 48.5055 154.482 48.3243 154.482 48.1007C154.482 47.8771 154.663 47.6958 154.886 47.6958C155.109 47.6958 155.29 47.8771 155.29 48.1007C155.29 48.3243 155.109 48.5055 154.886 48.5055Z" fill="white" fill-opacity="0.08"/>
<path id="Vector_138" d="M154.886 42.1095C154.663 42.1095 154.482 41.9283 154.482 41.7047C154.482 41.4811 154.663 41.2998 154.886 41.2998C155.109 41.2998 155.29 41.4811 155.29 41.7047C155.29 41.9283 155.109 42.1095 154.886 42.1095Z" fill="white" fill-opacity="0.08"/>
<path id="Vector_139" d="M154.886 36.4415C155.509 36.4415 156.019 35.9335 156.019 35.3064C156.019 34.6792 155.512 34.1738 154.886 34.1738C154.26 34.1738 153.753 34.6819 153.753 35.3064C153.753 35.9308 154.26 36.4415 154.886 36.4415Z" fill="white" fill-opacity="0.08"/>
<path id="Vector_140" d="M154.886 29.3185C155.108 29.3185 155.288 29.1359 155.288 28.9136C155.288 28.6914 155.108 28.5088 154.886 28.5088C154.664 28.5088 154.482 28.6914 154.482 28.9136C154.482 29.1359 154.664 29.3185 154.886 29.3185Z" fill="white" fill-opacity="0.08"/>
<path id="Vector_141" d="M154.883 22.9225C155.108 22.9225 155.29 22.7399 155.29 22.5176C155.29 22.2954 155.108 22.1128 154.883 22.1128C154.659 22.1128 154.482 22.2954 154.482 22.5176C154.482 22.7399 154.662 22.9225 154.883 22.9225Z" fill="white" fill-opacity="0.08"/>
<path id="Vector_142" d="M154.884 17.5801C155.686 17.5801 156.341 16.9265 156.341 16.1221C156.341 15.3177 155.689 14.6641 154.884 14.6641C154.078 14.6641 153.431 15.3177 153.431 16.1221C153.431 16.9265 154.084 17.5801 154.884 17.5801Z" fill="white" fill-opacity="0.08"/>
<path id="Vector_143" d="M154.886 4.30211C155.42 4.30211 155.855 3.8655 155.855 3.33099C155.855 2.79647 155.42 2.35986 154.886 2.35986C154.353 2.35986 153.917 2.79647 153.917 3.33099C153.917 3.8655 154.353 4.30211 154.886 4.30211Z" fill="white" fill-opacity="0.08"/>
<path id="Vector_144" d="M163.938 68.2587C164.472 68.2587 164.907 67.822 164.907 67.2875C164.907 66.753 164.472 66.3164 163.938 66.3164C163.405 66.3164 162.969 66.753 162.969 67.2875C162.969 67.822 163.405 68.2587 163.938 68.2587Z" fill="white" fill-opacity="0.08"/>
<path id="Vector_145" d="M163.938 61.8627C163.403 61.8627 162.969 61.4279 162.969 60.8915C162.969 60.3552 163.403 59.9204 163.938 59.9204C164.473 59.9204 164.907 60.3552 164.907 60.8915C164.907 61.4279 164.473 61.8627 163.938 61.8627Z" fill="white" fill-opacity="0.08"/>
<path id="Vector_146" d="M163.938 55.9541C164.741 55.9541 165.396 55.3005 165.396 54.4961C165.396 53.6917 164.744 53.0381 163.938 53.0381C163.133 53.0381 162.486 53.6917 162.486 54.4961C162.486 55.3005 163.138 55.9541 163.938 55.9541Z" fill="white" fill-opacity="0.08"/>
<path id="Vector_147" d="M163.938 49.0716C163.403 49.0716 162.969 48.6368 162.969 48.1005C162.969 47.5642 163.403 47.1294 163.938 47.1294C164.473 47.1294 164.907 47.5642 164.907 48.1005C164.907 48.6368 164.473 49.0716 163.938 49.0716Z" fill="white" fill-opacity="0.08"/>
<path id="Vector_148" d="M163.938 29.5622C164.294 29.5622 164.585 29.2712 164.585 28.9139C164.585 28.5567 164.294 28.2656 163.938 28.2656C163.582 28.2656 163.288 28.5567 163.288 28.9139C163.288 29.2712 163.579 29.5622 163.938 29.5622Z" fill="white" fill-opacity="0.08"/>
<path id="Vector_149" d="M163.938 23.4891C164.474 23.4891 164.91 23.0525 164.91 22.518C164.91 21.9835 164.474 21.5469 163.938 21.5469C163.402 21.5469 162.969 21.9835 162.969 22.518C162.969 23.0525 163.405 23.4891 163.938 23.4891Z" fill="white" fill-opacity="0.08"/>
<path id="Vector_150" d="M163.938 16.7702C164.295 16.7702 164.583 16.4792 164.583 16.1219C164.583 15.7647 164.292 15.4736 163.938 15.4736C163.584 15.4736 163.291 15.7647 163.291 16.1219C163.291 16.4792 163.582 16.7702 163.938 16.7702Z" fill="white" fill-opacity="0.08"/>
<path id="Vector_151" d="M163.938 11.0229C163.223 11.0229 162.644 10.4424 162.644 9.72628C162.644 9.01019 163.223 8.42969 163.938 8.42969C164.653 8.42969 165.232 9.01019 165.232 9.72628C165.232 10.4424 164.653 11.0229 163.938 11.0229Z" fill="white" fill-opacity="0.08"/>
<path id="Vector_152" d="M163.938 4.46616C164.562 4.46616 165.071 3.95546 165.071 3.33098C165.071 2.7065 164.564 2.1958 163.938 2.1958C163.313 2.1958 162.806 2.70385 162.806 3.33098C162.806 3.95811 163.315 4.46616 163.938 4.46616Z" fill="white" fill-opacity="0.08"/>
<path id="Vector_153" d="M172.993 68.4196C173.616 68.4196 174.126 67.9115 174.126 67.287C174.126 66.6626 173.619 66.1519 172.993 66.1519C172.367 66.1519 171.86 66.6599 171.86 67.287C171.86 67.9142 172.37 68.4196 172.993 68.4196Z" fill="white" fill-opacity="0.08"/>
<path id="Vector_154" d="M172.993 61.5402C173.349 61.5402 173.643 61.2492 173.643 60.892C173.643 60.5347 173.352 60.2437 172.993 60.2437C172.634 60.2437 172.349 60.5347 172.349 60.892C172.349 61.2492 172.639 61.5402 172.993 61.5402Z" fill="white" fill-opacity="0.08"/>
<path id="Vector_155" d="M172.993 55.1443C173.349 55.1443 173.64 54.8532 173.64 54.496C173.64 54.1387 173.349 53.8477 172.993 53.8477C172.636 53.8477 172.343 54.1387 172.343 54.496C172.343 54.8532 172.634 55.1443 172.993 55.1443Z" fill="white" fill-opacity="0.08"/>
<path id="Vector_156" d="M172.993 49.233C173.616 49.233 174.123 48.725 174.123 48.1005C174.123 47.476 173.616 46.9653 172.993 46.9653C172.37 46.9653 171.86 47.4734 171.86 48.1005C171.86 48.7276 172.367 49.233 172.993 49.233Z" fill="white" fill-opacity="0.08"/>
<path id="Vector_157" d="M172.993 42.3532C172.635 42.3532 172.346 42.063 172.346 41.7049C172.346 41.3469 172.635 41.0566 172.993 41.0566C173.35 41.0566 173.64 41.3469 173.64 41.7049C173.64 42.063 173.35 42.3532 172.993 42.3532Z" fill="white" fill-opacity="0.08"/>
<path id="Vector_158" d="M172.993 35.9572C172.635 35.9572 172.346 35.667 172.346 35.3089C172.346 34.9509 172.635 34.6606 172.993 34.6606C173.35 34.6606 173.64 34.9509 173.64 35.3089C173.64 35.667 173.35 35.9572 172.993 35.9572Z" fill="white" fill-opacity="0.08"/>
<path id="Vector_159" d="M172.993 29.5622C173.349 29.5622 173.643 29.2712 173.643 28.9139C173.643 28.5567 173.352 28.2656 172.993 28.2656C172.634 28.2656 172.349 28.5567 172.349 28.9139C172.349 29.2712 172.639 29.5622 172.993 29.5622Z" fill="white" fill-opacity="0.08"/>
<path id="Vector_160" d="M172.993 23.1662C173.349 23.1662 173.643 22.8751 173.643 22.5179C173.643 22.1607 173.352 21.8696 172.993 21.8696C172.634 21.8696 172.349 22.1607 172.349 22.5179C172.349 22.8751 172.639 23.1662 172.993 23.1662Z" fill="white" fill-opacity="0.08"/>
<path id="Vector_161" d="M172.993 16.2838C172.904 16.2838 172.832 16.2115 172.832 16.1224C172.832 16.0332 172.904 15.9609 172.993 15.9609C173.082 15.9609 173.154 16.0332 173.154 16.1224C173.154 16.2115 173.082 16.2838 172.993 16.2838Z" fill="white" fill-opacity="0.08"/>
<path id="Vector_162" d="M182.048 67.5308C181.913 67.5308 181.805 67.4218 181.805 67.2874C181.805 67.1529 181.913 67.0439 182.048 67.0439C182.182 67.0439 182.291 67.1529 182.291 67.2874C182.291 67.4218 182.182 67.5308 182.048 67.5308Z" fill="white" fill-opacity="0.08"/>
<path id="Vector_163" d="M182.045 61.297C182.269 61.297 182.452 61.1144 182.452 60.8922C182.452 60.6699 182.269 60.4873 182.045 60.4873C181.821 60.4873 181.641 60.6699 181.641 60.8922C181.641 61.1144 181.823 61.297 182.045 61.297Z" fill="white" fill-opacity="0.08"/>
<path id="Vector_164" d="M182.047 55.7929C182.76 55.7929 183.341 55.2107 183.341 54.4963C183.341 53.7818 182.76 53.1997 182.047 53.1997C181.334 53.1997 180.753 53.7818 180.753 54.4963C180.753 55.2107 181.334 55.7929 182.047 55.7929Z" fill="white" fill-opacity="0.08"/>
<path id="Vector_165" d="M182.048 42.1095C181.825 42.1095 181.644 41.9283 181.644 41.7047C181.644 41.4811 181.825 41.2998 182.048 41.2998C182.271 41.2998 182.452 41.4811 182.452 41.7047C182.452 41.9283 182.271 42.1095 182.048 42.1095Z" fill="white" fill-opacity="0.08"/>
<path id="Vector_166" d="M182.048 35.5523C182.18 35.5523 182.288 35.4438 182.288 35.3089C182.288 35.1739 182.18 35.0654 182.048 35.0654C181.916 35.0654 181.805 35.1739 181.805 35.3089C181.805 35.4438 181.913 35.5523 182.048 35.5523Z" fill="white" fill-opacity="0.08"/>
<path id="Vector_167" d="M182.048 29.9667C182.626 29.9667 183.096 29.493 183.096 28.9135C183.096 28.334 182.626 27.8604 182.048 27.8604C181.47 27.8604 180.997 28.334 180.997 28.9135C180.997 29.493 181.47 29.9667 182.048 29.9667Z" fill="white" fill-opacity="0.08"/>
<path id="Vector_168" d="M182.048 23.5707C181.467 23.5707 180.997 23.0991 180.997 22.5175C180.997 21.9359 181.467 21.4644 182.048 21.4644C182.628 21.4644 183.099 21.9359 183.099 22.5175C183.099 23.0991 182.628 23.5707 182.048 23.5707Z" fill="white" fill-opacity="0.08"/>
<path id="Vector_169" d="M182.048 17.1756C182.626 17.1756 183.096 16.702 183.096 16.1225C183.096 15.543 182.626 15.0693 182.048 15.0693C181.47 15.0693 180.997 15.543 180.997 16.1225C180.997 16.702 181.47 17.1756 182.048 17.1756Z" fill="white" fill-opacity="0.08"/>
<path id="Vector_170" d="M182.048 11.1846C182.85 11.1846 183.5 10.531 183.5 9.72656C183.5 8.92214 182.848 8.26855 182.048 8.26855C181.248 8.26855 180.593 8.92214 180.593 9.72656C180.593 10.531 181.245 11.1846 182.048 11.1846Z" fill="white" fill-opacity="0.08"/>
<path id="Vector_171" d="M182.045 3.97949C182.401 3.97949 182.692 3.68842 182.692 3.33384C182.692 2.97926 182.401 2.68555 182.045 2.68555C181.688 2.68555 181.401 2.97662 181.401 3.33384C181.401 3.69107 181.691 3.97949 182.045 3.97949Z" fill="white" fill-opacity="0.08"/>
<path id="Vector_172" d="M154.884 55.1443C155.24 55.1443 155.533 54.8532 155.533 54.496C155.533 54.1387 155.243 53.8477 154.884 53.8477C154.524 53.8477 154.239 54.1387 154.239 54.496C154.239 54.8532 154.53 55.1443 154.884 55.1443Z" fill="white" fill-opacity="0.08"/>
</g>
</svg>
