<svg xmlns="http://www.w3.org/2000/svg" width="40" height="40" viewBox="0 0 40 40" fill="none">
  <path d="M20 40C31.0457 40 40 31.0457 40 20C40 8.9543 31.0457 0 20 0C8.9543 0 0 8.9543 0 20C0 31.0457 8.9543 40 20 40Z" fill="#4D76B8"/>
  <path d="M19.998 9.64648L19.8594 10.1183V23.8114L19.998 23.95L26.3547 20.1923L19.998 9.64648Z" fill="#C9DEFF"/>
  <path d="M19.9984 9.64648L13.6416 20.1923L19.9984 23.95V17.3036V9.64648Z" fill="white"/>
  <path d="M19.9988 25.153L19.9209 25.248V30.1269L19.9988 30.3558L26.3602 21.3984L19.9988 25.153Z" fill="#C9DEFF"/>
  <path d="M19.9984 30.3574V25.1546L13.6416 21.3984L19.9984 30.3574Z" fill="white"/>
  <path d="M19.998 23.9492L26.3548 20.1915L19.998 17.3027V23.9492Z" fill="#4D76B8"/>
  <path d="M13.6416 20.1915L19.9984 23.9492V17.3027L13.6416 20.1915Z" fill="#C9DEFF"/>
</svg>