<svg width="100" height="100" viewBox="0 0 100 100" fill="none" xmlns="http://www.w3.org/2000/svg">
<path d="M49.9999 99.9999C77.6141 99.9999 99.9999 77.6141 99.9999 49.9999C99.9999 22.3857 77.6141 0 49.9999 0C22.3857 0 0 22.3857 0 49.9999C0 77.6141 22.3857 99.9999 49.9999 99.9999Z" fill="#627EEA"/>
<path d="M49.9959 24.1152L49.6494 25.2949V59.5275L49.9959 59.874L65.8878 50.4798L49.9959 24.1152Z" fill="#C0CCF7"/>
<path d="M49.9964 24.1152L34.1045 50.4798L49.9964 59.874V43.2579V24.1152Z" fill="white"/>
<path d="M49.9959 62.8825L49.8013 63.12V75.3173L49.9959 75.8896L65.8995 53.4961L49.9959 62.8825Z" fill="#C0CCF7"/>
<path d="M49.9964 75.8896V62.8825L34.1045 53.4922L49.9964 75.8896Z" fill="white"/>
<path d="M49.9961 59.8738L65.888 50.4796L49.9961 43.2578V59.8738Z" fill="#8198EE"/>
<path d="M34.1045 50.4796L49.9964 59.8738V43.2578L34.1045 50.4796Z" fill="#C0CCF7"/>
</svg>
