<svg width="50" height="50" viewBox="0 0 50 50" fill="none" xmlns="http://www.w3.org/2000/svg">
<circle cx="25" cy="25" r="25" fill="#D70000"/>
<path d="M34.5005 32.0413C35.1921 32.7329 35.1921 33.8088 34.5005 34.5005C34.1546 34.8463 33.732 35 33.2709 35C32.8098 35 32.3872 34.8463 32.0413 34.5005L25.0096 27.4688L17.9779 34.5005C17.6321 34.8463 17.2094 35 16.7483 35C16.2872 35 15.8646 34.8463 15.5188 34.5005C14.8271 33.8088 14.8271 32.7329 15.5188 32.0413L22.5504 25.0096L15.5188 17.9779C14.8271 17.2863 14.8271 16.2104 15.5188 15.5187C16.2104 14.8271 17.2862 14.8271 17.9779 15.5187L25.0096 22.5504L32.0413 15.5187C32.733 14.8271 33.8088 14.8271 34.5005 15.5187C35.1921 16.2104 35.1921 17.2863 34.5005 17.9779L27.4687 25.0096L34.5005 32.0413Z" fill="white"/>
</svg>
