<svg width="20" height="21" viewBox="0 0 20 21" fill="none" xmlns="http://www.w3.org/2000/svg">
<g clip-path="url(#clip0_3318_440161)">
<path d="M1.56234 0.5C3.71047 0.5 5.85909 0.5 8.00722 0.5C8.04343 0.511741 8.07914 0.526417 8.11632 0.534245C8.73126 0.668778 9.20433 1.00731 9.40344 1.60611C9.54335 2.02585 9.57711 2.4818 9.64511 2.92405C9.70235 3.29536 9.74099 3.66961 9.78943 4.05462H10.0379C12.7262 4.05462 15.4144 4.04924 18.1021 4.06245C18.3996 4.06392 18.721 4.11724 18.9881 4.24052C19.6828 4.55998 19.9964 5.1485 19.9978 5.90433C20.0008 7.34947 19.9988 8.79411 19.9988 10.2392C19.9988 13.0317 19.9983 15.8236 19.9993 18.616C19.9993 19.0436 19.9088 19.4413 19.6451 19.7877C19.2655 20.2862 18.7523 20.5 18.1359 20.5C16.3914 20.499 14.6473 20.5 12.9028 20.5C11.5227 20.5 10.1431 20.502 8.76306 20.499C7.94999 20.4971 7.30667 20.0758 7.04641 19.3303C6.94123 19.028 6.92068 18.6948 6.87568 18.3734C6.81012 17.9047 6.7568 17.4341 6.69613 16.9454C6.60759 16.9454 6.53127 16.9454 6.45495 16.9454C4.91882 16.9454 3.3827 16.9454 1.84657 16.9454C1.22967 16.9454 0.699853 16.7345 0.351533 16.216C0.186669 15.9704 0.113776 15.6627 -0.000699997 15.3828C-0.000210784 10.9422 -0.000210784 6.50215 -0.000210784 2.06255C0.0100627 2.03221 0.0252283 2.00237 0.0306096 1.97106C0.103992 1.53762 0.313864 1.18539 0.649464 0.901644C0.915596 0.676117 1.23309 0.576806 1.56234 0.5ZM9.93472 5.22628C9.99636 5.71745 10.0556 6.18172 10.1133 6.64598C10.3011 8.16254 10.488 9.6791 10.6764 11.1957C10.8809 12.8414 11.08 14.4876 11.2972 16.1313C11.3383 16.441 11.2478 16.667 11.0501 16.8916C10.3794 17.6538 9.71947 18.4252 9.05659 19.1938C9.02626 19.229 9.00277 19.2696 8.96217 19.3274H9.18672C12.1479 19.3274 15.1091 19.3274 18.0708 19.3274C18.6251 19.3274 18.8271 19.1278 18.8271 18.5798C18.8271 14.3755 18.8271 10.1708 18.8271 5.96646C18.8271 5.43078 18.6217 5.22628 18.0831 5.22628C15.4472 5.22628 12.8113 5.22628 10.1754 5.22628H9.93521H9.93472ZM10.0658 15.7727C10.0438 15.5971 10.0238 15.443 10.0047 15.2889C9.72632 13.0424 9.44893 10.7965 9.17008 8.55C8.91178 6.47182 8.65152 4.39364 8.3937 2.31498C8.33842 1.86882 8.12268 1.67166 7.67358 1.67166C5.74657 1.67166 3.82005 1.67166 1.89304 1.67166C1.38328 1.67166 1.17145 1.88398 1.17145 2.39521C1.17145 6.61369 1.17145 10.8317 1.17145 15.0502C1.17145 15.5604 1.38377 15.7722 1.89451 15.7722C4.54409 15.7722 7.19317 15.7722 9.84275 15.7722H10.0658V15.7727ZM9.44062 16.9557H7.88052C7.94461 17.4752 8.00723 17.9815 8.07523 18.5334C8.54242 17.9933 8.9788 17.4889 9.44062 16.9557Z" fill="white"/>
<path d="M13.8707 13.0841C13.6818 12.8156 13.5023 12.5695 13.333 12.3166C12.9876 11.8 12.7279 11.2413 12.538 10.6503C12.5043 10.5456 12.4607 10.4987 12.3384 10.4943C11.997 10.483 11.7558 10.2286 11.7587 9.90866C11.7617 9.58138 12.017 9.33286 12.3683 9.32943C12.8761 9.32454 13.3834 9.32797 13.8912 9.32797C13.9548 9.32797 14.0179 9.32797 14.1011 9.32797C14.1011 9.12984 14.0981 8.94932 14.1016 8.76929C14.1089 8.41754 14.3525 8.16217 14.6793 8.15777C15.0139 8.15337 15.2644 8.41265 15.2718 8.77418C15.2752 8.94932 15.2722 9.12445 15.2722 9.32797C15.3437 9.32797 15.4058 9.32797 15.4679 9.32797C15.9689 9.32797 16.4703 9.32601 16.9713 9.32846C17.3436 9.33041 17.6029 9.56132 17.6146 9.89399C17.6258 10.2252 17.3803 10.4678 17.0109 10.5031C16.9561 10.5084 16.8744 10.5559 16.8593 10.6014C16.5652 11.5025 16.1112 12.3146 15.4968 13.0651C15.7434 13.2735 15.9831 13.4794 16.2267 13.6805C16.4126 13.8336 16.6068 13.976 16.7917 14.1306C17.0633 14.3576 17.1063 14.7039 16.9018 14.9632C16.6973 15.2225 16.348 15.266 16.0667 15.0454C15.6059 14.6844 15.1553 14.3106 14.6818 13.9266C14.6304 13.9677 14.5712 14.0141 14.513 14.0621C14.1353 14.3713 13.7606 14.6834 13.3805 14.9896C13.0429 15.2611 12.6907 15.2465 12.4686 14.9593C12.2499 14.6775 12.3184 14.3424 12.6462 14.0777C13.0556 13.747 13.4631 13.4149 13.8707 13.0837V13.0841ZM14.6881 12.2026C15.0981 11.6728 15.419 11.1263 15.6348 10.5109H13.7366C13.9616 11.1302 14.2738 11.6772 14.6881 12.2026Z" fill="white"/>
<path d="M6.11418 9.33377H4.50418C4.39558 9.87533 4.28746 10.4144 4.17935 10.9536C4.16125 11.0426 4.14706 11.1331 4.12211 11.2202C4.03258 11.5367 3.73661 11.725 3.43868 11.6595C3.1158 11.5881 2.91913 11.2877 2.98371 10.9511C3.0659 10.5235 3.15493 10.0974 3.24006 9.67084C3.53897 8.1802 3.83641 6.68957 4.1363 5.19943C4.21408 4.81246 4.422 4.64417 4.81532 4.64124C5.14701 4.63879 5.4787 4.63879 5.81087 4.64124C6.20322 4.64417 6.41016 4.81246 6.48794 5.20139C6.87246 7.11225 7.25503 9.02312 7.6371 10.934C7.70706 11.2838 7.51382 11.5885 7.18409 11.6605C6.8661 11.7294 6.56083 11.5157 6.48745 11.1624C6.36613 10.5773 6.25165 9.99078 6.13375 9.4047C6.12984 9.38611 6.12348 9.36801 6.11418 9.33475V9.33377ZM5.20571 5.81877C5.04917 6.60347 4.89653 7.37007 4.74145 8.14645H5.88376C5.72673 7.36175 5.57165 6.58879 5.41754 5.81877H5.20571Z" fill="white"/>
</g>
<defs>
<clipPath id="clip0_3318_440161">
<rect width="20" height="20" fill="white" transform="translate(0 0.5)"/>
</clipPath>
</defs>
</svg>
