<svg xmlns="http://www.w3.org/2000/svg" width="14" height="14" viewBox="0 0 14 14" fill="none">
  <path d="M0.753201 10.4015C0.753201 10.3516 0.753201 10.2952 0.753201 10.2387C0.753201 8.7969 0.753756 7.35506 0.751259 5.91351C0.751259 5.84714 0.722119 5.78048 0.700195 5.68659C0.877806 5.57624 1.08539 5.44633 1.29408 5.31783C3.00747 4.26234 4.7217 3.20827 6.43287 2.14937C6.53833 2.08413 6.6091 2.0864 6.71455 2.15164C7.90233 2.88972 9.09288 3.62354 10.287 4.35113C10.4147 4.42885 10.4616 4.51026 10.4619 4.66145C10.4638 5.29457 10.4802 5.9277 10.491 6.5611C10.4918 6.60677 10.491 6.65244 10.491 6.71853C10.4316 6.68166 10.3889 6.65726 10.3484 6.62947C9.12757 5.80175 7.90649 4.97489 6.68763 4.14406C6.60271 4.08619 6.54305 4.08279 6.45424 4.13668C5.14131 4.93773 3.82615 5.73481 2.51127 6.53245C2.35919 6.62464 2.27427 6.73839 2.27733 6.94035C2.28926 7.72013 2.28399 8.50019 2.2801 9.28025C2.27955 9.38577 2.30536 9.44902 2.39971 9.50689C3.77981 10.3525 5.15796 11.2012 6.53278 12.055C6.64489 12.1248 6.72038 12.1148 6.82695 12.049C8.70019 10.89 10.5759 9.73495 12.4514 8.57961C12.4933 8.5538 12.5374 8.53196 12.5982 8.49849C12.5982 8.79604 12.5982 9.07318 12.5982 9.35031C12.5982 9.65297 12.5954 9.95535 12.6001 10.258C12.6015 10.3434 12.5766 10.3925 12.5027 10.4379C10.8038 11.4809 9.10647 12.5267 7.40918 13.5723C7.19549 13.7039 6.98014 13.8327 6.76922 13.9691C6.70068 14.0136 6.64989 14.0111 6.58134 13.9691C4.74279 12.8342 2.90341 11.7013 1.06319 10.5695C0.96911 10.5116 0.868648 10.4642 0.752924 10.4021L0.753201 10.4015Z" fill="white"/>
  <path d="M0.700551 5.49971C0.700551 4.87695 0.69833 4.28116 0.704992 3.68566C0.705547 3.64166 0.762171 3.58433 0.806582 3.55679C1.76641 2.961 2.72819 2.36834 3.68996 1.77567C4.62787 1.19748 5.56688 0.621272 6.50285 0.0399581C6.59 -0.0142562 6.65023 -0.012837 6.73767 0.0413773C8.58739 1.18584 10.4396 2.32633 12.2913 3.46767C12.311 3.47987 12.3301 3.49889 12.3512 3.50229C12.5505 3.53408 12.5414 3.67828 12.5411 3.83581C12.5375 5.25021 12.538 6.66461 12.5411 8.07872C12.5411 8.14855 12.5755 8.21837 12.6002 8.31289C12.3881 8.44403 12.1439 8.59532 11.8993 8.74604C10.2214 9.78008 8.54242 10.8127 6.86646 11.8504C6.75682 11.9183 6.68243 11.9157 6.57224 11.8473C5.36481 11.0957 4.15267 10.352 2.94414 9.6024C2.89834 9.57401 2.84699 9.50816 2.8456 9.4582C2.82617 8.77272 2.81479 8.08724 2.8023 7.40147C2.80175 7.37081 2.80924 7.33959 2.81535 7.29077C2.8703 7.32511 2.91305 7.34952 2.95358 7.37734C4.17099 8.20248 5.38896 9.02648 6.60388 9.8553C6.69548 9.91775 6.7571 9.91661 6.85008 9.85984C8.14328 9.07019 9.43841 8.28337 10.7358 7.50081C10.9273 7.38529 11.0197 7.25046 11.0139 7.00437C10.9956 6.24338 11.0053 5.48154 11.0094 4.71999C11.01 4.61014 10.9831 4.54344 10.8851 4.48354C9.5017 3.63684 8.12079 2.78587 6.74211 1.93178C6.64829 1.87359 6.58445 1.87757 6.49369 1.93377C4.61538 3.09498 2.73513 4.25278 0.854879 5.41086C0.812411 5.43698 0.768555 5.46054 0.700551 5.49971Z" fill="white"/>
</svg>