<svg xmlns="http://www.w3.org/2000/svg" width="40" height="40" viewBox="0 0 40 40" fill="none">
  <path d="M20 40C31.0457 40 40 31.0457 40 20C40 8.9543 31.0457 0 20 0C8.95431 0 0 8.9543 0 20C0 31.0457 8.95431 40 20 40Z" fill="#CB2C70"/>
  <path d="M28.0691 15.4034C27.7771 12.8876 25.5879 12.07 22.8203 11.8797L22.7647 8.3687L20.6382 8.40485L20.6995 11.8224C20.1387 11.8356 19.563 11.8529 18.9908 11.8837L18.9259 8.45254L16.7994 8.48869L16.8646 11.981C16.3973 11.9998 15.9431 12.0135 15.5028 12.0251L15.4992 12.0115L12.5545 12.0686L12.6003 14.3456C12.6003 14.3456 14.1429 14.2902 14.1489 14.3128C15.0148 14.2952 15.3009 14.7973 15.3868 15.2322L15.4503 19.2296C15.511 19.2278 15.5858 19.2239 15.6828 19.243C15.6085 19.2484 15.5322 19.2527 15.4539 19.2431L15.5479 24.8348C15.5136 25.1036 15.3555 25.5425 14.7621 25.5484C14.7833 25.5733 13.2136 25.5812 13.2136 25.5812L12.8305 28.1409L15.6111 28.0971C16.1298 28.0952 16.6297 28.0837 17.1348 28.0855L17.1981 31.625L19.3246 31.5889L19.2689 28.0779C19.8487 28.0757 20.4266 28.0724 20.9742 28.0643L21.0394 31.5566L23.1659 31.5205L23.1025 27.9809C26.6918 27.706 29.1864 26.7635 29.4262 23.3861C29.6303 20.6762 28.3349 19.482 26.2885 19.0227C27.532 18.3687 28.2832 17.2371 28.0657 15.4027L28.0691 15.4034ZM25.2148 23.0362C25.2664 25.6776 20.7215 25.4606 19.2777 25.4815L19.1954 20.7879C20.6392 20.767 25.1762 20.2687 25.2163 23.0358L25.2148 23.0362ZM24.1138 16.4181C24.1503 18.8347 20.3679 18.6116 19.1666 18.6288L19.0954 14.3739C20.2967 14.3567 24.0694 13.9117 24.1153 16.4177L24.1138 16.4181Z" fill="white"/>
</svg>