<svg width="100" height="100" viewBox="0 0 100 100" fill="none" xmlns="http://www.w3.org/2000/svg">
<path d="M49.9999 99.9999C77.6141 99.9999 99.9999 77.6141 99.9999 49.9999C99.9999 22.3857 77.6141 0 49.9999 0C22.3857 0 0 22.3857 0 49.9999C0 77.6141 22.3857 99.9999 49.9999 99.9999Z" fill="white"/>
<path fill-rule="evenodd" clip-rule="evenodd" d="M73.9615 43.0734C71.0475 40.3162 66.9324 38.0195 61.593 36.5612H61.5621C48.8567 33.1045 44.33 41.2807 54.6179 46.4349C66.2971 52.2784 67.92 61.8486 61.3281 67.8336C59.6486 69.3562 54.1909 72.2059 49.1705 72.89C41.1974 73.996 32.3499 72.3011 25.1587 70.0172C29.0699 73.0553 33.5397 75.2958 38.3142 76.6117C49.5254 79.698 63.0667 77.4244 72.0403 69.6237C81.0781 61.7561 81.9423 50.6041 73.9615 43.0734Z" fill="#008DD0"/>
<path fill-rule="evenodd" clip-rule="evenodd" d="M37.1694 24.6265C43.3573 22.1043 50.0985 21.2494 56.7201 22.1471C63.3417 23.0447 69.612 25.6635 74.9051 29.7421C61.4795 25.4727 51.0631 25.843 44.2294 28.5925L44.1291 28.6336C35.6905 32.0852 32.7662 39.1503 36.4389 45.5391C38.4168 48.9829 41.9043 51.5574 45.4408 53.3244C54.7924 58.0079 51.917 65.1811 41.7912 63.8694C40.6674 63.7195 39.5553 63.4918 38.4631 63.1878C18.5793 57.7584 15.6704 40.8735 28.0209 30.1356C30.7473 27.8095 33.8381 25.9482 37.1694 24.6265Z" fill="#008DD0"/>
</svg>
