<svg xmlns="http://www.w3.org/2000/svg" width="40" height="40" viewBox="0 0 40 40" fill="none">
  <path d="M20 40C31.0457 40 40 31.0457 40 20C40 8.9543 31.0457 0 20 0C8.95431 0 0 8.9543 0 20C0 31.0457 8.95431 40 20 40Z" fill="white"/>
  <path fill-rule="evenodd" clip-rule="evenodd" d="M29.5846 17.2295C28.419 16.1267 26.773 15.208 24.6372 14.6247H24.6249C19.5427 13.242 17.732 16.5125 21.8472 18.5742C26.5189 20.9116 27.168 24.7397 24.5313 27.1336C23.8595 27.7427 21.6764 28.8826 19.6682 29.1562C16.479 29.5986 12.94 28.9206 10.0635 28.0071C11.628 29.2223 13.4159 30.1185 15.3257 30.6449C19.8102 31.8794 25.2267 30.97 28.8161 27.8497C32.4313 24.7026 32.777 20.2418 29.5846 17.2295Z" fill="black"/>
  <path fill-rule="evenodd" clip-rule="evenodd" d="M14.8678 9.85099C17.3429 8.84212 20.0394 8.50015 22.6881 8.85921C25.3367 9.21827 27.8449 10.2658 29.9621 11.8972C24.5918 10.1895 20.4253 10.3376 17.6918 11.4374L17.6517 11.4538C14.2762 12.8345 13.1065 15.6605 14.5756 18.216C15.3667 19.5936 16.7618 20.6234 18.1764 21.3302C21.917 23.2036 20.7668 26.0728 16.7165 25.5482C16.267 25.4882 15.8222 25.3971 15.3853 25.2755C7.43174 23.1038 6.26818 16.3498 11.2084 12.0546C12.299 11.1242 13.5353 10.3797 14.8678 9.85099Z" fill="black"/>
</svg>