<svg width="17" height="18" viewBox="0 0 17 18" fill="none" xmlns="http://www.w3.org/2000/svg">
<path d="M8.66665 11.3767V13.1183C7.91241 12.8517 7.10521 12.7699 6.31282 12.8798C5.52042 12.9898 4.76598 13.2882 4.11284 13.7502C3.4597 14.2121 2.92693 14.824 2.55928 15.5345C2.19163 16.245 1.99983 17.0333 1.99998 17.8333L0.333313 17.8325C0.333055 16.8149 0.565747 15.8108 1.01356 14.897C1.46138 13.9832 2.11243 13.1841 2.91683 12.5609C3.72123 11.9376 4.65763 11.5068 5.65427 11.3014C6.65092 11.096 7.68136 11.1214 8.66665 11.3758V11.3767ZM6.99998 10.3333C4.23748 10.3333 1.99998 8.09583 1.99998 5.33333C1.99998 2.57083 4.23748 0.333332 6.99998 0.333332C9.76248 0.333332 12 2.57083 12 5.33333C12 8.09583 9.76248 10.3333 6.99998 10.3333ZM6.99998 8.66667C8.84165 8.66667 10.3333 7.175 10.3333 5.33333C10.3333 3.49167 8.84165 2 6.99998 2C5.15831 2 3.66665 3.49167 3.66665 5.33333C3.66665 7.175 5.15831 8.66667 6.99998 8.66667ZM12 13.6667V11.1667H13.6666V13.6667H16.1666V15.3333H13.6666V17.8333H12V15.3333H9.49998V13.6667H12Z" fill="white"/>
</svg>
