<svg width="14" height="14" viewBox="0 0 14 14" fill="none" xmlns="http://www.w3.org/2000/svg">
<path d="M6.99999 12.8333C3.77824 12.8333 1.16666 10.2218 1.16666 7C1.16666 3.77826 3.77824 1.16667 6.99999 1.16667C10.2217 1.16667 12.8333 3.77826 12.8333 7C12.8333 10.2218 10.2217 12.8333 6.99999 12.8333ZM6.99999 11.6667C8.23767 11.6667 9.42465 11.175 10.2998 10.2998C11.175 9.42467 11.6667 8.23768 11.6667 7C11.6667 5.76233 11.175 4.57534 10.2998 3.70017C9.42465 2.825 8.23767 2.33334 6.99999 2.33334C5.76231 2.33334 4.57533 2.825 3.70016 3.70017C2.82499 4.57534 2.33332 5.76233 2.33332 7C2.33332 8.23768 2.82499 9.42467 3.70016 10.2998C4.57533 11.175 5.76231 11.6667 6.99999 11.6667ZM6.41666 8.75H7.58332V9.91667H6.41666V8.75ZM6.41666 4.08334H7.58332V7.58334H6.41666V4.08334Z" fill="white"/>
</svg>
