<svg width="20" height="20" viewBox="0 0 20 20" fill="none" xmlns="http://www.w3.org/2000/svg">
<path fill-rule="evenodd" clip-rule="evenodd" d="M9.99998 2.49998C5.85784 2.49998 2.49998 5.85784 2.49998 9.99998C2.49998 14.1421 5.85784 17.5 9.99998 17.5C14.1421 17.5 17.5 14.1421 17.5 9.99998C17.5 5.85784 14.1421 2.49998 9.99998 2.49998ZM0.833313 9.99998C0.833313 4.93737 4.93737 0.833313 9.99998 0.833313C15.0626 0.833313 19.1666 4.93737 19.1666 9.99998C19.1666 15.0626 15.0626 19.1666 9.99998 19.1666C4.93737 19.1666 0.833313 15.0626 0.833313 9.99998Z" fill="white"/>
<path fill-rule="evenodd" clip-rule="evenodd" d="M10 4.16669C10.4603 4.16669 10.8334 4.53978 10.8334 5.00002V9.48499L13.706 10.9213C14.1177 11.1272 14.2845 11.6277 14.0787 12.0394C13.8729 12.451 13.3723 12.6179 12.9607 12.412L9.62734 10.7454C9.34502 10.6042 9.16669 10.3157 9.16669 10V5.00002C9.16669 4.53978 9.53978 4.16669 10 4.16669Z" fill="white"/>
</svg>
