<svg xmlns="http://www.w3.org/2000/svg" width="16" height="17" viewBox="0 0 16 17" fill="none">
  <path d="M4.66667 4.49967V2.49967C4.66667 2.32286 4.7369 2.15329 4.86193 2.02827C4.98695 1.90325 5.15652 1.83301 5.33333 1.83301H13.3333C13.5101 1.83301 13.6797 1.90325 13.8047 2.02827C13.9298 2.15329 14 2.32286 14 2.49967V11.833C14 12.0098 13.9298 12.1794 13.8047 12.3044C13.6797 12.4294 13.5101 12.4997 13.3333 12.4997H11.3333V14.4997C11.3333 14.8677 11.0333 15.1663 10.662 15.1663H2.67133C2.58342 15.1669 2.49626 15.15 2.41488 15.1168C2.3335 15.0835 2.25949 15.0345 2.19711 14.9725C2.13472 14.9106 2.0852 14.8369 2.05137 14.7558C2.01754 14.6746 2.00009 14.5876 2 14.4997L2.002 5.16634C2.002 4.79834 2.302 4.49967 2.67333 4.49967H4.66667ZM3.33533 5.83301L3.33333 13.833H10V5.83301H3.33533ZM6 4.49967H11.3333V11.1663H12.6667V3.16634H6V4.49967Z" fill="white"/>
</svg>