<svg width="21" height="22" viewBox="0 0 21 22" fill="none" xmlns="http://www.w3.org/2000/svg">
<g clip-path="url(#clip0_7216_32067)">
<path fill-rule="evenodd" clip-rule="evenodd" d="M10.5 0.5C10.9832 0.5 11.375 0.891751 11.375 1.375V20.625C11.375 21.1082 10.9832 21.5 10.5 21.5C10.0168 21.5 9.625 21.1082 9.625 20.625V1.375C9.625 0.891751 10.0168 0.5 10.5 0.5Z" fill="white"/>
<path fill-rule="evenodd" clip-rule="evenodd" d="M5.52827 5.15327C6.26669 4.41484 7.26821 4 8.3125 4H14.875C15.3582 4 15.75 4.39175 15.75 4.875C15.75 5.35825 15.3582 5.75 14.875 5.75H8.3125C7.73234 5.75 7.17594 5.98047 6.7657 6.3907C6.35547 6.80094 6.125 7.35734 6.125 7.9375C6.125 8.51766 6.35547 9.07406 6.7657 9.4843C7.17594 9.89453 7.73234 10.125 8.3125 10.125H12.6875C13.7318 10.125 14.7333 10.5398 15.4717 11.2783C16.2102 12.0167 16.625 13.0182 16.625 14.0625C16.625 15.1068 16.2102 16.1083 15.4717 16.8467C14.7333 17.5852 13.7318 18 12.6875 18H5.25C4.76675 18 4.375 17.6082 4.375 17.125C4.375 16.6418 4.76675 16.25 5.25 16.25H12.6875C13.2677 16.25 13.8241 16.0195 14.2343 15.6093C14.6445 15.1991 14.875 14.6427 14.875 14.0625C14.875 13.4823 14.6445 12.9259 14.2343 12.5157C13.8241 12.1055 13.2677 11.875 12.6875 11.875H8.3125C7.26821 11.875 6.26669 11.4602 5.52827 10.7217C4.78984 9.98331 4.375 8.98179 4.375 7.9375C4.375 6.89321 4.78984 5.89169 5.52827 5.15327Z" fill="white"/>
</g>
<defs>
<clipPath id="clip0_7216_32067">
<rect width="21" height="21" fill="white" transform="translate(0 0.5)"/>
</clipPath>
</defs>
</svg>
