<svg width="20" height="21" viewBox="0 0 20 21" fill="none" xmlns="http://www.w3.org/2000/svg">
<path fill-rule="evenodd" clip-rule="evenodd" d="M3.33331 4.66667C3.1123 4.66667 2.90034 4.75446 2.74406 4.91074C2.58778 5.06702 2.49998 5.27899 2.49998 5.5V17.1667C2.49998 17.3877 2.58778 17.5996 2.74406 17.7559C2.90034 17.9122 3.1123 18 3.33331 18H15C15.221 18 15.433 17.9122 15.5892 17.7559C15.7455 17.5996 15.8333 17.3877 15.8333 17.1667V12.7167C15.8333 12.2564 16.2064 11.8833 16.6666 11.8833C17.1269 11.8833 17.5 12.2564 17.5 12.7167V17.1667C17.5 17.8297 17.2366 18.4656 16.7677 18.9344C16.2989 19.4033 15.663 19.6667 15 19.6667H3.33331C2.67027 19.6667 2.03439 19.4033 1.56555 18.9344C1.09671 18.4656 0.833313 17.8297 0.833313 17.1667V5.5C0.833313 4.83696 1.0967 4.20107 1.56555 3.73223C2.03439 3.26339 2.67027 3 3.33331 3H7.78331C8.24355 3 8.61665 3.3731 8.61665 3.83333C8.61665 4.29357 8.24355 4.66667 7.78331 4.66667H3.33331Z" fill="white"/>
<path fill-rule="evenodd" clip-rule="evenodd" d="M14.4107 1.57741C14.7362 1.25197 15.2638 1.25197 15.5892 1.57741L18.9226 4.91074C19.248 5.23618 19.248 5.76381 18.9226 6.08925L10.5892 14.4226C10.433 14.5789 10.221 14.6667 9.99998 14.6667H6.66665C6.20641 14.6667 5.83331 14.2936 5.83331 13.8333V10.5C5.83331 10.279 5.92111 10.067 6.07739 9.91074L14.4107 1.57741ZM7.49998 10.8452V13H9.6548L17.1548 5.5L15 3.34517L7.49998 10.8452Z" fill="white"/>
</svg>
