<svg xmlns="http://www.w3.org/2000/svg" width="24" height="24" viewBox="0 0 24 24" fill="none">
  <path d="M11.9994 2.175L22.0569 22.2195H1.94343L12.0009 2.175H11.9994ZM11.9994 0C11.4819 0 10.9644 0.3495 10.5729 1.047L0.329435 21.4635C-0.455065 22.8585 0.212435 24 1.81293 24H22.1874C23.7879 24 24.4554 22.8585 23.6709 21.4635L13.4274 1.047C13.0344 0.3495 12.5184 0 12.0009 0L11.9994 0Z" fill="white"/>
  <path d="M13.5 19.5C13.5 20.328 12.828 21 12 21C11.172 21 10.5 20.328 10.5 19.5C10.5 18.672 11.172 18 12 18C12.828 18 13.5 18.672 13.5 19.5Z" fill="white"/>
  <path d="M12 16.5C11.172 16.5 10.5 15.828 10.5 15V10.5C10.5 9.672 11.172 9 12 9C12.828 9 13.5 9.672 13.5 10.5V15C13.5 15.828 12.828 16.5 12 16.5Z" fill="white"/>
</svg>