<svg xmlns="http://www.w3.org/2000/svg" width="16" height="17" viewBox="0 0 16 17" fill="none">
  <path d="M6.66667 4.5V5.83333H3.33333V13.1667H10.6667V9.83333H12V13.8333C12 14.0101 11.9298 14.1797 11.8047 14.3047C11.6797 14.4298 11.5101 14.5 11.3333 14.5H2.66667C2.48986 14.5 2.32029 14.4298 2.19526 14.3047C2.07024 14.1797 2 14.0101 2 13.8333V5.16667C2 4.98986 2.07024 4.82029 2.19526 4.69526C2.32029 4.57024 2.48986 4.5 2.66667 4.5H6.66667ZM14 2.5V7.83333H12.6667V4.77533L7.47133 9.97133L6.52867 9.02867L11.7233 3.83333H8.66667V2.5H14Z" fill="white"/>
</svg>