<svg width="14" height="13" viewBox="0 0 14 13" fill="none" xmlns="http://www.w3.org/2000/svg">
<path fill-rule="evenodd" clip-rule="evenodd" d="M2.65967 3.375C2.49391 3.375 2.33494 3.44085 2.21773 3.55806C2.10052 3.67527 2.03467 3.83424 2.03467 4V10.875C2.03467 11.0408 2.10052 11.1997 2.21773 11.3169C2.33494 11.4342 2.49391 11.5 2.65967 11.5H9.53467C9.70043 11.5 9.8594 11.4342 9.97661 11.3169C10.0938 11.1997 10.1597 11.0408 10.1597 10.875V7.125C10.1597 6.77982 10.4395 6.5 10.7847 6.5C11.1298 6.5 11.4097 6.77982 11.4097 7.125V10.875C11.4097 11.3723 11.2121 11.8492 10.8605 12.2008C10.5089 12.5525 10.0319 12.75 9.53467 12.75H2.65967C2.16239 12.75 1.68547 12.5525 1.33384 12.2008C0.982212 11.8492 0.784668 11.3723 0.784668 10.875V4C0.784668 3.50272 0.982212 3.02581 1.33384 2.67417C1.68547 2.32254 2.16239 2.125 2.65967 2.125H6.40967C6.75485 2.125 7.03467 2.40482 7.03467 2.75C7.03467 3.09518 6.75485 3.375 6.40967 3.375H2.65967Z" fill="white"/>
<path fill-rule="evenodd" clip-rule="evenodd" d="M8.28467 0.875C8.28467 0.529822 8.56449 0.25 8.90967 0.25H12.6597C13.0048 0.25 13.2847 0.529822 13.2847 0.875V4.625C13.2847 4.97018 13.0048 5.25 12.6597 5.25C12.3145 5.25 12.0347 4.97018 12.0347 4.625V1.5H8.90967C8.56449 1.5 8.28467 1.22018 8.28467 0.875Z" fill="white"/>
<path fill-rule="evenodd" clip-rule="evenodd" d="M13.1016 0.433058C13.3457 0.677136 13.3457 1.07286 13.1016 1.31694L6.22661 8.19194C5.98253 8.43602 5.5868 8.43602 5.34273 8.19194C5.09865 7.94786 5.09865 7.55214 5.34273 7.30806L12.2177 0.433058C12.4618 0.188981 12.8575 0.188981 13.1016 0.433058Z" fill="white"/>
</svg>
