<svg xmlns="http://www.w3.org/2000/svg" width="20" height="21" viewBox="0 0 20 21" fill="none">
  <path d="M8.33333 5.5V7.16667H4.16667V16.3333H13.3333V12.1667H15V17.1667C15 17.3877 14.9122 17.5996 14.7559 17.7559C14.5996 17.9122 14.3877 18 14.1667 18H3.33333C3.11232 18 2.90036 17.9122 2.74408 17.7559C2.5878 17.5996 2.5 17.3877 2.5 17.1667V6.33333C2.5 6.11232 2.5878 5.90036 2.74408 5.74408C2.90036 5.5878 3.11232 5.5 3.33333 5.5H8.33333ZM17.5 3V9.66667H15.8333V5.84417L9.33917 12.3392L8.16083 11.1608L14.6542 4.66667H10.8333V3H17.5Z" fill="white"/>
</svg>