<svg width="18" height="19" viewBox="0 0 18 19" fill="none" xmlns="http://www.w3.org/2000/svg">
<g clip-path="url(#clip0_5544_396355)">
<path fill-rule="evenodd" clip-rule="evenodd" d="M11.7473 3.81493C10.4177 3.22251 8.93223 3.07575 7.51243 3.39653C6.09263 3.71732 4.81456 4.48846 3.86884 5.59496C2.92312 6.70145 2.36041 8.08401 2.26463 9.53645C2.16886 10.9889 2.54516 12.4334 3.3374 13.6545C4.12964 14.8756 5.29539 15.8078 6.66077 16.3123C8.02615 16.8167 9.51802 16.8663 10.9139 16.4536C12.3097 16.0409 13.5348 15.188 14.4063 14.0222C15.2778 12.8563 15.7492 11.44 15.75 9.98443V9.29486C15.75 8.88065 16.0858 8.54486 16.5 8.54486C16.9142 8.54486 17.25 8.88065 17.25 9.29486V9.98486C17.249 11.7639 16.6729 13.4954 15.6077 14.9203C14.5425 16.3452 13.0452 17.3876 11.3392 17.892C9.63313 18.3964 7.80974 18.3359 6.14094 17.7193C4.47214 17.1028 3.04734 15.9633 2.07904 14.4709C1.11074 12.9784 0.650828 11.2129 0.767883 9.43775C0.884939 7.66256 1.5727 5.97276 2.72858 4.62038C3.88447 3.26799 5.44655 2.32548 7.18186 1.93341C8.91716 1.54134 10.7327 1.72072 12.3578 2.44479C12.7361 2.61338 12.9062 3.05676 12.7376 3.43511C12.569 3.81347 12.1256 3.98352 11.7473 3.81493Z" fill="#8EC100"/>
<path fill-rule="evenodd" clip-rule="evenodd" d="M17.0301 3.45427C17.3231 3.74701 17.3233 4.22189 17.0306 4.51493L9.5306 12.0224C9.38997 12.1632 9.19916 12.2423 9.00019 12.2424C8.80121 12.2424 8.61037 12.1634 8.46967 12.0227L6.21967 9.77269C5.92678 9.4798 5.92678 9.00493 6.21967 8.71203C6.51256 8.41914 6.98744 8.41914 7.28033 8.71203L8.99973 10.4314L15.9694 3.4548C16.2622 3.16176 16.737 3.16152 17.0301 3.45427Z" fill="#8EC100"/>
</g>
<defs>
<clipPath id="clip0_5544_396355">
<rect width="18" height="18" fill="white" transform="translate(0 0.984863)"/>
</clipPath>
</defs>
</svg>
