<svg width="16" height="17" viewBox="0 0 16 17" fill="none" xmlns="http://www.w3.org/2000/svg">
<path d="M12.8438 6.9375V1.3125C12.8438 0.966797 12.5645 0.6875 12.2188 0.6875H3.78125C3.43555 0.6875 3.15625 0.966797 3.15625 1.3125V6.9375C1.86328 6.9375 0.8125 7.95508 0.8125 9.20312V16.1562C0.8125 16.2422 0.882812 16.3125 0.96875 16.3125H2.0625C2.14844 16.3125 2.21875 16.2422 2.21875 16.1562V9.20312C2.21875 8.72852 2.64063 8.34375 3.1582 8.34375H12.8418C13.3594 8.34375 13.7812 8.72852 13.7812 9.20312V16.1562C13.7812 16.2422 13.8516 16.3125 13.9375 16.3125H15.0312C15.1172 16.3125 15.1875 16.2422 15.1875 16.1562V9.20312C15.1875 7.95508 14.1367 6.9375 12.8438 6.9375ZM4.5625 6.9375V2.09375H11.4375V6.9375H4.5625ZM6.90625 3.34375H5.96875C5.88281 3.34375 5.8125 3.41406 5.8125 3.5V4.4375C5.8125 4.52344 5.88281 4.59375 5.96875 4.59375H6.90625C6.99219 4.59375 7.0625 4.52344 7.0625 4.4375V3.5C7.0625 3.41406 6.99219 3.34375 6.90625 3.34375ZM10.0312 3.34375H9.09375C9.00781 3.34375 8.9375 3.41406 8.9375 3.5V4.4375C8.9375 4.52344 9.00781 4.59375 9.09375 4.59375H10.0312C10.1172 4.59375 10.1875 4.52344 10.1875 4.4375V3.5C10.1875 3.41406 10.1172 3.34375 10.0312 3.34375Z" fill="white"/>
</svg>
