<svg width="20" height="21" viewBox="0 0 20 21" fill="none" xmlns="http://www.w3.org/2000/svg">
<path d="M15.8333 2.16669H4.16667C3.72464 2.16669 3.30072 2.34228 2.98816 2.65484C2.67559 2.9674 2.5 3.39133 2.5 3.83335V15.5C2.5 15.942 2.67559 16.366 2.98816 16.6785C3.30072 16.9911 3.72464 17.1667 4.16667 17.1667H7.5L10 19.6667L12.5 17.1667H15.8333C16.75 17.1667 17.5 16.4167 17.5 15.5V3.83335C17.5 2.91669 16.75 2.16669 15.8333 2.16669ZM15.8333 15.5H11.8083L11.3167 15.9917L10 17.3084L8.675 15.9834L8.19167 15.5H4.16667V3.83335H15.8333V15.5ZM9.16667 13H10.8333V14.6667H9.16667V13ZM10 6.33335C10.9167 6.33335 11.6667 7.08335 11.6667 8.00002C11.6667 9.66669 9.16667 9.45835 9.16667 12.1667H10.8333C10.8333 10.2917 13.3333 10.0834 13.3333 8.00002C13.3333 6.15835 11.8417 4.66669 10 4.66669C8.15833 4.66669 6.66667 6.15835 6.66667 8.00002H8.33333C8.33333 7.08335 9.08333 6.33335 10 6.33335Z" fill="white"/>
</svg>
