<svg xmlns="http://www.w3.org/2000/svg" width="16" height="17" viewBox="0 0 16 17" fill="none">
  <path d="M7.99992 15.1654C4.31792 15.1654 1.33325 12.1807 1.33325 8.4987C1.33325 4.8167 4.31792 1.83203 7.99992 1.83203C11.6819 1.83203 14.6666 4.8167 14.6666 8.4987C14.6666 12.1807 11.6819 15.1654 7.99992 15.1654ZM7.99992 13.832C9.41441 13.832 10.771 13.2701 11.7712 12.2699C12.7713 11.2697 13.3333 9.91319 13.3333 8.4987C13.3333 7.08421 12.7713 5.72766 11.7712 4.72746C10.771 3.72727 9.41441 3.16536 7.99992 3.16536C6.58543 3.16536 5.22888 3.72727 4.22868 4.72746C3.22849 5.72766 2.66659 7.08421 2.66659 8.4987C2.66659 9.91319 3.22849 11.2697 4.22868 12.2699C5.22888 13.2701 6.58543 13.832 7.99992 13.832ZM7.33325 10.4987H8.66659V11.832H7.33325V10.4987ZM8.66659 9.40203V9.83203H7.33325V8.83203C7.33325 8.65522 7.40349 8.48565 7.52851 8.36063C7.65354 8.2356 7.82311 8.16536 7.99992 8.16536C8.1893 8.16535 8.37479 8.11156 8.5348 8.01025C8.69481 7.90894 8.82276 7.76427 8.90377 7.59309C8.98477 7.4219 9.0155 7.23123 8.99237 7.04326C8.96925 6.85529 8.89322 6.67775 8.77314 6.53131C8.65306 6.38486 8.49386 6.27552 8.31407 6.21601C8.13427 6.1565 7.94128 6.14928 7.75754 6.19517C7.57379 6.24106 7.40686 6.33819 7.27616 6.47524C7.14546 6.6123 7.05637 6.78365 7.01925 6.96937L5.71125 6.70736C5.79234 6.30209 5.97959 5.92561 6.25387 5.61642C6.52814 5.30723 6.8796 5.07642 7.27231 4.94758C7.66503 4.81874 8.08491 4.79649 8.48904 4.88311C8.89317 4.96973 9.26705 5.16211 9.57246 5.44058C9.87788 5.71906 10.1039 6.07364 10.2273 6.46807C10.3508 6.86251 10.3673 7.28266 10.2752 7.68557C10.183 8.08848 9.98555 8.4597 9.70293 8.76127C9.42031 9.06285 9.06267 9.28397 8.66659 9.40203Z" fill="white"/>
</svg>