<svg width="14" height="14" viewBox="0 0 14 14" fill="none" xmlns="http://www.w3.org/2000/svg">
<path fill-rule="evenodd" clip-rule="evenodd" d="M6.99992 1.74999C4.10042 1.74999 1.74992 4.1005 1.74992 7C1.74992 9.89949 4.10042 12.25 6.99992 12.25C9.89941 12.25 12.2499 9.89949 12.2499 7C12.2499 4.1005 9.89941 1.74999 6.99992 1.74999ZM0.583252 7C0.583252 3.45617 3.45609 0.583328 6.99992 0.583328C10.5437 0.583328 13.4166 3.45617 13.4166 7C13.4166 10.5438 10.5437 13.4167 6.99992 13.4167C3.45609 13.4167 0.583252 10.5438 0.583252 7Z" fill="#D70000"/>
<path fill-rule="evenodd" clip-rule="evenodd" d="M9.1624 4.83752C9.3902 5.06532 9.3902 5.43467 9.1624 5.66247L5.6624 9.16247C5.43459 9.39028 5.06525 9.39028 4.83744 9.16247C4.60963 8.93467 4.60963 8.56532 4.83744 8.33752L8.33744 4.83752C8.56525 4.60971 8.93459 4.60971 9.1624 4.83752Z" fill="#D70000"/>
<path fill-rule="evenodd" clip-rule="evenodd" d="M4.83744 4.83752C5.06525 4.60971 5.43459 4.60971 5.6624 4.83752L9.1624 8.33752C9.3902 8.56532 9.3902 8.93467 9.1624 9.16247C8.93459 9.39028 8.56525 9.39028 8.33744 9.16247L4.83744 5.66247C4.60963 5.43467 4.60963 5.06532 4.83744 4.83752Z" fill="#D70000"/>
</svg>
