<svg width="14" height="14" viewBox="0 0 14 14" fill="none" xmlns="http://www.w3.org/2000/svg">
<path fill-rule="evenodd" clip-rule="evenodd" d="M9.13667 2.20116C8.10256 1.74039 6.94721 1.62624 5.84292 1.87574C4.73863 2.12523 3.74458 2.72501 3.00902 3.58562C2.27345 4.44623 1.83579 5.52156 1.7613 6.65122C1.68681 7.78089 1.97948 8.90438 2.59567 9.85412C3.21186 10.8039 4.11855 11.529 5.18052 11.9213C6.24248 12.3137 7.40282 12.3522 8.48848 12.0312C9.57414 11.7102 10.527 11.0469 11.2048 10.1401C11.8827 9.23336 12.2493 8.13178 12.2499 6.99966V6.46333C12.2499 6.14116 12.5111 5.87999 12.8333 5.87999C13.1554 5.87999 13.4166 6.14116 13.4166 6.46333V6.99999C13.4158 8.3837 12.9677 9.73041 12.1392 10.8387C11.3107 11.9469 10.1462 12.7577 8.81927 13.15C7.49235 13.5423 6.07416 13.4952 4.7762 13.0157C3.47825 12.5362 2.37007 11.6499 1.61695 10.4891C0.863831 9.32831 0.506118 7.95517 0.597161 6.57446C0.688204 5.19376 1.22313 3.87947 2.12215 2.82761C3.02117 1.77576 4.23612 1.0427 5.58581 0.737753C6.93549 0.43281 8.34759 0.572326 9.61151 1.13549C9.90578 1.26661 10.038 1.61147 9.90692 1.90574C9.7758 2.20002 9.43095 2.33228 9.13667 2.20116Z" fill="#8EC100"/>
<path fill-rule="evenodd" clip-rule="evenodd" d="M13.2454 1.92065C13.4734 2.14834 13.4735 2.51769 13.2459 2.74561L7.41252 8.58477C7.30315 8.69426 7.15474 8.7558 6.99998 8.75583C6.84522 8.75587 6.69679 8.69441 6.58736 8.58498L4.83736 6.83498C4.60955 6.60717 4.60955 6.23783 4.83736 6.01002C5.06516 5.78222 5.43451 5.78222 5.66232 6.01002L6.99963 7.34734L12.4205 1.92106C12.6482 1.69314 13.0175 1.69296 13.2454 1.92065Z" fill="#8EC100"/>
</svg>
