<svg width="18" height="19" viewBox="0 0 18 19" fill="none" xmlns="http://www.w3.org/2000/svg">
<path fill-rule="evenodd" clip-rule="evenodd" d="M13.1887 0.863738C14.1968 1.06919 15.1298 1.5455 15.8874 2.24146C16.645 2.93742 17.1987 3.82671 17.4888 4.81374C17.7575 5.71874 17.7975 6.67624 17.605 7.60124C17.3268 8.86854 16.6265 10.0039 15.619 10.8213C14.6114 11.6388 13.3562 12.0901 12.0587 12.1012C11.5112 12.1012 10.9663 12.0225 10.4425 11.8637L9.4425 13.0362L8.96875 13.255H7.75V15.13L7.125 15.755H5.25V17.63L4.625 18.255H0.875L0.25 17.63V14.7462L0.4325 14.305L6.65 8.08749C6.47355 7.51915 6.38915 6.92624 6.4 6.33124C6.41139 5.49878 6.60629 4.67909 6.97079 3.93059C7.3353 3.1821 7.86043 2.52323 8.50877 2.00095C9.15711 1.47868 9.91268 1.10586 10.7216 0.909073C11.5306 0.712288 12.373 0.696382 13.1887 0.862488V0.863738ZM14.8362 9.86374C15.6215 9.22787 16.1675 8.34422 16.385 7.35749L16.39 7.36374C16.5449 6.64224 16.517 5.89348 16.3089 5.18549C16.1009 4.4775 15.7192 3.83273 15.1986 3.30975C14.6779 2.78678 14.0349 2.40218 13.3279 2.19091C12.6208 1.97963 11.8722 1.94838 11.15 2.09999C10.176 2.31617 9.30228 2.85201 8.66802 3.62218C8.03376 4.39236 7.6754 5.35259 7.65 6.34999C7.6375 6.91999 7.7375 7.48499 7.94875 8.01249L7.81125 8.69124L1.5 15.005V17.005H4V15.13L4.625 14.505H6.5V12.63L7.125 12.005H8.68125L9.77625 10.735L10.4775 10.56C10.983 10.7575 11.521 10.8584 12.0638 10.8575C13.0738 10.8497 14.0513 10.4994 14.8362 9.86374ZM13.7888 6.44874C13.8873 6.31255 13.9574 6.15788 13.9948 5.99399C14.0322 5.83009 14.0361 5.66033 14.0064 5.49487C13.9767 5.32941 13.9139 5.17165 13.8218 5.03102C13.7297 4.89039 13.6101 4.76978 13.4703 4.67641C13.3305 4.58305 13.1734 4.51884 13.0082 4.48763C12.843 4.45642 12.6732 4.45885 12.509 4.49478C12.3447 4.5307 12.1895 4.59939 12.0524 4.69672C11.9153 4.79405 11.7993 4.91803 11.7112 5.06124C11.5419 5.33672 11.4859 5.66712 11.555 5.98304C11.6241 6.29895 11.8129 6.57578 12.0819 6.75539C12.3508 6.93499 12.6788 7.00339 12.9971 6.9462C13.3154 6.88902 13.5992 6.71072 13.7888 6.44874Z" fill="white"/>
</svg>
