<svg width="20" height="21" viewBox="0 0 20 21" fill="none" xmlns="http://www.w3.org/2000/svg">
<g clip-path="url(#clip0_7216_32102)">
<path d="M1.56236 0.5C3.7105 0.5 5.85912 0.5 8.00725 0.5C8.04345 0.511741 8.07917 0.526417 8.11635 0.534245C8.73129 0.668778 9.20436 1.00731 9.40347 1.60611C9.54338 2.02585 9.57714 2.4818 9.64514 2.92405C9.70238 3.29536 9.74102 3.66961 9.78946 4.05462H10.038C12.7262 4.05462 15.4144 4.04924 18.1022 4.06245C18.3996 4.06392 18.721 4.11724 18.9881 4.24052C19.6828 4.55998 19.9964 5.1485 19.9979 5.90433C20.0008 7.34947 19.9988 8.79411 19.9988 10.2392C19.9988 13.0317 19.9984 15.8236 19.9993 18.616C19.9993 19.0436 19.9088 19.4413 19.6451 19.7877C19.2655 20.2862 18.7523 20.5 18.1359 20.5C16.3914 20.499 14.6473 20.5 12.9028 20.5C11.5227 20.5 10.1432 20.502 8.76309 20.499C7.95002 20.4971 7.3067 20.0758 7.04644 19.3303C6.94126 19.028 6.92071 18.6948 6.8757 18.3734C6.81015 17.9047 6.75683 17.4341 6.69616 16.9454C6.60762 16.9454 6.5313 16.9454 6.45498 16.9454C4.91885 16.9454 3.38272 16.9454 1.8466 16.9454C1.2297 16.9454 0.699881 16.7345 0.351562 16.216C0.186697 15.9704 0.113804 15.6627 -0.000671387 15.3828C-0.000182174 10.9422 -0.000182174 6.50215 -0.000182174 2.06255C0.0100913 2.03221 0.0252569 2.00237 0.0306382 1.97106C0.10402 1.53762 0.313892 1.18539 0.649492 0.901644C0.915624 0.676117 1.23312 0.576806 1.56236 0.5ZM9.93475 5.22628C9.99639 5.71745 10.0556 6.18172 10.1133 6.64598C10.3012 8.16254 10.4881 9.6791 10.6764 11.1957C10.8809 12.8414 11.08 14.4876 11.2972 16.1313C11.3383 16.441 11.2478 16.667 11.0502 16.8916C10.3794 17.6538 9.7195 18.4252 9.05661 19.1938C9.02628 19.229 9.0028 19.2696 8.9622 19.3274H9.18674C12.148 19.3274 15.1092 19.3274 18.0709 19.3274C18.6251 19.3274 18.8272 19.1278 18.8272 18.5798C18.8272 14.3755 18.8272 10.1708 18.8272 5.96646C18.8272 5.43078 18.6217 5.22628 18.0831 5.22628C15.4472 5.22628 12.8113 5.22628 10.1754 5.22628H9.93524H9.93475ZM10.0659 15.7727C10.0438 15.5971 10.0238 15.443 10.0047 15.2889C9.72635 13.0424 9.44896 10.7965 9.17011 8.55C8.91181 6.47182 8.65155 4.39364 8.39373 2.31498C8.33845 1.86882 8.12271 1.67166 7.67361 1.67166C5.7466 1.67166 3.82008 1.67166 1.89307 1.67166C1.38331 1.67166 1.17148 1.88398 1.17148 2.39521C1.17148 6.61369 1.17148 10.8317 1.17148 15.0502C1.17148 15.5604 1.3838 15.7722 1.89454 15.7722C4.54412 15.7722 7.1932 15.7722 9.84278 15.7722H10.0659V15.7727ZM9.44065 16.9557H7.88055C7.94463 17.4752 8.00725 17.9815 8.07525 18.5334C8.54245 17.9933 8.97883 17.4889 9.44065 16.9557Z" fill="white"/>
<path d="M13.8706 13.084C13.6818 12.8154 13.5022 12.5694 13.333 12.3164C12.9876 11.7998 12.7278 11.2412 12.538 10.6502C12.5043 10.5455 12.4607 10.4985 12.3384 10.4941C11.9969 10.4829 11.7558 10.2285 11.7587 9.90854C11.7616 9.58126 12.017 9.33274 12.3683 9.32931C12.8761 9.32442 13.3834 9.32785 13.8912 9.32785C13.9548 9.32785 14.0179 9.32785 14.101 9.32785C14.101 9.12971 14.0981 8.94919 14.1015 8.76916C14.1089 8.41742 14.3525 8.16205 14.6793 8.15765C15.0139 8.15325 15.2644 8.41253 15.2717 8.77406C15.2752 8.94919 15.2722 9.12433 15.2722 9.32785C15.3436 9.32785 15.4058 9.32785 15.4679 9.32785C15.9689 9.32785 16.4703 9.32589 16.9713 9.32833C17.3435 9.33029 17.6028 9.5612 17.6146 9.89386C17.6258 10.2251 17.3802 10.4677 17.0109 10.5029C16.9561 10.5083 16.8744 10.5558 16.8592 10.6013C16.5652 11.5024 16.1112 12.3145 15.4968 13.0649C15.7433 13.2733 15.983 13.4793 16.2267 13.6804C16.4126 13.8335 16.6068 13.9759 16.7917 14.1304C17.0632 14.3574 17.1063 14.7038 16.9018 14.9631C16.6973 15.2224 16.348 15.2659 16.0667 15.0453C15.6059 14.6842 15.1553 14.3105 14.6817 13.9264C14.6304 13.9675 14.5712 14.014 14.513 14.062C14.1353 14.3711 13.7606 14.6833 13.3804 14.9895C13.0429 15.261 12.6906 15.2463 12.4685 14.9592C12.2499 14.6774 12.3184 14.3423 12.6461 14.0776C13.0556 13.7469 13.4631 13.4147 13.8706 13.0835V13.084ZM14.6881 12.2025C15.0981 11.6726 15.419 11.1262 15.6347 10.5108H13.7366C13.9616 11.1301 14.2737 11.677 14.6881 12.2025Z" fill="white"/>
<path d="M6.11421 9.33371H4.50421C4.3956 9.87527 4.28749 10.4144 4.17937 10.9535C4.16127 11.0425 4.14708 11.133 4.12213 11.2201C4.03261 11.5366 3.73664 11.725 3.4387 11.6594C3.11582 11.588 2.91916 11.2876 2.98374 10.951C3.06592 10.5235 3.15496 10.0974 3.24008 9.67077C3.53899 8.18014 3.83643 6.68951 4.13632 5.19937C4.21411 4.8124 4.42202 4.64411 4.81535 4.64118C5.14704 4.63873 5.47872 4.63873 5.8109 4.64118C6.20325 4.64411 6.41018 4.8124 6.48797 5.20133C6.87249 7.11219 7.25505 9.02306 7.63713 10.9339C7.70709 11.2837 7.51385 11.5885 7.18412 11.6604C6.86613 11.7294 6.56086 11.5156 6.48748 11.1624C6.36615 10.5773 6.25168 9.99072 6.13378 9.40464C6.12986 9.38605 6.1235 9.36795 6.11421 9.33468V9.33371ZM5.20574 5.81871C5.04919 6.60341 4.89656 7.37001 4.74148 8.14639H5.88379C5.72675 7.36169 5.57167 6.58873 5.41757 5.81871H5.20574Z" fill="white"/>
</g>
<defs>
<clipPath id="clip0_7216_32102">
<rect width="20" height="20" fill="white" transform="translate(0 0.5)"/>
</clipPath>
</defs>
</svg>
