<svg width="35" height="35" viewBox="0 0 35 35" fill="none" xmlns="http://www.w3.org/2000/svg">
<g id="Group">
<path id="Vector" d="M17.5 2.91675C17.8867 2.91675 18.2577 3.07039 18.5312 3.34388C18.8046 3.61737 18.9583 3.98831 18.9583 4.37508V8.75008C18.9583 9.13686 18.8046 9.50779 18.5312 9.78128C18.2577 10.0548 17.8867 10.2084 17.5 10.2084C17.1132 10.2084 16.7423 10.0548 16.4688 9.78128C16.1953 9.50779 16.0416 9.13686 16.0416 8.75008V4.37508C16.0416 3.98831 16.1953 3.61737 16.4688 3.34388C16.7423 3.07039 17.1132 2.91675 17.5 2.91675ZM17.5 24.7917C17.8867 24.7917 18.2577 24.9454 18.5312 25.2189C18.8046 25.4924 18.9583 25.8633 18.9583 26.2501V30.6251C18.9583 31.0119 18.8046 31.3828 18.5312 31.6563C18.2577 31.9298 17.8867 32.0834 17.5 32.0834C17.1132 32.0834 16.7423 31.9298 16.4688 31.6563C16.1953 31.3828 16.0416 31.0119 16.0416 30.6251V26.2501C16.0416 25.8633 16.1953 25.4924 16.4688 25.2189C16.7423 24.9454 17.1132 24.7917 17.5 24.7917ZM32.0833 17.5001C32.0833 17.8869 31.9296 18.2578 31.6562 18.5313C31.3827 18.8048 31.0117 18.9584 30.625 18.9584H26.25C25.8632 18.9584 25.4923 18.8048 25.2188 18.5313C24.9453 18.2578 24.7916 17.8869 24.7916 17.5001C24.7916 17.1133 24.9453 16.7424 25.2188 16.4689C25.4923 16.1954 25.8632 16.0417 26.25 16.0417H30.625C31.0117 16.0417 31.3827 16.1954 31.6562 16.4689C31.9296 16.7424 32.0833 17.1133 32.0833 17.5001ZM10.2083 17.5001C10.2083 17.8869 10.0546 18.2578 9.78116 18.5313C9.50767 18.8048 9.13673 18.9584 8.74996 18.9584H4.37496C3.98819 18.9584 3.61725 18.8048 3.34376 18.5313C3.07027 18.2578 2.91663 17.8869 2.91663 17.5001C2.91663 17.1133 3.07027 16.7424 3.34376 16.4689C3.61725 16.1954 3.98819 16.0417 4.37496 16.0417H8.74996C9.13673 16.0417 9.50767 16.1954 9.78116 16.4689C10.0546 16.7424 10.2083 17.1133 10.2083 17.5001ZM27.8118 27.812C27.5384 28.0853 27.1675 28.2389 26.7808 28.2389C26.3941 28.2389 26.0232 28.0853 25.7497 27.812L22.6566 24.7188C22.391 24.4438 22.244 24.0754 22.2473 23.693C22.2506 23.3107 22.404 22.9449 22.6744 22.6745C22.9448 22.4041 23.3105 22.2508 23.6929 22.2474C24.0753 22.2441 24.4437 22.3911 24.7187 22.6567L27.8118 25.7484C27.9474 25.8839 28.055 26.0447 28.1284 26.2217C28.2018 26.3988 28.2395 26.5885 28.2395 26.7802C28.2395 26.9718 28.2018 27.1616 28.1284 27.3386C28.055 27.5157 27.9474 27.6765 27.8118 27.812ZM12.3433 12.3434C12.0698 12.6168 11.6989 12.7704 11.3123 12.7704C10.9256 12.7704 10.5547 12.6168 10.2812 12.3434L7.18954 9.25175C6.9159 8.9783 6.76209 8.60735 6.76196 8.22049C6.76182 7.83364 6.91536 7.46258 7.18881 7.18894C7.46226 6.91529 7.83322 6.76148 8.22007 6.76135C8.60692 6.76121 8.97798 6.91476 9.25163 7.18821L12.3433 10.2813C12.6167 10.5548 12.7703 10.9257 12.7703 11.3124C12.7703 11.6991 12.6167 12.0699 12.3433 12.3434ZM7.18954 27.812C6.91615 27.5385 6.76256 27.1676 6.76256 26.7809C6.76256 26.3942 6.91615 26.0233 7.18954 25.7499L10.2827 22.6567C10.4172 22.5175 10.5781 22.4064 10.756 22.3299C10.934 22.2535 11.1253 22.2133 11.319 22.2116C11.5126 22.2099 11.7046 22.2468 11.8839 22.3201C12.0631 22.3935 12.2259 22.5017 12.3628 22.6387C12.4998 22.7756 12.608 22.9384 12.6814 23.1176C12.7547 23.2969 12.7916 23.4889 12.7899 23.6825C12.7882 23.8762 12.748 24.0675 12.6716 24.2455C12.5951 24.4234 12.484 24.5843 12.3448 24.7188L9.25308 27.812C9.11764 27.9475 8.95681 28.0551 8.77977 28.1285C8.60273 28.2019 8.41296 28.2397 8.22131 28.2397C8.02967 28.2397 7.8399 28.2019 7.66286 28.1285C7.48582 28.0551 7.32498 27.9475 7.18954 27.812ZM22.6566 12.3434C22.3832 12.0699 22.2296 11.6991 22.2296 11.3124C22.2296 10.9257 22.3832 10.5548 22.6566 10.2813L25.7483 7.18821C26.0217 6.91456 26.3927 6.76076 26.7795 6.76062C27.1664 6.76048 27.5375 6.91403 27.8111 7.18748C28.0847 7.46093 28.2386 7.83188 28.2387 8.21873C28.2388 8.60558 28.0853 8.97665 27.8118 9.25029L24.7187 12.3434C24.4452 12.6168 24.0744 12.7704 23.6877 12.7704C23.301 12.7704 22.9301 12.6168 22.6566 12.3434Z" fill="white"/>
</g>
</svg>
