<svg width="20" height="21" viewBox="0 0 20 21" fill="none" xmlns="http://www.w3.org/2000/svg">
<path fill-rule="evenodd" clip-rule="evenodd" d="M4.16669 10.5C3.70645 10.5 3.33335 10.8731 3.33335 11.3333V17.1666C3.33335 17.6269 3.70645 18 4.16669 18H15.8334C16.2936 18 16.6667 17.6269 16.6667 17.1666V11.3333C16.6667 10.8731 16.2936 10.5 15.8334 10.5H4.16669ZM1.66669 11.3333C1.66669 9.9526 2.78598 8.83331 4.16669 8.83331H15.8334C17.2141 8.83331 18.3334 9.9526 18.3334 11.3333V17.1666C18.3334 18.5474 17.2141 19.6666 15.8334 19.6666H4.16669C2.78598 19.6666 1.66669 18.5474 1.66669 17.1666V11.3333Z" fill="white"/>
<path fill-rule="evenodd" clip-rule="evenodd" d="M10 2.99998C9.11594 2.99998 8.2681 3.35117 7.64298 3.97629C7.01786 4.60141 6.66667 5.44926 6.66667 6.33331V9.66665C6.66667 10.1269 6.29357 10.5 5.83333 10.5C5.3731 10.5 5 10.1269 5 9.66665V6.33331C5 5.00723 5.52678 3.73546 6.46447 2.79778C7.40215 1.8601 8.67392 1.33331 10 1.33331C11.3261 1.33331 12.5979 1.8601 13.5355 2.79778C14.4732 3.73546 15 5.00723 15 6.33331V9.66665C15 10.1269 14.6269 10.5 14.1667 10.5C13.7064 10.5 13.3333 10.1269 13.3333 9.66665V6.33331C13.3333 5.44926 12.9821 4.60141 12.357 3.97629C11.7319 3.35117 10.8841 2.99998 10 2.99998Z" fill="white"/>
</svg>
