<svg width="20" height="21" viewBox="0 0 20 21" fill="none" xmlns="http://www.w3.org/2000/svg">
<path d="M9.99998 12.1667V13.8333C8.6739 13.8333 7.40213 14.3601 6.46445 15.2978C5.52676 16.2355 4.99998 17.5073 4.99998 18.8333H3.33331C3.33331 17.0652 4.03569 15.3695 5.28593 14.1193C6.53618 12.869 8.23187 12.1667 9.99998 12.1667ZM9.99998 11.3333C7.23748 11.3333 4.99998 9.09584 4.99998 6.33334C4.99998 3.57084 7.23748 1.33334 9.99998 1.33334C12.7625 1.33334 15 3.57084 15 6.33334C15 9.09584 12.7625 11.3333 9.99998 11.3333ZM9.99998 9.66667C11.8416 9.66667 13.3333 8.175 13.3333 6.33334C13.3333 4.49167 11.8416 3 9.99998 3C8.15831 3 6.66665 4.49167 6.66665 6.33334C6.66665 8.175 8.15831 9.66667 9.99998 9.66667ZM12.1625 16.1767C12.0568 15.732 12.0568 15.2688 12.1625 14.8242L11.3358 14.3467L12.1691 12.9033L12.9958 13.3808C13.3276 13.0666 13.7287 12.8348 14.1666 12.7042V11.75H15.8333V12.7042C16.2766 12.8358 16.6766 13.0708 17.0041 13.3808L17.8308 12.9033L18.6641 14.3467L17.8375 14.8242C17.943 15.2685 17.943 15.7315 17.8375 16.1758L18.6641 16.6533L17.8308 18.0967L17.0041 17.6192C16.6723 17.9334 16.2713 18.1652 15.8333 18.2958V19.25H14.1666V18.2958C13.7287 18.1652 13.3276 17.9334 12.9958 17.6192L12.1691 18.0967L11.3358 16.6533L12.1625 16.1767ZM15 16.75C15.3315 16.75 15.6494 16.6183 15.8839 16.3839C16.1183 16.1495 16.25 15.8315 16.25 15.5C16.25 15.1685 16.1183 14.8505 15.8839 14.6161C15.6494 14.3817 15.3315 14.25 15 14.25C14.6685 14.25 14.3505 14.3817 14.1161 14.6161C13.8817 14.8505 13.75 15.1685 13.75 15.5C13.75 15.8315 13.8817 16.1495 14.1161 16.3839C14.3505 16.6183 14.6685 16.75 15 16.75Z" fill="white"/>
</svg>
