<svg xmlns="http://www.w3.org/2000/svg" width="17" height="17" viewBox="0 0 17 17" fill="none">
  <path d="M6.49992 2.16699H3.16659C2.43125 2.16699 1.83325 2.76433 1.83325 3.50033V6.83366C1.83325 7.56966 2.43125 8.16699 3.16659 8.16699H6.49992C7.23525 8.16699 7.83325 7.56966 7.83325 6.83366V3.50033C7.83325 2.76433 7.23525 2.16699 6.49992 2.16699ZM6.49992 6.83366H3.16659V3.50033H6.49992V6.83366ZM13.8333 2.16699H10.4999C9.76392 2.16699 9.16658 2.76433 9.16658 3.50033V6.83366C9.16658 7.56966 9.76392 8.16699 10.4999 8.16699H13.8333C14.5693 8.16699 15.1666 7.56966 15.1666 6.83366V3.50033C15.1666 2.76433 14.5693 2.16699 13.8333 2.16699ZM13.8333 6.83366H10.4999V3.50033H13.8333V6.83366ZM6.49992 9.50033H3.16659C2.43125 9.50033 1.83325 10.0977 1.83325 10.8337V14.167C1.83325 14.903 2.43125 15.5003 3.16659 15.5003H6.49992C7.23525 15.5003 7.83325 14.903 7.83325 14.167V10.8337C7.83325 10.0977 7.23525 9.50033 6.49992 9.50033ZM6.49992 14.167H3.16659V10.8337H6.49992V14.167ZM13.8333 9.50033H10.4999C9.76392 9.50033 9.16658 10.0977 9.16658 10.8337V14.167C9.16658 14.903 9.76392 15.5003 10.4999 15.5003H13.8333C14.5693 15.5003 15.1666 14.903 15.1666 14.167V10.8337C15.1666 10.0977 14.5693 9.50033 13.8333 9.50033ZM13.8333 14.167H10.4999V10.8337H13.8333V14.167Z" fill="white"/>
</svg>