<svg width="23" height="24" viewBox="0 0 23 24" fill="none" xmlns="http://www.w3.org/2000/svg">
<mask id="mask0_5780_2029" style="mask-type:luminance" maskUnits="userSpaceOnUse" x="4" y="12" width="18" height="8">
<path d="M19.2493 12.2187L11.526 16.6263L4.61719 12.2187L4.69473 15.9872L11.526 19.9458L21.95 13.9056L19.2493 12.2187Z" fill="white"/>
</mask>
<g mask="url(#mask0_5780_2029)">
<path d="M21.9499 18.2362L18.1702 18.9911L16.8274 12.2187H21.9499V18.2362Z" fill="#801F49"/>
<path d="M18.1703 18.9911L18.0998 19.005L16.7542 12.2187H16.8274L18.1703 18.9911Z" fill="#801F49"/>
<path d="M18.0999 19.005L18.0291 19.0192L16.6809 12.2187H16.7542L18.0999 19.005Z" fill="#811F49"/>
<path d="M18.029 19.0192L17.9585 19.0334L16.6072 12.2187H16.6808L18.029 19.0192Z" fill="#811F4A"/>
<path d="M17.9585 19.0334L17.8878 19.0474L16.5339 12.2187H16.6072L17.9585 19.0334Z" fill="#821F4A"/>
<path d="M17.8879 19.0474L17.8174 19.0616L16.4604 12.2187H16.534L17.8879 19.0474Z" fill="#831F4A"/>
<path d="M17.8172 19.0616L17.7465 19.0758L16.387 12.2187H16.4603L17.8172 19.0616Z" fill="#83204B"/>
<path d="M17.7465 19.0758L17.6761 19.0897L16.3137 12.2187H16.387L17.7465 19.0758Z" fill="#84204B"/>
<path d="M17.6762 19.0897L17.6054 19.1039L16.2402 12.2187H16.3138L17.6762 19.0897Z" fill="#85204C"/>
<path d="M17.6055 19.1039L17.535 19.1181L16.167 12.2187H16.2403L17.6055 19.1039Z" fill="#86204C"/>
<path d="M17.5349 19.1181L17.4641 19.132L16.0933 12.2187H16.1668L17.5349 19.1181Z" fill="#87204C"/>
<path d="M17.4642 19.132L17.3934 19.1462L16.02 12.2187H16.0933L17.4642 19.132Z" fill="#87204D"/>
<path d="M17.3935 19.1462L17.323 19.1601L15.9468 12.2187H16.0201L17.3935 19.1462Z" fill="#88204D"/>
<path d="M17.3231 19.1601L17.2523 19.1743L15.8733 12.2187H15.9469L17.3231 19.1601Z" fill="#89214E"/>
<path d="M17.2522 19.1743L17.1817 19.1885L15.7998 12.2187H15.8731L17.2522 19.1743Z" fill="#8A214E"/>
<path d="M17.1818 19.1885L17.111 19.2024L15.7263 12.2187H15.7999L17.1818 19.1885Z" fill="#8B214F"/>
<path d="M17.1111 19.2024L17.0406 19.2166L15.6531 12.2187H15.7264L17.1111 19.2024Z" fill="#8C214F"/>
<path d="M17.0405 19.2166L16.9697 19.2308L15.5793 12.2187H15.6529L17.0405 19.2166Z" fill="#8D2150"/>
<path d="M16.9698 19.2308L16.8993 19.2448L15.5061 12.2187H15.5794L16.9698 19.2308Z" fill="#8E2150"/>
<path d="M16.8994 19.2448L16.8286 19.259L15.4329 12.2187H15.5062L16.8994 19.2448Z" fill="#8F2251"/>
<path d="M16.8285 19.259L16.758 19.2732L15.3591 12.2187H15.4327L16.8285 19.259Z" fill="#902251"/>
<path d="M16.758 19.2732L16.6873 19.2871L15.2859 12.2187H15.3592L16.758 19.2732Z" fill="#912252"/>
<path d="M16.6874 19.2871L16.6169 19.3013L15.2124 12.2187H15.286L16.6874 19.2871Z" fill="#912252"/>
<path d="M16.617 19.3013L16.5462 19.3155L15.1392 12.2187H15.2125L16.617 19.3013Z" fill="#922253"/>
<path d="M16.546 19.3155L16.4756 19.3294L15.0657 12.2187H15.139L16.546 19.3155Z" fill="#932253"/>
<path d="M16.4757 19.3294L16.4049 19.3436L14.9922 12.2187H15.0658L16.4757 19.3294Z" fill="#942354"/>
<path d="M16.405 19.3436L16.3345 19.3578L14.9189 12.2187H14.9922L16.405 19.3436Z" fill="#952354"/>
<path d="M16.3344 19.3578L16.2636 19.3717L14.8452 12.2187H14.9188L16.3344 19.3578Z" fill="#962355"/>
<path d="M16.2637 19.3717L16.1929 19.3859L14.772 12.2187H14.8453L16.2637 19.3717Z" fill="#972355"/>
<path d="M16.193 19.3859L16.1225 19.4001L14.6985 12.2187H14.7721L16.193 19.3859Z" fill="#982356"/>
<path d="M16.1226 19.4001L16.0518 19.414L14.6252 12.2187H14.6985L16.1226 19.4001Z" fill="#992356"/>
<path d="M16.0516 19.414L15.9812 19.4283L14.5518 12.2187H14.6251L16.0516 19.414Z" fill="#9A2457"/>
<path d="M15.9813 19.4283L15.9105 19.4425L14.4783 12.2187H14.5519L15.9813 19.4283Z" fill="#9B2457"/>
<path d="M15.9106 19.4425L15.8401 19.4564L14.405 12.2187H14.4783L15.9106 19.4425Z" fill="#9C2458"/>
<path d="M15.84 19.4564L15.7692 19.4706L14.3313 12.2187H14.4049L15.84 19.4564Z" fill="#9D2458"/>
<path d="M15.7693 19.4706L15.6988 19.4848L14.2581 12.2187H14.3314L15.7693 19.4706Z" fill="#9F2459"/>
<path d="M15.6989 19.4848L15.6281 19.4987L14.1848 12.2187H14.2581L15.6989 19.4848Z" fill="#A02459"/>
<path d="M15.628 19.4987L15.5575 19.5129L14.1111 12.2187H14.1847L15.628 19.4987Z" fill="#A1255A"/>
<path d="M15.5575 19.5129L15.4868 19.5271L14.0378 12.2187H14.1111L15.5575 19.5129Z" fill="#A2255B"/>
<path d="M15.4869 19.5271L15.4164 19.541L13.9644 12.2187H14.0379L15.4869 19.5271Z" fill="#A3255B"/>
<path d="M15.4165 19.541L15.3457 19.5552L13.8911 12.2187H13.9644L15.4165 19.541Z" fill="#A4255C"/>
<path d="M15.3456 19.5552L15.2748 19.5694L13.8174 12.2187H13.891L15.3456 19.5552Z" fill="#A5255C"/>
<path d="M15.2749 19.5694L15.2044 19.5833L13.7441 12.2187H13.8174L15.2749 19.5694Z" fill="#A6265D"/>
<path d="M15.2045 19.5833L15.1337 19.5975L13.6709 12.2187H13.7442L15.2045 19.5833Z" fill="#A7265D"/>
<path d="M15.1338 19.5975L15.0633 19.6117L13.5974 12.2187H13.671L15.1338 19.5975Z" fill="#A8265E"/>
<path d="M15.0632 19.6117L14.9924 19.6257L13.5239 12.2187H13.5972L15.0632 19.6117Z" fill="#A9265E"/>
<path d="M14.9925 19.6257L14.922 19.6399L13.4504 12.2187H13.524L14.9925 19.6257Z" fill="#AA265F"/>
<path d="M14.9221 19.6399L14.8513 19.6541L13.3772 12.2187H13.4505L14.9221 19.6399Z" fill="#AB2760"/>
<path d="M14.8511 19.6541L14.7807 19.668L13.3037 12.2187H13.377L14.8511 19.6541Z" fill="#AC2760"/>
<path d="M14.7808 19.668L14.71 19.6822L13.2302 12.2187H13.3038L14.7808 19.668Z" fill="#AD2761"/>
<path d="M14.7101 19.6822L14.6396 19.6961L13.157 12.2187H13.2303L14.7101 19.6822Z" fill="#AF2761"/>
<path d="M14.6395 19.6961L14.5687 19.7103L13.0833 12.2187H13.1568L14.6395 19.6961Z" fill="#B02762"/>
<path d="M14.5688 19.7103L14.4983 19.7245L13.01 12.2187H13.0833L14.5688 19.7103Z" fill="#B12762"/>
<path d="M14.4984 19.7245L14.4276 19.7384L12.9365 12.2187H13.0101L14.4984 19.7245Z" fill="#B22863"/>
<path d="M14.4277 19.7384L14.3572 19.7526L12.8633 12.2187H12.9366L14.4277 19.7384Z" fill="#B32864"/>
<path d="M14.357 19.7526L14.2863 19.7668L12.7898 12.2187H12.8631L14.357 19.7526Z" fill="#B42864"/>
<path d="M14.2864 19.7668L14.2159 19.7807L12.7163 12.2187H12.7899L14.2864 19.7668Z" fill="#B52865"/>
<path d="M14.216 19.7807L14.1452 19.7949L12.6431 12.2187H12.7164L14.216 19.7807Z" fill="#B62865"/>
<path d="M14.1451 19.7949L14.0746 19.8091L12.5693 12.2187H12.6429L14.1451 19.7949Z" fill="#B72966"/>
<path d="M14.0747 19.8091L14.0039 19.8231L12.4961 12.2187H12.5694L14.0747 19.8091Z" fill="#B92966"/>
<path d="M14.004 19.8231L13.9332 19.8373L12.4229 12.2187H12.4961L14.004 19.8231Z" fill="#BA2967"/>
<path d="M13.9333 19.8373L13.8628 19.8515L12.3494 12.2187H12.4229L13.9333 19.8373Z" fill="#BB2968"/>
<path d="M13.8626 19.8515L13.7919 19.8654L12.2759 12.2187H12.3492L13.8626 19.8515Z" fill="#BC2968"/>
<path d="M13.792 19.8654L13.7215 19.8796L12.2024 12.2187H12.276L13.792 19.8654Z" fill="#BD2A69"/>
<path d="M13.7216 19.8796L13.6508 19.8938L12.1292 12.2187H12.2024L13.7216 19.8796Z" fill="#BE2A69"/>
<path d="M13.6509 19.8938L13.5804 19.9077L12.0559 12.2187H12.1292L13.6509 19.8938Z" fill="#BF2A6A"/>
<path d="M13.5803 19.9077L13.5095 19.9219L11.9822 12.2187H12.0558L13.5803 19.9077Z" fill="#C12A6B"/>
<path d="M13.5096 19.9219L13.4391 19.9361L11.9089 12.2187H11.9822L13.5096 19.9219Z" fill="#C22A6B"/>
<path d="M13.4392 19.9361L13.39 19.9458H13.3676L11.8354 12.2187H11.909L13.4392 19.9361Z" fill="#C32B6C"/>
<path d="M13.2941 19.9458L11.762 12.2187H11.8353L13.3674 19.9458H13.2941Z" fill="#C42B6C"/>
<path d="M13.2206 19.9458L11.6887 12.2187H11.762L13.2942 19.9458H13.2206Z" fill="#C52B6D"/>
<path d="M13.1474 19.9458L11.6152 12.2187H11.6888L13.2207 19.9458H13.1474Z" fill="#C62B6E"/>
<path d="M13.0741 19.9458L11.542 12.2187H11.6153L13.1474 19.9458H13.0741Z" fill="#C72B6E"/>
<path d="M13.0004 19.9458L11.4683 12.2187H11.5418L13.074 19.9458H13.0004Z" fill="#C92C6F"/>
<path d="M12.9272 19.9458L11.395 12.2187H11.4683L13.0005 19.9458H12.9272Z" fill="#CA2C6F"/>
<path d="M12.8534 19.9458L11.3213 12.2187H11.3949L12.927 19.9458H12.8534Z" fill="#CB2C70"/>
<path d="M12.7524 19.9458L11.2202 12.2187H11.3215L12.8537 19.9458H12.7524Z" fill="#CB2C70"/>
<path d="M12.6506 19.9458L11.1184 12.2187H11.22L12.7522 19.9458H12.6506Z" fill="#CC2C71"/>
<path d="M12.549 19.9458L11.0168 12.2187H11.1184L12.6506 19.9458H12.549Z" fill="#CD2D71"/>
<path d="M12.4477 19.9458L10.9155 12.2187H11.0168L12.549 19.9458H12.4477Z" fill="#CE2D72"/>
<path d="M12.3461 19.9458L10.814 12.2187H10.9156L12.4477 19.9458H12.3461Z" fill="#CF2D73"/>
<path d="M12.2446 19.9458L10.7124 12.2187H10.814L12.3462 19.9458H12.2446Z" fill="#D02E73"/>
<path d="M12.143 19.9458L10.6111 12.2187H10.7124L12.2445 19.9458H12.143Z" fill="#D12E74"/>
<path d="M12.0417 19.9458L10.5095 12.2187H10.6111L12.143 19.9458H12.0417Z" fill="#D22E75"/>
<path d="M11.9401 19.9458L10.408 12.2187H10.5096L12.0417 19.9458H11.9401Z" fill="#D32F75"/>
<path d="M11.8385 19.9458L10.3064 12.2187H10.408L11.9401 19.9458H11.8385Z" fill="#D42F76"/>
<path d="M11.7372 19.9458L10.2051 12.2187H10.3064L11.8385 19.9458H11.7372Z" fill="#D53076"/>
<path d="M11.6354 19.9458L10.1033 12.2187H10.2049L11.737 19.9458H11.6354Z" fill="#D63077"/>
<path d="M11.5339 19.9458L10.0017 12.2187H10.1033L11.6355 19.9458H11.5339Z" fill="#D73078"/>
<path d="M11.4325 19.9458L9.90039 12.2187H10.0017L11.5339 19.9458H11.4325Z" fill="#D83178"/>
<path d="M11.331 19.9458L9.79883 12.2187H9.90042L11.4326 19.9458H11.331Z" fill="#D93179"/>
<path d="M11.2294 19.9458L9.69727 12.2187H9.79886L11.331 19.9458H11.2294Z" fill="#DA317A"/>
<path d="M11.1281 19.9458L9.59595 12.2187H9.69726L11.2294 19.9458H11.1281Z" fill="#DB327A"/>
<path d="M11.0265 19.9458L9.49438 12.2187H9.59598L11.1281 19.9458H11.0265Z" fill="#DC327B"/>
<path d="M10.925 19.9458L9.39282 12.2187H9.49442L11.0266 19.9458H10.925Z" fill="#DD327C"/>
<path d="M10.8234 19.9458L9.2915 12.2187H9.39282L10.925 19.9458H10.8234Z" fill="#DE337C"/>
<path d="M10.7221 19.9458L9.18994 12.2187H9.29154L10.8234 19.9458H10.7221Z" fill="#DF337D"/>
<path d="M10.6205 19.9458L9.08838 12.2187H9.18998L10.7221 19.9458H10.6205Z" fill="#E0337E"/>
<path d="M10.5187 19.9458L8.98657 12.2187H9.08817L10.6203 19.9458H10.5187Z" fill="#E1347E"/>
<path d="M10.4174 19.9458L8.88525 12.2187H8.98657L10.5187 19.9458H10.4174Z" fill="#E2347F"/>
<path d="M10.3158 19.9458L8.78369 12.2187H8.88529L10.4174 19.9458H10.3158Z" fill="#E33480"/>
<path d="M10.2143 19.9458L8.68213 12.2187H8.78373L10.3159 19.9458H10.2143Z" fill="#E43580"/>
<path d="M10.113 19.9458L8.58081 12.2187H8.68212L10.2143 19.9458H10.113Z" fill="#E63581"/>
<path d="M10.0114 19.9458L8.47925 12.2187H8.58084L10.113 19.9458H10.0114Z" fill="#E73681"/>
<path d="M9.90984 19.9458L8.37769 12.2187H8.47928L10.0114 19.9458H9.90984Z" fill="#E83682"/>
<path d="M9.80852 19.9458L8.27637 12.2187H8.37768L9.90983 19.9458H9.80852Z" fill="#E93683"/>
<path d="M9.70696 19.9458L8.1748 12.2187H8.2764L9.80855 19.9458H9.70696Z" fill="#EA3783"/>
<path d="M9.60539 19.9458L8.07324 12.2187H8.17484L9.70699 19.9458H9.60539Z" fill="#EB3784"/>
<path d="M9.50379 19.9458L7.97192 12.2187H8.07324L9.60539 19.9458H9.50379Z" fill="#EC3785"/>
<path d="M9.40251 19.9458L7.87036 12.2187H7.97196L9.50383 19.9458H9.40251Z" fill="#ED3885"/>
<path d="M9.30071 19.9458L7.76855 12.2187H7.87015L9.4023 19.9458H9.30071Z" fill="#EE3886"/>
<path d="M9.19914 19.9458L7.66699 12.2187H7.76859L9.30074 19.9458H9.19914Z" fill="#EF3887"/>
<path d="M9.09782 19.9458L7.56567 12.2187H7.66699L9.19914 19.9458H9.09782Z" fill="#F03987"/>
<path d="M8.99626 19.9458L7.46411 12.2187H7.56571L9.09786 19.9458H8.99626Z" fill="#F13988"/>
<path d="M8.8947 19.9458L7.36255 12.2187H7.46415L8.9963 19.9458H8.8947Z" fill="#F23989"/>
<path d="M8.79338 19.9458L7.26123 12.2187H7.36254L8.89469 19.9458H8.79338Z" fill="#F33A89"/>
<path d="M8.69182 19.9458L7.15967 12.2187H7.26126L8.79342 19.9458H8.69182Z" fill="#F43A8A"/>
<path d="M8.59026 19.9458L7.05811 12.2187H7.1597L8.69185 19.9458H8.59026Z" fill="#F53A8B"/>
<path d="M8.48894 19.9458L6.95679 12.2187H7.0581L8.59025 19.9458H8.48894Z" fill="#F63B8B"/>
<path d="M8.38738 19.9458L6.85522 12.2187H6.95682L8.48897 19.9458H8.38738Z" fill="#F73B8C"/>
<path d="M8.28581 19.9458L6.75366 12.2187H6.85526L8.38741 19.9458H8.28581Z" fill="#F83C8C"/>
<path d="M8.18401 19.9458L6.65186 12.2187H6.75345L8.2856 19.9458H8.18401Z" fill="#F93C8D"/>
<path d="M8.08269 19.9458L6.55054 12.2187H6.65185L8.184 19.9458H8.08269Z" fill="#FA3C8E"/>
<path d="M7.98113 19.9458L6.44897 12.2187H6.55057L8.08272 19.9458H7.98113Z" fill="#FB3D8E"/>
<path d="M7.87953 19.9458L6.34766 12.2187H6.44897L7.98112 19.9458H7.87953Z" fill="#FC3D8F"/>
<path d="M7.77824 19.9458L6.24609 12.2187H6.34769L7.87956 19.9458H7.77824Z" fill="#FD3D90"/>
<path d="M7.67668 19.9458L6.14453 12.2187H6.24613L7.77828 19.9458H7.67668Z" fill="#FE3E90"/>
<path d="M7.57512 19.9458L6.04297 12.2187H6.14456L7.67672 19.9458H7.57512Z" fill="#FF3E91"/>
<path d="M6.04293 12.2187L7.57508 19.9458H4.61719V12.2187H6.04293Z" fill="#FF3E91"/>
</g>
<mask id="mask1_5780_2029" style="mask-type:luminance" maskUnits="userSpaceOnUse" x="11" y="3" width="11" height="17">
<path d="M11.344 3.19363L19.0673 7.66882V12.2122L11.344 19.9392L21.7679 13.8987V6.10409L11.344 3.19363Z" fill="white"/>
</mask>
<g mask="url(#mask1_5780_2029)">
<path d="M11.344 16.3323L20.9608 18.7113L20.6594 19.9392H11.344V16.3323Z" fill="#FF3E91"/>
<path d="M11.344 16.2596L20.9775 18.6429L20.9608 18.7113L11.344 16.3323V16.2596Z" fill="#FF3E91"/>
<path d="M11.344 16.1869L20.9945 18.5742L20.9775 18.6429L11.344 16.2596V16.1869Z" fill="#FE3E90"/>
<path d="M11.344 16.1142L21.0115 18.5054L20.9945 18.5742L11.344 16.1869V16.1142Z" fill="#FD3D90"/>
<path d="M11.344 16.0412L21.0282 18.437L21.0115 18.5054L11.344 16.1142V16.0412Z" fill="#FC3D8F"/>
<path d="M11.344 15.9685L21.0452 18.3682L21.0282 18.437L11.344 16.0412V15.9685Z" fill="#FB3D8E"/>
<path d="M11.344 15.8955L21.0619 18.2995L21.0452 18.3682L11.344 15.9685V15.8955Z" fill="#FA3C8E"/>
<path d="M11.344 15.8228L21.0788 18.231L21.0619 18.2995L11.344 15.8955V15.8228Z" fill="#F93C8D"/>
<path d="M11.344 15.75L21.0955 18.1623L21.0788 18.2311L11.344 15.8228V15.75Z" fill="#F83C8C"/>
<path d="M11.344 15.6773L21.1125 18.0936L21.0955 18.1623L11.344 15.75V15.6773Z" fill="#F73B8C"/>
<path d="M11.344 15.6043L21.1295 18.0251L21.1125 18.0936L11.344 15.6773V15.6043Z" fill="#F63B8B"/>
<path d="M11.344 15.5316L21.1462 17.9564L21.1295 18.0251L11.344 15.6043V15.5316Z" fill="#F53A8B"/>
<path d="M11.344 15.4586L21.1632 17.8876L21.1462 17.9564L11.344 15.5316V15.4586Z" fill="#F43A8A"/>
<path d="M11.344 15.3859L21.1799 17.8192L21.1632 17.8876L11.344 15.4586V15.3859Z" fill="#F33A89"/>
<path d="M11.344 15.3132L21.1969 17.7505L21.1799 17.8192L11.344 15.3859V15.3132Z" fill="#F23989"/>
<path d="M11.344 15.2405L21.2136 17.6817L21.1969 17.7505L11.344 15.3132V15.2405Z" fill="#F13988"/>
<path d="M11.344 15.1675L21.2305 17.6133L21.2136 17.6817L11.344 15.2405V15.1675Z" fill="#F03987"/>
<path d="M11.344 15.0948L21.2472 17.5445L21.2305 17.6133L11.344 15.1675V15.0948Z" fill="#EF3887"/>
<path d="M11.344 15.0218L21.2642 17.4761L21.2472 17.5445L11.344 15.0948V15.0218Z" fill="#EE3886"/>
<path d="M11.344 14.9491L21.2812 17.4073L21.2642 17.4761L11.344 15.0218V14.9491Z" fill="#ED3885"/>
<path d="M11.344 14.8764L21.2979 17.3386L21.2812 17.4074L11.344 14.9491V14.8764Z" fill="#EC3785"/>
<path d="M11.344 14.8036L21.3149 17.2702L21.2979 17.3386L11.344 14.8764V14.8036Z" fill="#EB3784"/>
<path d="M11.344 14.7307L21.3316 17.2014L21.3149 17.2702L11.344 14.8036V14.7307Z" fill="#EA3783"/>
<path d="M11.344 14.6579L21.3485 17.1327L21.3316 17.2014L11.344 14.7307V14.6579Z" fill="#E93683"/>
<path d="M11.344 14.5849L21.3652 17.0642L21.3485 17.1327L11.344 14.6579V14.5849Z" fill="#E83682"/>
<path d="M11.344 14.5122L21.3822 16.9955L21.3652 17.0643L11.344 14.5849V14.5122Z" fill="#E73681"/>
<path d="M11.344 14.4395L21.3992 16.9268L21.3822 16.9955L11.344 14.5122V14.4395Z" fill="#E63581"/>
<path d="M11.344 14.3668L21.4159 16.8583L21.3992 16.9268L11.344 14.4395V14.3668Z" fill="#E43580"/>
<path d="M11.344 14.2938L21.4329 16.7896L21.4159 16.8583L11.344 14.3668V14.2938Z" fill="#E33480"/>
<path d="M11.344 14.2211L21.4496 16.7209L21.4329 16.7896L11.344 14.2938V14.2211Z" fill="#E2347F"/>
<path d="M11.344 14.1481L21.4666 16.6524L21.4496 16.7209L11.344 14.2211V14.1481Z" fill="#E1347E"/>
<path d="M11.344 14.0754L21.4832 16.5837L21.4666 16.6524L11.344 14.1481V14.0754Z" fill="#E0337E"/>
<path d="M11.344 14.0027L21.5002 16.5152L21.4832 16.5837L11.344 14.0754V14.0027Z" fill="#DF337D"/>
<path d="M11.344 13.93L21.5172 16.4465L21.5002 16.5152L11.344 14.0027V13.93Z" fill="#DE337C"/>
<path d="M11.344 13.857L21.5339 16.3777L21.5172 16.4465L11.344 13.93V13.857Z" fill="#DD327C"/>
<path d="M11.344 13.7843L21.5509 16.3093L21.5339 16.3778L11.344 13.857V13.7843Z" fill="#DC327B"/>
<path d="M11.344 13.7115L21.5676 16.2406L21.5509 16.3093L11.344 13.7843V13.7115Z" fill="#DB327A"/>
<path d="M11.344 13.6385L21.5846 16.1718L21.5676 16.2406L11.344 13.7115V13.6385Z" fill="#DA317A"/>
<path d="M11.344 13.5658L21.6013 16.1034L21.5846 16.1718L11.344 13.6386V13.5658Z" fill="#D93179"/>
<path d="M11.344 13.4931L21.6182 16.0346L21.6013 16.1034L11.344 13.5658V13.4931Z" fill="#D83178"/>
<path d="M11.344 13.4201L21.6349 15.9659L21.6182 16.0346L11.344 13.4931V13.4201Z" fill="#D73078"/>
<path d="M11.344 13.3474L21.6519 15.8975L21.6349 15.9659L11.344 13.4201V13.3474Z" fill="#D63077"/>
<path d="M11.344 13.2747L21.6689 15.8287L21.6519 15.8974L11.344 13.3474V13.2747Z" fill="#D53076"/>
<path d="M11.344 13.2017L21.6856 15.76L21.6689 15.8287L11.344 13.2747V13.2017Z" fill="#D42F76"/>
<path d="M11.344 13.129L21.7026 15.6915L21.6856 15.76L11.344 13.2017V13.129Z" fill="#D32F75"/>
<path d="M11.344 13.0563L21.7193 15.6228L21.7026 15.6915L11.344 13.129V13.0563Z" fill="#D22E75"/>
<path d="M11.344 12.9833L21.7363 15.5541L21.7193 15.6228L11.344 13.0563V12.9833Z" fill="#D12E74"/>
<path d="M11.344 12.9106L21.7529 15.4856L21.7363 15.5541L11.344 12.9833V12.9106Z" fill="#D02E73"/>
<path d="M11.344 12.8379L21.7679 15.4163V15.4245L21.7529 15.4856L11.344 12.9106V12.8379Z" fill="#CF2D73"/>
<path d="M11.344 12.7649L21.7679 15.3436V15.4163L11.344 12.8379V12.7649Z" fill="#CE2D72"/>
<path d="M11.344 12.6922L21.7679 15.2709V15.3436L11.344 12.7649V12.6922Z" fill="#CD2D71"/>
<path d="M11.344 12.6194L21.7679 15.1979V15.2709L11.344 12.6922V12.6194Z" fill="#CC2C71"/>
<path d="M11.344 12.5465L21.7679 15.1252V15.1979L11.344 12.6195V12.5465Z" fill="#CB2C70"/>
<path d="M11.344 12.4965L21.7679 15.0752V15.1252L11.344 12.5465V12.4965Z" fill="#CB2C70"/>
<path d="M11.344 12.4465L21.7679 15.0252V15.0752L11.344 12.4965V12.4465Z" fill="#CA2C6F"/>
<path d="M11.344 12.3965L21.7679 14.9752V15.0252L11.344 12.4465V12.3965Z" fill="#C92C6F"/>
<path d="M11.344 12.3465L21.7679 14.9249V14.9752L11.344 12.3965V12.3465Z" fill="#C82B6E"/>
<path d="M11.344 12.2962L21.7679 14.8749V14.9249L11.344 12.3465V12.2962Z" fill="#C72B6E"/>
<path d="M11.344 12.2462L21.7679 14.8249V14.8749L11.344 12.2962V12.2462Z" fill="#C62B6D"/>
<path d="M11.344 12.1962L21.7679 14.775V14.8249L11.344 12.2462V12.1962Z" fill="#C52B6D"/>
<path d="M11.344 12.1463L21.7679 14.725V14.775L11.344 12.1962V12.1463Z" fill="#C42B6C"/>
<path d="M11.344 12.0963L21.7679 14.6747V14.725L11.344 12.1463V12.0963Z" fill="#C32B6C"/>
<path d="M11.344 12.0463L21.7679 14.6247V14.6747L11.344 12.0963V12.0463Z" fill="#C22A6B"/>
<path d="M11.344 11.996L21.7679 14.5747V14.6247L11.344 12.0463V11.996Z" fill="#C12A6B"/>
<path d="M11.344 11.946L21.7679 14.5247V14.5747L11.344 11.996V11.946Z" fill="#C02A6A"/>
<path d="M11.344 11.896L21.7679 14.4747V14.5247L11.344 11.946V11.896Z" fill="#BF2A6A"/>
<path d="M11.344 11.846L21.7679 14.4248V14.4747L11.344 11.896V11.846Z" fill="#BE2A69"/>
<path d="M11.344 11.7961L21.7679 14.3745V14.4248L11.344 11.846V11.7961Z" fill="#BD2A69"/>
<path d="M11.344 11.7458L21.7679 14.3245V14.3745L11.344 11.796V11.7458Z" fill="#BC2968"/>
<path d="M11.344 11.6958L21.7679 14.2745V14.3245L11.344 11.7458V11.6958Z" fill="#BB2968"/>
<path d="M11.344 11.6458L21.7679 14.2245V14.2745L11.344 11.6958V11.6458Z" fill="#BA2967"/>
<path d="M11.344 11.5958L21.7679 14.1745V14.2245L11.344 11.6458V11.5958Z" fill="#B92967"/>
<path d="M11.344 11.5458L21.7679 14.1245V14.1745L11.344 11.5958V11.5458Z" fill="#B82966"/>
<path d="M11.344 11.4958L21.7679 14.0743V14.1245L11.344 11.5458V11.4958Z" fill="#B72865"/>
<path d="M11.344 11.4456L21.7679 14.0243V14.0743L11.344 11.4958V11.4456Z" fill="#B62865"/>
<path d="M11.344 11.3956L21.7679 13.9743V14.0243L11.344 11.4456V11.3956Z" fill="#B52864"/>
<path d="M11.344 11.3456L21.7679 13.9243V13.9743L11.344 11.3956V11.3456Z" fill="#B42864"/>
<path d="M11.344 11.2956L21.7679 13.8743V13.9243L11.344 11.3456V11.2956Z" fill="#B32863"/>
<path d="M11.344 11.2456L21.7679 13.8243V13.8743L11.344 11.2956V11.2456Z" fill="#B22863"/>
<path d="M11.344 11.1956L21.7679 13.774V13.8243L11.344 11.2456V11.1956Z" fill="#B12762"/>
<path d="M11.344 11.1453L21.7679 13.7241V13.774L11.344 11.1956V11.1453Z" fill="#B02762"/>
<path d="M11.344 11.0953L21.7679 13.674V13.724L11.344 11.1453V11.0953Z" fill="#AF2761"/>
<path d="M11.344 11.0453L21.7679 13.6241V13.6741L11.344 11.0953V11.0453Z" fill="#AE2761"/>
<path d="M11.344 10.9954L21.7679 13.5741V13.6241L11.344 11.0454V10.9954Z" fill="#AD2760"/>
<path d="M11.344 10.9454L21.7679 13.5238V13.5741L11.344 10.9954V10.9454Z" fill="#AC2760"/>
<path d="M11.344 10.8951L21.7679 13.4738V13.5238L11.344 10.9454V10.8951Z" fill="#AB265F"/>
<path d="M11.344 10.8451L21.7679 13.4238V13.4738L11.344 10.8951V10.8451Z" fill="#AA265F"/>
<path d="M11.344 10.7951L21.7679 13.3738V13.4238L11.344 10.8451V10.7951Z" fill="#A9265E"/>
<path d="M11.344 10.7451L21.7679 13.3238V13.3738L11.344 10.7951V10.7451Z" fill="#A8265E"/>
<path d="M11.344 10.6951L21.7679 13.2739V13.3238L11.344 10.7451V10.6951Z" fill="#A7265D"/>
<path d="M11.344 10.6452L21.7679 13.2236V13.2739L11.344 10.6951V10.6452Z" fill="#A5255C"/>
<path d="M11.344 10.5949L21.7679 13.1736V13.2236L11.344 10.6452V10.5949Z" fill="#A4255C"/>
<path d="M11.344 10.5449L21.7679 13.1236V13.1736L11.344 10.5949V10.5449Z" fill="#A3255B"/>
<path d="M11.344 10.4949L21.7679 13.0736V13.1236L11.344 10.5449V10.4949Z" fill="#A2255B"/>
<path d="M11.344 10.4449L21.7679 13.0236V13.0736L11.344 10.4949V10.4449Z" fill="#A1255A"/>
<path d="M11.344 10.3949L21.7679 12.9734V13.0236L11.344 10.4449V10.3949Z" fill="#A0255A"/>
<path d="M11.344 10.3449L21.7679 12.9234V12.9734L11.344 10.3949V10.3449Z" fill="#9F2459"/>
<path d="M11.344 10.2947L21.7679 12.8734V12.9234L11.344 10.3449V10.2947Z" fill="#9E2459"/>
<path d="M11.344 10.2447L21.7679 12.8234V12.8734L11.344 10.2947V10.2447Z" fill="#9D2458"/>
<path d="M11.344 10.1947L21.7679 12.7734V12.8234L11.344 10.2447V10.1947Z" fill="#9C2458"/>
<path d="M11.344 10.1447L21.7679 12.7234V12.7734L11.344 10.1947V10.1447Z" fill="#9B2457"/>
<path d="M11.344 10.0947L21.7679 12.6731V12.7234L11.344 10.1447V10.0947Z" fill="#9A2457"/>
<path d="M11.344 10.0444L21.7679 12.6231V12.6731L11.344 10.0947V10.0444Z" fill="#992356"/>
<path d="M11.344 9.99445L21.7679 12.5732V12.6231L11.344 10.0444V9.99445Z" fill="#982356"/>
<path d="M11.344 9.94446L21.7679 12.5232V12.5732L11.344 9.99445V9.94446Z" fill="#972355"/>
<path d="M11.344 9.89445L21.7679 12.4732V12.5232L11.344 9.94444V9.89445Z" fill="#962355"/>
<path d="M11.344 9.84447L21.7679 12.4229V12.4732L11.344 9.89446V9.84447Z" fill="#952354"/>
<path d="M11.344 9.79448L21.7679 12.3729V12.4229L11.344 9.84447V9.79448Z" fill="#942354"/>
<path d="M11.344 9.74422L21.7679 12.3229V12.3729L11.344 9.79449V9.74422Z" fill="#932253"/>
<path d="M11.344 9.69423L21.7679 12.2729V12.3229L11.344 9.74422V9.69423Z" fill="#922252"/>
<path d="M11.344 9.64424L21.7679 12.223V12.2729L11.344 9.69423V9.64424Z" fill="#912252"/>
<path d="M11.344 9.59424L21.7679 12.173V12.2229L11.344 9.64423V9.59424Z" fill="#902251"/>
<path d="M11.344 9.54425L21.7679 12.1227V12.173L11.344 9.59424V9.54425Z" fill="#8F2251"/>
<path d="M11.344 9.49399L21.7679 12.0727V12.1227L11.344 9.54426V9.49399Z" fill="#8E2150"/>
<path d="M11.344 9.444L21.7679 12.0227V12.0727L11.344 9.49399V9.444Z" fill="#8D2150"/>
<path d="M11.344 9.394L21.7679 11.9727V12.0227L11.344 9.44399V9.394Z" fill="#8C214F"/>
<path d="M11.344 9.34401L21.7679 11.9227V11.9727L11.344 9.394V9.34401Z" fill="#8B214F"/>
<path d="M11.344 9.29402L21.7679 11.8727V11.9227L11.344 9.34401V9.29402Z" fill="#8A214E"/>
<path d="M11.344 9.24374L21.7679 11.8225V11.8727L11.344 9.29402V9.24374Z" fill="#89214E"/>
<path d="M11.344 9.19376L21.7679 11.7725V11.8225L11.344 9.24374V9.19376Z" fill="#88204D"/>
<path d="M11.344 9.14377L21.7679 11.7225V11.7725L11.344 9.19376V9.14377Z" fill="#87204D"/>
<path d="M11.344 9.09378L21.7679 11.6725V11.7225L11.344 9.14377V9.09378Z" fill="#86204C"/>
<path d="M11.344 9.04379L21.7679 11.6225V11.6725L11.344 9.09378V9.04379Z" fill="#85204C"/>
<path d="M11.344 8.9938L21.7679 11.5722V11.6225L11.344 9.04379V8.9938Z" fill="#84204B"/>
<path d="M11.344 8.94353L21.7679 11.5222V11.5722L11.344 8.9938V8.94353Z" fill="#83204B"/>
<path d="M11.344 8.89354L21.7679 11.4723V11.5222L11.344 8.94353V8.89354Z" fill="#821F4A"/>
<path d="M11.344 8.84355L21.7679 11.4223V11.4723L11.344 8.89354V8.84355Z" fill="#811F4A"/>
<path d="M11.344 8.79356L21.7679 11.3723V11.4223L11.344 8.84355V8.79356Z" fill="#801F49"/>
<path d="M11.344 4.54674L21.7679 7.12545V11.3723L11.344 8.79356V4.54674Z" fill="#801F49"/>
<path d="M21.7679 7.12547L11.344 4.54676V3.19363H21.7679V7.12547Z" fill="#801F49"/>
</g>
<mask id="mask2_5780_2029" style="mask-type:luminance" maskUnits="userSpaceOnUse" x="11" y="0" width="11" height="14">
<path d="M11.344 3.27175L19.0673 7.74721L21.7679 13.9771V6.18221L11.344 0.142014V3.27175Z" fill="white"/>
</mask>
<g mask="url(#mask2_5780_2029)">
<path d="M18.4996 0.142014L20.8592 3.99915L13.9623 8.24938L11.344 3.96961V0.142014H18.4996Z" fill="#801F49"/>
<path d="M20.8593 3.99952L13.9624 8.24966L13.9814 8.28065L20.8782 4.0305L20.8593 3.99952Z" fill="#801F49"/>
<path d="M20.8783 4.03068L13.9814 8.28082L14.0004 8.3118L20.8973 4.06166L20.8783 4.03068Z" fill="#811F4A"/>
<path d="M20.8974 4.06188L14.0005 8.31203L14.0194 8.34301L20.9163 4.09287L20.8974 4.06188Z" fill="#821F4A"/>
<path d="M20.9162 4.0928L14.0193 8.34294L14.0382 8.37392L20.9351 4.12378L20.9162 4.0928Z" fill="#83204B"/>
<path d="M20.9355 4.12379L14.0386 8.37393L14.0575 8.40491L20.9544 4.15477L20.9355 4.12379Z" fill="#84204B"/>
<path d="M20.9545 4.15498L14.0576 8.40512L14.0766 8.4361L20.9734 4.18596L20.9545 4.15498Z" fill="#85204C"/>
<path d="M20.9733 4.18589L14.0764 8.43604L14.0954 8.46702L20.9922 4.21687L20.9733 4.18589Z" fill="#86204C"/>
<path d="M20.9923 4.21705L14.0955 8.46719L14.1144 8.49818L21.0113 4.24803L20.9923 4.21705Z" fill="#87204D"/>
<path d="M21.0114 4.24824L14.1145 8.49838L14.1335 8.52936L21.0303 4.27922L21.0114 4.24824Z" fill="#88204D"/>
<path d="M21.0302 4.2794L14.1333 8.52954L14.1523 8.56052L21.0491 4.31038L21.0302 4.2794Z" fill="#89214E"/>
<path d="M21.0492 4.31031L14.1523 8.56046L14.1713 8.59144L21.0682 4.34129L21.0492 4.31031Z" fill="#8A214E"/>
<path d="M21.0685 4.34136L14.1716 8.59151L14.1906 8.62249L21.0875 4.37235L21.0685 4.34136Z" fill="#8B214F"/>
<path d="M21.0875 4.37251L14.1907 8.62265L14.2096 8.65363L21.1065 4.40349L21.0875 4.37251Z" fill="#8C214F"/>
<path d="M21.1063 4.40342L14.2095 8.65356L14.2284 8.68455L21.1253 4.4344L21.1063 4.40342Z" fill="#8D2150"/>
<path d="M21.1254 4.43434L14.2285 8.68448L14.2475 8.71546L21.1443 4.46532L21.1254 4.43434Z" fill="#8E2150"/>
<path d="M21.1444 4.46577L14.2476 8.71591L14.2665 8.74689L21.1634 4.49675L21.1444 4.46577Z" fill="#8F2251"/>
<path d="M21.1632 4.49668L14.2664 8.74683L14.2853 8.77781L21.1822 4.52767L21.1632 4.49668Z" fill="#902251"/>
<path d="M21.1823 4.5276L14.2854 8.77774L14.3044 8.80872L21.2012 4.55858L21.1823 4.5276Z" fill="#912252"/>
<path d="M21.2016 4.55888L14.3047 8.80902L14.3236 8.84L21.2205 4.58986L21.2016 4.55888Z" fill="#922252"/>
<path d="M21.2204 4.58979L14.3235 8.83994L14.3424 8.87092L21.2393 4.62077L21.2204 4.58979Z" fill="#932253"/>
<path d="M21.2394 4.62071L14.3425 8.87085L14.3615 8.90183L21.2584 4.65169L21.2394 4.62071Z" fill="#942354"/>
<path d="M21.2584 4.65214L14.3616 8.90228L14.3805 8.93326L21.2774 4.68312L21.2584 4.65214Z" fill="#952354"/>
<path d="M21.2775 4.68305L14.3806 8.9332L14.3996 8.96418L21.2964 4.71404L21.2775 4.68305Z" fill="#962355"/>
<path d="M21.2963 4.71421L14.3994 8.96436L14.4184 8.99534L21.3152 4.74519L21.2963 4.71421Z" fill="#972355"/>
<path d="M21.3156 4.74497L14.4187 8.99512L14.4377 9.0261L21.3345 4.77596L21.3156 4.74497Z" fill="#982356"/>
<path d="M21.3346 4.77616L14.4377 9.02631L14.4567 9.05729L21.3536 4.80714L21.3346 4.77616Z" fill="#992356"/>
<path d="M21.3534 4.80732L14.4565 9.05746L14.4755 9.08845L21.3724 4.8383L21.3534 4.80732Z" fill="#9A2457"/>
<path d="M21.3725 4.83824L14.4756 9.08838L14.4945 9.11936L21.3914 4.86922L21.3725 4.83824Z" fill="#9B2457"/>
<path d="M21.3915 4.86943L14.4946 9.11957L14.5136 9.15055L21.4105 4.90041L21.3915 4.86943Z" fill="#9C2458"/>
<path d="M21.4105 4.90058L14.5137 9.15073L14.5326 9.18171L21.4295 4.93157L21.4105 4.90058Z" fill="#9D2458"/>
<path d="M21.4293 4.9315L14.5325 9.18164L14.5514 9.21262L21.4483 4.96248L21.4293 4.9315Z" fill="#9E2459"/>
<path d="M21.4484 4.96253L14.5515 9.21268L14.5705 9.24366L21.4673 4.99352L21.4484 4.96253Z" fill="#9F2459"/>
<path d="M21.4677 4.99369L14.5708 9.24384L14.5898 9.27482L21.4866 5.02467L21.4677 4.99369Z" fill="#A0255A"/>
<path d="M21.4865 5.02461L14.5896 9.27475L14.6086 9.30573L21.5054 5.05559L21.4865 5.02461Z" fill="#A1255A"/>
<path d="M21.5055 5.05604L14.6086 9.30618L14.6276 9.33716L21.5245 5.08702L21.5055 5.05604Z" fill="#A2255B"/>
<path d="M21.5246 5.08695L14.6277 9.3371L14.6466 9.36808L21.5435 5.11794L21.5246 5.08695Z" fill="#A3255B"/>
<path d="M21.5431 5.11785L14.6462 9.368L14.6652 9.39898L21.5621 5.14884L21.5431 5.11785Z" fill="#A4255C"/>
<path d="M21.5626 5.14915L14.6658 9.39929L14.6847 9.43027L21.5816 5.18013L21.5626 5.14915Z" fill="#A6265D"/>
<path d="M21.4966 5.24014L14.6174 9.46394L14.6363 9.49485L21.5155 5.27104L21.4966 5.24014Z" fill="#A7265D"/>
<path d="M21.6005 5.21098L14.7036 9.46112L14.7226 9.4921L21.6194 5.24196L21.6005 5.21098Z" fill="#A8265E"/>
<path d="M21.6195 5.24212L14.7227 9.49226L14.7416 9.52325L21.6385 5.2731L21.6195 5.24212Z" fill="#A9265E"/>
<path d="M21.6386 5.27333L14.7417 9.52347L14.7607 9.55445L21.6575 5.30431L21.6386 5.27333Z" fill="#AA265F"/>
<path d="M21.6574 5.30424L14.7605 9.55438L14.7795 9.58536L21.6763 5.33522L21.6574 5.30424Z" fill="#AB265F"/>
<path d="M21.6764 5.33538L14.7795 9.58553L14.7985 9.61651L21.6954 5.36636L21.6764 5.33538Z" fill="#AC2760"/>
<path d="M21.6955 5.36643L14.7986 9.61658L14.8175 9.64756L21.7144 5.39742L21.6955 5.36643Z" fill="#AD2760"/>
<path d="M21.7145 5.39735L14.8176 9.64749L14.8366 9.67847L21.7335 5.42833L21.7145 5.39735Z" fill="#AE2761"/>
<path d="M21.7335 5.42849L14.8367 9.67863L14.8556 9.70962L21.7525 5.45947L21.7335 5.42849Z" fill="#AF2761"/>
<path d="M21.7524 5.45877L21.768 5.48433V5.492L14.8744 9.74025L14.8555 9.70929L21.7524 5.45877Z" fill="#B02762"/>
<path d="M21.7681 5.53489L14.8938 9.77149L14.8745 9.74025L21.7681 5.492V5.53489Z" fill="#B12762"/>
<path d="M21.7681 5.5775L14.9128 9.80246L14.8938 9.7715L21.7681 5.5349V5.5775Z" fill="#B22863"/>
<path d="M21.7682 5.62039L14.9318 9.83341L14.9128 9.80245L21.7682 5.5775V5.62039Z" fill="#B32863"/>
<path d="M21.768 5.663L14.9506 9.86466L14.9316 9.83341L21.768 5.62039V5.663Z" fill="#B42864"/>
<path d="M21.7681 5.70588L14.9696 9.89562L14.9507 9.86466L21.7681 5.66299V5.70588Z" fill="#B52864"/>
<path d="M21.7679 5.74878L14.9884 9.92658L14.9695 9.89562L21.7679 5.70589V5.74878Z" fill="#B62865"/>
<path d="M21.768 5.79137L15.0078 9.95781L14.9885 9.92657L21.768 5.74876V5.79137Z" fill="#B72865"/>
<path d="M21.7681 5.83427L15.0268 9.98878L15.0078 9.95783L21.7681 5.79138V5.83427Z" fill="#B82966"/>
<path d="M21.7682 5.87715L15.0458 10.02L15.0269 9.98877L21.7682 5.83426V5.87715Z" fill="#B92967"/>
<path d="M21.768 5.91976L15.0646 10.051L15.0457 10.02L21.768 5.87715V5.91976Z" fill="#BA2967"/>
<path d="M21.7681 5.96264L15.0837 10.0819L15.0647 10.051L21.7681 5.91975V5.96264Z" fill="#BB2968"/>
<path d="M21.7682 6.00525L15.1027 10.1132L15.0837 10.0819L21.7682 5.96265V6.00525Z" fill="#BC2968"/>
<path d="M21.768 6.04814L15.1215 10.1441L15.1025 10.1132L21.768 6.00525V6.04814Z" fill="#BD2A69"/>
<path d="M21.7681 6.09075L15.1405 10.1751L15.1216 10.1441L21.7681 6.04814V6.09075Z" fill="#BE2A69"/>
<path d="M21.7682 6.13363L15.1599 10.2063L15.1406 10.1751L21.7682 6.09074V6.13363Z" fill="#BF2A6A"/>
<path d="M21.768 6.17653L15.1786 10.2373L15.1597 10.2064L21.768 6.13364V6.17653Z" fill="#C02A6A"/>
<path d="M21.768 6.21913L15.1977 10.2683L15.1787 10.2373L21.768 6.17653V6.21913Z" fill="#C12A6B"/>
<path d="M21.7681 6.26202L15.2167 10.2995L15.1978 10.2683L21.7681 6.21913V6.26202Z" fill="#C22A6B"/>
<path d="M21.768 6.30463L15.2355 10.3305L15.2166 10.2995L21.768 6.26202V6.30463Z" fill="#C32B6C"/>
<path d="M21.768 6.34751L15.2546 10.3614L15.2356 10.3305L21.768 6.30463V6.34751Z" fill="#C42B6C"/>
<path d="M21.7681 6.39039L15.2739 10.3927L15.2546 10.3614L21.7681 6.3475V6.39039Z" fill="#C52B6D"/>
<path d="M21.7682 6.433L15.2929 10.4236L15.2739 10.3927L21.7682 6.3904V6.433Z" fill="#C62B6D"/>
<path d="M21.768 6.47589L15.3117 10.4549L15.2927 10.4236L21.768 6.433V6.47589Z" fill="#C72B6E"/>
<path d="M21.7681 6.5185L15.3307 10.4858L15.3118 10.4549L21.7681 6.47589V6.5185Z" fill="#C82B6E"/>
<path d="M21.7679 6.56138L15.3495 10.5168L15.3306 10.4858L21.7679 6.51849V6.56138Z" fill="#C92C6F"/>
<path d="M21.768 6.60427L15.3686 10.548L15.3496 10.5168L21.768 6.56139V6.60427Z" fill="#CA2C6F"/>
<path d="M21.7681 6.64688L15.3879 10.579L15.3687 10.548L21.7681 6.60428V6.64688Z" fill="#CB2C70"/>
<path d="M21.7681 6.7034L15.4128 10.6199L15.3879 10.579L21.7681 6.64688V6.7034Z" fill="#CB2C70"/>
<path d="M21.7681 6.75964L15.438 10.6611L15.4128 10.6199L21.7681 6.7034V6.75964Z" fill="#CC2C71"/>
<path d="M21.7681 6.81617L15.4629 10.702L15.438 10.6611L21.7681 6.75964V6.81617Z" fill="#CD2D71"/>
<path d="M21.7681 6.87268L15.4881 10.7429L15.4629 10.702L21.7681 6.81616V6.87268Z" fill="#CE2D72"/>
<path d="M21.768 6.92892L15.5129 10.7838L15.488 10.7429L21.768 6.87268V6.92892Z" fill="#CF2D73"/>
<path d="M21.768 6.98545L15.5381 10.8247L15.5129 10.7838L21.768 6.92892V6.98545Z" fill="#D02E73"/>
<path d="M21.768 7.04196L15.5633 10.8659L15.5381 10.8247L21.768 6.98544V7.04196Z" fill="#D12E74"/>
<path d="M21.768 7.0982L15.5881 10.9068L15.5632 10.8659L21.768 7.04196V7.0982Z" fill="#D22E75"/>
<path d="M21.768 7.15473L15.6133 10.9477L15.5881 10.9068L21.768 7.09821V7.15473Z" fill="#D32F75"/>
<path d="M21.7682 7.21096L15.6384 10.9886L15.6135 10.9477L21.7682 7.15472V7.21096Z" fill="#D42F76"/>
<path d="M21.7682 7.26747L15.6636 11.0297L15.6384 10.9886L21.7682 7.21095V7.26747Z" fill="#D53076"/>
<path d="M21.7681 7.32401L15.6885 11.0707L15.6636 11.0298L21.7681 7.26749V7.32401Z" fill="#D63077"/>
<path d="M21.7681 7.38024L15.7137 11.1116L15.6885 11.0707L21.7681 7.32401V7.38024Z" fill="#D73078"/>
<path d="M21.7681 7.43677L15.7385 11.1525L15.7136 11.1116L21.7681 7.38025V7.43677Z" fill="#D83178"/>
<path d="M21.7681 7.49301L15.7637 11.1936L15.7385 11.1525L21.7681 7.43677V7.49301Z" fill="#D93179"/>
<path d="M21.768 7.54953L15.7889 11.2345L15.7637 11.1936L21.768 7.49301V7.54953Z" fill="#DA317A"/>
<path d="M21.768 7.60605L15.8137 11.2754L15.7888 11.2345L21.768 7.54953V7.60605Z" fill="#DB327A"/>
<path d="M21.768 7.66229L15.8389 11.3163L15.8137 11.2754L21.768 7.60605V7.66229Z" fill="#DC327B"/>
<path d="M21.768 7.71881L15.8638 11.3575L15.8389 11.3163L21.768 7.66229V7.71881Z" fill="#DD327C"/>
<path d="M21.768 7.77505L15.889 11.3984L15.8638 11.3575L21.768 7.71881V7.77505Z" fill="#DE337C"/>
<path d="M21.7682 7.83156L15.9141 11.4393L15.8892 11.3984L21.7682 7.77504V7.83156Z" fill="#DF337D"/>
<path d="M21.7682 7.8881L15.9392 11.4802L15.9141 11.4393L21.7682 7.83157V7.8881Z" fill="#E0337E"/>
<path d="M21.7681 7.94433L15.9644 11.5211L15.9392 11.4802L21.7681 7.88809V7.94433Z" fill="#E1347E"/>
<path d="M21.7681 8.00086L15.9893 11.5623L15.9644 11.5211L21.7681 7.94434V8.00086Z" fill="#E2347F"/>
<path d="M21.7681 8.05738L16.0144 11.6032L15.9893 11.5623L21.7681 8.00085V8.05738Z" fill="#E33480"/>
<path d="M21.768 8.11361L16.0393 11.6441L16.0144 11.6032L21.768 8.05737V8.11361Z" fill="#E43580"/>
<path d="M21.768 8.17014L16.0645 11.685L16.0393 11.6441L21.768 8.11362V8.17014Z" fill="#E63581"/>
<path d="M21.768 8.22637L16.0894 11.7262L16.0645 11.685L21.768 8.17014V8.22637Z" fill="#E73681"/>
<path d="M21.768 8.28289L16.1145 11.7671L16.0894 11.7262L21.768 8.22636V8.28289Z" fill="#E83682"/>
<path d="M21.768 8.33942L16.1397 11.808L16.1145 11.7671L21.768 8.2829V8.33942Z" fill="#E93683"/>
<path d="M21.7682 8.39565L16.1648 11.8489L16.1399 11.808L21.7682 8.33942V8.39565Z" fill="#EA3783"/>
<path d="M21.7682 8.45218L16.19 11.8901L16.1648 11.8489L21.7682 8.39566V8.45218Z" fill="#EB3784"/>
<path d="M21.7681 8.50842L16.2148 11.931L16.1899 11.8901L21.7681 8.45218V8.50842Z" fill="#EC3785"/>
<path d="M21.7681 8.56494L16.24 11.9719L16.2148 11.931L21.7681 8.50842V8.56494Z" fill="#ED3885"/>
<path d="M21.7681 8.62146L16.2649 12.0128L16.24 11.9719L21.7681 8.56494V8.62146Z" fill="#EE3886"/>
<path d="M21.7681 8.6777L16.2901 12.0537L16.2649 12.0128L21.7681 8.62146V8.6777Z" fill="#EF3887"/>
<path d="M21.768 8.73421L16.3149 12.0949L16.29 12.0537L21.768 8.67769V8.73421Z" fill="#F03987"/>
<path d="M21.768 8.79075L16.3401 12.1358L16.3149 12.0949L21.768 8.73422V8.79075Z" fill="#F13988"/>
<path d="M21.768 8.84698L16.3653 12.1767L16.3401 12.1358L21.768 8.79074V8.84698Z" fill="#F23989"/>
<path d="M21.768 8.90351L16.3901 12.2176L16.3652 12.1767L21.768 8.84698V8.90351Z" fill="#F33A89"/>
<path d="M21.7679 8.95974L16.4153 12.2588L16.3901 12.2176L21.7679 8.9035V8.95974Z" fill="#F43A8A"/>
<path d="M21.7682 9.01625L16.4404 12.2996L16.4155 12.2587L21.7682 8.95973V9.01625Z" fill="#F53A8B"/>
<path d="M21.7681 9.07279L16.4656 12.3406L16.4404 12.2997L21.7681 9.01627V9.07279Z" fill="#F63B8B"/>
<path d="M21.7681 9.12902L16.4905 12.3815L16.4656 12.3406L21.7681 9.07278V9.12902Z" fill="#F73B8C"/>
<path d="M21.7681 9.18553L16.5157 12.4226L16.4905 12.3814L21.7681 9.12901V9.18553Z" fill="#F83C8C"/>
<path d="M21.7681 9.24207L16.5408 12.4635L16.5156 12.4226L21.7681 9.18555V9.24207Z" fill="#F93C8D"/>
<path d="M21.768 9.2983L16.5657 12.5044L16.5408 12.4635L21.768 9.24207V9.2983Z" fill="#FA3C8E"/>
<path d="M21.768 9.35483L16.5909 12.5453L16.5657 12.5044L21.768 9.29831V9.35483Z" fill="#FB3D8E"/>
<path d="M21.768 9.41107L16.6157 12.5865L16.5908 12.5453L21.768 9.35483V9.41107Z" fill="#FC3D8F"/>
<path d="M21.768 9.46759L16.6409 12.6274L16.6157 12.5865L21.768 9.41107V9.46759Z" fill="#FD3D90"/>
<path d="M21.7679 9.52411L16.6658 12.6683L16.6409 12.6274L21.7679 9.46759V9.52411Z" fill="#FE3E90"/>
<path d="M21.7679 9.58035L16.691 12.7092L16.6658 12.6683L21.7679 9.52411V9.58035Z" fill="#FF3E91"/>
<path d="M17.4669 13.9771L16.6912 12.7092L21.7681 9.58035V13.9771H17.4669Z" fill="#FF3E91"/>
</g>
<mask id="mask3_5780_2029" style="mask-type:luminance" maskUnits="userSpaceOnUse" x="0" y="0" width="22" height="10">
<path d="M0.920166 9.31222L11.3441 3.27174L21.7681 6.18221L11.3441 0.142014L0.920166 6.18221V9.31222Z" fill="white"/>
</mask>
<g mask="url(#mask3_5780_2029)">
<path d="M6.42901 0.142014L5.55596 9.31222H0.920166V0.142014H6.42901Z" fill="#801F49"/>
<path d="M6.48018 0.142014L5.60713 9.31222H5.55591L6.42896 0.142014H6.48018Z" fill="#801F49"/>
<path d="M6.53117 0.142014L5.65812 9.31222H5.60718L6.48023 0.142014H6.53117Z" fill="#811F4A"/>
<path d="M6.58195 0.142014L5.70918 9.31222H5.65796L6.53101 0.142014H6.58195Z" fill="#821F4A"/>
<path d="M6.63322 0.142014L5.76017 9.31222H5.70923L6.58199 0.142014H6.63322Z" fill="#83204B"/>
<path d="M6.68424 0.142014L5.81148 9.31222H5.76025L6.6333 0.142014H6.68424Z" fill="#84204B"/>
<path d="M6.73551 0.142014L5.86246 9.31222H5.81152L6.68429 0.142014H6.73551Z" fill="#85204C"/>
<path d="M6.78629 0.142014L5.91353 9.31222H5.8623L6.73535 0.142014H6.78629Z" fill="#86204C"/>
<path d="M6.83756 0.142014L5.96451 9.31222H5.91357L6.78634 0.142014H6.83756Z" fill="#87204D"/>
<path d="M6.88859 0.142014L6.01554 9.31222H5.9646L6.83765 0.142014H6.88859Z" fill="#88204D"/>
<path d="M6.93937 0.142014L6.0666 9.31222H6.01538L6.88843 0.142014H6.93937Z" fill="#89214E"/>
<path d="M6.99064 0.142014L6.11759 9.31222H6.06665L6.93942 0.142014H6.99064Z" fill="#8A214E"/>
<path d="M7.04166 0.142014L6.1689 9.31222H6.11768L6.99072 0.142014H7.04166Z" fill="#8B214F"/>
<path d="M7.09293 0.142014L6.21989 9.31222H6.16895L7.04171 0.142014H7.09293Z" fill="#8C214F"/>
<path d="M7.14372 0.142014L6.27095 9.31222H6.21973L7.09278 0.142014H7.14372Z" fill="#8D2150"/>
<path d="M7.19498 0.142014L6.32194 9.31222H6.271L7.14376 0.142014H7.19498Z" fill="#8E2150"/>
<path d="M7.24601 0.142014L6.37296 9.31222H6.32202L7.19507 0.142014H7.24601Z" fill="#8F2251"/>
<path d="M7.29679 0.142014L6.42403 9.31222H6.3728L7.24585 0.142014H7.29679Z" fill="#902251"/>
<path d="M7.34806 0.142014L6.47501 9.31222H6.42407L7.29684 0.142014H7.34806Z" fill="#912252"/>
<path d="M7.39909 0.142014L6.52632 9.31222H6.4751L7.34815 0.142014H7.39909Z" fill="#922252"/>
<path d="M7.45036 0.142014L6.57731 9.31222H6.52637L7.39913 0.142014H7.45036Z" fill="#932253"/>
<path d="M7.50114 0.142014L6.62837 9.31222H6.57715L7.4502 0.142014H7.50114Z" fill="#942354"/>
<path d="M7.55241 0.142014L6.67936 9.31222H6.62842L7.50119 0.142014H7.55241Z" fill="#952354"/>
<path d="M7.60343 0.142014L6.73038 9.31222H6.67944L7.55249 0.142014H7.60343Z" fill="#962355"/>
<path d="M7.65474 0.142014L6.78169 9.31222H6.73047L7.60352 0.142014H7.65474Z" fill="#972355"/>
<path d="M7.70548 0.142014L6.83243 9.31222H6.78149L7.65454 0.142014H7.70548Z" fill="#982356"/>
<path d="M7.75651 0.142014L6.88374 9.31222H6.83252L7.70557 0.142014H7.75651Z" fill="#992356"/>
<path d="M7.80778 0.142014L6.93473 9.31222H6.88379L7.75655 0.142014H7.80778Z" fill="#9A2457"/>
<path d="M7.85856 0.142014L6.98579 9.31222H6.93457L7.80762 0.142014H7.85856Z" fill="#9B2457"/>
<path d="M7.90983 0.142014L7.03678 9.31222H6.98584L7.85861 0.142014H7.90983Z" fill="#9C2458"/>
<path d="M7.96085 0.142014L7.0878 9.31222H7.03687L7.90991 0.142014H7.96085Z" fill="#9D2458"/>
<path d="M8.01216 0.142014L7.13911 9.31222H7.08789L7.96094 0.142014H8.01216Z" fill="#9E2459"/>
<path d="M8.0629 0.142014L7.18986 9.31222H7.13892L8.01196 0.142014H8.0629Z" fill="#9F2459"/>
<path d="M8.11393 0.142014L7.24116 9.31222H7.18994L8.06299 0.142014H8.11393Z" fill="#A0255A"/>
<path d="M8.1652 0.142014L7.29215 9.31222H7.24121L8.11398 0.142014H8.1652Z" fill="#A1255A"/>
<path d="M8.21598 0.142014L7.34321 9.31222H7.29199L8.16504 0.142014H8.21598Z" fill="#A2255B"/>
<path d="M8.26725 0.142014L7.3942 9.31222H7.34326L8.21603 0.142014H8.26725Z" fill="#A3255B"/>
<path d="M8.31828 0.142014L7.44523 9.31222H7.39429L8.26734 0.142014H8.31828Z" fill="#A4255C"/>
<path d="M8.36958 0.142014L7.49654 9.31222H7.44531L8.31836 0.142014H8.36958Z" fill="#A6265D"/>
<path d="M8.42033 0.142014L7.54728 9.31222H7.49634L8.36939 0.142014H8.42033Z" fill="#A7265D"/>
<path d="M8.47135 0.142014L7.59859 9.31222H7.54736L8.42041 0.142014H8.47135Z" fill="#A8265E"/>
<path d="M8.52262 0.142014L7.64957 9.31222H7.59863L8.4714 0.142014H8.52262Z" fill="#A9265E"/>
<path d="M8.5734 0.142014L7.70064 9.31222H7.64941L8.52246 0.142014H8.5734Z" fill="#AA265F"/>
<path d="M8.62467 0.142014L7.75162 9.31222H7.70068L8.57345 0.142014H8.62467Z" fill="#AB265F"/>
<path d="M8.6757 0.142014L7.80293 9.31222H7.75171L8.62476 0.142014H8.6757Z" fill="#AC2760"/>
<path d="M8.72668 0.142014L7.85392 9.31222H7.80298L8.67575 0.142014H8.72668Z" fill="#AD2760"/>
<path d="M8.77775 0.142014L7.9047 9.31222H7.85376L8.72653 0.142014H8.77775Z" fill="#AE2761"/>
<path d="M8.82877 0.142014L7.95601 9.31222H7.90479L8.77783 0.142014H8.82877Z" fill="#AF2761"/>
<path d="M8.88004 0.142014L8.00699 9.31222H7.95605L8.82882 0.142014H8.88004Z" fill="#B02762"/>
<path d="M8.93082 0.142014L8.05806 9.31222H8.00684L8.87988 0.142014H8.93082Z" fill="#B12762"/>
<path d="M8.98209 0.142014L8.10904 9.31222H8.05811L8.93087 0.142014H8.98209Z" fill="#B22863"/>
<path d="M9.03312 0.142014L8.16035 9.31222H8.10913L8.98218 0.142014H9.03312Z" fill="#B32863"/>
<path d="M9.08411 0.142014L8.21134 9.31222H8.1604L9.03317 0.142014H9.08411Z" fill="#B42864"/>
<path d="M9.13517 0.142014L8.26212 9.31222H8.21118L9.08395 0.142014H9.13517Z" fill="#B52864"/>
<path d="M9.1862 0.142014L8.31343 9.31222H8.26221L9.13526 0.142014H9.1862Z" fill="#B62865"/>
<path d="M9.23746 0.142014L8.36442 9.31222H8.31348L9.18624 0.142014H9.23746Z" fill="#B72865"/>
<path d="M9.28825 0.142014L8.41548 9.31222H8.36426L9.23731 0.142014H9.28825Z" fill="#B82966"/>
<path d="M9.33952 0.142014L8.46647 9.31222H8.41553L9.28829 0.142014H9.33952Z" fill="#B92967"/>
<path d="M9.39054 0.142014L8.51778 9.31222H8.46655L9.3396 0.142014H9.39054Z" fill="#BA2967"/>
<path d="M9.44181 0.142014L8.56876 9.31222H8.51782L9.39059 0.142014H9.44181Z" fill="#BB2968"/>
<path d="M9.49259 0.142014L8.61954 9.31222H8.5686L9.44165 0.142014H9.49259Z" fill="#BC2968"/>
<path d="M9.54362 0.142014L8.67085 9.31222H8.61963L9.49268 0.142014H9.54362Z" fill="#BD2A69"/>
<path d="M9.59489 0.142014L8.72184 9.31222H8.6709L9.54366 0.142014H9.59489Z" fill="#BE2A69"/>
<path d="M9.64567 0.142014L8.7729 9.31222H8.72168L9.59473 0.142014H9.64567Z" fill="#BF2A6A"/>
<path d="M9.69694 0.142014L8.82389 9.31222H8.77295L9.64571 0.142014H9.69694Z" fill="#C02A6A"/>
<path d="M9.74796 0.142014L8.8752 9.31222H8.82397L9.69702 0.142014H9.74796Z" fill="#C12A6B"/>
<path d="M9.79923 0.142014L8.92618 9.31222H8.87524L9.74801 0.142014H9.79923Z" fill="#C22A6B"/>
<path d="M9.85001 0.142014L8.97697 9.31222H8.92603L9.79907 0.142014H9.85001Z" fill="#C32B6C"/>
<path d="M9.90104 0.142014L9.02827 9.31222H8.97705L9.8501 0.142014H9.90104Z" fill="#C42B6C"/>
<path d="M9.95231 0.142014L9.07926 9.31222H9.02832L9.90109 0.142014H9.95231Z" fill="#C52B6D"/>
<path d="M10.0033 0.142014L9.13057 9.31222H9.07935L9.9524 0.142014H10.0033Z" fill="#C62B6D"/>
<path d="M10.0544 0.142014L9.18131 9.31222H9.13037L10.0031 0.142014H10.0544Z" fill="#C72B6E"/>
<path d="M10.1054 0.142014L9.23262 9.31222H9.1814L10.0544 0.142014H10.1054Z" fill="#C82B6E"/>
<path d="M10.1567 0.142014L9.28361 9.31222H9.23267L10.1054 0.142014H10.1567Z" fill="#C92C6F"/>
<path d="M10.2074 0.142014L9.33439 9.31222H9.28345L10.1565 0.142014H10.2074Z" fill="#CA2C6F"/>
<path d="M10.2585 0.142014L9.3857 9.31222H9.33447L10.2075 0.142014H10.2585Z" fill="#CB2C70"/>
<path d="M14.6059 0.142014L13.7329 9.31222H9.38574L10.2585 0.142014H14.6059Z" fill="#CB2C70"/>
<path d="M14.6846 0.142014L13.8119 9.31222H13.7329L14.606 0.142014H14.6846Z" fill="#CB2C70"/>
<path d="M14.7638 0.142014L13.8907 9.31222H13.8118L14.6845 0.142014H14.7638Z" fill="#CC2C71"/>
<path d="M14.8429 0.142014L13.9698 9.31222H13.8909L14.7639 0.142014H14.8429Z" fill="#CD2D71"/>
<path d="M14.9214 0.142014L14.0487 9.31222H13.9697L14.8428 0.142014H14.9214Z" fill="#CE2D72"/>
<path d="M15.0006 0.142014L14.1275 9.31222H14.0486L14.9214 0.142014H15.0006Z" fill="#CF2D73"/>
<path d="M15.0797 0.142014L14.2066 9.31222H14.1277L15.0007 0.142014H15.0797Z" fill="#D02E73"/>
<path d="M15.1583 0.142014L14.2855 9.31222H14.2065L15.0796 0.142014H15.1583Z" fill="#D12E74"/>
<path d="M15.1694 0.142014L15.2368 0.148546L14.3646 9.31222H14.2856L15.1584 0.142014H15.1694Z" fill="#D22E75"/>
<path d="M15.2367 0.148544L15.3151 0.155929L14.4435 9.31222H14.3645L15.2367 0.148544Z" fill="#D32F75"/>
<path d="M15.315 0.15593L15.3931 0.163598L14.5223 9.31222H14.4434L15.315 0.15593Z" fill="#D42F76"/>
<path d="M15.3932 0.163605L15.4716 0.17099L14.6014 9.31223H14.5225L15.3932 0.163605Z" fill="#D53076"/>
<path d="M15.4715 0.17099L15.5496 0.178375L14.6803 9.31223H14.6013L15.4715 0.17099Z" fill="#D63077"/>
<path d="M15.5498 0.178375L15.6282 0.186044L14.7594 9.31223H14.6804L15.5498 0.178375Z" fill="#D73078"/>
<path d="M15.6281 0.186035L15.7062 0.19342L14.8382 9.31222H14.7593L15.6281 0.186035Z" fill="#D83178"/>
<path d="M15.7061 0.19342L15.7845 0.201089L14.9171 9.31222H14.8381L15.7061 0.19342Z" fill="#D93179"/>
<path d="M15.7846 0.201096L15.8627 0.20848L14.9962 9.31223H14.9172L15.7846 0.201096Z" fill="#DA317A"/>
<path d="M15.8626 0.208481L15.9407 0.215866L15.0751 9.31223H14.9961L15.8626 0.208481Z" fill="#DB327A"/>
<path d="M15.9409 0.215866L16.0193 0.223535L15.1542 9.31223H15.0752L15.9409 0.215866Z" fill="#DC327B"/>
<path d="M16.0192 0.223526L16.0976 0.230911L15.233 9.31222H15.1541L16.0192 0.223526Z" fill="#DD327C"/>
<path d="M16.0975 0.230911L16.1756 0.23858L15.3119 9.31222H15.2329L16.0975 0.230911Z" fill="#DE337C"/>
<path d="M16.1757 0.238586L16.2538 0.245971L15.391 9.31222H15.312L16.1757 0.238586Z" fill="#DF337D"/>
<path d="M16.2537 0.245956L16.3321 0.253625L15.4698 9.31221H15.3909L16.2537 0.245956Z" fill="#E0337E"/>
<path d="M16.3323 0.253632L16.4104 0.261016L15.5489 9.31221H15.47L16.3323 0.253632Z" fill="#E1347E"/>
<path d="M16.4103 0.261017L16.4887 0.268402L15.6278 9.31222H15.5488L16.4103 0.261017Z" fill="#E2347F"/>
<path d="M16.4888 0.268402L16.5669 0.276071L15.7069 9.31222H15.6279L16.4888 0.268402Z" fill="#E33480"/>
<path d="M16.5668 0.276077L16.6452 0.283462L15.7857 9.31222H15.7068L16.5668 0.276077Z" fill="#E43580"/>
<path d="M16.6451 0.283463L16.7232 0.291131L15.8646 9.31222H15.7856L16.6451 0.283463Z" fill="#E63581"/>
<path d="M16.7234 0.291122L16.8018 0.298507L15.9437 9.31221H15.8647L16.7234 0.291122Z" fill="#E73681"/>
<path d="M16.8017 0.298508L16.8798 0.305893L16.0226 9.31222H15.9436L16.8017 0.298508Z" fill="#E83682"/>
<path d="M16.8799 0.305893L16.9583 0.313562L16.1017 9.31222H16.0227L16.8799 0.305893Z" fill="#E93683"/>
<path d="M16.9582 0.313568L17.0363 0.320953L16.1805 9.31222H16.1016L16.9582 0.313568Z" fill="#EA3783"/>
<path d="M17.0362 0.320953L17.1146 0.328622L16.2594 9.31222H16.1804L17.0362 0.320953Z" fill="#EB3784"/>
<path d="M17.1147 0.328629L17.1928 0.336013L16.3385 9.31223H16.2595L17.1147 0.328629Z" fill="#EC3785"/>
<path d="M17.1928 0.335999L17.2709 0.343667L16.4173 9.31221H16.3384L17.1928 0.335999Z" fill="#ED3885"/>
<path d="M17.271 0.343674L17.3494 0.351059L16.4964 9.31222H16.4175L17.271 0.343674Z" fill="#EE3886"/>
<path d="M17.3493 0.351059L17.4277 0.358444L16.5753 9.31222H16.4963L17.3493 0.351059Z" fill="#EF3887"/>
<path d="M17.4276 0.358444L17.5057 0.366113L16.6542 9.31222H16.5752L17.4276 0.358444Z" fill="#F03987"/>
<path d="M17.5058 0.366104L17.5839 0.373489L16.7333 9.31221H16.6543L17.5058 0.366104Z" fill="#F13988"/>
<path d="M17.5838 0.373489L17.6622 0.381158L16.8121 9.31221H16.7332L17.5838 0.373489Z" fill="#F23989"/>
<path d="M17.6624 0.381165L17.7405 0.388549L16.8912 9.31222H16.8123L17.6624 0.381165Z" fill="#F33A89"/>
<path d="M17.7404 0.38855L17.8188 0.395934L16.9701 9.31222H16.8911L17.7404 0.38855Z" fill="#F43A8A"/>
<path d="M17.8187 0.395935L17.8968 0.403604L17.0489 9.31222H16.97L17.8187 0.395935Z" fill="#F53A8B"/>
<path d="M17.8969 0.40361L17.9753 0.410995L17.128 9.31223H17.0491L17.8969 0.40361Z" fill="#F63B8B"/>
<path d="M17.9752 0.410995L18.0533 0.418664L17.2069 9.31223H17.1279L17.9752 0.410995Z" fill="#F73B8C"/>
<path d="M18.0535 0.418655L18.1319 0.42604L17.286 9.31222H17.207L18.0535 0.418655Z" fill="#F83C8C"/>
<path d="M18.1318 0.426041L18.2099 0.433709L17.3648 9.31222H17.2859L18.1318 0.426041Z" fill="#F93C8D"/>
<path d="M18.2098 0.433716L18.2882 0.441101L17.4437 9.31222H17.3647L18.2098 0.433716Z" fill="#FA3C8E"/>
<path d="M18.2883 0.441101L18.3664 0.448486L17.5228 9.31223H17.4438L18.2883 0.441101Z" fill="#FB3D8E"/>
<path d="M18.3663 0.448486L18.4447 0.456155L17.6017 9.31223H17.5227L18.3663 0.448486Z" fill="#FC3D8F"/>
<path d="M18.4449 0.456146L18.523 0.463531L17.6808 9.31222H17.6018L18.4449 0.456146Z" fill="#FD3D90"/>
<path d="M18.5229 0.463531L18.601 0.4712L17.7596 9.31222H17.6807L18.5229 0.463531Z" fill="#FE3E90"/>
<path d="M18.6011 0.471207L18.6795 0.478592L17.8387 9.31222H17.7598L18.6011 0.471207Z" fill="#FF3E91"/>
<path d="M18.6794 0.478592L21.7681 0.774836V9.31222H17.8386L18.6794 0.478592Z" fill="#FF3E91"/>
</g>
<mask id="mask4_5780_2029" style="mask-type:luminance" maskUnits="userSpaceOnUse" x="1" y="4" width="18" height="8">
<path d="M3.7507 11.7813L11.474 7.37371L18.3831 11.7813L18.3053 8.01278L11.474 4.05424L1.05005 10.0944L3.7507 11.7813Z" fill="white"/>
</mask>
<g mask="url(#mask4_5780_2029)">
<path d="M1.05005 5.76381L3.86673 5.20143L5.17135 11.7813H1.05005V5.76381Z" fill="#4CA1CF"/>
<path d="M3.8667 5.20144L3.98584 5.17758L5.29527 11.7813H5.17132L3.8667 5.20144Z" fill="#4CA1CF"/>
<path d="M3.98584 5.17758L4.10498 5.15372L5.41894 11.7813H5.29527L3.98584 5.17758Z" fill="#4CA0CF"/>
<path d="M4.10498 5.15371L4.22412 5.12985L5.54289 11.7813H5.41894L4.10498 5.15371Z" fill="#4CA0CE"/>
<path d="M4.22412 5.12987L4.34298 5.10629L5.66656 11.7813H5.54289L4.22412 5.12987Z" fill="#4C9FCE"/>
<path d="M4.34302 5.10629L4.46216 5.08243L5.79055 11.7813H5.6666L4.34302 5.10629Z" fill="#4C9ECD"/>
<path d="M4.46216 5.08244L4.5813 5.05858L5.91422 11.7813H5.79055L4.46216 5.08244Z" fill="#4C9DCD"/>
<path d="M4.5813 5.05857L4.70044 5.03471L6.03817 11.7813H5.91422L4.5813 5.05857Z" fill="#4C9CCD"/>
<path d="M4.70044 5.03471L4.81958 5.01114L6.16184 11.7813H6.03817L4.70044 5.03471Z" fill="#4C9CCC"/>
<path d="M4.81958 5.01113L4.93872 4.98727L6.28579 11.7813H6.16184L4.81958 5.01113Z" fill="#4C9BCC"/>
<path d="M4.93872 4.98728L5.05758 4.96342L6.40946 11.7813H6.28579L4.93872 4.98728Z" fill="#4C9ACB"/>
<path d="M5.05762 4.96342L5.17676 4.93956L6.53345 11.7813H6.4095L5.05762 4.96342Z" fill="#4C99CB"/>
<path d="M5.17676 4.93956L5.2959 4.91599L6.65712 11.7813H6.53345L5.17676 4.93956Z" fill="#4C98CA"/>
<path d="M5.2959 4.91598L5.41504 4.89212L6.78107 11.7813H6.65712L5.2959 4.91598Z" fill="#4C97CA"/>
<path d="M5.41504 4.89213L5.53418 4.86827L6.90474 11.7813H6.78107L5.41504 4.89213Z" fill="#4C96C9"/>
<path d="M5.53418 4.86826L5.65332 4.84441L7.02869 11.7813H6.90474L5.53418 4.86826Z" fill="#4C95C9"/>
<path d="M5.65332 4.84441L5.77218 4.82083L7.15236 11.7813H7.02869L5.65332 4.84441Z" fill="#4C94C8"/>
<path d="M5.77222 4.82083L5.89136 4.79697L7.27635 11.7813H7.1524L5.77222 4.82083Z" fill="#4C93C7"/>
<path d="M5.89136 4.79698L6.0105 4.77312L7.40002 11.7813H7.27635L5.89136 4.79698Z" fill="#4C92C7"/>
<path d="M6.0105 4.77311L6.12964 4.74925L7.52397 11.7813H7.40002L6.0105 4.77311Z" fill="#4C91C6"/>
<path d="M6.12964 4.74925L6.24878 4.72568L7.64764 11.7813H7.52397L6.12964 4.74925Z" fill="#4C90C6"/>
<path d="M6.24878 4.72569L6.36792 4.70183L7.77159 11.7813H7.64764L6.24878 4.72569Z" fill="#4C8FC5"/>
<path d="M6.36792 4.70182L6.48706 4.67796L7.89526 11.7813H7.77159L6.36792 4.70182Z" fill="#4C8EC5"/>
<path d="M6.48706 4.67796L6.60592 4.6541L8.01921 11.7813H7.89526L6.48706 4.67796Z" fill="#4C8DC4"/>
<path d="M6.60571 4.65411L6.72485 4.63054L8.14268 11.7813H8.01901L6.60571 4.65411Z" fill="#4C8CC4"/>
<path d="M6.7251 4.63053L6.84424 4.60667L8.26687 11.7813H8.14292L6.7251 4.63053Z" fill="#4D8AC3"/>
<path d="M6.84424 4.60668L6.96338 4.58282L8.39054 11.7813H8.26687L6.84424 4.60668Z" fill="#4D89C2"/>
<path d="M6.96313 4.58282L7.08228 4.55896L8.51425 11.7813H8.39029L6.96313 4.58282Z" fill="#4D88C2"/>
<path d="M7.08252 4.55896L7.20166 4.53539L8.63816 11.7813H8.51449L7.08252 4.55896Z" fill="#4D87C1"/>
<path d="M7.20166 4.53539L7.32052 4.51154L8.76211 11.7813H8.63816L7.20166 4.53539Z" fill="#4D86C1"/>
<path d="M7.32031 4.51153L7.43945 4.48767L8.88557 11.7813H8.7619L7.32031 4.51153Z" fill="#4D85C0"/>
<path d="M7.43945 4.48766L7.5586 4.46381L9.00953 11.7813H8.88557L7.43945 4.48766Z" fill="#4D84BF"/>
<path d="M7.55859 4.46381L7.67774 4.44023L9.13319 11.7813H9.00952L7.55859 4.46381Z" fill="#4D83BF"/>
<path d="M7.67773 4.44024L7.79688 4.41638L9.25715 11.7813H9.13319L7.67773 4.44024Z" fill="#4D82BE"/>
<path d="M7.79688 4.41638L7.91602 4.39252L9.38082 11.7813H9.25715L7.79688 4.41638Z" fill="#4D80BE"/>
<path d="M7.91602 4.39253L8.03488 4.36867L9.50477 11.7813H9.38081L7.91602 4.39253Z" fill="#4D7FBD"/>
<path d="M8.03491 4.36865L8.15405 4.34508L9.62847 11.7813H9.5048L8.03491 4.36865Z" fill="#4D7EBC"/>
<path d="M8.15405 4.34509L8.2732 4.32123L9.75243 11.7813H9.62847L8.15405 4.34509Z" fill="#4D7DBC"/>
<path d="M8.27319 4.32122L8.39234 4.29736L9.87609 11.7813H9.75242L8.27319 4.32122Z" fill="#4D7CBB"/>
<path d="M8.39233 4.29737L8.51148 4.27351L10 11.7813H9.87609L8.39233 4.29737Z" fill="#4D7BBB"/>
<path d="M8.51147 4.27351L8.63062 4.24994L10.1237 11.7813H10L8.51147 4.27351Z" fill="#4D7ABA"/>
<path d="M8.63062 4.24993L8.74947 4.22607L10.2477 11.7813H10.1237L8.63062 4.24993Z" fill="#4D78B9"/>
<path d="M8.74951 4.22607L8.86865 4.20221L10.3714 11.7813H10.2477L8.74951 4.22607Z" fill="#4D77B9"/>
<path d="M8.86865 4.20222L8.9878 4.17836L10.4953 11.7813H10.3714L8.86865 4.20222Z" fill="#4D76B8"/>
<path d="M8.98779 4.17836L9.04043 4.16785L10.5499 11.7813H10.4953L8.98779 4.17836Z" fill="#4D76B8"/>
<path d="M9.04053 4.16786L9.09317 4.15735L10.6049 11.7813H10.55L9.04053 4.16786Z" fill="#4D75B7"/>
<path d="M9.09302 4.15734L9.14565 4.14684L10.6594 11.7813H10.6048L9.09302 4.15734Z" fill="#4C75B6"/>
<path d="M9.14575 4.14683L9.19867 4.13632L10.7144 11.7813H10.6595L9.14575 4.14683Z" fill="#4C74B5"/>
<path d="M9.19873 4.13632L9.25137 4.12581L10.7691 11.7813H10.7145L9.19873 4.13632Z" fill="#4B73B4"/>
<path d="M9.25122 4.1258L9.30386 4.1153L10.8238 11.7813H10.7689L9.25122 4.1258Z" fill="#4B73B3"/>
<path d="M9.30396 4.11531L9.35659 4.1048L10.8786 11.7813H10.8239L9.30396 4.11531Z" fill="#4A72B2"/>
<path d="M9.35669 4.10479L9.40933 4.09428L10.9336 11.7813H10.8787L9.35669 4.10479Z" fill="#4A71B1"/>
<path d="M9.40918 4.09428L9.46182 4.08377L10.988 11.7813H10.9334L9.40918 4.09428Z" fill="#4971B0"/>
<path d="M9.46191 4.08377L9.51455 4.07326L11.043 11.7813H10.9881L9.46191 4.08377Z" fill="#4970AF"/>
<path d="M9.5144 4.07327L9.56704 4.06276L11.0975 11.7813H11.0429L9.5144 4.07327Z" fill="#486FAE"/>
<path d="M9.56714 4.06275L9.60987 4.05423H9.62034L11.1525 11.7813H11.0976L9.56714 4.06275Z" fill="#486FAD"/>
<path d="M9.67526 4.05423L11.2071 11.7813H11.1525L9.62036 4.05423H9.67526Z" fill="#476EAC"/>
<path d="M9.72991 4.05423L11.2621 11.7813H11.2072L9.67529 4.05423H9.72991Z" fill="#476DAB"/>
<path d="M9.78464 4.05423L11.3165 11.7813H11.2619L9.72974 4.05423H9.78464Z" fill="#466DAA"/>
<path d="M9.83929 4.05423L11.3714 11.7813H11.3165L9.78467 4.05423H9.83929Z" fill="#466CA9"/>
<path d="M9.89397 4.05423L11.4261 11.7813H11.3715L9.83936 4.05423H9.89397Z" fill="#456BA8"/>
<path d="M9.94894 4.05423L11.4811 11.7813H11.4262L9.89404 4.05423H9.94894Z" fill="#456BA7"/>
<path d="M10.0039 4.05423L11.5357 11.7813H11.4811L9.94897 4.05423H10.0039Z" fill="#456AA6"/>
<path d="M10.0583 4.05423L11.5904 11.7813H11.5355L10.0037 4.05423H10.0583Z" fill="#4469A5"/>
<path d="M10.1133 4.05423L11.6451 11.7813H11.5905L10.0583 4.05423H10.1133Z" fill="#4468A4"/>
<path d="M10.1679 4.05423L11.7001 11.7813H11.6451L10.1133 4.05423H10.1679Z" fill="#4368A3"/>
<path d="M10.2229 4.05423L11.7547 11.7813H11.7001L10.168 4.05423H10.2229Z" fill="#4367A2"/>
<path d="M10.2775 4.05423L11.8097 11.7813H11.7548L10.2229 4.05423H10.2775Z" fill="#4266A1"/>
<path d="M10.3325 4.05423L11.8644 11.7813H11.8097L10.2776 4.05423H10.3325Z" fill="#4266A0"/>
<path d="M10.3869 4.05423L11.919 11.7813H11.8641L10.3323 4.05423H10.3869Z" fill="#41659F"/>
<path d="M10.4419 4.05423L11.9737 11.7813H11.9191L10.387 4.05423H10.4419Z" fill="#41649E"/>
<path d="M10.4965 4.05423L12.0287 11.7813H11.9738L10.4419 4.05423H10.4965Z" fill="#40649D"/>
<path d="M10.5515 4.05423L12.0834 11.7813H12.0287L10.4966 4.05423H10.5515Z" fill="#40639C"/>
<path d="M10.6061 4.05423L12.1383 11.7813H12.0834L10.5515 4.05423H10.6061Z" fill="#3F629B"/>
<path d="M10.6609 4.05423L12.1927 11.7813H12.1381L10.606 4.05423H10.6609Z" fill="#3F629A"/>
<path d="M10.7155 4.05423L12.2477 11.7813H12.1928L10.6609 4.05423H10.7155Z" fill="#3E6199"/>
<path d="M10.7702 4.05423L12.3023 11.7813H12.2477L10.7156 4.05423H10.7702Z" fill="#3E6098"/>
<path d="M10.8252 4.05423L12.3573 11.7813H12.3024L10.7703 4.05423H10.8252Z" fill="#3D6097"/>
<path d="M10.8796 4.05423L12.4117 11.7813H12.3571L10.825 4.05423H10.8796Z" fill="#3D5F96"/>
<path d="M10.9345 4.05423L12.4667 11.7813H12.4118L10.8796 4.05423H10.9345Z" fill="#3D5E95"/>
<path d="M10.9892 4.05423L12.5213 11.7813H12.4667L10.9346 4.05423H10.9892Z" fill="#3C5E94"/>
<path d="M11.0442 4.05423L12.5763 11.7813H12.5214L10.9893 4.05423H11.0442Z" fill="#3C5D93"/>
<path d="M11.0988 4.05423L12.631 11.7813H12.5763L11.0442 4.05423H11.0988Z" fill="#3B5C92"/>
<path d="M11.1535 4.05423L12.6857 11.7813H12.6308L11.0986 4.05423H11.1535Z" fill="#3B5C91"/>
<path d="M11.2082 4.05423L12.7403 11.7813H12.6857L11.1536 4.05423H11.2082Z" fill="#3A5B90"/>
<path d="M11.2632 4.05423L12.7953 11.7813H12.7404L11.2083 4.05423H11.2632Z" fill="#3A5A8F"/>
<path d="M11.3178 4.05423L12.85 11.7813H12.7953L11.2632 4.05423H11.3178Z" fill="#395A8E"/>
<path d="M11.3728 4.05423L12.9049 11.7813H12.85L11.3179 4.05423H11.3728Z" fill="#39598D"/>
<path d="M11.4275 4.05423L12.9593 11.7813H12.9047L11.3726 4.05423H11.4275Z" fill="#38588C"/>
<path d="M11.4821 4.05423L13.0143 11.7813H12.9594L11.4275 4.05423H11.4821Z" fill="#38588B"/>
<path d="M11.5371 4.05423L13.0689 11.7813H13.0143L11.4822 4.05423H11.5371Z" fill="#37578A"/>
<path d="M11.5917 4.05423L13.1239 11.7813H13.069L11.5371 4.05423H11.5917Z" fill="#375689"/>
<path d="M11.6467 4.05423L13.1786 11.7813H13.1239L11.5918 4.05423H11.6467Z" fill="#365688"/>
<path d="M11.7011 4.05423L13.2333 11.7813H13.1784L11.6465 4.05423H11.7011Z" fill="#365587"/>
<path d="M11.7558 4.05423L13.2879 11.7813H13.2333L11.7012 4.05423H11.7558Z" fill="#355486"/>
<path d="M11.8108 4.05423L13.3429 11.7813H13.288L11.7559 4.05423H11.8108Z" fill="#355485"/>
<path d="M11.8654 4.05423L13.3976 11.7813H13.3429L11.8108 4.05423H11.8654Z" fill="#355384"/>
<path d="M11.9204 4.05423L13.4525 11.7813H13.3976L11.8655 4.05423H11.9204Z" fill="#345283"/>
<path d="M11.9748 4.05423L13.5069 11.7813H13.4523L11.9202 4.05423H11.9748Z" fill="#345282"/>
<path d="M12.0298 4.05423L13.5619 11.7813H13.507L11.9749 4.05423H12.0298Z" fill="#335181"/>
<path d="M12.0844 4.05423L13.6166 11.7813H13.5619L12.0298 4.05423H12.0844Z" fill="#335080"/>
<path d="M12.1394 4.05423L13.6715 11.7813H13.6166L12.0845 4.05423H12.1394Z" fill="#32507F"/>
<path d="M12.194 4.05423L13.7262 11.7813H13.6716L12.1394 4.05423H12.194Z" fill="#324F7E"/>
<path d="M12.2487 4.05423L13.7809 11.7813H13.726L12.1938 4.05423H12.2487Z" fill="#314E7C"/>
<path d="M12.3034 4.05423L13.8355 11.7813H13.7809L12.2488 4.05423H12.3034Z" fill="#314D7B"/>
<path d="M12.3584 4.05423L13.8905 11.7813H13.8356L12.3035 4.05423H12.3584Z" fill="#304D7A"/>
<path d="M12.413 4.05423L13.9452 11.7813H13.8905L12.3584 4.05423H12.413Z" fill="#304C79"/>
<path d="M12.4677 4.05423L13.9999 11.7813H13.945L12.4128 4.05423H12.4677Z" fill="#2F4B78"/>
<path d="M12.5224 4.05423L14.0545 11.7813H13.9999L12.4678 4.05423H12.5224Z" fill="#2F4B77"/>
<path d="M12.5774 4.05423L14.1095 11.7813H14.0546L12.5225 4.05423H12.5774Z" fill="#2E4A76"/>
<path d="M12.632 4.05423L14.1642 11.7813H14.1095L12.5774 4.05423H12.632Z" fill="#2E4975"/>
<path d="M12.687 4.05423L14.2191 11.7813H14.1642L12.6321 4.05423H12.687Z" fill="#2E4974"/>
<path d="M12.7414 4.05423L14.2735 11.7813H14.2189L12.6868 4.05423H12.7414Z" fill="#2D4873"/>
<path d="M12.7964 4.05423L14.3285 11.7813H14.2736L12.7415 4.05423H12.7964Z" fill="#2D4772"/>
<path d="M12.851 4.05423L14.3832 11.7813H14.3285L12.7964 4.05423H12.851Z" fill="#2C4771"/>
<path d="M12.906 4.05423L14.4381 11.7813H14.3832L12.8511 4.05423H12.906Z" fill="#2C4670"/>
<path d="M12.9606 4.05423L14.4928 11.7813H14.4382L12.906 4.05423H12.9606Z" fill="#2B456F"/>
<path d="M13.0154 4.05423L14.5475 11.7813H14.4926L12.9604 4.05423H13.0154Z" fill="#2B456E"/>
<path d="M13.07 4.05423L14.6022 11.7813H14.5475L13.0154 4.05423H13.07Z" fill="#2A446D"/>
<path d="M13.125 4.05423L14.6571 11.7813H14.6022L13.0701 4.05423H13.125Z" fill="#2A436C"/>
<path d="M13.1796 4.05423L14.7118 11.7813H14.6572L13.125 4.05423H13.1796Z" fill="#29436B"/>
<path d="M13.2346 4.05423L14.7667 11.7813H14.7118L13.1797 4.05423H13.2346Z" fill="#29426A"/>
<path d="M13.2892 4.05423L14.8214 11.7813H14.7668L13.2346 4.05423H13.2892Z" fill="#284169"/>
<path d="M13.344 4.05423L14.8761 11.7813H14.8212L13.2891 4.05423H13.344Z" fill="#284168"/>
<path d="M13.3986 4.05423L14.9308 11.7813H14.8761L13.344 4.05423H13.3986Z" fill="#274067"/>
<path d="M13.4536 4.05423L14.9857 11.7813H14.9308L13.3987 4.05423H13.4536Z" fill="#273F66"/>
<path d="M13.5082 4.05423L15.0404 11.7813H14.9858L13.4536 4.05423H13.5082Z" fill="#263F65"/>
<path d="M13.563 4.05423L15.0951 11.7813H15.0402L13.5081 4.05423H13.563Z" fill="#263E64"/>
<path d="M13.6176 4.05423L15.1498 11.7813H15.0951L13.563 4.05423H13.6176Z" fill="#263D63"/>
<path d="M13.6726 4.05423L15.2047 11.7813H15.1498L13.6177 4.05423H13.6726Z" fill="#253D62"/>
<path d="M13.7272 4.05423L15.2594 11.7813H15.2048L13.6726 4.05423H13.7272Z" fill="#253C61"/>
<path d="M13.7822 4.05423L15.3143 11.7813H15.2594L13.7273 4.05423H13.7822Z" fill="#243B60"/>
<path d="M13.8368 4.05423L15.369 11.7813H15.3144L13.7822 4.05423H13.8368Z" fill="#243B5F"/>
<path d="M13.8916 4.05423L15.4237 11.7813H15.3688L13.8367 4.05423H13.8916Z" fill="#233A5E"/>
<path d="M13.9462 4.05423L15.4784 11.7813H15.4238L13.8916 4.05423H13.9462Z" fill="#23395D"/>
<path d="M14.0012 4.05423L15.5333 11.7813H15.4784L13.9463 4.05423H14.0012Z" fill="#22395C"/>
<path d="M14.0558 4.05423L15.588 11.7813H15.5334L14.0012 4.05423H14.0558Z" fill="#22385B"/>
<path d="M14.1106 4.05423L15.6427 11.7813H15.5878L14.0557 4.05423H14.1106Z" fill="#21375A"/>
<path d="M14.1652 4.05423L15.6974 11.7813H15.6427L14.1106 4.05423H14.1652Z" fill="#213759"/>
<path d="M14.2202 4.05423L15.7523 11.7813H15.6974L14.1653 4.05423H14.2202Z" fill="#203658"/>
<path d="M14.2748 4.05423L15.807 11.7813H15.7524L14.2202 4.05423H14.2748Z" fill="#203557"/>
<path d="M14.3298 4.05423L15.862 11.7813H15.8071L14.2749 4.05423H14.3298Z" fill="#1F3556"/>
<path d="M14.3842 4.05423L15.9164 11.7813H15.8617L14.3296 4.05423H14.3842Z" fill="#1F3455"/>
<path d="M14.4392 4.05423L15.9713 11.7813H15.9164L14.3843 4.05423H14.4392Z" fill="#1E3354"/>
<path d="M14.4938 4.05423L16.026 11.7813H15.9714L14.4392 4.05423H14.4938Z" fill="#1E3253"/>
<path d="M14.5488 4.05423L16.0809 11.7813H16.026L14.4939 4.05423H14.5488Z" fill="#1E3252"/>
<path d="M14.6034 4.05423L16.1356 11.7813H16.081L14.5488 4.05423H14.6034Z" fill="#1D3151"/>
<path d="M14.6582 4.05423L16.1903 11.7813H16.1354L14.6033 4.05423H14.6582Z" fill="#1D3050"/>
<path d="M14.7128 4.05423L16.245 11.7813H16.1904L14.6582 4.05423H14.7128Z" fill="#1C304F"/>
<path d="M14.7678 4.05423L16.2999 11.7813H16.245L14.7129 4.05423H14.7678Z" fill="#1C2F4E"/>
<path d="M14.8224 4.05423L16.3546 11.7813H16.3L14.7678 4.05423H14.8224Z" fill="#1B2E4D"/>
<path d="M14.8774 4.05423L16.4096 11.7813H16.3547L14.8225 4.05423H14.8774Z" fill="#1B2E4C"/>
<path d="M14.9321 4.05423L16.4642 11.7813H16.4096L14.8774 4.05423H14.9321Z" fill="#1A2D4B"/>
<path d="M14.9868 4.05423L16.5189 11.7813H16.464L14.9319 4.05423H14.9868Z" fill="#1A2C4A"/>
<path d="M15.0414 4.05423L16.5736 11.7813H16.519L14.9868 4.05423H15.0414Z" fill="#192C49"/>
<path d="M15.0964 4.05423L16.6286 11.7813H16.5737L15.0415 4.05423H15.0964Z" fill="#192B48"/>
<path d="M15.1511 4.05423L16.6832 11.7813H16.6286L15.0964 4.05423H15.1511Z" fill="#182A47"/>
<path d="M15.2058 4.05423L16.7379 11.7813H16.683L15.1509 4.05423H15.2058Z" fill="#182A46"/>
<path d="M15.2604 4.05423L16.7926 11.7813H16.738L15.2058 4.05423H15.2604Z" fill="#172945"/>
<path d="M15.3154 4.05423L16.8476 11.7813H16.7926L15.2605 4.05423H15.3154Z" fill="#172844"/>
<path d="M15.37 4.05423L16.9022 11.7813H16.8476L15.3154 4.05423H15.37Z" fill="#162843"/>
<path d="M15.425 4.05423L16.9572 11.7813H16.9023L15.3701 4.05423H15.425Z" fill="#162742"/>
<path d="M16.957 11.7813L15.4248 4.05423H18.383V11.7813H16.957Z" fill="#162742"/>
</g>
<mask id="mask5_5780_2029" style="mask-type:luminance" maskUnits="userSpaceOnUse" x="1" y="4" width="11" height="17">
<path d="M11.6559 20.8064L3.93258 16.3312V11.7878L11.6559 4.06078L1.23193 10.1013V17.8959L11.6559 20.8064Z" fill="white"/>
</mask>
<g mask="url(#mask5_5780_2029)">
<path d="M11.6559 7.66738L2.03906 5.28862L2.34046 4.06076H11.6559V7.66738Z" fill="#4CA1CF"/>
<path d="M11.656 7.75544L2.0188 5.37157L2.03917 5.28864L11.656 7.66739V7.75544Z" fill="#4CA1CF"/>
<path d="M11.6559 7.84377L1.99829 5.4545L2.01867 5.37157L11.6559 7.75543V7.84377Z" fill="#4CA0CE"/>
<path d="M11.656 7.93154L1.97803 5.53745L1.9984 5.45451L11.656 7.84378V7.93154Z" fill="#4C9FCE"/>
<path d="M11.6559 8.01959L1.95752 5.62067L1.9779 5.53745L11.6559 7.93154V8.01959Z" fill="#4C9ECD"/>
<path d="M11.656 8.10764L1.93726 5.7036L1.95763 5.62067L11.656 8.01959V8.10764Z" fill="#4C9DCD"/>
<path d="M11.6558 8.19568L1.91675 5.78653L1.93712 5.7036L11.6558 8.10763V8.19568Z" fill="#4C9CCC"/>
<path d="M11.656 8.28373L1.89648 5.86947L1.91686 5.78653L11.656 8.19568V8.28373Z" fill="#4C9BCC"/>
<path d="M11.6558 8.37178L1.87598 5.95241L1.89635 5.86948L11.6558 8.28374V8.37178Z" fill="#4C9ACB"/>
<path d="M11.6559 8.45983L1.85571 6.03563L1.87609 5.95241L11.6559 8.37178V8.45983Z" fill="#4C99CB"/>
<path d="M11.656 8.54788L1.83545 6.11857L1.85583 6.03563L11.656 8.45983V8.54788Z" fill="#4C98CA"/>
<path d="M11.6559 8.63592L1.81494 6.2015L1.83532 6.11856L11.6559 8.54787V8.63592Z" fill="#4C97CA"/>
<path d="M11.656 8.72398L1.79468 6.28444L1.81505 6.20151L11.656 8.63593V8.72398Z" fill="#4C96C9"/>
<path d="M11.6559 8.81203L1.77417 6.36766L1.79455 6.28444L11.6559 8.72398V8.81203Z" fill="#4C95C8"/>
<path d="M11.656 8.90008L1.75391 6.4506L1.77428 6.36766L11.656 8.81203V8.90008Z" fill="#4C94C8"/>
<path d="M11.6559 8.98812L1.7334 6.53353L1.75377 6.45059L11.6559 8.90007V8.98812Z" fill="#4C93C7"/>
<path d="M11.656 9.07618L1.71313 6.61648L1.73351 6.53354L11.656 8.98813V9.07618Z" fill="#4C92C7"/>
<path d="M11.6559 9.16422L1.69263 6.69969L1.713 6.61647L11.6559 9.07617V9.16422Z" fill="#4C91C6"/>
<path d="M11.656 9.25227L1.67212 6.78263L1.69278 6.69969L11.656 9.16422V9.25227Z" fill="#4C90C6"/>
<path d="M11.6559 9.34033L1.65161 6.86558L1.67199 6.78264L11.6559 9.25228V9.34033Z" fill="#4C8FC5"/>
<path d="M11.656 9.42838L1.63135 6.94851L1.65172 6.86557L11.656 9.34033V9.42838Z" fill="#4C8EC5"/>
<path d="M11.6559 9.51642L1.61084 7.03144L1.63122 6.9485L11.6559 9.42837V9.51642Z" fill="#4C8DC4"/>
<path d="M11.656 9.60448L1.59058 7.11467L1.61095 7.03145L11.656 9.51643V9.60448Z" fill="#4D8BC3"/>
<path d="M11.6558 9.69253L1.57007 7.19761L1.59044 7.11467L11.6558 9.60448V9.69253Z" fill="#4D8AC3"/>
<path d="M11.6559 9.78057L1.5498 7.28054L1.57018 7.1976L11.6559 9.69252V9.78057Z" fill="#4D89C2"/>
<path d="M11.6561 9.86862L1.52954 7.36347L1.54992 7.28053L11.6561 9.78057V9.86862Z" fill="#4D88C2"/>
<path d="M11.6559 9.95668L1.50903 7.4467L1.52941 7.36348L11.6559 9.86863V9.95668Z" fill="#4D87C1"/>
<path d="M11.656 10.0447L1.48877 7.52964L1.50915 7.4467L11.656 9.95668V10.0447Z" fill="#4D86C1"/>
<path d="M11.6559 10.1328L1.46826 7.61257L1.48864 7.52963L11.6559 10.0447V10.1328Z" fill="#4D85C0"/>
<path d="M11.656 10.2208L1.448 7.6955L1.46837 7.61256L11.656 10.1328V10.2208Z" fill="#4D84C0"/>
<path d="M11.6559 10.3089L1.42749 7.77873L1.44787 7.69551L11.6559 10.2208V10.3089Z" fill="#4D83BF"/>
<path d="M11.656 10.3969L1.40723 7.86165L1.4276 7.77872L11.656 10.3089V10.3969Z" fill="#4D82BF"/>
<path d="M11.6559 10.485L1.38672 7.9446L1.40709 7.86166L11.6559 10.3969V10.485Z" fill="#4D81BE"/>
<path d="M11.656 10.573L1.36646 8.02753L1.38683 7.9446L11.656 10.485V10.573Z" fill="#4D80BD"/>
<path d="M11.6558 10.6611L1.34595 8.11046L1.36632 8.02753L11.6558 10.573V10.6611Z" fill="#4D7FBD"/>
<path d="M11.656 10.7491L1.32568 8.19369L1.34606 8.11047L11.656 10.6611V10.7491Z" fill="#4D7EBC"/>
<path d="M11.6561 10.8372L1.30542 8.27663L1.3258 8.1937L11.6561 10.7491V10.8372Z" fill="#4D7DBC"/>
<path d="M11.6559 10.9252L1.28491 8.35956L1.30529 8.27663L11.6559 10.8372V10.9252Z" fill="#4D7CBB"/>
<path d="M11.6561 11.0133L1.26465 8.44251L1.28502 8.35957L11.6561 10.9252V11.0133Z" fill="#4D7BBB"/>
<path d="M11.6559 11.1013L1.24414 8.52573L1.26452 8.4425L11.6559 11.0133V11.1013Z" fill="#4D7ABA"/>
<path d="M11.6559 11.1894L1.23193 8.61065V8.57543L1.2441 8.52573L11.6559 11.1013V11.1894Z" fill="#4D79BA"/>
<path d="M11.6559 11.2774L1.23193 8.69871V8.61066L11.6559 11.1894V11.2774Z" fill="#4D78B9"/>
<path d="M11.6559 11.3655L1.23193 8.78675V8.6987L11.6559 11.2774V11.3655Z" fill="#4D77B9"/>
<path d="M11.6559 11.4535L1.23193 8.87479V8.78674L11.6559 11.3655V11.4535Z" fill="#4D76B8"/>
<path d="M11.6559 15.2064L1.23193 12.6277V8.8748L11.6559 11.4535V15.2064Z" fill="#4D76B8"/>
<path d="M11.6559 15.3052L1.23193 12.7265V12.6277L11.6559 15.2064V15.3052Z" fill="#4D76B8"/>
<path d="M11.6559 15.4041L1.23193 12.8254V12.7265L11.6559 15.3053V15.4041Z" fill="#4D77B9"/>
<path d="M11.6559 15.5027L1.23193 12.9239V12.8254L11.6559 15.4041V15.5027Z" fill="#4D78B9"/>
<path d="M11.6559 15.6015L1.23193 13.0228V12.9239L11.6559 15.5026V15.6015Z" fill="#4D79BA"/>
<path d="M11.6559 15.7003L1.23193 13.1216V13.0228L11.6559 15.6015V15.7003Z" fill="#4D7ABA"/>
<path d="M11.6559 15.7989L1.23193 13.2205V13.1216L11.6559 15.7003V15.7989Z" fill="#4D7BBB"/>
<path d="M11.6559 15.8977L1.23193 13.319V13.2205L11.6559 15.7989V15.8977Z" fill="#4D7CBB"/>
<path d="M11.6559 15.9966L1.23193 13.4179V13.319L11.6559 15.8977V15.9966Z" fill="#4D7DBC"/>
<path d="M11.6559 16.0951L1.23193 13.5167V13.4179L11.6559 15.9966V16.0951Z" fill="#4D7EBC"/>
<path d="M11.6559 16.194L1.23193 13.6153V13.5167L11.6559 16.0952V16.194Z" fill="#4D7FBD"/>
<path d="M11.6559 16.2928L1.23193 13.7141V13.6153L11.6559 16.194V16.2928Z" fill="#4D80BD"/>
<path d="M11.6559 16.3917L1.23193 13.813V13.7141L11.6559 16.2928V16.3917Z" fill="#4D81BE"/>
<path d="M11.6559 16.4902L1.23193 13.9115V13.813L11.6559 16.3917V16.4902Z" fill="#4D82BF"/>
<path d="M11.6559 16.5891L1.23193 14.0104V13.9115L11.6559 16.4902V16.5891Z" fill="#4D83BF"/>
<path d="M11.6559 16.6879L1.23193 14.1092V14.0104L11.6559 16.5891V16.6879Z" fill="#4D84C0"/>
<path d="M11.6559 16.7867L1.23193 14.208V14.1092L11.6559 16.6879V16.7867Z" fill="#4D85C0"/>
<path d="M11.6559 16.8853L1.23193 14.3066V14.208L11.6559 16.7868V16.8853Z" fill="#4D86C1"/>
<path d="M11.6559 16.9841L1.23193 14.4054V14.3066L11.6559 16.8853V16.9841Z" fill="#4D87C1"/>
<path d="M11.6559 17.083L1.23193 14.5043V14.4054L11.6559 16.9842V17.083Z" fill="#4D88C2"/>
<path d="M11.6559 17.1816L1.23193 14.6031V14.5043L11.6559 17.083V17.1816Z" fill="#4D89C2"/>
<path d="M11.6559 17.2804L1.23193 14.7017V14.6031L11.6559 17.1816V17.2804Z" fill="#4D8AC3"/>
<path d="M11.6559 17.3792L1.23193 14.8005V14.7017L11.6559 17.2804V17.3792Z" fill="#4C8CC4"/>
<path d="M11.6559 17.4781L1.23193 14.8994V14.8005L11.6559 17.3792V17.4781Z" fill="#4C8DC4"/>
<path d="M11.6559 17.5766L1.23193 14.9979V14.8994L11.6559 17.4781V17.5766Z" fill="#4C8EC5"/>
<path d="M11.6559 17.6755L1.23193 15.0968V14.9979L11.6559 17.5767V17.6755Z" fill="#4C8FC5"/>
<path d="M11.6559 17.7743L1.23193 15.1956V15.0968L11.6559 17.6755V17.7743Z" fill="#4C90C6"/>
<path d="M11.6559 17.8729L1.23193 15.2945V15.1956L11.6559 17.7743V17.8729Z" fill="#4C91C6"/>
<path d="M11.6559 17.9717L1.23193 15.393V15.2944L11.6559 17.8729V17.9717Z" fill="#4C92C7"/>
<path d="M11.6559 18.0706L1.23193 15.4919V15.393L11.6559 17.9717V18.0706Z" fill="#4C93C7"/>
<path d="M11.6559 18.1694L1.23193 15.5907V15.4919L11.6559 18.0706V18.1694Z" fill="#4C94C8"/>
<path d="M11.6559 18.268L1.23193 15.6893V15.5907L11.6559 18.1694V18.268Z" fill="#4C95C8"/>
<path d="M11.6559 18.3668L1.23193 15.7881V15.6893L11.6559 18.268V18.3668Z" fill="#4C96C9"/>
<path d="M11.6559 18.4657L1.23193 15.8869V15.7881L11.6559 18.3668V18.4657Z" fill="#4C97CA"/>
<path d="M11.6559 18.5645L1.23193 15.9858V15.8869L11.6559 18.4657V18.5645Z" fill="#4C98CA"/>
<path d="M11.6559 18.6631L1.23193 16.0844V15.9858L11.6559 18.5645V18.6631Z" fill="#4C99CB"/>
<path d="M11.6559 18.7619L1.23193 16.1832V16.0844L11.6559 18.6631V18.7619Z" fill="#4C9ACB"/>
<path d="M11.6559 18.8608L1.23193 16.282V16.1832L11.6559 18.7619V18.8608Z" fill="#4C9BCC"/>
<path d="M11.6559 18.9593L1.23193 16.3809V16.282L11.6559 18.8607V18.9593Z" fill="#4C9CCC"/>
<path d="M11.6559 19.0581L1.23193 16.4794V16.3809L11.6559 18.9593V19.0581Z" fill="#4C9DCD"/>
<path d="M11.6559 19.157L1.23193 16.5783V16.4794L11.6559 19.0581V19.157Z" fill="#4C9ECD"/>
<path d="M11.6559 19.2558L1.23193 16.6771V16.5783L11.6559 19.157V19.2558Z" fill="#4C9FCE"/>
<path d="M11.6559 19.3544L1.23193 16.7757V16.6771L11.6559 19.2558V19.3544Z" fill="#4CA0CE"/>
<path d="M11.6559 19.4532L1.23193 16.8745V16.7757L11.6559 19.3544V19.4532Z" fill="#4CA1CF"/>
<path d="M1.23193 16.8745L11.6559 19.4532V20.8063H1.23193V16.8745Z" fill="#4CA1CF"/>
</g>
<mask id="mask6_5780_2029" style="mask-type:luminance" maskUnits="userSpaceOnUse" x="1" y="10" width="11" height="14">
<path d="M11.6559 20.7283L3.93258 16.2528L1.23193 10.0229V17.8178L11.6559 23.858V20.7283Z" fill="white"/>
</mask>
<g mask="url(#mask6_5780_2029)">
<path d="M4.50026 23.858L2.14062 20.0011L9.03757 15.7506L11.6559 20.0304V23.858H4.50026Z" fill="#233F6C"/>
<path d="M9.00967 15.706L2.11279 19.9561L2.14033 20.0012L9.03721 15.751L9.00967 15.706Z" fill="#233F6C"/>
<path d="M8.98208 15.661L2.08521 19.9112L2.11275 19.9562L9.00962 15.7061L8.98208 15.661Z" fill="#23406D"/>
<path d="M8.95449 15.6162L2.05762 19.8663L2.08516 19.9114L8.98204 15.6612L8.95449 15.6162Z" fill="#24416E"/>
<path d="M8.9269 15.571L2.03003 19.8211L2.05757 19.8661L8.95445 15.616L8.9269 15.571Z" fill="#24426F"/>
<path d="M8.89932 15.5259L2.00244 19.776L2.02998 19.8211L8.92686 15.5709L8.89932 15.5259Z" fill="#254370"/>
<path d="M8.87197 15.4808L1.9751 19.7309L2.00264 19.7759L8.89952 15.5258L8.87197 15.4808Z" fill="#254471"/>
<path d="M8.84439 15.4358L1.94751 19.686L1.97505 19.731L8.87193 15.4808L8.84439 15.4358Z" fill="#264572"/>
<path d="M8.8168 15.391L1.91992 19.6411L1.94746 19.6861L8.84434 15.436L8.8168 15.391Z" fill="#264673"/>
<path d="M8.78921 15.3457L1.89233 19.5959L1.91988 19.6409L8.81675 15.3908L8.78921 15.3457Z" fill="#264774"/>
<path d="M8.76138 15.3007L1.8645 19.5508L1.89204 19.5958L8.78892 15.3457L8.76138 15.3007Z" fill="#274875"/>
<path d="M8.73428 15.2555L1.8374 19.5057L1.86495 19.5507L8.76182 15.3006L8.73428 15.2555Z" fill="#274976"/>
<path d="M8.70645 15.2106L1.80957 19.4607L1.83711 19.5057L8.73399 15.2556L8.70645 15.2106Z" fill="#284A77"/>
<path d="M8.6791 15.1657L1.78223 19.4159L1.80977 19.4609L8.70664 15.2108L8.6791 15.1657Z" fill="#284B78"/>
<path d="M8.65127 15.1205L1.75439 19.3707L1.78194 19.4157L8.67881 15.1655L8.65127 15.1205Z" fill="#284C79"/>
<path d="M8.62368 15.0754L1.72681 19.3256L1.75435 19.3706L8.65122 15.1205L8.62368 15.0754Z" fill="#294D7A"/>
<path d="M8.59634 15.0303L1.69946 19.2804L1.727 19.3255L8.62388 15.0753L8.59634 15.0303Z" fill="#294E7B"/>
<path d="M8.56875 14.9854L1.67188 19.2355L1.69942 19.2805L8.59629 15.0304L8.56875 14.9854Z" fill="#2A4F7C"/>
<path d="M8.45317 14.9366L1.57397 19.1604L1.60135 19.2053L8.48055 14.9815L8.45317 14.9366Z" fill="#2A507D"/>
<path d="M8.51382 14.8952L1.61694 19.1453L1.64449 19.1903L8.54136 14.9402L8.51382 14.8952Z" fill="#2B517E"/>
<path d="M8.48574 14.8502L1.58887 19.1004L1.61641 19.1454L8.51329 14.8952L8.48574 14.8502Z" fill="#2B527F"/>
<path d="M8.45864 14.8051L1.56177 19.0552L1.58931 19.1002L8.48619 14.8501L8.45864 14.8051Z" fill="#2B5380"/>
<path d="M8.3438 14.7565L1.4646 18.9803L1.49197 19.0252L8.37117 14.8014L8.3438 14.7565Z" fill="#2C5481"/>
<path d="M8.40322 14.7148L1.50635 18.9649L1.53389 19.0099L8.43076 14.7598L8.40322 14.7148Z" fill="#2C5582"/>
<path d="M8.37588 14.6699L1.479 18.9201L1.50655 18.9651L8.40342 14.7149L8.37588 14.6699Z" fill="#2D5683"/>
<path d="M8.34805 14.625L1.45117 18.8751L1.47871 18.9201L8.37559 14.67L8.34805 14.625Z" fill="#2D5784"/>
<path d="M8.3207 14.5799L1.42383 18.83L1.45137 18.875L8.34825 14.6249L8.3207 14.5799Z" fill="#2D5885"/>
<path d="M8.29312 14.5349L1.39624 18.7851L1.42378 18.8301L8.32066 14.5799L8.29312 14.5349Z" fill="#2E5986"/>
<path d="M8.26553 14.4895L1.36865 18.7397L1.39619 18.7847L8.29307 14.5346L8.26553 14.4895Z" fill="#2E5A87"/>
<path d="M8.23818 14.4447L1.34131 18.6948L1.36885 18.7399L8.26573 14.4897L8.23818 14.4447Z" fill="#2F5B88"/>
<path d="M8.21035 14.3998L1.31348 18.6499L1.34102 18.6949L8.23789 14.4448L8.21035 14.3998Z" fill="#2F5C89"/>
<path d="M8.18301 14.3546L1.28613 18.6048L1.31367 18.6498L8.21055 14.3996L8.18301 14.3546Z" fill="#305D8A"/>
<path d="M8.15542 14.3097L1.25854 18.5598L1.28609 18.6049L8.18296 14.3547L8.15542 14.3097Z" fill="#305E8B"/>
<path d="M1.25882 18.5594L1.23193 18.5156V18.5139L8.12803 14.264L8.15548 14.3089L1.25882 18.5594Z" fill="#305F8C"/>
<path d="M1.23193 18.4517L8.10058 14.2188L8.12803 14.264L1.23193 18.514V18.4517Z" fill="#31608D"/>
<path d="M1.23193 18.3898L8.07284 14.174L8.10058 14.2188L1.23193 18.4517V18.3898Z" fill="#31618E"/>
<path d="M1.23193 18.3279L8.04539 14.1288L8.07284 14.174L1.23193 18.3898V18.3279Z" fill="#32628F"/>
<path d="M1.23193 18.2657L8.01766 14.0839L8.04539 14.1288L1.23193 18.3279V18.2657Z" fill="#326390"/>
<path d="M1.23193 18.2038L7.99021 14.0388L8.01766 14.0839L1.23193 18.2657V18.2038Z" fill="#326491"/>
<path d="M1.23193 18.1416L7.96276 13.9936L7.99021 14.0388L1.23193 18.2038V18.1416Z" fill="#336592"/>
<path d="M1.23193 18.0797L7.93502 13.9487L7.96276 13.9936L1.23193 18.1416V18.0797Z" fill="#336693"/>
<path d="M1.23193 18.0177L7.90757 13.9036L7.93502 13.9487L1.23193 18.0797V18.0177Z" fill="#346794"/>
<path d="M1.23193 17.9555L7.87984 13.8584L7.90757 13.9036L1.23193 18.0177V17.9555Z" fill="#346895"/>
<path d="M1.23193 17.8936L7.85239 13.8135L7.87984 13.8584L1.23193 17.9555V17.8936Z" fill="#356996"/>
<path d="M1.23193 17.8314L7.82494 13.7684L7.85239 13.8135L1.23193 17.8936V17.8314Z" fill="#356A97"/>
<path d="M1.23193 17.7695L7.79721 13.7235L7.82494 13.7684L1.23193 17.8314V17.7695Z" fill="#356B98"/>
<path d="M1.23193 17.7076L7.76975 13.6783L7.79721 13.7235L1.23193 17.7695V17.7076Z" fill="#366C99"/>
<path d="M1.23193 17.6454L7.74202 13.6332L7.76975 13.6783L1.23193 17.7076V17.6454Z" fill="#366D9A"/>
<path d="M1.23193 17.5835L7.71457 13.5883L7.74202 13.6332L1.23193 17.6454V17.5835Z" fill="#376E9B"/>
<path d="M1.23193 17.5213L7.68712 13.5431L7.71457 13.5883L1.23193 17.5835V17.5213Z" fill="#376F9C"/>
<path d="M1.23193 17.4593L7.65939 13.4982L7.68712 13.5431L1.23193 17.5213V17.4593Z" fill="#38709E"/>
<path d="M1.23193 17.3971L7.63193 13.4531L7.65938 13.4983L1.23193 17.4593V17.3971Z" fill="#38719F"/>
<path d="M1.23193 17.3352L7.60448 13.4079L7.63193 13.4531L1.23193 17.3971V17.3352Z" fill="#3872A0"/>
<path d="M1.23193 17.2733L7.57675 13.3631L7.60448 13.4079L1.23193 17.3352V17.2733Z" fill="#3973A1"/>
<path d="M1.23193 17.2111L7.5493 13.3179L7.57675 13.363L1.23193 17.2733V17.2111Z" fill="#3974A2"/>
<path d="M1.23193 17.1492L7.52157 13.273L7.5493 13.3179L1.23193 17.2111V17.1492Z" fill="#3A75A3"/>
<path d="M1.23193 17.087L7.49411 13.2278L7.52157 13.273L1.23193 17.1492V17.087Z" fill="#3A76A4"/>
<path d="M1.23193 17.0251L7.46666 13.1827L7.49411 13.2279L1.23193 17.087V17.0251Z" fill="#3A77A5"/>
<path d="M1.23193 16.9631L7.43893 13.1378L7.46666 13.1827L1.23193 17.0251V16.9631Z" fill="#3B78A6"/>
<path d="M1.23193 16.9009L7.41148 13.0927L7.43893 13.1378L1.23193 16.9631V16.9009Z" fill="#3B79A7"/>
<path d="M1.23193 16.839L7.38374 13.0475L7.41148 13.0927L1.23193 16.9009V16.839Z" fill="#3C7AA8"/>
<path d="M1.23193 16.7768L7.35629 13.0026L7.38374 13.0475L1.23193 16.839V16.7768Z" fill="#3C7BA9"/>
<path d="M1.23193 16.7149L7.32884 12.9575L7.35629 13.0026L1.23193 16.7768V16.7149Z" fill="#3D7CAA"/>
<path d="M1.23193 16.653L7.30111 12.9126L7.32884 12.9575L1.23193 16.7149V16.653Z" fill="#3D7DAB"/>
<path d="M1.23193 16.5908L7.27366 12.8674L7.30111 12.9126L1.23193 16.653V16.5908Z" fill="#3D7EAC"/>
<path d="M1.23193 16.5289L7.24592 12.8223L7.27366 12.8674L1.23193 16.5908V16.5289Z" fill="#3E7FAD"/>
<path d="M1.23193 16.4666L7.21847 12.7774L7.24592 12.8223L1.23193 16.5288V16.4666Z" fill="#3E80AE"/>
<path d="M1.23193 16.4047L7.19102 12.7322L7.21847 12.7774L1.23193 16.4667V16.4047Z" fill="#3F81AF"/>
<path d="M1.23193 16.3425L7.16329 12.6873L7.19102 12.7322L1.23193 16.4047V16.3425Z" fill="#3F82B0"/>
<path d="M1.23193 16.2806L7.13584 12.6422L7.16329 12.6873L1.23193 16.3425V16.2806Z" fill="#3F83B1"/>
<path d="M1.23193 16.2187L7.1081 12.597L7.13584 12.6422L1.23193 16.2806V16.2187Z" fill="#4084B2"/>
<path d="M1.23193 16.1565L7.08065 12.5521L7.1081 12.597L1.23193 16.2187V16.1565Z" fill="#4085B3"/>
<path d="M1.23193 16.0946L7.0532 12.507L7.08065 12.5522L1.23193 16.1565V16.0946Z" fill="#4186B4"/>
<path d="M1.23193 16.0324L7.02547 12.4621L7.0532 12.507L1.23193 16.0946V16.0324Z" fill="#4187B5"/>
<path d="M1.23193 15.9705L6.99802 12.4169L7.02547 12.4621L1.23193 16.0324V15.9705Z" fill="#4288B6"/>
<path d="M1.23193 15.9085L6.97029 12.3718L6.99802 12.4169L1.23193 15.9704V15.9085Z" fill="#4289B7"/>
<path d="M1.23193 15.8463L6.94283 12.3269L6.97028 12.3718L1.23193 15.9085V15.8463Z" fill="#428AB8"/>
<path d="M1.23193 15.7844L6.91538 12.2818L6.94283 12.3269L1.23193 15.8463V15.7844Z" fill="#438BB9"/>
<path d="M1.23193 15.7222L6.88765 12.2366L6.91538 12.2817L1.23193 15.7844V15.7222Z" fill="#438CBA"/>
<path d="M1.23193 15.6603L6.8602 12.1917L6.88765 12.2366L1.23193 15.7222V15.6603Z" fill="#448DBB"/>
<path d="M1.23193 15.5981L6.83246 12.1465L6.8602 12.1917L1.23193 15.6603V15.5981Z" fill="#448EBC"/>
<path d="M1.23193 15.5362L6.80501 12.1017L6.83246 12.1465L1.23193 15.5981V15.5362Z" fill="#448FBD"/>
<path d="M1.23193 15.4743L6.77756 12.0565L6.80501 12.1017L1.23193 15.5362V15.4743Z" fill="#4590BE"/>
<path d="M1.23193 15.412L6.74983 12.0114L6.77756 12.0565L1.23193 15.4743V15.412Z" fill="#4591BF"/>
<path d="M1.23193 15.3501L6.72238 11.9665L6.74983 12.0114L1.23193 15.4121V15.3501Z" fill="#4692C0"/>
<path d="M1.23193 15.2879L6.69493 11.9213L6.72238 11.9665L1.23193 15.3501V15.2879Z" fill="#4693C1"/>
<path d="M1.23193 15.226L6.66719 11.8764L6.69493 11.9213L1.23193 15.2879V15.226Z" fill="#4794C2"/>
<path d="M1.23193 15.1641L6.63974 11.8313L6.66719 11.8764L1.23193 15.226V15.1641Z" fill="#4795C3"/>
<path d="M1.23193 15.1019L6.61201 11.7861L6.63974 11.8313L1.23193 15.1641V15.1019Z" fill="#4796C4"/>
<path d="M1.23193 15.04L6.58456 11.7412L6.61201 11.7861L1.23193 15.1019V15.04Z" fill="#4897C5"/>
<path d="M1.23193 14.9778L6.55711 11.6961L6.58456 11.7412L1.23193 15.04V14.9778Z" fill="#4898C6"/>
<path d="M1.23193 14.9158L6.52937 11.6512L6.55711 11.6961L1.23193 14.9778V14.9158Z" fill="#4999C7"/>
<path d="M1.23193 14.8539L6.50192 11.606L6.52937 11.6512L1.23193 14.9158V14.8539Z" fill="#499AC8"/>
<path d="M1.23193 14.7917L6.47419 11.5609L6.50192 11.606L1.23193 14.8539V14.7917Z" fill="#499BC9"/>
<path d="M1.23193 14.7298L6.44674 11.516L6.47419 11.5609L1.23193 14.7917V14.7298Z" fill="#4A9CCA"/>
<path d="M1.23193 14.6676L6.41929 11.4708L6.44674 11.516L1.23193 14.7298V14.6676Z" fill="#4A9DCB"/>
<path d="M1.23193 14.6057L6.39155 11.426L6.41929 11.4708L1.23193 14.6676V14.6057Z" fill="#4B9ECC"/>
<path d="M1.23193 14.5435L6.3641 11.3808L6.39155 11.426L1.23193 14.6057V14.5435Z" fill="#4B9FCD"/>
<path d="M1.23193 14.4816L6.33665 11.3356L6.3641 11.3808L1.23193 14.5435V14.4816Z" fill="#4CA0CE"/>
<path d="M1.23193 14.4197L6.30892 11.2908L6.33665 11.3356L1.23193 14.4816V14.4197Z" fill="#4CA1CF"/>
<path d="M5.53322 10.0229L6.30892 11.2908L1.23193 14.4197V10.0229H5.53322Z" fill="#4CA1CF"/>
</g>
<mask id="mask7_5780_2029" style="mask-type:luminance" maskUnits="userSpaceOnUse" x="1" y="14" width="22" height="10">
<path d="M22.0798 14.6878L11.6559 20.7283L1.23193 17.8178L11.6559 23.858L22.0798 17.8178V14.6878Z" fill="white"/>
</mask>
<g mask="url(#mask7_5780_2029)">
<path d="M16.571 23.858L17.4438 14.6878H22.0799V23.858H16.571Z" fill="#4D76B8"/>
<path d="M16.4819 23.858L17.355 14.6878H17.4438L16.5711 23.858H16.4819Z" fill="#4D76B8"/>
<path d="M16.3928 23.858L17.2659 14.6878H17.355L16.482 23.858H16.3928Z" fill="#4D77B9"/>
<path d="M16.304 23.858L17.1767 14.6878H17.2659L16.3928 23.858H16.304Z" fill="#4D78B9"/>
<path d="M16.2148 23.858L17.0879 14.6878H17.1768L16.304 23.858H16.2148Z" fill="#4D79BA"/>
<path d="M16.1257 23.858L16.9988 14.6878H17.0879L16.2149 23.858H16.1257Z" fill="#4D7ABA"/>
<path d="M16.0369 23.858L16.9096 14.6878H16.9988L16.1257 23.858H16.0369Z" fill="#4D7BBB"/>
<path d="M15.9475 23.858L16.8206 14.6878H16.9094L16.0367 23.858H15.9475Z" fill="#4D7CBB"/>
<path d="M15.8584 23.858L16.7314 14.6878H16.8206L15.9475 23.858H15.8584Z" fill="#4D7DBC"/>
<path d="M15.7695 23.858L16.6423 14.6878H16.7314L15.8584 23.858H15.7695Z" fill="#4D7EBC"/>
<path d="M15.6804 23.858L16.5535 14.6878H16.6423L15.7696 23.858H15.6804Z" fill="#4D7FBD"/>
<path d="M15.5913 23.858L16.4644 14.6878H16.5535L15.6805 23.858H15.5913Z" fill="#4D80BD"/>
<path d="M15.5022 23.858L16.3752 14.6878H16.4644L15.5913 23.858H15.5022Z" fill="#4D81BE"/>
<path d="M15.4133 23.858L16.2861 14.6878H16.3752L15.5022 23.858H15.4133Z" fill="#4D82BF"/>
<path d="M15.3242 23.858L16.1973 14.6878H16.2861L15.4134 23.858H15.3242Z" fill="#4D83BF"/>
<path d="M15.2351 23.858L16.1082 14.6878H16.1973L15.3243 23.858H15.2351Z" fill="#4D84C0"/>
<path d="M15.1462 23.858L16.019 14.6878H16.1082L15.2351 23.858H15.1462Z" fill="#4D85C0"/>
<path d="M15.0571 23.858L15.9299 14.6878H16.019L15.1463 23.858H15.0571Z" fill="#4D86C1"/>
<path d="M14.9678 23.858L15.8408 14.6878H15.9297L15.0569 23.858H14.9678Z" fill="#4D87C1"/>
<path d="M14.8787 23.858L15.7517 14.6878H15.8409L14.9678 23.858H14.8787Z" fill="#4D88C2"/>
<path d="M14.7898 23.858L15.6626 14.6878H15.7517L14.8787 23.858H14.7898Z" fill="#4D89C2"/>
<path d="M14.7007 23.858L15.5737 14.6878H15.6626L14.7898 23.858H14.7007Z" fill="#4D8AC3"/>
<path d="M14.6116 23.858L15.4846 14.6878H15.5738L14.7007 23.858H14.6116Z" fill="#4C8CC4"/>
<path d="M14.5227 23.858L15.3955 14.6878H15.4846L14.6116 23.858H14.5227Z" fill="#4C8DC4"/>
<path d="M14.4336 23.858L15.3066 14.6878H15.3955L14.5227 23.858H14.4336Z" fill="#4C8EC5"/>
<path d="M14.3445 23.858L15.2175 14.6878H15.3067L14.4336 23.858H14.3445Z" fill="#4C8FC5"/>
<path d="M14.2556 23.858L15.1284 14.6878H15.2175L14.3445 23.858H14.2556Z" fill="#4C90C6"/>
<path d="M14.1665 23.858L15.0396 14.6878H15.1284L14.2556 23.858H14.1665Z" fill="#4C91C6"/>
<path d="M14.0771 23.858L14.9502 14.6878H15.0393L14.1663 23.858H14.0771Z" fill="#4C92C7"/>
<path d="M13.988 23.858L14.8611 14.6878H14.9502L14.0772 23.858H13.988Z" fill="#4C93C7"/>
<path d="M13.8992 23.858L14.7719 14.6878H14.8611L13.988 23.858H13.8992Z" fill="#4C94C8"/>
<path d="M13.8101 23.858L14.6831 14.6878H14.772L13.8992 23.858H13.8101Z" fill="#4C95C8"/>
<path d="M13.7209 23.858L14.594 14.6878H14.6831L13.8101 23.858H13.7209Z" fill="#4C96C9"/>
<path d="M13.6321 23.858L14.5048 14.6878H14.594L13.7209 23.858H13.6321Z" fill="#4C97CA"/>
<path d="M13.543 23.858L14.4157 14.6878H14.5049L13.6321 23.858H13.543Z" fill="#4C98CA"/>
<path d="M13.4539 23.858L14.3269 14.6878H14.4158L13.543 23.858H13.4539Z" fill="#4C99CB"/>
<path d="M13.3647 23.858L14.2378 14.6878H14.3269L13.4539 23.858H13.3647Z" fill="#4C9ACB"/>
<path d="M13.2759 23.858L14.1486 14.6878H14.2378L13.3647 23.858H13.2759Z" fill="#4C9BCC"/>
<path d="M13.1868 23.858L14.0598 14.6878H14.1487L13.2759 23.858H13.1868Z" fill="#4C9CCC"/>
<path d="M13.0974 23.858L13.9705 14.6878H14.0596L13.1866 23.858H13.0974Z" fill="#4C9DCD"/>
<path d="M13.0088 23.858L13.8816 14.6878H13.9707L13.0977 23.858H13.0088Z" fill="#4C9ECD"/>
<path d="M12.9194 23.858L13.7925 14.6878H13.8813L13.0086 23.858H12.9194Z" fill="#4C9FCE"/>
<path d="M12.8303 23.858L13.7034 14.6878H13.7925L12.9195 23.858H12.8303Z" fill="#4CA0CE"/>
<path d="M12.7415 23.858L13.6142 14.6878H13.7034L12.8303 23.858H12.7415Z" fill="#4CA1CF"/>
<path d="M12.6401 23.858L13.5132 14.6878H13.6142L12.7415 23.858H12.6401Z" fill="#4CA1CF"/>
<path d="M12.5393 23.858L13.4124 14.6878H13.5134L12.6403 23.858H12.5393Z" fill="#4CA0CE"/>
<path d="M12.4382 23.858L13.3113 14.6878H13.4123L12.5393 23.858H12.4382Z" fill="#4C9FCE"/>
<path d="M12.3372 23.858L13.2099 14.6878H13.3112L12.4382 23.858H12.3372Z" fill="#4C9ECD"/>
<path d="M12.2358 23.858L13.1089 14.6878H13.2099L12.3372 23.858H12.2358Z" fill="#4C9DCD"/>
<path d="M12.1348 23.858L13.0078 14.6878H13.1088L12.2358 23.858H12.1348Z" fill="#4C9CCC"/>
<path d="M12.0337 23.858L12.9067 14.6878H13.0078L12.1347 23.858H12.0337Z" fill="#4C9BCC"/>
<path d="M11.9326 23.858L12.8054 14.6878H12.9067L12.0336 23.858H11.9326Z" fill="#4C9ACB"/>
<path d="M11.8313 23.858L12.7043 14.6878H12.8054L11.9326 23.858H11.8313Z" fill="#4C99CB"/>
<path d="M11.7305 23.858L12.6035 14.6878H12.7045L11.8315 23.858H11.7305Z" fill="#4C98CA"/>
<path d="M11.6294 23.858L12.5024 14.6878H12.6035L11.7304 23.858H11.6294Z" fill="#4C97CA"/>
<path d="M11.5283 23.858L12.4011 14.6878H12.5024L11.6294 23.858H11.5283Z" fill="#4C96C9"/>
<path d="M11.4272 23.858L12.3 14.6878H12.401L11.5283 23.858H11.4272Z" fill="#4C95C8"/>
<path d="M11.3259 23.858L12.199 14.6878H12.3L11.4272 23.858H11.3259Z" fill="#4C94C8"/>
<path d="M11.2249 23.858L12.0979 14.6878H12.1989L11.3259 23.858H11.2249Z" fill="#4C93C7"/>
<path d="M11.124 23.858L11.9968 14.6878H12.0981L11.2251 23.858H11.124Z" fill="#4C92C7"/>
<path d="M11.0229 23.858L11.8957 14.6878H11.9967L11.124 23.858H11.0229Z" fill="#4C91C6"/>
<path d="M10.9216 23.858L11.7947 14.6878H11.8957L11.0229 23.858H10.9216Z" fill="#4C90C6"/>
<path d="M10.8206 23.858L11.6936 14.6878H11.7946L10.9216 23.858H10.8206Z" fill="#4C8FC5"/>
<path d="M10.7195 23.858L11.5922 14.6878H11.6936L10.8205 23.858H10.7195Z" fill="#4C8EC5"/>
<path d="M10.6184 23.858L11.4912 14.6878H11.5922L10.7194 23.858H10.6184Z" fill="#4C8DC4"/>
<path d="M10.5171 23.858L11.3901 14.6878H11.4912L10.6184 23.858H10.5171Z" fill="#4D8BC3"/>
<path d="M10.416 23.858L11.2891 14.6878H11.3901L10.517 23.858H10.416Z" fill="#4D8AC3"/>
<path d="M10.3152 23.858L11.1882 14.6878H11.2893L10.4162 23.858H10.3152Z" fill="#4D89C2"/>
<path d="M10.2141 23.858L11.0869 14.6878H11.1882L10.3151 23.858H10.2141Z" fill="#4D88C2"/>
<path d="M10.113 23.858L10.9858 14.6878H11.0868L10.2141 23.858H10.113Z" fill="#4D87C1"/>
<path d="M10.0117 23.858L10.8848 14.6878H10.9858L10.113 23.858H10.0117Z" fill="#4D86C1"/>
<path d="M9.91064 23.858L10.7837 14.6878H10.8847L10.0117 23.858H9.91064Z" fill="#4D85C0"/>
<path d="M9.80957 23.858L10.6823 14.6878H10.7837L9.9106 23.858H9.80957Z" fill="#4D84C0"/>
<path d="M9.70825 23.858L10.5813 14.6878H10.6823L9.80956 23.858H9.70825Z" fill="#4D83BF"/>
<path d="M9.60742 23.858L10.4805 14.6878H10.5815L9.70845 23.858H9.60742Z" fill="#4D82BF"/>
<path d="M9.50635 23.858L10.3794 14.6878H10.4804L9.60738 23.858H9.50635Z" fill="#4D81BE"/>
<path d="M9.40527 23.858L10.278 14.6878H10.3794L9.5063 23.858H9.40527Z" fill="#4D80BD"/>
<path d="M9.3042 23.858L10.177 14.6878H10.278L9.40523 23.858H9.3042Z" fill="#4D7FBD"/>
<path d="M9.20288 23.858L10.0759 14.6878H10.177L9.30419 23.858H9.20288Z" fill="#4D7EBC"/>
<path d="M9.10181 23.858L9.97486 14.6878H10.0759L9.20284 23.858H9.10181Z" fill="#4D7DBC"/>
<path d="M9.00098 23.858L9.87403 14.6878H9.97506L9.10201 23.858H9.00098Z" fill="#4D7CBB"/>
<path d="M8.8999 23.858L9.77267 14.6878H9.87398L9.00093 23.858H8.8999Z" fill="#4D7BBB"/>
<path d="M8.79858 23.858L9.67163 14.6878H9.77266L8.8999 23.858H8.79858Z" fill="#4D7ABA"/>
<path d="M8.69751 23.858L9.57056 14.6878H9.67159L8.79854 23.858H8.69751Z" fill="#4D79BA"/>
<path d="M8.59644 23.858L9.46948 14.6878H9.57052L8.69747 23.858H8.59644Z" fill="#4D78B9"/>
<path d="M8.49536 23.858L9.36813 14.6878H9.46944L8.59639 23.858H8.49536Z" fill="#4D77B9"/>
<path d="M8.39404 23.858L9.26709 14.6878H9.36812L8.49536 23.858H8.39404Z" fill="#4D76B8"/>
<path d="M8.29883 23.858L9.17188 14.6878H9.26725L8.3942 23.858H8.29883Z" fill="#4D76B8"/>
<path d="M8.20337 23.858L9.07614 14.6878H9.17179L8.29874 23.858H8.20337Z" fill="#4D77B9"/>
<path d="M8.10767 23.858L8.98072 14.6878H9.07609L8.20332 23.858H8.10767Z" fill="#4D78B9"/>
<path d="M8.01245 23.858L8.8855 14.6878H8.98087L8.10782 23.858H8.01245Z" fill="#4D79BA"/>
<path d="M7.91675 23.858L8.7898 14.6878H8.88545L8.0124 23.858H7.91675Z" fill="#4D7ABA"/>
<path d="M7.83063 23.858L7.82129 23.8571L8.69434 14.6878H8.78971L7.91666 23.858H7.83063Z" fill="#4D7BBB"/>
<path d="M7.82133 23.8571L7.72681 23.8481L8.59872 14.6878H8.69438L7.82133 23.8571Z" fill="#4D7CBB"/>
<path d="M7.72685 23.8481L7.63232 23.839L8.50339 14.6878H8.59876L7.72685 23.8481Z" fill="#4D7DBC"/>
<path d="M7.63216 23.839L7.53735 23.8299L8.40785 14.6878H8.50322L7.63216 23.839Z" fill="#4D7EBC"/>
<path d="M7.53739 23.8299L7.44287 23.8208L8.31224 14.6878H8.40789L7.53739 23.8299Z" fill="#4D7FBD"/>
<path d="M7.44291 23.8208L7.34839 23.8117L8.21691 14.6878H8.31228L7.44291 23.8208Z" fill="#4D80BD"/>
<path d="M7.34847 23.8117L7.25366 23.8026L8.12133 14.6878H8.21699L7.34847 23.8117Z" fill="#4D81BE"/>
<path d="M7.2537 23.8026L7.15918 23.7935L8.026 14.6878H8.12137L7.2537 23.8026Z" fill="#4D82BF"/>
<path d="M7.15922 23.7935L7.0647 23.7844L7.93067 14.6878H8.02604L7.15922 23.7935Z" fill="#4D83BF"/>
<path d="M7.06453 23.7844L6.96973 23.7753L7.83485 14.6878H7.9305L7.06453 23.7844Z" fill="#4D84C0"/>
<path d="M6.96977 23.7753L6.87524 23.7663L7.73952 14.6878H7.83489L6.96977 23.7753Z" fill="#4D85C0"/>
<path d="M6.87528 23.7663L6.78076 23.7575L7.64419 14.6878H7.73956L6.87528 23.7663Z" fill="#4D86C1"/>
<path d="M6.78084 23.7575L6.68604 23.7484L7.54861 14.6878H7.64427L6.78084 23.7575Z" fill="#4D87C1"/>
<path d="M6.68583 23.7484L6.59131 23.7393L7.45304 14.6878H7.54841L6.68583 23.7484Z" fill="#4D88C2"/>
<path d="M6.59135 23.7393L6.49683 23.7302L7.35742 14.6878H7.45308L6.59135 23.7393Z" fill="#4D89C2"/>
<path d="M6.4969 23.7302L6.4021 23.7211L7.26213 14.6878H7.3575L6.4969 23.7302Z" fill="#4D8AC3"/>
<path d="M6.40214 23.7211L6.30762 23.712L7.1668 14.6878H7.26217L6.40214 23.7211Z" fill="#4C8CC4"/>
<path d="M6.30766 23.712L6.21313 23.7029L7.07119 14.6878H7.16684L6.30766 23.712Z" fill="#4C8DC4"/>
<path d="M6.21297 23.7029L6.11816 23.6938L6.97565 14.6878H7.07102L6.21297 23.7029Z" fill="#4C8EC5"/>
<path d="M6.1182 23.6938L6.02368 23.6847L6.88003 14.6878H6.97569L6.1182 23.6938Z" fill="#4C8FC5"/>
<path d="M6.02372 23.6847L5.9292 23.6757L6.7847 14.6878H6.88007L6.02372 23.6847Z" fill="#4C90C6"/>
<path d="M5.92928 23.6757L5.83447 23.6666L6.68941 14.6878H6.78478L5.92928 23.6757Z" fill="#4C91C6"/>
<path d="M5.83451 23.6666L5.73999 23.6575L6.5938 14.6878H6.68945L5.83451 23.6666Z" fill="#4C92C7"/>
<path d="M5.73978 23.6575L5.64526 23.6484L6.49822 14.6878H6.59359L5.73978 23.6575Z" fill="#4C93C7"/>
<path d="M5.64534 23.6484L5.55054 23.6393L6.40264 14.6878H6.4983L5.64534 23.6484Z" fill="#4C94C8"/>
<path d="M5.55058 23.6393L5.45605 23.6302L6.30731 14.6878H6.40268L5.55058 23.6393Z" fill="#4C95C8"/>
<path d="M5.45609 23.6302L5.36157 23.6211L6.21198 14.6878H6.30735L5.45609 23.6302Z" fill="#4C96C9"/>
<path d="M5.36141 23.6211L5.2666 23.6123L6.11616 14.6878H6.21182L5.36141 23.6211Z" fill="#4C97CA"/>
<path d="M5.26664 23.6123L5.17212 23.6029L6.02083 14.6878H6.1162L5.26664 23.6123Z" fill="#4C98CA"/>
<path d="M5.17216 23.6029L5.07764 23.5941L5.92522 14.6878H6.02087L5.17216 23.6029Z" fill="#4C99CB"/>
<path d="M5.07771 23.5941L4.98291 23.585L5.82992 14.6878H5.92529L5.07771 23.5941Z" fill="#4C9ACB"/>
<path d="M4.98295 23.585L4.88843 23.576L5.73459 14.6878H5.82996L4.98295 23.585Z" fill="#4C9BCC"/>
<path d="M4.88847 23.576L4.79395 23.5669L5.63898 14.6878H5.73463L4.88847 23.576Z" fill="#4C9CCC"/>
<path d="M4.79378 23.5669L4.69897 23.5578L5.54344 14.6878H5.63881L4.79378 23.5669Z" fill="#4C9DCD"/>
<path d="M4.69901 23.5578L4.60449 23.5487L5.44811 14.6878H5.54348L4.69901 23.5578Z" fill="#4C9ECD"/>
<path d="M4.60453 23.5487L4.51001 23.5396L5.35249 14.6878H5.44815L4.60453 23.5487Z" fill="#4C9FCE"/>
<path d="M4.50984 23.5396L4.41504 23.5305L5.25696 14.6878H5.35233L4.50984 23.5396Z" fill="#4CA0CE"/>
<path d="M4.41508 23.5305L4.32056 23.5214L5.16134 14.6878H5.257L4.41508 23.5305Z" fill="#4CA1CF"/>
<path d="M4.32057 23.5214L1.23193 23.2252V14.6878H5.16136L4.32057 23.5214Z" fill="#4CA1CF"/>
</g>
</svg>
