<svg width="17" height="21" viewBox="0 0 17 21" fill="none" xmlns="http://www.w3.org/2000/svg">
<path d="M0.0757226 15.3571C0.0757226 15.2858 0.0757226 15.2052 0.0757226 15.1245C0.0757226 13.0648 0.0765155 11.005 0.0729474 8.94564C0.0729474 8.85082 0.0313198 8.75559 0 8.62146C0.25373 8.46383 0.550277 8.27824 0.84841 8.09467C3.29611 6.58683 5.74501 5.08101 8.18954 3.5683C8.34019 3.4751 8.44129 3.47834 8.59194 3.57154C10.2888 4.62594 11.9895 5.67426 13.6955 6.71366C13.8779 6.82469 13.9449 6.94099 13.9452 7.15698C13.948 8.06144 13.9714 8.9659 13.9869 9.87077C13.9881 9.93601 13.9869 10.0013 13.9869 10.0957C13.902 10.043 13.841 10.0081 13.7831 9.96843C12.0391 8.78598 10.2947 7.60475 8.55348 6.41785C8.43217 6.33518 8.34693 6.33032 8.22007 6.40731C6.34444 7.55167 4.46565 8.69035 2.58725 9.82985C2.37 9.96154 2.24868 10.124 2.25304 10.4126C2.27009 11.5265 2.26256 12.6409 2.25701 13.7553C2.25622 13.906 2.29309 13.9964 2.42788 14.079C4.39944 15.287 6.36823 16.4995 8.33226 17.7192C8.49243 17.8189 8.60026 17.8047 8.7525 17.7107C11.4286 16.0549 14.1082 14.4048 16.7874 12.7544C16.8473 12.7175 16.9103 12.6863 16.9971 12.6385C16.9971 13.0635 16.9971 13.4595 16.9971 13.8554C16.9971 14.2877 16.9932 14.7197 16.9999 15.1521C17.0019 15.2741 16.9662 15.3442 16.8608 15.409C14.4337 16.899 12.009 18.3931 9.58426 19.8867C9.27899 20.0748 8.97134 20.2587 8.67004 20.4536C8.57212 20.5173 8.49956 20.5136 8.40164 20.4536C5.77514 18.8323 3.14744 17.2139 0.518561 15.597C0.384163 15.5143 0.240647 15.4467 0.0753262 15.3579L0.0757226 15.3571Z" fill="white"/>
<path d="M0.000507554 8.35673C0.000507554 7.46708 -0.00266466 6.61595 0.00685198 5.76523C0.00764503 5.70237 0.0885365 5.62046 0.151981 5.58113C1.52317 4.73 2.89713 3.88334 4.2711 3.03667C5.61096 2.21068 6.95241 1.38753 8.2895 0.557083C8.41401 0.479634 8.50006 0.481661 8.62496 0.55911C11.2674 2.19406 13.9134 3.82332 16.5587 5.45381C16.5868 5.47124 16.6142 5.49841 16.6443 5.50328C16.929 5.54869 16.9159 5.75468 16.9155 5.97973C16.9104 8.0003 16.9112 10.0209 16.9155 12.041C16.9155 12.1408 16.9647 12.2405 17 12.3756C16.6971 12.5629 16.3481 12.779 15.9988 12.9943C13.6018 14.4715 11.2032 15.9467 8.80895 17.4292C8.65232 17.5261 8.54605 17.5225 8.38863 17.4248C6.66374 16.351 4.93211 15.2886 3.20563 14.2177C3.14021 14.1772 3.06685 14.0831 3.06487 14.0117C3.03711 13.0325 3.02085 12.0532 3.00301 11.0735C3.00221 11.0297 3.01292 10.9851 3.02164 10.9154C3.10016 10.9644 3.16122 10.9993 3.21911 11.0391C4.95828 12.2178 6.69824 13.395 8.43384 14.579C8.56469 14.6682 8.65272 14.6666 8.78555 14.5855C10.633 13.4574 12.4832 12.3334 14.3365 11.2154C14.6101 11.0504 14.7422 10.8578 14.7339 10.5062C14.7077 9.41912 14.7216 8.33078 14.7275 7.24284C14.7283 7.08591 14.6898 6.99062 14.5499 6.90506C12.5736 5.69548 10.6009 4.47982 8.63131 3.25969C8.49728 3.17656 8.40608 3.18224 8.27641 3.26253C5.59312 4.9214 2.90705 6.5754 0.220976 8.22981C0.160308 8.26711 0.0976566 8.30077 0.000507554 8.35673Z" fill="white"/>
</svg>
