<svg width="24" height="24" viewBox="0 0 24 24" fill="none" xmlns="http://www.w3.org/2000/svg">
<path d="M1.29082 17.8286C1.29082 17.743 1.29082 17.6462 1.29082 17.5494C1.29082 15.0777 1.29177 12.606 1.28749 10.1348C1.28749 10.021 1.23753 9.90672 1.19995 9.74576C1.50443 9.5566 1.86028 9.33389 2.21804 9.11361C5.15529 7.3042 8.09396 5.49722 11.0274 3.68197C11.2082 3.57013 11.3295 3.57402 11.5103 3.68586C13.5465 4.95113 15.5874 6.20912 17.6345 7.4564C17.8534 7.58964 17.9338 7.7292 17.9342 7.98838C17.9376 9.07374 17.9656 10.1591 17.9842 11.2449C17.9856 11.3232 17.9842 11.4015 17.9842 11.5148C17.8824 11.4516 17.8091 11.4098 17.7397 11.3621C15.6469 9.94319 13.5536 8.52571 11.4641 7.10142C11.3186 7.00222 11.2163 6.99639 11.064 7.08878C8.81328 8.46201 6.55873 9.82843 4.30466 11.1958C4.04395 11.3539 3.89837 11.5489 3.9036 11.8951C3.92406 13.2318 3.91502 14.5691 3.90836 15.9063C3.90741 16.0872 3.95165 16.1957 4.11341 16.2949C6.47928 17.7444 8.84183 19.1994 11.1987 20.663C11.3909 20.7826 11.5203 20.7656 11.703 20.6528C14.9142 18.6659 18.1298 16.6858 21.3449 14.7052C21.4167 14.661 21.4923 14.6235 21.5965 14.5662C21.5965 15.0763 21.5965 15.5513 21.5965 16.0264C21.5965 16.5453 21.5918 17.0636 21.5999 17.5825C21.6022 17.7289 21.5594 17.813 21.4329 17.8908C18.5204 19.6788 15.6107 21.4717 12.7011 23.2641C12.3347 23.4897 11.9656 23.7105 11.604 23.9444C11.4865 24.0207 11.3994 24.0163 11.2819 23.9444C8.13012 21.9988 4.97688 20.0566 1.82222 18.1164C1.66095 18.0172 1.48873 17.936 1.29034 17.8295L1.29082 17.8286Z" fill="white"/>
<path d="M1.20056 9.42807C1.20056 8.36049 1.19675 7.33914 1.20817 6.31827C1.20913 6.24285 1.30619 6.14456 1.38233 6.09736C3.02775 5.076 4.67651 4.06 6.32527 3.044C7.93311 2.05282 9.54285 1.06504 11.1474 0.0684996C11.2968 -0.0244392 11.4 -0.0220063 11.5499 0.0709325C14.7208 2.03287 17.8961 3.98799 21.0704 5.94457C21.1041 5.96549 21.137 5.99809 21.1731 6.00393C21.5148 6.05843 21.4991 6.30562 21.4986 6.57568C21.4924 9.00036 21.4934 11.425 21.4986 13.8492C21.4986 13.9689 21.5576 14.0886 21.6 14.2507C21.2364 14.4755 20.8177 14.7348 20.3985 14.9932C17.5221 16.7659 14.6438 18.5361 11.7707 20.3151C11.5827 20.4313 11.4552 20.427 11.2663 20.3097C9.19644 19.0212 7.11848 17.7463 5.04671 16.4613C4.9682 16.4126 4.88017 16.2997 4.87779 16.2141C4.84448 15.0389 4.82497 13.8638 4.80356 12.6882C4.80261 12.6357 4.81546 12.5822 4.82592 12.4985C4.92014 12.5573 4.99342 12.5992 5.06289 12.6469C7.14989 14.0614 9.23784 15.474 11.3206 16.8948C11.4776 17.0019 11.5832 16.9999 11.7426 16.9026C13.9595 15.5489 16.1797 14.2001 18.4038 12.8585C18.7321 12.6605 18.8906 12.4294 18.8806 12.0075C18.8492 10.7029 18.8658 9.39693 18.873 8.09141C18.8739 7.9031 18.8278 7.78875 18.6598 7.68608C16.2882 6.23458 13.921 4.77578 11.5575 3.31163C11.3967 3.21188 11.2872 3.21869 11.1316 3.31503C7.91169 5.30568 4.68841 7.29048 1.46512 9.27577C1.39232 9.32053 1.31714 9.36092 1.20056 9.42807Z" fill="white"/>
<circle cx="20" cy="20" r="4" fill="#FE9B07"/>
</svg>
