<svg xmlns="http://www.w3.org/2000/svg" width="32" height="32" viewBox="0 0 32 32" fill="none">
  <g clip-path="url(#clip0_5045_120459)">
    <path fill-rule="evenodd" clip-rule="evenodd" d="M23.0003 16.6357C23.3518 16.2842 23.3518 15.7143 23.0003 15.3629C22.6489 15.0114 22.079 15.0114 21.7275 15.3629L16.9462 20.1442L16.9 9.6353C16.9 9.13825 16.497 8.7353 16 8.7353C15.5029 8.7353 15.1 9.13825 15.1 9.6353L15.1466 20.2371L10.2724 15.3629C9.92092 15.0114 9.35108 15.0114 8.9996 15.3629C8.64813 15.7143 8.64813 16.2842 8.9996 16.6357L15.3636 22.9996C15.715 23.3511 16.2849 23.3511 16.6364 22.9996L23.0003 16.6357Z" fill="white"/>
  </g>
  <defs>
    <clipPath id="clip0_5045_120459">
      <rect width="21.6" height="21.6" fill="white" transform="translate(31.2734 15.9993) rotate(135)"/>
    </clipPath>
  </defs>
</svg>