<svg xmlns="http://www.w3.org/2000/svg" width="14" height="14" viewBox="0 0 14 14" fill="none">
  <path fill-rule="evenodd" clip-rule="evenodd" d="M9.13692 2.20125C8.1028 1.74048 6.94745 1.62633 5.84316 1.87583C4.73888 2.12533 3.74482 2.72511 3.00926 3.58571C2.2737 4.44632 1.83603 5.52165 1.76154 6.65132C1.68705 7.78098 1.97973 8.90447 2.59592 9.85421C3.21211 10.804 4.1188 11.5291 5.18076 11.9214C6.24272 12.3137 7.40306 12.3523 8.48873 12.0313C9.57439 11.7103 10.5272 11.047 11.2051 10.1402C11.8829 9.23345 12.2495 8.13187 12.2502 6.99975V6.46342C12.2502 6.14125 12.5113 5.88008 12.8335 5.88008C13.1557 5.88008 13.4168 6.14125 13.4168 6.46342V7.00008C13.416 8.38379 12.968 9.7305 12.1395 10.8388C11.311 11.947 10.1464 12.7578 8.81952 13.1501C7.4926 13.5424 6.0744 13.4953 4.77645 13.0158C3.47849 12.5362 2.37032 11.65 1.6172 10.4892C0.864075 9.32841 0.506362 7.95526 0.597405 6.57455C0.688449 5.19385 1.22337 3.87956 2.12239 2.82771C3.02141 1.77585 4.23637 1.04279 5.58605 0.737845C6.93574 0.432901 8.34783 0.572417 9.61175 1.13558C9.90602 1.26671 10.0383 1.61156 9.90717 1.90583C9.77604 2.20011 9.43119 2.33237 9.13692 2.20125Z" fill="white"/>
  <path fill-rule="evenodd" clip-rule="evenodd" d="M13.2459 1.92065C13.4739 2.14834 13.474 2.51769 13.2463 2.74561L7.41301 8.58477C7.30363 8.69426 7.15523 8.7558 7.00047 8.75583C6.84571 8.75587 6.69728 8.69441 6.58785 8.58498L4.83785 6.83498C4.61004 6.60717 4.61004 6.23783 4.83785 6.01002C5.06565 5.78222 5.435 5.78222 5.6628 6.01002L7.00012 7.34734L12.421 1.92106C12.6487 1.69314 13.018 1.69296 13.2459 1.92065Z" fill="white"/>
</svg>