<svg xmlns="http://www.w3.org/2000/svg" width="20" height="21" viewBox="0 0 20 21" fill="none">
  <path fill-rule="evenodd" clip-rule="evenodd" d="M14.1667 5.5V4.66667C14.1667 3.74619 13.4205 3 12.5 3H7.5C6.57952 3 5.83333 3.74619 5.83333 4.66667V5.5H3.33333C2.8731 5.5 2.5 5.8731 2.5 6.33333C2.5 6.79357 2.8731 7.16667 3.33333 7.16667H4.16667V16.3333C4.16667 17.7141 5.28596 18.8333 6.66667 18.8333H13.3333C14.7141 18.8333 15.8333 17.7141 15.8333 16.3333V7.16667H16.6667C17.1269 7.16667 17.5 6.79357 17.5 6.33333C17.5 5.8731 17.1269 5.5 16.6667 5.5H14.1667ZM12.5 4.66667H7.5V5.5H12.5V4.66667ZM14.1667 7.16667H5.83333V16.3333C5.83333 16.7936 6.20643 17.1667 6.66667 17.1667H13.3333C13.7936 17.1667 14.1667 16.7936 14.1667 16.3333V7.16667Z" fill="white"/>
</svg>