<svg width="17" height="19" viewBox="0 0 17 19" fill="none" xmlns="http://www.w3.org/2000/svg">
<path d="M8.66665 11.8767V13.6183C7.91242 13.3517 7.10521 13.2699 6.31282 13.3798C5.52042 13.4898 4.76598 13.7882 4.11284 14.2502C3.4597 14.7121 2.92693 15.324 2.55928 16.0345C2.19163 16.745 1.99983 17.5334 1.99998 18.3333L0.333313 18.3325C0.333055 17.3149 0.565747 16.3108 1.01356 15.397C1.46138 14.4832 2.11243 13.6841 2.91683 13.0609C3.72123 12.4376 4.65763 12.0068 5.65427 11.8014C6.65092 11.596 7.68137 11.6214 8.66665 11.8758V11.8767ZM6.99998 10.8333C4.23748 10.8333 1.99998 8.59584 1.99998 5.83334C1.99998 3.07084 4.23748 0.833336 6.99998 0.833336C9.76248 0.833336 12 3.07084 12 5.83334C12 8.59584 9.76248 10.8333 6.99998 10.8333ZM6.99998 9.16667C8.84165 9.16667 10.3333 7.675 10.3333 5.83334C10.3333 3.99167 8.84165 2.5 6.99998 2.5C5.15831 2.5 3.66665 3.99167 3.66665 5.83334C3.66665 7.675 5.15831 9.16667 6.99998 9.16667ZM13.1816 14.1667H16.17V15.8333H13.1816L14.7058 17.3567L13.5275 18.5358L9.99165 15L13.5275 11.4642L14.7058 12.6433L13.1816 14.1667Z" fill="white"/>
</svg>
