<svg width="16" height="16" viewBox="0 0 16 16" fill="none" xmlns="http://www.w3.org/2000/svg">
<path fill-rule="evenodd" clip-rule="evenodd" d="M12.1667 2.5V1.66667C12.1667 0.746192 11.4205 0 10.5 0H5.5C4.57952 0 3.83333 0.746192 3.83333 1.66667V2.5H1.33333C0.8731 2.5 0.5 2.8731 0.5 3.33333C0.5 3.79357 0.8731 4.16667 1.33333 4.16667H2.16667V13.3333C2.16667 14.7141 3.28596 15.8333 4.66667 15.8333H11.3333C12.7141 15.8333 13.8333 14.7141 13.8333 13.3333V4.16667H14.6667C15.1269 4.16667 15.5 3.79357 15.5 3.33333C15.5 2.8731 15.1269 2.5 14.6667 2.5H12.1667ZM10.5 1.66667H5.5V2.5H10.5V1.66667ZM12.1667 4.16667H3.83333V13.3333C3.83333 13.7936 4.20643 14.1667 4.66667 14.1667H11.3333C11.7936 14.1667 12.1667 13.7936 12.1667 13.3333V4.16667Z" fill="white"/>
</svg>
