<svg xmlns="http://www.w3.org/2000/svg" width="36" height="35" viewBox="0 0 36 35" fill="none">
  <path d="M17.9994 3.17188L32.6666 32.4034H3.33444L18.0016 3.17188H17.9994ZM17.9994 0C17.2448 0 16.4901 0.509688 15.9191 1.52688L0.98069 31.3009C-0.163373 33.3353 0.810065 35 3.14413 35H32.8569C35.191 35 36.1644 33.3353 35.0204 31.3009L20.0819 1.52688C19.5088 0.509688 18.7563 0 18.0016 0L17.9994 0Z" fill="white"/>
  <path d="M20.1875 28.4375C20.1875 29.645 19.2075 30.625 18 30.625C16.7925 30.625 15.8125 29.645 15.8125 28.4375C15.8125 27.23 16.7925 26.25 18 26.25C19.2075 26.25 20.1875 27.23 20.1875 28.4375Z" fill="white"/>
  <path d="M18 24.0625C16.7925 24.0625 15.8125 23.0825 15.8125 21.875V15.3125C15.8125 14.105 16.7925 13.125 18 13.125C19.2075 13.125 20.1875 14.105 20.1875 15.3125V21.875C20.1875 23.0825 19.2075 24.0625 18 24.0625Z" fill="white"/>
</svg>