<svg width="14" height="14" viewBox="0 0 14 14" fill="none" xmlns="http://www.w3.org/2000/svg">
<path fill-rule="evenodd" clip-rule="evenodd" d="M6.99998 1.74999C4.10048 1.74999 1.74998 4.1005 1.74998 7C1.74998 9.89949 4.10048 12.25 6.99998 12.25C9.89948 12.25 12.25 9.89949 12.25 7C12.25 4.1005 9.89948 1.74999 6.99998 1.74999ZM0.583313 7C0.583313 3.45617 3.45615 0.583328 6.99998 0.583328C10.5438 0.583328 13.4166 3.45617 13.4166 7C13.4166 10.5438 10.5438 13.4167 6.99998 13.4167C3.45615 13.4167 0.583313 10.5438 0.583313 7Z" fill="white"/>
<path fill-rule="evenodd" clip-rule="evenodd" d="M9.16246 4.83752C9.39027 5.06532 9.39027 5.43467 9.16246 5.66247L5.66246 9.16247C5.43465 9.39028 5.06531 9.39028 4.8375 9.16247C4.6097 8.93467 4.6097 8.56532 4.8375 8.33752L8.3375 4.83752C8.56531 4.60971 8.93465 4.60971 9.16246 4.83752Z" fill="white"/>
<path fill-rule="evenodd" clip-rule="evenodd" d="M4.8375 4.83752C5.06531 4.60971 5.43465 4.60971 5.66246 4.83752L9.16246 8.33752C9.39027 8.56532 9.39027 8.93467 9.16246 9.16247C8.93465 9.39028 8.56531 9.39028 8.3375 9.16247L4.8375 5.66247C4.6097 5.43467 4.6097 5.06532 4.8375 4.83752Z" fill="white"/>
</svg>
