<svg xmlns="http://www.w3.org/2000/svg" width="22" height="22" viewBox="0 0 22 22" fill="none">
  <path fill-rule="evenodd" clip-rule="evenodd" d="M14.663 2.77329C12.8902 1.9834 10.9096 1.78771 9.01657 2.21542C7.12351 2.64314 5.41942 3.67133 4.15845 5.14666C2.89749 6.62199 2.14721 8.4654 2.01951 10.402C1.89181 12.3386 2.39354 14.2645 3.44987 15.8927C4.50619 17.5208 6.06051 18.7638 7.88102 19.4364C9.70153 20.109 11.6907 20.1751 13.5518 19.6248C15.413 19.0745 17.0464 17.9374 18.2084 16.3829C19.3705 14.8285 19.9989 12.9401 20 10.9993V10.0799C20 9.52758 20.4477 9.07987 21 9.07987C21.5523 9.07987 22 9.52758 22 10.0799V10.9999C21.9986 13.3719 21.2306 15.6806 19.8103 17.5804C18.39 19.4803 16.3936 20.8702 14.1189 21.5427C11.8442 22.2153 9.41299 22.1345 7.18792 21.3125C4.96285 20.4904 3.06312 18.9711 1.77206 16.9812C0.480993 14.9913 -0.13223 12.6373 0.0238445 10.2704C0.179919 7.90346 1.09693 5.6504 2.63811 3.84722C4.17929 2.04404 6.26206 0.787357 8.57581 0.264597C10.8896 -0.258163 13.3103 -0.0189926 15.477 0.946437C15.9815 1.17122 16.2082 1.76239 15.9834 2.26687C15.7587 2.77134 15.1675 2.99807 14.663 2.77329Z" fill="white"/>
  <path fill-rule="evenodd" clip-rule="evenodd" d="M21.7068 2.29254C22.0975 2.68287 22.0978 3.31603 21.7075 3.70675L11.7075 13.7168C11.52 13.9044 11.2656 14.0099 11.0002 14.01C10.7349 14.0101 10.4805 13.9047 10.2929 13.7171L7.29289 10.7171C6.90237 10.3266 6.90237 9.69342 7.29289 9.30289C7.68342 8.91237 8.31658 8.91237 8.70711 9.30289L10.9996 11.5954L20.2925 2.29325C20.6829 1.90253 21.316 1.90221 21.7068 2.29254Z" fill="white"/>
</svg>