<svg xmlns="http://www.w3.org/2000/svg" width="32" height="32" viewBox="0 0 32 32" fill="none">
  <path d="M15.9991 2.9L29.4091 29.626H2.59108L16.0011 2.9H15.9991ZM15.9991 0C15.3091 0 14.6191 0.466 14.0971 1.396L0.439083 28.618C-0.606917 30.478 0.283083 32 2.41708 32H29.5831C31.7171 32 32.6071 30.478 31.5611 28.618L17.9031 1.396C17.3791 0.466 16.6911 0 16.0011 0L15.9991 0Z" fill="#FE9B07"/>
  <path d="M18 26C18 27.104 17.104 28 16 28C14.896 28 14 27.104 14 26C14 24.896 14.896 24 16 24C17.104 24 18 24.896 18 26Z" fill="#FE9B07"/>
  <path d="M16 22C14.896 22 14 21.104 14 20V14C14 12.896 14.896 12 16 12C17.104 12 18 12.896 18 14V20C18 21.104 17.104 22 16 22Z" fill="#FE9B07"/>
</svg>