<svg width="11" height="10" viewBox="0 0 11 10" fill="none" xmlns="http://www.w3.org/2000/svg">
<path d="M8.71258 1.21261C8.88751 1.0392 9.12367 0.941601 9.36999 0.940922C9.61631 0.940242 9.853 1.03653 10.0289 1.20897C10.2048 1.38142 10.3057 1.61616 10.3099 1.86244C10.3141 2.10873 10.2212 2.34677 10.0513 2.52511L5.06133 8.76261C4.97556 8.85498 4.87206 8.92911 4.75699 8.98057C4.64192 9.03202 4.51766 9.05974 4.39164 9.06208C4.26561 9.06441 4.14041 9.04131 4.02352 8.99415C3.90663 8.94699 3.80045 8.87674 3.71133 8.78761L0.405075 5.48011C0.312966 5.39428 0.239089 5.29078 0.187849 5.17578C0.136609 5.06078 0.109056 4.93664 0.106835 4.81076C0.104614 4.68488 0.12777 4.55984 0.174922 4.44311C0.222073 4.32637 0.292254 4.22033 0.381277 4.13131C0.470301 4.04229 0.576343 3.9721 0.693078 3.92495C0.809813 3.8778 0.93485 3.85465 1.06073 3.85687C1.18661 3.85909 1.31075 3.88664 1.42575 3.93788C1.54075 3.98912 1.64425 4.063 1.73007 4.15511L4.34758 6.77136L8.68883 1.24011C8.69657 1.23042 8.70492 1.22124 8.71383 1.21261H8.71258Z" fill="#8EC100"/>
</svg>
