<svg xmlns="http://www.w3.org/2000/svg" width="28" height="29" viewBox="0 0 28 29" fill="none">
  <path d="M19.7694 19.2551C20.1894 19.6751 20.1894 20.3284 19.7694 20.7484C19.5594 20.9584 19.3027 21.0517 19.0227 21.0517C18.7427 21.0517 18.4861 20.9584 18.2761 20.7484L14.0061 16.4784L9.73606 20.7484C9.52606 20.9584 9.2694 21.0517 8.9894 21.0517C8.7094 21.0517 8.45275 20.9584 8.24275 20.7484C7.82275 20.3284 7.82275 19.6751 8.24275 19.2551L12.5127 14.9851L8.24275 10.7151C7.82275 10.2951 7.82275 9.64174 8.24275 9.22174C8.66275 8.80174 9.31606 8.80174 9.73606 9.22174L14.0061 13.4917L18.2761 9.22174C18.6961 8.80174 19.3494 8.80174 19.7694 9.22174C20.1894 9.64174 20.1894 10.2951 19.7694 10.7151L15.4994 14.9851L19.7694 19.2551Z" fill="white"/>
</svg>