<svg xmlns="http://www.w3.org/2000/svg" width="15" height="16" viewBox="0 0 15 16" fill="none">
  <path fill-rule="evenodd" clip-rule="evenodd" d="M11.6919 4.69194C11.936 4.44786 11.936 4.05214 11.6919 3.80806C11.4479 3.56398 11.0521 3.56398 10.8081 3.80806L7.5 7.11612L4.19194 3.80806C3.94786 3.56398 3.55214 3.56398 3.30806 3.80806C3.06398 4.05214 3.06398 4.44786 3.30806 4.69194L6.61612 8L3.30806 11.3081C3.06398 11.5521 3.06398 11.9479 3.30806 12.1919C3.55214 12.436 3.94786 12.436 4.19194 12.1919L7.5 8.88388L10.8081 12.1919C11.0521 12.436 11.4479 12.436 11.6919 12.1919C11.936 11.9479 11.936 11.5521 11.6919 11.3081L8.38388 8L11.6919 4.69194Z" fill="white"/>
</svg>