<svg xmlns="http://www.w3.org/2000/svg" width="14" height="14" viewBox="0 0 14 14" fill="none">
  <g clip-path="url(#clip0_4052_28468)">
    <path fill-rule="evenodd" clip-rule="evenodd" d="M7.00016 1.74967C4.10067 1.74967 1.75016 4.10018 1.75016 6.99967C1.75016 9.89917 4.10067 12.2497 7.00016 12.2497C9.89966 12.2497 12.2502 9.89917 12.2502 6.99967C12.2502 4.10018 9.89966 1.74967 7.00016 1.74967ZM0.583496 6.99967C0.583496 3.45585 3.45634 0.583008 7.00016 0.583008C10.544 0.583008 13.4168 3.45585 13.4168 6.99967C13.4168 10.5435 10.544 13.4163 7.00016 13.4163C3.45634 13.4163 0.583496 10.5435 0.583496 6.99967Z" fill="#D70000"/>
    <path fill-rule="evenodd" clip-rule="evenodd" d="M9.16264 4.8372C9.39045 5.065 9.39045 5.43435 9.16264 5.66215L5.66264 9.16215C5.43484 9.38996 5.06549 9.38996 4.83768 9.16215C4.60988 8.93435 4.60988 8.565 4.83768 8.3372L8.33768 4.8372C8.56549 4.60939 8.93484 4.60939 9.16264 4.8372Z" fill="#D70000"/>
    <path fill-rule="evenodd" clip-rule="evenodd" d="M4.83768 4.8372C5.06549 4.60939 5.43484 4.60939 5.66264 4.8372L9.16264 8.3372C9.39045 8.565 9.39045 8.93435 9.16264 9.16215C8.93484 9.38996 8.56549 9.38996 8.33768 9.16215L4.83768 5.66215C4.60988 5.43435 4.60988 5.065 4.83768 4.8372Z" fill="#D70000"/>
  </g>
  <defs>
    <clipPath id="clip0_4052_28468">
      <rect width="14" height="14" fill="white"/>
    </clipPath>
  </defs>
</svg>