<svg xmlns="http://www.w3.org/2000/svg" width="14" height="14" viewBox="0 0 14 14" fill="none">
  <g clip-path="url(#clip0_4475_93740)">
    <path fill-rule="evenodd" clip-rule="evenodd" d="M7.00016 1.75016C4.10067 1.75016 1.75016 4.10067 1.75016 7.00016C1.75016 9.89966 4.10067 12.2502 7.00016 12.2502C9.89966 12.2502 12.2502 9.89966 12.2502 7.00016C12.2502 4.10067 9.89966 1.75016 7.00016 1.75016ZM0.583496 7.00016C0.583496 3.45634 3.45634 0.583496 7.00016 0.583496C10.544 0.583496 13.4168 3.45634 13.4168 7.00016C13.4168 10.544 10.544 13.4168 7.00016 13.4168C3.45634 13.4168 0.583496 10.544 0.583496 7.00016Z" fill="white"/>
    <path fill-rule="evenodd" clip-rule="evenodd" d="M9.16264 4.83768C9.39045 5.06549 9.39045 5.43484 9.16264 5.66264L5.66264 9.16264C5.43484 9.39045 5.06549 9.39045 4.83768 9.16264C4.60988 8.93484 4.60988 8.56549 4.83768 8.33768L8.33768 4.83768C8.56549 4.60988 8.93484 4.60988 9.16264 4.83768Z" fill="white"/>
    <path fill-rule="evenodd" clip-rule="evenodd" d="M4.83768 4.83768C5.06549 4.60988 5.43484 4.60988 5.66264 4.83768L9.16264 8.33768C9.39045 8.56549 9.39045 8.93484 9.16264 9.16264C8.93484 9.39045 8.56549 9.39045 8.33768 9.16264L4.83768 5.66264C4.60988 5.43484 4.60988 5.06549 4.83768 4.83768Z" fill="white"/>
  </g>
  <defs>
    <clipPath id="clip0_4475_93740">
      <rect width="14" height="14" fill="white"/>
    </clipPath>
  </defs>
</svg>