<svg width="50" height="50" viewBox="0 0 50 50" fill="none" xmlns="http://www.w3.org/2000/svg">
<circle cx="25" cy="25" r="25" fill="#FF3E91"/>
<path d="M25 12.5C25.3315 12.5 25.6495 12.6317 25.8839 12.8661C26.1183 13.1005 26.25 13.4185 26.25 13.75V17.5C26.25 17.8315 26.1183 18.1495 25.8839 18.3839C25.6495 18.6183 25.3315 18.75 25 18.75C24.6685 18.75 24.3505 18.6183 24.1161 18.3839C23.8817 18.1495 23.75 17.8315 23.75 17.5V13.75C23.75 13.4185 23.8817 13.1005 24.1161 12.8661C24.3505 12.6317 24.6685 12.5 25 12.5ZM25 31.25C25.3315 31.25 25.6495 31.3817 25.8839 31.6161C26.1183 31.8505 26.25 32.1685 26.25 32.5V36.25C26.25 36.5815 26.1183 36.8995 25.8839 37.1339C25.6495 37.3683 25.3315 37.5 25 37.5C24.6685 37.5 24.3505 37.3683 24.1161 37.1339C23.8817 36.8995 23.75 36.5815 23.75 36.25V32.5C23.75 32.1685 23.8817 31.8505 24.1161 31.6161C24.3505 31.3817 24.6685 31.25 25 31.25ZM37.5 25C37.5 25.3315 37.3683 25.6495 37.1339 25.8839C36.8995 26.1183 36.5815 26.25 36.25 26.25H32.5C32.1685 26.25 31.8505 26.1183 31.6161 25.8839C31.3817 25.6495 31.25 25.3315 31.25 25C31.25 24.6685 31.3817 24.3505 31.6161 24.1161C31.8505 23.8817 32.1685 23.75 32.5 23.75H36.25C36.5815 23.75 36.8995 23.8817 37.1339 24.1161C37.3683 24.3505 37.5 24.6685 37.5 25ZM18.75 25C18.75 25.3315 18.6183 25.6495 18.3839 25.8839C18.1495 26.1183 17.8315 26.25 17.5 26.25H13.75C13.4185 26.25 13.1005 26.1183 12.8661 25.8839C12.6317 25.6495 12.5 25.3315 12.5 25C12.5 24.6685 12.6317 24.3505 12.8661 24.1161C13.1005 23.8817 13.4185 23.75 13.75 23.75H17.5C17.8315 23.75 18.1495 23.8817 18.3839 24.1161C18.6183 24.3505 18.75 24.6685 18.75 25ZM33.8387 33.8387C33.6043 34.0731 33.2865 34.2047 32.955 34.2047C32.6235 34.2047 32.3057 34.0731 32.0712 33.8387L29.42 31.1875C29.1923 30.9517 29.0663 30.636 29.0692 30.3082C29.072 29.9805 29.2035 29.667 29.4352 29.4352C29.667 29.2035 29.9805 29.072 30.3082 29.0692C30.636 29.0663 30.9517 29.1923 31.1875 29.42L33.8387 32.07C33.955 32.1861 34.0472 32.324 34.1101 32.4757C34.173 32.6274 34.2054 32.7901 34.2054 32.9544C34.2054 33.1186 34.173 33.2813 34.1101 33.4331C34.0472 33.5848 33.955 33.7227 33.8387 33.8387ZM20.58 20.58C20.3456 20.8143 20.0277 20.946 19.6962 20.946C19.3648 20.946 19.0469 20.8143 18.8125 20.58L16.1625 17.93C15.9279 17.6956 15.7961 17.3777 15.796 17.0461C15.7959 16.7145 15.9275 16.3964 16.1619 16.1619C16.3963 15.9273 16.7142 15.7955 17.0458 15.7954C17.3774 15.7953 17.6954 15.9269 17.93 16.1612L20.58 18.8125C20.8143 19.0469 20.946 19.3648 20.946 19.6962C20.946 20.0277 20.8143 20.3456 20.58 20.58ZM16.1625 33.8387C15.9282 33.6043 15.7965 33.2865 15.7965 32.955C15.7965 32.6235 15.9282 32.3057 16.1625 32.0712L18.8138 29.42C18.9291 29.3006 19.067 29.2054 19.2195 29.1399C19.372 29.0744 19.536 29.0399 19.702 29.0384C19.868 29.037 20.0326 29.0686 20.1862 29.1315C20.3398 29.1943 20.4794 29.2871 20.5967 29.4045C20.7141 29.5219 20.8069 29.6614 20.8698 29.8151C20.9326 29.9687 20.9643 30.1333 20.9628 30.2993C20.9614 30.4652 20.9269 30.6292 20.8614 30.7818C20.7959 30.9343 20.7006 31.0722 20.5813 31.1875L17.9312 33.8387C17.8152 33.955 17.6773 34.0472 17.5256 34.1101C17.3738 34.173 17.2111 34.2054 17.0469 34.2054C16.8826 34.2054 16.7199 34.173 16.5682 34.1101C16.4165 34.0472 16.2786 33.955 16.1625 33.8387ZM29.42 20.58C29.1857 20.3456 29.054 20.0277 29.054 19.6962C29.054 19.3648 29.1857 19.0469 29.42 18.8125L32.07 16.1612C32.3044 15.9267 32.6223 15.7949 32.9539 15.7947C33.2855 15.7946 33.6036 15.9262 33.8381 16.1606C34.0727 16.395 34.2045 16.713 34.2046 17.0446C34.2047 17.3761 34.0731 17.6942 33.8387 17.9288L31.1875 20.58C30.9531 20.8143 30.6352 20.946 30.3037 20.946C29.9723 20.946 29.6544 20.8143 29.42 20.58Z" fill="white"/>
</svg>
