<svg width="50" height="50" viewBox="0 0 50 50" fill="none" xmlns="http://www.w3.org/2000/svg">
<circle cx="25" cy="25" r="25" fill="#8EC100"/>
<path fill-rule="evenodd" clip-rule="evenodd" d="M29.5788 14.7168C27.3628 13.7294 24.887 13.4848 22.5207 14.0194C20.1544 14.5541 18.0243 15.8393 16.4481 17.6835C14.8719 19.5277 13.934 21.8319 13.7744 24.2526C13.6148 26.6734 14.2419 29.0808 15.5623 31.116C16.8827 33.1511 18.8256 34.705 21.1013 35.5457C23.3769 36.3864 25.8634 36.469 28.1898 35.7812C30.5162 35.0933 32.5579 33.6719 34.0105 31.7288C35.4631 29.7858 36.2486 27.4253 36.25 24.9993V23.85C36.25 23.1596 36.8097 22.6 37.5 22.6C38.1904 22.6 38.75 23.1596 38.75 23.85V25C38.7483 27.9651 37.7882 30.8509 36.0128 33.2257C34.2375 35.6006 31.742 37.3379 28.8986 38.1786C26.0552 39.0193 23.0162 38.9183 20.2349 37.8908C17.4536 36.8632 15.0789 34.9641 13.4651 32.4767C11.8512 29.9893 11.0847 27.0468 11.2798 24.0881C11.4749 21.1295 12.6212 18.3132 14.5476 16.0592C16.4741 13.8052 19.0776 12.2344 21.9698 11.5809C24.8619 10.9275 27.8879 11.2264 30.5963 12.4332C31.2268 12.7142 31.5103 13.4532 31.2293 14.0837C30.9483 14.7143 30.2093 14.9978 29.5788 14.7168Z" fill="white"/>
<path fill-rule="evenodd" clip-rule="evenodd" d="M38.3834 14.1157C38.8718 14.6036 38.8722 15.395 38.3843 15.8834L25.8843 28.3959C25.6499 28.6306 25.3319 28.7624 25.0003 28.7625C24.6687 28.7626 24.3506 28.6309 24.1161 28.3964L20.3661 24.6464C19.878 24.1582 19.878 23.3668 20.3661 22.8786C20.8543 22.3905 21.6457 22.3905 22.1339 22.8786L24.9996 25.7443L36.6157 14.1166C37.1036 13.6282 37.895 13.6278 38.3834 14.1157Z" fill="white"/>
</svg>
