<svg width="27" height="29" viewBox="0 0 27 29" fill="none" xmlns="http://www.w3.org/2000/svg">
<path d="M21.9766 11.7656V1.92188C21.9766 1.31689 21.4878 0.828125 20.8828 0.828125H6.11719C5.51221 0.828125 5.02344 1.31689 5.02344 1.92188V11.7656C2.76074 11.7656 0.921875 13.5464 0.921875 15.7305V27.8984C0.921875 28.0488 1.04492 28.1719 1.19531 28.1719H3.10938C3.25977 28.1719 3.38281 28.0488 3.38281 27.8984V15.7305C3.38281 14.8999 4.12109 14.2266 5.02686 14.2266H21.9731C22.8789 14.2266 23.6172 14.8999 23.6172 15.7305V27.8984C23.6172 28.0488 23.7402 28.1719 23.8906 28.1719H25.8047C25.9551 28.1719 26.0781 28.0488 26.0781 27.8984V15.7305C26.0781 13.5464 24.2393 11.7656 21.9766 11.7656V11.7656ZM7.48438 11.7656V3.28906H19.5156V11.7656H7.48438ZM11.5859 5.47656H9.94531C9.79492 5.47656 9.67188 5.59961 9.67188 5.75V7.39062C9.67188 7.54102 9.79492 7.66406 9.94531 7.66406H11.5859C11.7363 7.66406 11.8594 7.54102 11.8594 7.39062V5.75C11.8594 5.59961 11.7363 5.47656 11.5859 5.47656ZM17.0547 5.47656H15.4141C15.2637 5.47656 15.1406 5.59961 15.1406 5.75V7.39062C15.1406 7.54102 15.2637 7.66406 15.4141 7.66406H17.0547C17.2051 7.66406 17.3281 7.54102 17.3281 7.39062V5.75C17.3281 5.59961 17.2051 5.47656 17.0547 5.47656Z" fill="white"/>
</svg>
