<svg xmlns="http://www.w3.org/2000/svg" width="18" height="18" viewBox="0 0 18 18" fill="none">
  <path d="M13.4115 14.4729C12.0924 15.3096 10.562 15.7527 8.99999 15.7502C4.95599 15.7502 1.59149 12.8402 0.885742 9.00017C1.20826 7.25321 2.08696 5.65734 3.39074 4.45067L1.04399 2.10617L2.10524 1.04492L16.9545 15.8949L15.8932 16.9554L13.4107 14.4729H13.4115ZM4.45124 5.51267C3.432 6.43936 2.72198 7.65676 2.41724 9.00017C2.65146 10.025 3.12169 10.981 3.79049 11.7921C4.4593 12.6032 5.30821 13.247 6.26966 13.6722C7.2311 14.0973 8.27853 14.2922 9.32856 14.2413C10.3786 14.1903 11.4022 13.8949 12.318 13.3787L10.797 11.8577C10.1495 12.2655 9.38264 12.4413 8.62217 12.356C7.8617 12.2708 7.15277 11.9296 6.61167 11.3885C6.07057 10.8474 5.72941 10.1385 5.64416 9.37799C5.55891 8.61752 5.73463 7.85065 6.14249 7.20317L4.45124 5.51267ZM9.68549 10.7462L7.25399 8.31467C7.12054 8.65437 7.08913 9.02564 7.16362 9.38293C7.23811 9.74022 7.41526 10.068 7.67333 10.3261C7.93141 10.5842 8.25919 10.7613 8.61648 10.8358C8.97378 10.9103 9.34504 10.8789 9.68474 10.7454L9.68549 10.7462ZM15.6052 12.4442L14.532 11.3717C15.0333 10.6571 15.3903 9.85156 15.5827 9.00017C15.3789 8.10747 14.9957 7.26553 14.4564 6.52554C13.917 5.78555 13.2328 5.16297 12.4454 4.69563C11.658 4.22828 10.7837 3.92595 9.87579 3.80699C8.96787 3.68804 8.04525 3.75496 7.16399 4.00367L5.98049 2.82017C6.91574 2.45267 7.93499 2.25017 8.99999 2.25017C13.044 2.25017 16.4085 5.16017 17.1142 9.00017C16.8844 10.2494 16.3679 11.4284 15.6052 12.4442ZM8.79224 5.63117C9.26962 5.60167 9.74783 5.67397 10.1951 5.84328C10.6425 6.0126 11.0487 6.27505 11.3869 6.61326C11.7251 6.95146 11.9876 7.35769 12.1569 7.80501C12.3262 8.25234 12.3985 8.73054 12.369 9.20792L8.79149 5.63117H8.79224Z" fill="#A2A5AB"/>
</svg>