<svg xmlns="http://www.w3.org/2000/svg" width="35" height="35" viewBox="0 0 35 35" fill="none">
  <path d="M34.0812 14.0008C31.2484 14.1922 27.207 16.9922 25.1617 17.9109C23.5703 18.6273 22.1976 19.2453 21 19.2453C19.764 19.2453 19.5781 18.3594 19.8351 16.407C19.8953 15.9695 20.475 12.0758 17.5 12.2453C16.1273 12.3273 13.9836 13.6015 8.23045 19.1359L10.5 13.4648C12.1625 9.31405 7.59061 5.17967 3.40701 7.84295L0.404668 9.86092C-1.90438e-05 10.118 -0.120332 10.6594 0.1367 11.0695L1.07732 12.5461C1.33436 12.9562 1.87576 13.0765 2.28592 12.814L5.45779 10.6867C6.46404 10.0469 7.68358 11.0805 7.24608 12.1687L1.87576 25.6C1.50389 26.5242 2.02342 28.0008 3.49998 28.0008C3.95389 28.0008 4.40233 27.8258 4.73592 27.4867C7.04373 25.1789 13.1961 19.2453 16.2859 16.7789C16.1656 18.3375 16.1711 20 17.4125 21.3617C18.2492 22.2805 19.4523 22.7453 20.9945 22.7453C22.9414 22.7453 24.7133 21.9469 26.589 21.1047C28.3937 20.2953 32.0031 17.6812 34.1578 17.5062C34.6226 17.468 34.989 17.107 34.989 16.6422V14.8867C35 14.389 34.5789 13.968 34.0812 14.0008Z" fill="white"/>
</svg>