<svg xmlns="http://www.w3.org/2000/svg" width="20" height="21" viewBox="0 0 20 21" fill="none">
  <path d="M12.9184 17.1667C12.3671 18.4853 11.3186 19.5337 10 20.085C8.68144 19.5337 7.63301 18.4853 7.08171 17.1667H8.96504C9.23671 17.5742 9.58754 17.9267 10 18.2025C10.4125 17.9275 10.7634 17.5742 11.0359 17.1667H12.9184ZM15 12.8375L16.6667 14.7275V16.3334H3.33337V14.7275L5.00004 12.8375V8.00002C5.00004 5.09752 7.08671 2.62752 10 1.71252C12.9134 2.62752 15 5.09752 15 8.00002V12.8375ZM14.3917 14.6667L13.3334 13.4667V8.00002C13.3334 6.06836 12.025 4.30836 10 3.48336C7.97504 4.30836 6.66671 6.06752 6.66671 8.00002V13.4667L5.60837 14.6667H14.3917ZM10 9.66669C9.55801 9.66669 9.13409 9.4911 8.82153 9.17854C8.50897 8.86598 8.33337 8.44205 8.33337 8.00002C8.33337 7.558 8.50897 7.13407 8.82153 6.82151C9.13409 6.50895 9.55801 6.33336 10 6.33336C10.4421 6.33336 10.866 6.50895 11.1786 6.82151C11.4911 7.13407 11.6667 7.558 11.6667 8.00002C11.6667 8.44205 11.4911 8.86598 11.1786 9.17854C10.866 9.4911 10.4421 9.66669 10 9.66669Z" fill="white"/>
</svg>