<svg width="42" height="42" viewBox="0 0 42 42" fill="none" xmlns="http://www.w3.org/2000/svg">
<path d="M4.52573 26.9639L12.049 34.4871C12.2112 34.65 12.4041 34.7791 12.6164 34.8671C12.8287 34.9551 13.0564 35.0002 13.2862 34.9999H34.288V31.4999H22.1115L34.75 18.8614C36.115 17.4981 36.115 15.2756 34.75 13.9124L26.0857 5.24988C25.4287 4.59501 24.5389 4.22729 23.6112 4.22729C22.6836 4.22729 21.7938 4.59501 21.1367 5.24988L12.8242 13.5606L4.50473 22.0359C3.86072 22.6957 3.50196 23.5822 3.50589 24.5042C3.50982 25.4262 3.87612 26.3096 4.52573 26.9639V26.9639ZM23.6112 7.72438L32.2737 16.3869L27.7482 20.9124L19.0857 12.2499L23.6112 7.72438ZM15.311 16.0229L16.6112 14.7244L25.2737 23.3869L17.299 31.3616C17.2564 31.4056 17.2161 31.4518 17.1782 31.4999H14.0107L7.00198 24.4876L15.311 16.0229V16.0229Z" fill="white"/>
</svg>
