<svg width="12" height="12" viewBox="0 0 12 12" fill="none" xmlns="http://www.w3.org/2000/svg">
<path fill-rule="evenodd" clip-rule="evenodd" d="M12 6C12 9.31371 9.31371 12 6 12C2.68629 12 0 9.31371 0 6C0 2.68629 2.68629 0 6 0C9.31371 0 12 2.68629 12 6ZM9.15338 3.52532C9.23976 3.39326 9.20274 3.21619 9.07068 3.12981C8.93863 3.04343 8.76155 3.08045 8.67518 3.21251L5.4119 8.20128L3.27257 6.35164C3.15321 6.24843 2.97278 6.26153 2.86957 6.3809C2.76637 6.50027 2.77947 6.6807 2.89884 6.7839L5.2853 8.84721C5.34764 8.90112 5.43022 8.92547 5.51184 8.91403C5.59345 8.90258 5.66615 8.85645 5.71127 8.78749L9.15338 3.52532Z" fill="#2EB358"/>
</svg>
