<?xml version="1.0" encoding="UTF-8"?>
<svg xmlns="http://www.w3.org/2000/svg" xmlns:xlink="http://www.w3.org/1999/xlink" width="163pt" height="140pt" viewBox="0 0 163 140" version="1.1">
<g id="surface1">
<path style=" stroke:none;fill-rule:nonzero;fill:rgb(0%,0%,0%);fill-opacity:1;" d="M 54.1875 19.574219 C 49.421875 21.183594 41.90625 24.867188 37.570312 27.632812 C 33.234375 30.394531 28.035156 32.925781 26.15625 33.386719 C 19.21875 35 15.894531 43.980469 15.460938 61.480469 C 15.316406 75.988281 27.457031 88.652344 47.976562 95.328125 C 68.207031 102.007812 83.234375 99.472656 84.96875 89.34375 C 85.691406 84.507812 85.835938 84.507812 86.992188 88.882812 C 88.148438 93.027344 88.148438 93.027344 87.714844 88.652344 C 87.570312 86.117188 86.414062 84.046875 85.257812 84.046875 C 84.101562 84.046875 83.089844 82.664062 83.089844 81.28125 C 83.089844 78.289062 79.042969 73.222656 74.851562 70.691406 C 70.375 68.15625 72.105469 71.152344 77.742188 75.757812 C 85.257812 82.203125 83.089844 81.742188 68.351562 73.453125 C 52.019531 64.472656 46.53125 58.488281 45.375 49.277344 C 43.785156 36.152344 50.578125 25.097656 63.292969 19.574219 C 72.394531 15.425781 65.460938 15.65625 54.1875 19.574219 Z M 54.1875 19.574219 "/>
<path style=" stroke:none;fill-rule:nonzero;fill:rgb(0%,0%,0%);fill-opacity:1;" d="M 95.371094 41.449219 C 89.449219 42.367188 83.234375 43.980469 81.789062 44.902344 C 79.621094 46.28125 79.332031 46.050781 80.199219 43.75 C 80.921875 41.90625 80.777344 41.21875 79.765625 42.136719 C 77.453125 44.671875 78.753906 55.03125 81.789062 58.71875 C 83.378906 60.328125 87.425781 63.09375 91.039062 64.703125 C 98.550781 67.925781 107.945312 75.066406 111.703125 80.132812 C 115.890625 86.117188 114.878906 95.558594 109.390625 101.085938 C 99.707031 110.527344 86.703125 113.519531 59.96875 112.136719 C 46.53125 111.449219 33.523438 109.835938 31.066406 108.453125 C 26.878906 105.921875 26.878906 105.921875 32.511719 106.84375 C 35.691406 107.53125 42.484375 108.453125 47.6875 109.144531 C 55.921875 110.296875 55.488281 109.835938 44.074219 106.84375 C 22.109375 101.085938 17.195312 107.761719 36.992188 116.972656 C 67.628906 131.019531 109.535156 128.257812 125.285156 110.988281 C 127.453125 108.453125 131.210938 104.769531 133.375 102.699219 C 138.289062 97.863281 143.058594 86.117188 143.058594 78.519531 C 143.058594 70 136.265625 55.722656 130.632812 52.5 C 127.164062 50.65625 126.296875 49.046875 127.597656 47.664062 C 128.753906 46.511719 128.320312 46.050781 126.441406 46.972656 C 124.851562 47.433594 119.359375 46.742188 114.15625 45.132812 C 107.222656 42.828125 105.632812 41.90625 108.378906 40.988281 C 113.433594 39.375 108.523438 39.375 95.371094 41.449219 Z M 95.371094 41.449219 "/>
</g>
</svg>
