<svg width="24" height="25" viewBox="0 0 24 25" fill="none" xmlns="http://www.w3.org/2000/svg">
<path d="M11.9996 2.675L22.0571 22.7195H1.94365L12.0011 2.675H11.9996ZM11.9996 0.5C11.4821 0.5 10.9646 0.8495 10.5731 1.547L0.329648 21.9635C-0.454852 23.3585 0.212648 24.5 1.81315 24.5H22.1876C23.7881 24.5 24.4556 23.3585 23.6711 21.9635L13.4276 1.547C13.0346 0.8495 12.5186 0.5 12.0011 0.5L11.9996 0.5Z" fill="white"/>
<path d="M13.5 20C13.5 20.828 12.828 21.5 12 21.5C11.172 21.5 10.5 20.828 10.5 20C10.5 19.172 11.172 18.5 12 18.5C12.828 18.5 13.5 19.172 13.5 20Z" fill="white"/>
<path d="M12 17C11.172 17 10.5 16.328 10.5 15.5V11C10.5 10.172 11.172 9.5 12 9.5C12.828 9.5 13.5 10.172 13.5 11V15.5C13.5 16.328 12.828 17 12 17Z" fill="white"/>
</svg>
